<svg width="110" height="34" viewBox="0 0 110 34" fill="none" xmlns="http://www.w3.org/2000/svg">
<g filter="url(#filter0_d)">
<rect width="101.641" height="25.667" rx="12.8335" transform="matrix(1 0 0 -1 4 25.667)" fill="#FFAE00"/>
<path d="M25.495 16.2139L28.475 9.16387H30.345L33.325 16.2139H31.245L30.735 14.9639H28.035L27.535 16.2139H25.495ZM28.605 13.4539H30.175L29.395 11.4639L28.605 13.4539ZM35.8304 16.3339C35.1637 16.3339 34.597 16.0772 34.1304 15.5639C33.6704 15.0439 33.4404 14.3605 33.4404 13.5139C33.4404 12.6605 33.6704 11.9772 34.1304 11.4639C34.5904 10.9439 35.1537 10.6839 35.8204 10.6839C36.4737 10.6839 37.027 10.9439 37.4804 11.4639V8.91387H39.3804V16.2139H37.4804V15.4939C37.0204 16.0539 36.4704 16.3339 35.8304 16.3339ZM35.6204 14.3939C35.8404 14.6272 36.1037 14.7439 36.4104 14.7439C36.717 14.7439 36.977 14.6272 37.1904 14.3939C37.4037 14.1605 37.5104 13.8605 37.5104 13.4939C37.5104 13.1405 37.4037 12.8505 37.1904 12.6239C36.977 12.3905 36.717 12.2739 36.4104 12.2739C36.097 12.2739 35.8337 12.3905 35.6204 12.6239C35.407 12.8572 35.3004 13.1539 35.3004 13.5139C35.3004 13.8672 35.407 14.1605 35.6204 14.3939ZM42.5882 16.3339C41.9215 16.3339 41.3548 16.0772 40.8882 15.5639C40.4282 15.0439 40.1982 14.3605 40.1982 13.5139C40.1982 12.6605 40.4282 11.9772 40.8882 11.4639C41.3482 10.9439 41.9115 10.6839 42.5782 10.6839C43.2315 10.6839 43.7848 10.9439 44.2382 11.4639V8.91387H46.1382V16.2139H44.2382V15.4939C43.7782 16.0539 43.2282 16.3339 42.5882 16.3339ZM42.3782 14.3939C42.5982 14.6272 42.8615 14.7439 43.1682 14.7439C43.4748 14.7439 43.7348 14.6272 43.9482 14.3939C44.1615 14.1605 44.2682 13.8605 44.2682 13.4939C44.2682 13.1405 44.1615 12.8505 43.9482 12.6239C43.7348 12.3905 43.4748 12.2739 43.1682 12.2739C42.8548 12.2739 42.5915 12.3905 42.3782 12.6239C42.1648 12.8572 42.0582 13.1539 42.0582 13.5139C42.0582 13.8672 42.1648 14.1605 42.3782 14.3939ZM52.0794 16.3239C50.8661 16.3239 50.2594 15.7272 50.2594 14.5339V12.3339H49.6194V10.8039H50.2594V9.43387H52.1594V10.8039H53.4194V12.3339H52.1594V14.1639C52.1594 14.5239 52.3328 14.7039 52.6794 14.7039C52.9061 14.7039 53.1461 14.6439 53.3994 14.5239V16.0139C53.0328 16.2205 52.5928 16.3239 52.0794 16.3239ZM56.8496 16.3439C55.9962 16.3439 55.2862 16.0705 54.7196 15.5239C54.1529 14.9705 53.8696 14.3005 53.8696 13.5139C53.8696 12.7339 54.1529 12.0672 54.7196 11.5139C55.2929 10.9605 56.0096 10.6839 56.8696 10.6839C57.7229 10.6839 58.4329 10.9605 58.9996 11.5139C59.5662 12.0605 59.8496 12.7272 59.8496 13.5139C59.8496 14.2939 59.5629 14.9605 58.9896 15.5139C58.4229 16.0672 57.7096 16.3439 56.8496 16.3439ZM56.8696 14.7339C57.2096 14.7339 57.4829 14.6172 57.6896 14.3839C57.8962 14.1505 57.9996 13.8605 57.9996 13.5139C57.9996 13.1805 57.8896 12.8939 57.6696 12.6539C57.4496 12.4139 57.1762 12.2939 56.8496 12.2939C56.5096 12.2939 56.2362 12.4105 56.0296 12.6439C55.8229 12.8772 55.7196 13.1672 55.7196 13.5139C55.7196 13.8472 55.8296 14.1339 56.0496 14.3739C56.2696 14.6139 56.5429 14.7339 56.8696 14.7339ZM66.0355 16.3439C65.2288 16.3439 64.5555 16.0705 64.0155 15.5239C63.4755 14.9705 63.2055 14.3005 63.2055 13.5139C63.2055 12.7339 63.4788 12.0705 64.0255 11.5239C64.5722 10.9705 65.2655 10.6939 66.1055 10.6939C67.1388 10.6939 67.9088 11.0972 68.4155 11.9039L67.1455 12.8239C66.8922 12.4705 66.5655 12.2939 66.1655 12.2939C65.8255 12.2939 65.5555 12.4105 65.3555 12.6439C65.1555 12.8772 65.0555 13.1672 65.0555 13.5139C65.0555 13.8672 65.1555 14.1605 65.3555 14.3939C65.5555 14.6272 65.8155 14.7439 66.1355 14.7439C66.3488 14.7439 66.5288 14.6972 66.6755 14.6039C66.8288 14.5105 66.9888 14.3672 67.1555 14.1739L68.4455 15.1039C67.8855 15.9305 67.0822 16.3439 66.0355 16.3439ZM70.6689 16.3339C70.1355 16.3339 69.6989 16.1872 69.3589 15.8939C69.0189 15.5939 68.8489 15.1772 68.8489 14.6439C68.8489 14.0972 69.0389 13.6772 69.4189 13.3839C69.7989 13.0905 70.3155 12.9439 70.9689 12.9439C71.4422 12.9439 71.8755 13.0139 72.2689 13.1539V13.0639C72.2689 12.4772 71.9089 12.1839 71.1889 12.1839C70.7022 12.1839 70.2055 12.2839 69.6989 12.4839L69.3089 11.1439C69.9889 10.8639 70.7189 10.7239 71.4989 10.7239C72.4322 10.7239 73.1189 10.9439 73.5589 11.3839C73.9455 11.7639 74.1389 12.3372 74.1389 13.1039V16.2139H72.2589V15.6539C71.8522 16.1072 71.3222 16.3339 70.6689 16.3339ZM71.3489 15.1439C71.6289 15.1439 71.8555 15.0639 72.0289 14.9039C72.2022 14.7372 72.2889 14.5205 72.2889 14.2539V14.0039C72.0689 13.9105 71.8222 13.8639 71.5489 13.8639C71.2755 13.8639 71.0622 13.9272 70.9089 14.0539C70.7555 14.1739 70.6789 14.3405 70.6789 14.5539C70.6789 14.7339 70.7389 14.8772 70.8589 14.9839C70.9855 15.0905 71.1489 15.1439 71.3489 15.1439ZM75.1052 16.2139V10.8039H77.0052V11.8939C77.3519 11.0739 77.9219 10.6805 78.7152 10.7139V12.7139H78.5552C77.5219 12.7139 77.0052 13.3205 77.0052 14.5339V16.2139H75.1052ZM81.5325 16.3239C80.3192 16.3239 79.7125 15.7272 79.7125 14.5339V12.3339H79.0725V10.8039H79.7125V9.43387H81.6125V10.8039H82.8725V12.3339H81.6125V14.1639C81.6125 14.5239 81.7859 14.7039 82.1325 14.7039C82.3592 14.7039 82.5992 14.6439 82.8525 14.5239V16.0139C82.4859 16.2205 82.0459 16.3239 81.5325 16.3239Z" fill="black"/>
</g>
<defs>
<filter id="filter0_d" x="0" y="0" width="109.641" height="33.667" filterUnits="userSpaceOnUse" color-interpolation-filters="sRGB">
<feFlood flood-opacity="0" result="BackgroundImageFix"/>
<feColorMatrix in="SourceAlpha" type="matrix" values="0 0 0 0 0 0 0 0 0 0 0 0 0 0 0 0 0 0 127 0"/>
<feOffset dy="4"/>
<feGaussianBlur stdDeviation="2"/>
<feColorMatrix type="matrix" values="0 0 0 0 0 0 0 0 0 0 0 0 0 0 0 0 0 0 0.25 0"/>
<feBlend mode="normal" in2="BackgroundImageFix" result="effect1_dropShadow"/>
<feBlend mode="normal" in="SourceGraphic" in2="effect1_dropShadow" result="shape"/>
</filter>
</defs>
</svg>
