<?xml version="1.0" encoding="utf-8"?>
<!-- Generator: Adobe Illustrator 23.1.0, SVG Export Plug-In . SVG Version: 6.00 Build 0)  -->
<svg version="1.1" xmlns="http://www.w3.org/2000/svg" xmlns:xlink="http://www.w3.org/1999/xlink" x="0px" y="0px"
	 viewBox="0 0 190 190" style="enable-background:new 0 0 190 190;" xml:space="preserve">
<style type="text/css">
	.st0{fill:#9D998E;}
</style>
<g id="Слой_2">
</g>
<g id="Слой_1">
	<g>
		<path class="st0" d="M132.3,44.9H57.7c-8.4,0-15.3,6.9-15.3,15.3v52c0,8.4,6.9,15.3,15.3,15.3h74.7c8.4,0,15.3-6.9,15.3-15.3v-52
			C147.6,51.7,140.8,44.9,132.3,44.9z M57.7,53.2h74.7c3.9,0,6.9,3.1,6.9,6.9v43.7l-22-25.1c-3.7-4.3-10.3-4.3-14,0l-18.8,21.8
			l-6.9-7.6c-3.4-3.9-9.4-3.9-12.8,0l-13.8,15.3v-48C50.7,56.3,53.8,53.2,57.7,53.2z"/>
		<circle class="st0" cx="70.9" cy="71.6" r="8.3"/>
	</g>
	<g>
		<path class="st0" d="M43.5,145.1v-12.4h3.2l5.1,6.5v-6.5h3.4v12.4h-3l-5.3-6.8v6.8H43.5z"/>
		<path class="st0" d="M68.4,143.4c-1.3,1.3-2.9,1.9-4.8,1.9c-1.9,0-3.5-0.6-4.7-1.9c-1.3-1.2-1.9-2.8-1.9-4.6
			c0-1.8,0.6-3.3,1.9-4.6c1.3-1.2,2.9-1.9,4.8-1.9c1.9,0,3.5,0.6,4.7,1.9s1.9,2.8,1.9,4.6C70.3,140.7,69.6,142.2,68.4,143.4z
			 M63.6,142.2c0.9,0,1.7-0.3,2.3-1c0.6-0.6,0.9-1.4,0.9-2.4c0-0.9-0.3-1.7-0.9-2.4c-0.6-0.7-1.4-1-2.3-1c-0.9,0-1.7,0.3-2.3,1
			c-0.6,0.6-0.9,1.4-0.9,2.4c0,0.9,0.3,1.7,0.9,2.4C61.9,141.9,62.7,142.2,63.6,142.2z"/>
		<path class="st0" d="M77,145.1v-12.4h5.3c1.6,0,2.8,0.4,3.8,1.2c0.9,0.8,1.4,1.8,1.4,3.2c0,1.4-0.5,2.5-1.5,3.3s-2.3,1.2-3.9,1.2
			h-1.7v3.5H77z M80.4,138.8H82c0.6,0,1.1-0.1,1.4-0.4c0.3-0.3,0.5-0.7,0.5-1.2c0-0.5-0.2-0.9-0.5-1.2c-0.3-0.3-0.8-0.4-1.5-0.4
			h-1.6V138.8z"/>
		<path class="st0" d="M88.9,145.1v-12.4h3.4v12.4H88.9z"/>
		<path class="st0" d="M100.6,145.3c-1.8,0-3.3-0.6-4.5-1.8c-1.2-1.2-1.8-2.8-1.8-4.6c0-1.8,0.6-3.3,1.9-4.6
			c1.2-1.2,2.8-1.9,4.7-1.9c2.2,0,3.9,0.9,5.2,2.6l-2.5,1.9c-0.8-1-1.7-1.4-2.7-1.4c-0.9,0-1.6,0.3-2.1,1c-0.6,0.6-0.8,1.4-0.8,2.4
			c0,0.9,0.3,1.7,0.8,2.4c0.6,0.6,1.3,0.9,2.1,0.9c0.6,0,1.1-0.1,1.5-0.4c0.4-0.3,0.8-0.6,1.3-1.1l2.6,1.8c-0.6,0.9-1.4,1.6-2.3,2.1
			C103,145.1,101.9,145.3,100.6,145.3z"/>
		<path class="st0" d="M116,145.1v-4.6l-4.7-7.7h3.9l2.5,4.5l2.6-4.5h3.8l-4.7,7.7v4.7H116z"/>
		<path class="st0" d="M125.2,145.1v-12.4h10v2.9h-6.6v1.9h5.9v2.7h-5.9v2h6.7v2.9H125.2z"/>
		<path class="st0" d="M140.1,145.1v-9.4h-3.7v-3h10.9v3h-3.7v9.4H140.1z"/>
	</g>
</g>
</svg>
