<?xml version="1.0" encoding="utf-8"?>
<!-- Generator: Adobe Illustrator 23.1.0, SVG Export Plug-In . SVG Version: 6.00 Build 0)  -->
<svg version="1.1" id="Слой_1" xmlns="http://www.w3.org/2000/svg" xmlns:xlink="http://www.w3.org/1999/xlink" x="0px" y="0px"
	 viewBox="0 0 50 50" style="enable-background:new 0 0 50 50;" xml:space="preserve">
<style type="text/css">
	.st0{fill:#80C99B;}
	.st1{display:none;}
	.st2{display:inline;fill:#FFFFFF;}
	.st3{fill:#73B188;}
	.st4{fill:#F9FAFB;}
	.st5{fill:#FFFFFF;}
</style>
<g>
	<path class="st0" d="M1.41,30.39c0.23,0.13,0.23,0.35,0,0.48c-0.19,0.11-0.47,0.11-0.7,0.03c0.16,0.67,0.35,1.32,0.56,1.97
		c0.04,0.01,0.1,0.01,0.13,0.03c0.22,0.13,0.22,0.32,0.03,0.45c0.4,1.14,0.89,2.24,1.45,3.3c0.23-0.08,0.52-0.09,0.72,0.03
		c0.23,0.13,0.23,0.35,0,0.48c-0.11,0.06-0.25,0.09-0.39,0.09c0.62,1.09,1.31,2.13,2.08,3.11c0.17-0.01,0.35,0.01,0.48,0.08
		c0.23,0.13,0.23,0.35,0,0.48c-0.01,0-0.02,0-0.03,0.01c3.58,4.32,8.58,7.41,14.29,8.56c0-0.08,0.06-0.17,0.17-0.23
		c0.23-0.13,0.6-0.13,0.83,0c0.2,0.12,0.22,0.29,0.07,0.42c1.27,0.2,2.57,0.3,3.9,0.3c1.31,0,2.6-0.1,3.86-0.3
		c-0.16-0.13-0.15-0.31,0.06-0.43c0.23-0.13,0.6-0.13,0.83,0c0.12,0.07,0.17,0.15,0.17,0.24c5.71-1.14,10.73-4.23,14.31-8.54
		c-0.02-0.01-0.05-0.01-0.08-0.02c-0.23-0.13-0.23-0.35,0-0.48c0.15-0.09,0.34-0.1,0.53-0.07C48.01,36.15,50,30.81,50,25
		C50,11.19,38.81,0,25,0S0,11.19,0,25c0,1.85,0.21,3.65,0.59,5.39C0.82,30.26,1.18,30.26,1.41,30.39z M5.78,38.43
		c-0.23,0.13-0.6,0.13-0.83,0c-0.23-0.13-0.23-0.35,0-0.48c0.23-0.13,0.6-0.13,0.83,0C6.01,38.08,6.01,38.29,5.78,38.43z M7.96,42.2
		c-0.23,0.13-0.6,0.13-0.83,0c-0.23-0.13-0.23-0.35,0-0.48s0.6-0.13,0.83,0C8.19,41.85,8.19,42.07,7.96,42.2z M7.96,39.68
		c-0.23,0.13-0.6,0.13-0.83,0c-0.23-0.13-0.23-0.35,0-0.48s0.6-0.13,0.83,0C8.19,39.34,8.19,39.55,7.96,39.68z M7.96,37.17
		c-0.23,0.13-0.6,0.13-0.83,0c-0.23-0.13-0.23-0.35,0-0.48c0.23-0.13,0.6-0.13,0.83,0C8.19,36.82,8.19,37.04,7.96,37.17z
		 M10.13,43.45c-0.23,0.13-0.6,0.13-0.83,0c-0.23-0.13-0.23-0.35,0-0.48c0.23-0.13,0.6-0.13,0.83,0
		C10.36,43.11,10.36,43.32,10.13,43.45z M10.13,40.94c-0.23,0.13-0.6,0.13-0.83,0c-0.23-0.13-0.23-0.35,0-0.48
		c0.23-0.13,0.6-0.13,0.83,0C10.36,40.59,10.36,40.81,10.13,40.94z M10.13,38.43c-0.23,0.13-0.6,0.13-0.83,0
		c-0.23-0.13-0.23-0.35,0-0.48c0.23-0.13,0.6-0.13,0.83,0C10.36,38.08,10.36,38.29,10.13,38.43z M10.13,35.91
		c-0.23,0.13-0.6,0.13-0.83,0c-0.23-0.13-0.23-0.35,0-0.48c0.23-0.13,0.6-0.13,0.83,0C10.36,35.57,10.36,35.78,10.13,35.91z
		 M12.31,44.71c-0.23,0.13-0.6,0.13-0.83,0c-0.23-0.13-0.23-0.35,0-0.48c0.23-0.13,0.6-0.13,0.83,0
		C12.54,44.36,12.54,44.58,12.31,44.71z M12.31,42.2c-0.23,0.13-0.6,0.13-0.83,0c-0.23-0.13-0.23-0.35,0-0.48
		c0.23-0.13,0.6-0.13,0.83,0C12.54,41.85,12.54,42.07,12.31,42.2z M12.31,39.68c-0.23,0.13-0.6,0.13-0.83,0
		c-0.23-0.13-0.23-0.35,0-0.48c0.23-0.13,0.6-0.13,0.83,0S12.54,39.55,12.31,39.68z M12.31,37.17c-0.23,0.13-0.6,0.13-0.83,0
		c-0.23-0.13-0.23-0.35,0-0.48c0.23-0.13,0.6-0.13,0.83,0C12.54,36.82,12.54,37.04,12.31,37.17z M12.31,34.66
		c-0.23,0.13-0.6,0.13-0.83,0c-0.23-0.13-0.23-0.35,0-0.48c0.23-0.13,0.6-0.13,0.83,0C12.54,34.31,12.54,34.52,12.31,34.66z
		 M14.49,45.97c-0.23,0.13-0.6,0.13-0.83,0c-0.23-0.13-0.23-0.35,0-0.48c0.23-0.13,0.6-0.13,0.83,0
		C14.72,45.62,14.72,45.84,14.49,45.97z M14.49,43.45c-0.23,0.13-0.6,0.13-0.83,0c-0.23-0.13-0.23-0.35,0-0.48
		c0.23-0.13,0.6-0.13,0.83,0C14.72,43.11,14.72,43.32,14.49,43.45z M14.49,40.94c-0.23,0.13-0.6,0.13-0.83,0
		c-0.23-0.13-0.23-0.35,0-0.48c0.23-0.13,0.6-0.13,0.83,0C14.72,40.59,14.72,40.81,14.49,40.94z M14.49,38.43
		c-0.23,0.13-0.6,0.13-0.83,0s-0.23-0.35,0-0.48c0.23-0.13,0.6-0.13,0.83,0C14.72,38.08,14.72,38.29,14.49,38.43z M14.49,35.91
		c-0.23,0.13-0.6,0.13-0.83,0c-0.23-0.13-0.23-0.35,0-0.48c0.23-0.13,0.6-0.13,0.83,0C14.72,35.57,14.72,35.78,14.49,35.91z
		 M14.49,33.4c-0.23,0.13-0.6,0.13-0.83,0c-0.23-0.13-0.23-0.35,0-0.48c0.23-0.13,0.6-0.13,0.83,0
		C14.72,33.05,14.72,33.27,14.49,33.4z M16.67,47.23c-0.23,0.13-0.6,0.13-0.83,0c-0.23-0.13-0.23-0.35,0-0.48
		c0.23-0.13,0.6-0.13,0.83,0C16.9,46.88,16.9,47.09,16.67,47.23z M16.67,44.71c-0.23,0.13-0.6,0.13-0.83,0
		c-0.23-0.13-0.23-0.35,0-0.48c0.23-0.13,0.6-0.13,0.83,0C16.9,44.36,16.9,44.58,16.67,44.71z M16.67,42.2
		c-0.23,0.13-0.6,0.13-0.83,0c-0.23-0.13-0.23-0.35,0-0.48c0.23-0.13,0.6-0.13,0.83,0C16.9,41.85,16.9,42.07,16.67,42.2z
		 M16.67,39.68c-0.23,0.13-0.6,0.13-0.83,0c-0.23-0.13-0.23-0.35,0-0.48c0.23-0.13,0.6-0.13,0.83,0
		C16.9,39.34,16.9,39.55,16.67,39.68z M16.67,37.17c-0.23,0.13-0.6,0.13-0.83,0c-0.23-0.13-0.23-0.35,0-0.48
		c0.23-0.13,0.6-0.13,0.83,0C16.9,36.82,16.9,37.04,16.67,37.17z M16.67,34.66c-0.23,0.13-0.6,0.13-0.83,0
		c-0.23-0.13-0.23-0.35,0-0.48c0.23-0.13,0.6-0.13,0.83,0C16.9,34.31,16.9,34.52,16.67,34.66z M16.67,32.14
		c-0.23,0.13-0.6,0.13-0.83,0c-0.23-0.13-0.23-0.35,0-0.48c0.23-0.13,0.6-0.13,0.83,0C16.9,31.79,16.9,32.01,16.67,32.14z
		 M18.01,32.92c0.23-0.13,0.6-0.13,0.83,0c0.23,0.13,0.23,0.35,0,0.48c-0.23,0.13-0.6,0.13-0.83,0
		C17.78,33.27,17.78,33.05,18.01,32.92z M18.01,30.41c0.23-0.13,0.6-0.13,0.83,0c0.23,0.13,0.23,0.35,0,0.48
		c-0.23,0.13-0.6,0.13-0.83,0C17.78,30.75,17.78,30.54,18.01,30.41z M18.01,35.43c0.23-0.13,0.6-0.13,0.83,0
		c0.23,0.13,0.23,0.35,0,0.48c-0.23,0.13-0.6,0.13-0.83,0C17.78,35.78,17.78,35.57,18.01,35.43z M18.01,37.95
		c0.23-0.13,0.6-0.13,0.83,0c0.23,0.13,0.23,0.35,0,0.48c-0.23,0.13-0.6,0.13-0.83,0C17.78,38.29,17.78,38.08,18.01,37.95z
		 M18.01,40.46c0.23-0.13,0.6-0.13,0.83,0c0.23,0.13,0.23,0.35,0,0.48c-0.23,0.13-0.6,0.13-0.83,0
		C17.78,40.81,17.78,40.59,18.01,40.46z M18.01,42.97c0.23-0.13,0.6-0.13,0.83,0c0.23,0.13,0.23,0.35,0,0.48
		c-0.23,0.13-0.6,0.13-0.83,0C17.78,43.32,17.78,43.11,18.01,42.97z M18.01,45.49c0.23-0.13,0.6-0.13,0.83,0
		c0.23,0.13,0.23,0.35,0,0.48c-0.23,0.13-0.6,0.13-0.83,0C17.78,45.84,17.78,45.62,18.01,45.49z M23.22,48.5
		c-0.23,0.13-0.6,0.13-0.83,0c-0.23-0.13-0.23-0.35,0-0.48c0.23-0.13,0.6-0.13,0.83,0C23.45,48.15,23.45,48.36,23.22,48.5z
		 M25.39,49.75c-0.23,0.13-0.6,0.13-0.83,0c-0.23-0.13-0.23-0.35,0-0.48c0.23-0.13,0.6-0.13,0.83,0
		C25.62,49.4,25.62,49.62,25.39,49.75z M25.39,47.24c-0.23,0.13-0.6,0.13-0.83,0c-0.23-0.13-0.23-0.35,0-0.48
		c0.23-0.13,0.6-0.13,0.83,0C25.62,46.89,25.62,47.11,25.39,47.24z M27.57,48.5c-0.23,0.13-0.6,0.13-0.83,0
		c-0.23-0.13-0.23-0.35,0-0.48c0.23-0.13,0.6-0.13,0.83,0C27.8,48.15,27.8,48.36,27.57,48.5z M27.57,45.98
		c-0.23,0.13-0.6,0.13-0.83,0c-0.23-0.13-0.23-0.35,0-0.48c0.23-0.13,0.6-0.13,0.83,0C27.8,45.63,27.8,45.85,27.57,45.98z
		 M29.75,47.24c-0.23,0.13-0.6,0.13-0.83,0c-0.23-0.13-0.23-0.35,0-0.48c0.23-0.13,0.6-0.13,0.83,0
		C29.98,46.89,29.98,47.11,29.75,47.24z M29.75,44.72c-0.23,0.13-0.6,0.13-0.83,0c-0.23-0.13-0.23-0.35,0-0.48
		c0.23-0.13,0.6-0.13,0.83,0C29.98,44.38,29.98,44.59,29.75,44.72z M31.92,48.5c-0.23,0.13-0.6,0.13-0.83,0
		c-0.23-0.13-0.23-0.35,0-0.48c0.23-0.13,0.6-0.13,0.83,0C32.15,48.15,32.15,48.36,31.92,48.5z M31.92,45.98
		c-0.23,0.13-0.6,0.13-0.83,0c-0.23-0.13-0.23-0.35,0-0.48c0.23-0.13,0.6-0.13,0.83,0C32.15,45.63,32.15,45.85,31.92,45.98z
		 M31.92,43.47c-0.23,0.13-0.6,0.13-0.83,0c-0.23-0.13-0.23-0.35,0-0.48c0.23-0.13,0.6-0.13,0.83,0
		C32.15,43.12,32.15,43.34,31.92,43.47z M34.1,47.24c-0.23,0.13-0.6,0.13-0.83,0c-0.23-0.13-0.23-0.35,0-0.48
		c0.23-0.13,0.6-0.13,0.83,0C34.33,46.89,34.33,47.11,34.1,47.24z M34.1,44.72c-0.23,0.13-0.6,0.13-0.83,0
		c-0.23-0.13-0.23-0.35,0-0.48c0.23-0.13,0.6-0.13,0.83,0C34.33,44.38,34.33,44.59,34.1,44.72z M34.1,42.21
		c-0.23,0.13-0.6,0.13-0.83,0c-0.23-0.13-0.23-0.35,0-0.48c0.23-0.13,0.6-0.13,0.83,0C34.33,41.86,34.33,42.08,34.1,42.21z
		 M36.28,45.98c-0.23,0.13-0.6,0.13-0.83,0c-0.23-0.13-0.23-0.35,0-0.48c0.23-0.13,0.6-0.13,0.83,0
		C36.51,45.63,36.51,45.85,36.28,45.98z M36.28,43.47c-0.23,0.13-0.6,0.13-0.83,0c-0.23-0.13-0.23-0.35,0-0.48
		c0.23-0.13,0.6-0.13,0.83,0C36.51,43.12,36.51,43.34,36.28,43.47z M36.28,40.95c-0.23,0.13-0.6,0.13-0.83,0
		c-0.23-0.13-0.23-0.35,0-0.48c0.23-0.13,0.6-0.13,0.83,0C36.51,40.61,36.51,40.82,36.28,40.95z M41.98,39.22
		c0.23-0.13,0.6-0.13,0.83,0c0.23,0.13,0.23,0.35,0,0.48c-0.23,0.13-0.6,0.13-0.83,0C41.75,39.56,41.75,39.35,41.98,39.22z
		 M41.98,41.73c0.23-0.13,0.6-0.13,0.83,0c0.23,0.13,0.23,0.35,0,0.48c-0.23,0.13-0.6,0.13-0.83,0
		C41.75,42.08,41.75,41.86,41.98,41.73z M39.8,37.96c0.23-0.13,0.6-0.13,0.83,0c0.23,0.13,0.23,0.35,0,0.48
		c-0.23,0.13-0.6,0.13-0.83,0C39.57,38.31,39.57,38.09,39.8,37.96z M39.8,40.47c0.23-0.13,0.6-0.13,0.83,0
		c0.23,0.13,0.23,0.35,0,0.48c-0.23,0.13-0.6,0.13-0.83,0C39.57,40.82,39.57,40.61,39.8,40.47z M39.8,42.99
		c0.23-0.13,0.6-0.13,0.83,0c0.23,0.13,0.23,0.35,0,0.48c-0.23,0.13-0.6,0.13-0.83,0C39.57,43.34,39.57,43.12,39.8,42.99z
		 M37.62,36.7c0.23-0.13,0.6-0.13,0.83,0c0.23,0.13,0.23,0.35,0,0.48s-0.6,0.13-0.83,0C37.39,37.05,37.39,36.83,37.62,36.7z
		 M37.62,39.22c0.23-0.13,0.6-0.13,0.83,0c0.23,0.13,0.23,0.35,0,0.48c-0.23,0.13-0.6,0.13-0.83,0
		C37.39,39.56,37.39,39.35,37.62,39.22z M37.62,41.73c0.23-0.13,0.6-0.13,0.83,0c0.23,0.13,0.23,0.35,0,0.48
		c-0.23,0.13-0.6,0.13-0.83,0C37.39,42.08,37.39,41.86,37.62,41.73z M37.62,44.24c0.23-0.13,0.6-0.13,0.83,0
		c0.23,0.13,0.23,0.35,0,0.48c-0.23,0.13-0.6,0.13-0.83,0C37.39,44.59,37.39,44.38,37.62,44.24z M36.28,38.44
		c-0.23,0.13-0.6,0.13-0.83,0c-0.23-0.13-0.23-0.35,0-0.48c0.23-0.13,0.6-0.13,0.83,0C36.51,38.09,36.51,38.31,36.28,38.44z
		 M35.43,35.43c0.23-0.13,0.6-0.13,0.83,0c0.23,0.13,0.23,0.35,0,0.48c-0.23,0.13-0.6,0.13-0.83,0
		C35.2,35.78,35.2,35.56,35.43,35.43z M34.1,39.7c-0.23,0.13-0.6,0.13-0.83,0c-0.23-0.13-0.23-0.35,0-0.48
		c0.23-0.13,0.6-0.13,0.83,0C34.33,39.35,34.33,39.56,34.1,39.7z M33.25,34.18c0.23-0.13,0.6-0.13,0.83,0
		c0.23,0.13,0.23,0.35,0,0.48c-0.23,0.13-0.6,0.13-0.83,0C33.02,34.52,33.02,34.31,33.25,34.18z M33.25,36.69
		c0.23-0.13,0.6-0.13,0.83,0c0.23,0.13,0.23,0.35,0,0.48c-0.23,0.13-0.6,0.13-0.83,0C33.02,37.04,33.02,36.82,33.25,36.69z
		 M31.92,40.95c-0.23,0.13-0.6,0.13-0.83,0c-0.23-0.13-0.23-0.35,0-0.48c0.23-0.13,0.6-0.13,0.83,0
		C32.15,40.61,32.15,40.82,31.92,40.95z M31.07,32.92c0.23-0.13,0.6-0.13,0.83,0c0.23,0.13,0.23,0.35,0,0.48
		c-0.23,0.13-0.6,0.13-0.83,0C30.84,33.27,30.84,33.05,31.07,32.92z M31.07,35.43c0.23-0.13,0.6-0.13,0.83,0
		c0.23,0.13,0.23,0.35,0,0.48c-0.23,0.13-0.6,0.13-0.83,0C30.84,35.78,30.84,35.57,31.07,35.43z M31.07,37.95
		c0.23-0.13,0.6-0.13,0.83,0c0.23,0.13,0.23,0.35,0,0.48c-0.23,0.13-0.6,0.13-0.83,0C30.84,38.29,30.84,38.08,31.07,37.95z
		 M29.75,42.21c-0.23,0.13-0.6,0.13-0.83,0c-0.23-0.13-0.23-0.35,0-0.48c0.23-0.13,0.6-0.13,0.83,0
		C29.98,41.86,29.98,42.08,29.75,42.21z M28.9,31.66c0.23-0.13,0.6-0.13,0.83,0c0.23,0.13,0.23,0.35,0,0.48
		c-0.23,0.13-0.6,0.13-0.83,0C28.67,32.01,28.67,31.79,28.9,31.66z M28.89,34.18c0.23-0.13,0.6-0.13,0.83,0
		c0.23,0.13,0.23,0.35,0,0.48c-0.23,0.13-0.6,0.13-0.83,0C28.66,34.52,28.66,34.31,28.89,34.18z M28.89,36.69
		c0.23-0.13,0.6-0.13,0.83,0c0.23,0.13,0.23,0.35,0,0.48c-0.23,0.13-0.6,0.13-0.83,0C28.66,37.04,28.66,36.82,28.89,36.69z
		 M28.89,39.2c0.23-0.13,0.6-0.13,0.83,0c0.23,0.13,0.23,0.35,0,0.48c-0.23,0.13-0.6,0.13-0.83,0
		C28.66,39.55,28.66,39.34,28.89,39.2z M27.57,43.47c-0.23,0.13-0.6,0.13-0.83,0c-0.23-0.13-0.23-0.35,0-0.48
		c0.23-0.13,0.6-0.13,0.83,0C27.8,43.12,27.8,43.34,27.57,43.47z M26.72,30.4c0.23-0.13,0.6-0.13,0.83,0c0.23,0.13,0.23,0.35,0,0.48
		c-0.23,0.13-0.6,0.13-0.83,0C26.49,30.75,26.49,30.54,26.72,30.4z M26.72,32.92c0.23-0.13,0.6-0.13,0.83,0
		c0.23,0.13,0.23,0.35,0,0.48c-0.23,0.13-0.6,0.13-0.83,0C26.49,33.27,26.49,33.05,26.72,32.92z M26.72,35.43
		c0.23-0.13,0.6-0.13,0.83,0c0.23,0.13,0.23,0.35,0,0.48c-0.23,0.13-0.6,0.13-0.83,0C26.49,35.78,26.49,35.57,26.72,35.43z
		 M26.72,37.95c0.23-0.13,0.6-0.13,0.83,0c0.23,0.13,0.23,0.35,0,0.48c-0.23,0.13-0.6,0.13-0.83,0
		C26.49,38.29,26.49,38.08,26.72,37.95z M26.72,40.46c0.23-0.13,0.6-0.13,0.83,0c0.23,0.13,0.23,0.35,0,0.48
		c-0.23,0.13-0.6,0.13-0.83,0C26.49,40.81,26.49,40.59,26.72,40.46z M25.39,44.72c-0.23,0.13-0.6,0.13-0.83,0
		c-0.23-0.13-0.23-0.35,0-0.48c0.23-0.13,0.6-0.13,0.83,0C25.62,44.38,25.62,44.59,25.39,44.72z M24.54,29.15
		c0.23-0.13,0.6-0.13,0.83,0c0.23,0.13,0.23,0.35,0,0.48c-0.23,0.13-0.6,0.13-0.83,0C24.31,29.5,24.31,29.28,24.54,29.15z
		 M24.54,31.66c0.23-0.13,0.6-0.13,0.83,0c0.23,0.13,0.23,0.35,0,0.48c-0.23,0.13-0.6,0.13-0.83,0
		C24.31,32.01,24.31,31.79,24.54,31.66z M24.54,34.18c0.23-0.13,0.6-0.13,0.83,0c0.23,0.13,0.23,0.35,0,0.48
		c-0.23,0.13-0.6,0.13-0.83,0C24.31,34.52,24.31,34.31,24.54,34.18z M24.54,36.69c0.23-0.13,0.6-0.13,0.83,0
		c0.23,0.13,0.23,0.35,0,0.48c-0.23,0.13-0.6,0.13-0.83,0C24.31,37.04,24.31,36.82,24.54,36.69z M24.54,39.2
		c0.23-0.13,0.6-0.13,0.83,0c0.23,0.13,0.23,0.35,0,0.48c-0.23,0.13-0.6,0.13-0.83,0C24.31,39.55,24.31,39.34,24.54,39.2z
		 M24.54,41.72c0.23-0.13,0.6-0.13,0.83,0c0.23,0.13,0.23,0.35,0,0.48c-0.23,0.13-0.6,0.13-0.83,0
		C24.31,42.07,24.31,41.85,24.54,41.72z M23.22,45.98c-0.23,0.13-0.6,0.13-0.83,0c-0.23-0.13-0.23-0.35,0-0.48
		c0.23-0.13,0.6-0.13,0.83,0C23.45,45.63,23.45,45.85,23.22,45.98z M22.36,27.89c0.23-0.13,0.6-0.13,0.83,0
		c0.23,0.13,0.23,0.35,0,0.48c-0.23,0.13-0.6,0.13-0.83,0C22.14,28.24,22.14,28.02,22.36,27.89z M22.36,30.41
		c0.23-0.13,0.6-0.13,0.83,0c0.23,0.13,0.23,0.35,0,0.48c-0.23,0.13-0.6,0.13-0.83,0C22.13,30.75,22.13,30.54,22.36,30.41z
		 M22.36,32.92c0.23-0.13,0.6-0.13,0.83,0c0.23,0.13,0.23,0.35,0,0.48c-0.23,0.13-0.6,0.13-0.83,0
		C22.13,33.27,22.13,33.05,22.36,32.92z M22.36,35.43c0.23-0.13,0.6-0.13,0.83,0c0.23,0.13,0.23,0.35,0,0.48
		c-0.23,0.13-0.6,0.13-0.83,0C22.13,35.78,22.13,35.57,22.36,35.43z M22.36,37.95c0.23-0.13,0.6-0.13,0.83,0
		c0.23,0.13,0.23,0.35,0,0.48c-0.23,0.13-0.6,0.13-0.83,0C22.13,38.29,22.13,38.08,22.36,37.95z M22.36,40.46
		c0.23-0.13,0.6-0.13,0.83,0c0.23,0.13,0.23,0.35,0,0.48c-0.23,0.13-0.6,0.13-0.83,0C22.13,40.81,22.13,40.59,22.36,40.46z
		 M22.36,42.97c0.23-0.13,0.6-0.13,0.83,0c0.23,0.13,0.23,0.35,0,0.48c-0.23,0.13-0.6,0.13-0.83,0S22.13,43.11,22.36,42.97z
		 M21.04,47.24c-0.23,0.13-0.6,0.13-0.83,0c-0.23-0.13-0.23-0.35,0-0.48c0.23-0.13,0.6-0.13,0.83,0
		C21.27,46.89,21.27,47.11,21.04,47.24z M20.19,26.63c0.23-0.13,0.6-0.13,0.83,0c0.23,0.13,0.23,0.35,0,0.48
		c-0.23,0.13-0.6,0.13-0.83,0C19.96,26.98,19.96,26.77,20.19,26.63z M20.19,29.15c0.23-0.13,0.6-0.13,0.83,0
		c0.23,0.13,0.23,0.35,0,0.48c-0.23,0.13-0.6,0.13-0.83,0C19.96,29.5,19.96,29.28,20.19,29.15z M20.19,31.66
		c0.23-0.13,0.6-0.13,0.83,0c0.23,0.13,0.23,0.35,0,0.48c-0.23,0.13-0.6,0.13-0.83,0C19.96,32.01,19.96,31.79,20.19,31.66z
		 M20.19,34.18c0.23-0.13,0.6-0.13,0.83,0c0.23,0.13,0.23,0.35,0,0.48c-0.23,0.13-0.6,0.13-0.83,0
		C19.96,34.52,19.96,34.31,20.19,34.18z M20.19,36.69c0.23-0.13,0.6-0.13,0.83,0c0.23,0.13,0.23,0.35,0,0.48
		c-0.23,0.13-0.6,0.13-0.83,0C19.96,37.04,19.96,36.82,20.19,36.69z M20.19,39.2c0.23-0.13,0.6-0.13,0.83,0
		c0.23,0.13,0.23,0.35,0,0.48c-0.23,0.13-0.6,0.13-0.83,0C19.96,39.55,19.96,39.34,20.19,39.2z M20.19,41.72
		c0.23-0.13,0.6-0.13,0.83,0c0.23,0.13,0.23,0.35,0,0.48c-0.23,0.13-0.6,0.13-0.83,0C19.96,42.07,19.96,41.85,20.19,41.72z
		 M20.19,44.23c0.23-0.13,0.6-0.13,0.83,0c0.23,0.13,0.23,0.35,0,0.48c-0.23,0.13-0.6,0.13-0.83,0
		C19.96,44.58,19.96,44.36,20.19,44.23z M18.86,48.5c-0.23,0.13-0.6,0.13-0.83,0c-0.23-0.13-0.23-0.35,0-0.48
		c0.23-0.13,0.6-0.13,0.83,0C19.09,48.15,19.09,48.36,18.86,48.5z M18.84,28.37c-0.23,0.13-0.6,0.13-0.83,0
		c-0.23-0.13-0.23-0.35,0-0.48c0.23-0.13,0.6-0.13,0.83,0C19.07,28.02,19.07,28.24,18.84,28.37z M17.99,25.36
		c0.23-0.13,0.6-0.13,0.83,0c0.23,0.13,0.23,0.35,0,0.48s-0.6,0.13-0.83,0C17.76,25.71,17.76,25.5,17.99,25.36z M16.67,29.63
		c-0.23,0.13-0.6,0.13-0.83,0c-0.23-0.13-0.23-0.35,0-0.48c0.23-0.13,0.6-0.13,0.83,0C16.9,29.28,16.9,29.5,16.67,29.63z
		 M15.82,24.11c0.23-0.13,0.6-0.13,0.83,0c0.23,0.13,0.23,0.35,0,0.48c-0.23,0.13-0.6,0.13-0.83,0
		C15.59,24.45,15.59,24.24,15.82,24.11z M15.81,26.62c0.23-0.13,0.6-0.13,0.83,0c0.23,0.13,0.23,0.35,0,0.48
		c-0.23,0.13-0.6,0.13-0.83,0C15.58,26.97,15.58,26.75,15.81,26.62z M14.49,30.89c-0.23,0.13-0.6,0.13-0.83,0
		c-0.23-0.13-0.23-0.35,0-0.48c0.23-0.13,0.6-0.13,0.83,0C14.72,30.54,14.72,30.75,14.49,30.89z M13.64,25.36
		c0.23-0.13,0.6-0.13,0.83,0c0.23,0.13,0.23,0.35,0,0.48c-0.23,0.13-0.6,0.13-0.83,0C13.41,25.71,13.41,25.5,13.64,25.36z
		 M13.64,27.88c0.23-0.13,0.6-0.13,0.83,0c0.23,0.13,0.23,0.35,0,0.48c-0.23,0.13-0.6,0.13-0.83,0
		C13.41,28.23,13.41,28.01,13.64,27.88z M12.31,32.14c-0.23,0.13-0.6,0.13-0.83,0c-0.23-0.13-0.23-0.35,0-0.48
		c0.23-0.13,0.6-0.13,0.83,0C12.54,31.79,12.54,32.01,12.31,32.14z M11.46,24.11c0.23-0.13,0.6-0.13,0.83,0
		c0.23,0.13,0.23,0.35,0,0.48c-0.23,0.13-0.6,0.13-0.83,0C11.23,24.46,11.23,24.24,11.46,24.11z M11.46,26.62
		c0.23-0.13,0.6-0.13,0.83,0c0.23,0.13,0.23,0.35,0,0.48c-0.23,0.13-0.6,0.13-0.83,0C11.23,26.97,11.23,26.75,11.46,26.62z
		 M11.46,29.13c0.23-0.13,0.6-0.13,0.83,0c0.23,0.13,0.23,0.35,0,0.48c-0.23,0.13-0.6,0.13-0.83,0
		C11.23,29.48,11.23,29.27,11.46,29.13z M10.13,33.4c-0.23,0.13-0.6,0.13-0.83,0c-0.23-0.13-0.23-0.35,0-0.48
		c0.23-0.13,0.6-0.13,0.83,0C10.36,33.05,10.36,33.27,10.13,33.4z M9.28,25.36c0.23-0.13,0.6-0.13,0.83,0
		c0.23,0.13,0.23,0.35,0,0.48c-0.23,0.13-0.6,0.13-0.83,0C9.05,25.71,9.05,25.5,9.28,25.36z M9.28,27.88c0.23-0.13,0.6-0.13,0.83,0
		c0.23,0.13,0.23,0.35,0,0.48c-0.23,0.13-0.6,0.13-0.83,0C9.05,28.23,9.05,28.01,9.28,27.88z M9.28,30.39c0.23-0.13,0.6-0.13,0.83,0
		c0.23,0.13,0.23,0.35,0,0.48c-0.23,0.13-0.6,0.13-0.83,0C9.05,30.74,9.05,30.52,9.28,30.39z M7.96,34.66
		c-0.23,0.13-0.6,0.13-0.83,0c-0.23-0.13-0.23-0.35,0-0.48c0.23-0.13,0.6-0.13,0.83,0C8.19,34.31,8.19,34.52,7.96,34.66z
		 M7.11,26.62c0.23-0.13,0.6-0.13,0.83,0c0.23,0.13,0.23,0.35,0,0.48c-0.23,0.13-0.6,0.13-0.83,0C6.88,26.97,6.88,26.75,7.11,26.62z
		 M7.11,29.13c0.23-0.13,0.6-0.13,0.83,0c0.23,0.13,0.23,0.35,0,0.48c-0.23,0.13-0.6,0.13-0.83,0C6.88,29.48,6.88,29.27,7.11,29.13z
		 M7.11,31.65c0.23-0.13,0.6-0.13,0.83,0c0.23,0.13,0.23,0.35,0,0.48c-0.23,0.13-0.6,0.13-0.83,0C6.88,32,6.88,31.78,7.11,31.65z
		 M5.78,35.91c-0.23,0.13-0.6,0.13-0.83,0c-0.23-0.13-0.23-0.35,0-0.48c0.23-0.13,0.6-0.13,0.83,0C6.01,35.57,6.01,35.78,5.78,35.91
		z M4.93,27.88c0.23-0.13,0.6-0.13,0.83,0c0.23,0.13,0.23,0.35,0,0.48c-0.23,0.13-0.6,0.13-0.83,0C4.7,28.23,4.7,28.01,4.93,27.88z
		 M4.93,30.39c0.23-0.13,0.6-0.13,0.83,0c0.23,0.13,0.23,0.35,0,0.48c-0.23,0.13-0.6,0.13-0.83,0C4.7,30.74,4.7,30.52,4.93,30.39z
		 M4.93,32.91c0.23-0.13,0.6-0.13,0.83,0c0.23,0.13,0.23,0.35,0,0.48c-0.23,0.13-0.6,0.13-0.83,0C4.7,33.25,4.7,33.04,4.93,32.91z
		 M2.75,29.13c0.23-0.13,0.6-0.13,0.83,0c0.23,0.13,0.23,0.35,0,0.48c-0.23,0.13-0.6,0.13-0.83,0C2.52,29.48,2.52,29.27,2.75,29.13z
		 M2.75,31.65c0.23-0.13,0.6-0.13,0.83,0c0.23,0.13,0.23,0.35,0,0.48c-0.23,0.13-0.6,0.13-0.83,0C2.52,32,2.52,31.78,2.75,31.65z
		 M2.75,34.16c0.23-0.13,0.6-0.13,0.83,0c0.23,0.13,0.23,0.35,0,0.48c-0.23,0.13-0.6,0.13-0.83,0C2.52,34.51,2.52,34.3,2.75,34.16z"
		/>
</g>
<g class="st1">
	<ellipse class="st2" cx="55.55" cy="39.26" rx="0.59" ry="0.34"/>
	<path class="st2" d="M52.96,40.28c-0.23,0.13-0.23,0.35,0,0.48c0.23,0.13,0.6,0.13,0.83,0c0.23-0.13,0.23-0.35,0-0.48
		C53.56,40.15,53.19,40.15,52.96,40.28z"/>
	<ellipse class="st2" cx="51.2" cy="41.78" rx="0.59" ry="0.34"/>
	<ellipse class="st2" cx="49.02" cy="43.03" rx="0.59" ry="0.34"/>
	<path class="st2" d="M46.43,44.05c-0.23,0.13-0.23,0.35,0,0.48c0.23,0.13,0.6,0.13,0.83,0c0.23-0.13,0.23-0.35,0-0.48
		C47.03,43.92,46.66,43.92,46.43,44.05z"/>
	<path class="st2" d="M45.09,45.31c-0.23-0.13-0.6-0.13-0.83,0c-0.23,0.13-0.23,0.35,0,0.48c0.23,0.13,0.6,0.13,0.83,0
		C45.32,45.65,45.32,45.44,45.09,45.31z"/>
	<path class="st2" d="M42.91,46.56c-0.23-0.13-0.6-0.13-0.83,0c-0.23,0.13-0.23,0.35,0,0.48c0.23,0.13,0.6,0.13,0.83,0
		C43.14,46.91,43.14,46.7,42.91,46.56z"/>
	<path class="st2" d="M40.73,47.82c-0.23-0.13-0.6-0.13-0.83,0c-0.23,0.13-0.23,0.35,0,0.48c0.23,0.13,0.6,0.13,0.83,0
		C40.96,48.17,40.96,47.95,40.73,47.82z"/>
	<path class="st2" d="M38.55,49.08c-0.23-0.13-0.6-0.13-0.83,0c-0.23,0.13-0.23,0.35,0,0.48c0.23,0.13,0.6,0.13,0.83,0
		C38.78,49.42,38.78,49.21,38.55,49.08z"/>
	<path class="st2" d="M36.38,50.33c-0.23-0.13-0.6-0.13-0.83,0c-0.23,0.13-0.23,0.35,0,0.48c0.23,0.13,0.6,0.13,0.83,0
		C36.61,50.68,36.61,50.47,36.38,50.33z"/>
	<path class="st2" d="M55.14,42.02c0.1-0.19,0.21-0.37,0.32-0.56c-0.11,0.01-0.23,0.03-0.31,0.08
		C54.91,41.67,54.91,41.88,55.14,42.02z"/>
	<path class="st2" d="M53.79,42.79c-0.23-0.13-0.6-0.13-0.83,0c-0.23,0.13-0.23,0.35,0,0.48c0.23,0.13,0.6,0.13,0.83,0
		C54.02,43.14,54.02,42.92,53.79,42.79z"/>
	<path class="st2" d="M51.62,44.05c-0.23-0.13-0.6-0.13-0.83,0c-0.23,0.13-0.23,0.35,0,0.48c0.23,0.13,0.6,0.13,0.83,0
		C51.85,44.4,51.85,44.18,51.62,44.05z"/>
	<path class="st2" d="M49.44,45.31c-0.23-0.13-0.6-0.13-0.83,0c-0.23,0.13-0.23,0.35,0,0.48c0.23,0.13,0.6,0.13,0.83,0
		C49.67,45.65,49.67,45.44,49.44,45.31z"/>
	<ellipse class="st2" cx="46.85" cy="46.8" rx="0.59" ry="0.34"/>
	<path class="st2" d="M45.09,47.82c-0.23-0.13-0.6-0.13-0.83,0c-0.23,0.13-0.23,0.35,0,0.48s0.6,0.13,0.83,0
		C45.32,48.17,45.32,47.95,45.09,47.82z"/>
	<path class="st2" d="M40.73,50.33c-0.23-0.13-0.6-0.13-0.83,0c-0.23,0.13-0.23,0.35,0,0.48c0.23,0.13,0.6,0.13,0.83,0
		C40.96,50.68,40.96,50.47,40.73,50.33z"/>
	<path class="st2" d="M42.91,49.08c-0.23-0.13-0.6-0.13-0.83,0c-0.23,0.13-0.23,0.35,0,0.48c0.23,0.13,0.6,0.13,0.83,0
		C43.14,49.42,43.14,49.21,42.91,49.08z"/>
	<path class="st2" d="M52.81,45.61c0.08-0.11,0.15-0.22,0.23-0.32c-0.02,0.01-0.06,0.01-0.08,0.02
		C52.82,45.39,52.77,45.5,52.81,45.61z"/>
	<path class="st2" d="M51.62,46.56c-0.23-0.13-0.6-0.13-0.83,0c-0.23,0.13-0.23,0.35,0,0.48c0.23,0.13,0.6,0.13,0.83,0
		S51.85,46.7,51.62,46.56z"/>
	<path class="st2" d="M49.44,47.82c-0.23-0.13-0.6-0.13-0.83,0c-0.23,0.13-0.23,0.35,0,0.48s0.6,0.13,0.83,0
		S49.67,47.95,49.44,47.82z"/>
	<path class="st2" d="M47.26,49.08c-0.23-0.13-0.6-0.13-0.83,0c-0.23,0.13-0.23,0.35,0,0.48c0.23,0.13,0.6,0.13,0.83,0
		C47.49,49.42,47.49,49.21,47.26,49.08z"/>
	<ellipse class="st2" cx="44.67" cy="50.57" rx="0.59" ry="0.34"/>
	<ellipse class="st2" cx="42.49" cy="51.83" rx="0.59" ry="0.34"/>
	<path class="st2" d="M46.43,51.59c-0.23,0.13-0.23,0.35,0,0.48c0.03,0.02,0.08,0.01,0.11,0.03c0.22-0.17,0.44-0.35,0.65-0.52
		C46.96,51.47,46.64,51.47,46.43,51.59z"/>
	<path class="st2" d="M45.09,53.33c0.12-0.07,0.17-0.16,0.17-0.25c-0.15,0.11-0.3,0.22-0.45,0.32
		C44.9,53.38,45.01,53.37,45.09,53.33z"/>
	<path class="st2" d="M45.09,52.85c-0.23-0.13-0.6-0.13-0.83,0c-0.23,0.13-0.23,0.35,0,0.48c0.15,0.09,0.36,0.1,0.55,0.07
		c0.15-0.11,0.3-0.21,0.45-0.32C45.25,52.99,45.19,52.91,45.09,52.85z"/>
	<ellipse class="st2" cx="22.78" cy="20.58" rx="0.59" ry="0.34"/>
	<path class="st2" d="M20.18,22.08c0.23,0.13,0.6,0.13,0.83,0c0.23-0.13,0.23-0.35,0-0.48c-0.23-0.13-0.6-0.13-0.83,0
		C19.95,21.73,19.95,21.95,20.18,22.08z"/>
	<ellipse class="st2" cx="18.42" cy="23.1" rx="0.59" ry="0.34"/>
	<path class="st2" d="M15.83,24.59c0.23,0.13,0.6,0.13,0.83,0c0.23-0.13,0.23-0.35,0-0.48c-0.23-0.13-0.6-0.13-0.83,0
		S15.6,24.46,15.83,24.59z"/>
	<path class="st2" d="M13.65,25.85c0.23,0.13,0.6,0.13,0.83,0c0.23-0.13,0.23-0.35,0-0.48c-0.23-0.13-0.6-0.13-0.83,0
		C13.42,25.5,13.42,25.72,13.65,25.85z"/>
	<path class="st2" d="M11.47,27.11c0.23,0.13,0.6,0.13,0.83,0c0.23-0.13,0.23-0.35,0-0.48c-0.23-0.13-0.6-0.13-0.83,0
		C11.24,26.76,11.24,26.98,11.47,27.11z"/>
	<path class="st2" d="M9.3,28.36c0.23,0.13,0.6,0.13,0.83,0c0.23-0.13,0.23-0.35,0-0.48c-0.23-0.13-0.6-0.13-0.83,0
		C9.07,28.02,9.07,28.23,9.3,28.36z"/>
	<ellipse class="st2" cx="7.54" cy="29.38" rx="0.59" ry="0.34"/>
	<path class="st2" d="M4.94,30.88c0.23,0.13,0.6,0.13,0.83,0c0.23-0.13,0.23-0.35,0-0.48c-0.23-0.13-0.6-0.13-0.83,0
		C4.71,30.53,4.71,30.75,4.94,30.88z"/>
	<path class="st2" d="M2.77,32.14c0.23,0.13,0.6,0.13,0.83,0c0.23-0.13,0.23-0.35,0-0.48c-0.23-0.13-0.6-0.13-0.83,0
		C2.54,31.79,2.54,32,2.77,32.14z"/>
	<path class="st2" d="M0.59,33.39c0.23,0.13,0.6,0.13,0.83,0c0.23-0.13,0.23-0.35,0-0.48c-0.23-0.13-0.6-0.13-0.83,0
		S0.36,33.26,0.59,33.39z"/>
	<path class="st2" d="M-1.59,34.65c0.23,0.13,0.6,0.13,0.83,0c0.23-0.13,0.23-0.35,0-0.48c-0.23-0.13-0.6-0.13-0.83,0
		C-1.82,34.3-1.82,34.52-1.59,34.65z"/>
	<path class="st2" d="M-3.76,35.91c0.23,0.13,0.6,0.13,0.83,0c0.23-0.13,0.23-0.35,0-0.48c-0.23-0.13-0.6-0.13-0.83,0
		C-3.99,35.56-3.99,35.77-3.76,35.91z"/>
	<path class="st2" d="M-5.11,36.68c-0.23-0.13-0.6-0.13-0.83,0c-0.23,0.13-0.23,0.35,0,0.48c0.23,0.13,0.6,0.13,0.83,0
		C-4.88,37.03-4.88,36.82-5.11,36.68z"/>
	<path class="st2" d="M26.72,20.82c0.23,0.13,0.6,0.13,0.83,0c0.23-0.13,0.23-0.35,0-0.48c-0.23-0.13-0.6-0.13-0.83,0
		C26.49,20.47,26.49,20.69,26.72,20.82z"/>
	<path class="st2" d="M24.54,22.08c0.23,0.13,0.6,0.13,0.83,0c0.23-0.13,0.23-0.35,0-0.48c-0.23-0.13-0.6-0.13-0.83,0
		C24.31,21.73,24.31,21.95,24.54,22.08z"/>
	<path class="st2" d="M22.36,23.34c0.23,0.13,0.6,0.13,0.83,0c0.23-0.13,0.23-0.35,0-0.48c-0.23-0.13-0.6-0.13-0.83,0
		C22.13,22.99,22.13,23.2,22.36,23.34z"/>
	<path class="st2" d="M20.18,24.59c0.23,0.13,0.6,0.13,0.83,0c0.23-0.13,0.23-0.35,0-0.48c-0.23-0.13-0.6-0.13-0.83,0
		C19.95,24.25,19.95,24.46,20.18,24.59z"/>
	<path class="st2" d="M18.01,25.85c0.23,0.13,0.6,0.13,0.83,0c0.23-0.13,0.23-0.35,0-0.48c-0.23-0.13-0.6-0.13-0.83,0
		C17.78,25.5,17.78,25.72,18.01,25.85z"/>
	<ellipse class="st2" cx="16.24" cy="26.87" rx="0.59" ry="0.34"/>
	<path class="st2" d="M13.65,28.36c0.23,0.13,0.6,0.13,0.83,0c0.23-0.13,0.23-0.35,0-0.48c-0.23-0.13-0.6-0.13-0.83,0
		C13.42,28.02,13.42,28.23,13.65,28.36z"/>
	<path class="st2" d="M11.47,29.62c0.23,0.13,0.6,0.13,0.83,0c0.23-0.13,0.23-0.35,0-0.48c-0.23-0.13-0.6-0.13-0.83,0
		C11.24,29.27,11.24,29.49,11.47,29.62z"/>
	<path class="st2" d="M9.3,30.88c0.23,0.13,0.6,0.13,0.83,0c0.23-0.13,0.23-0.35,0-0.48c-0.23-0.13-0.6-0.13-0.83,0
		C9.07,30.53,9.07,30.75,9.3,30.88z"/>
	<path class="st2" d="M7.12,32.14c0.23,0.13,0.6,0.13,0.83,0c0.23-0.13,0.23-0.35,0-0.48c-0.23-0.13-0.6-0.13-0.83,0
		C6.89,31.79,6.89,32,7.12,32.14z"/>
	<path class="st2" d="M4.94,33.39c0.23,0.13,0.6,0.13,0.83,0c0.23-0.13,0.23-0.35,0-0.48c-0.23-0.13-0.6-0.13-0.83,0
		C4.71,33.04,4.71,33.26,4.94,33.39z"/>
	<path class="st2" d="M2.77,34.65c0.23,0.13,0.6,0.13,0.83,0c0.23-0.13,0.23-0.35,0-0.48c-0.23-0.13-0.6-0.13-0.83,0
		C2.54,34.3,2.54,34.52,2.77,34.65z"/>
	<ellipse class="st2" cx="1.01" cy="35.67" rx="0.59" ry="0.34"/>
	<path class="st2" d="M-1.59,37.16c0.23,0.13,0.6,0.13,0.83,0c0.23-0.13,0.23-0.35,0-0.48c-0.23-0.13-0.6-0.13-0.83,0
		C-1.82,36.82-1.82,37.03-1.59,37.16z"/>
	<path class="st2" d="M-3.76,38.42c0.23,0.13,0.6,0.13,0.83,0c0.23-0.13,0.23-0.35,0-0.48c-0.23-0.13-0.6-0.13-0.83,0
		C-3.99,38.07-3.99,38.29-3.76,38.42z"/>
	<ellipse class="st2" cx="-5.53" cy="39.44" rx="0.59" ry="0.34"/>
	<path class="st2" d="M28.89,22.08c0.23,0.13,0.6,0.13,0.83,0s0.23-0.35,0-0.48c-0.23-0.13-0.6-0.13-0.83,0
		C28.66,21.73,28.66,21.95,28.89,22.08z"/>
	<ellipse class="st2" cx="27.13" cy="23.1" rx="0.59" ry="0.34"/>
	<path class="st2" d="M24.54,24.59c0.23,0.13,0.6,0.13,0.83,0c0.23-0.13,0.23-0.35,0-0.48c-0.23-0.13-0.6-0.13-0.83,0
		C24.31,24.25,24.31,24.46,24.54,24.59z"/>
	<path class="st2" d="M22.36,25.85c0.23,0.13,0.6,0.13,0.83,0c0.23-0.13,0.23-0.35,0-0.48c-0.23-0.13-0.6-0.13-0.83,0
		C22.13,25.5,22.13,25.72,22.36,25.85z"/>
	<path class="st2" d="M20.18,27.11c0.23,0.13,0.6,0.13,0.83,0c0.23-0.13,0.23-0.35,0-0.48c-0.23-0.13-0.6-0.13-0.83,0
		C19.95,26.76,19.95,26.98,20.18,27.11z"/>
	<path class="st2" d="M18.01,28.36c0.23,0.13,0.6,0.13,0.83,0c0.23-0.13,0.23-0.35,0-0.48c-0.23-0.13-0.6-0.13-0.83,0
		C17.78,28.02,17.78,28.23,18.01,28.36z"/>
	<path class="st2" d="M15.83,29.62c0.23,0.13,0.6,0.13,0.83,0c0.23-0.13,0.23-0.35,0-0.48c-0.23-0.13-0.6-0.13-0.83,0
		C15.6,29.27,15.6,29.49,15.83,29.62z"/>
	<ellipse class="st2" cx="14.07" cy="30.64" rx="0.59" ry="0.34"/>
	<ellipse class="st2" cx="11.89" cy="31.9" rx="0.59" ry="0.34"/>
	<path class="st2" d="M9.3,33.39c0.23,0.13,0.6,0.13,0.83,0c0.23-0.13,0.23-0.35,0-0.48c-0.23-0.13-0.6-0.13-0.83,0
		C9.07,33.04,9.07,33.26,9.3,33.39z"/>
	<path class="st2" d="M7.12,34.65c0.23,0.13,0.6,0.13,0.83,0c0.23-0.13,0.23-0.35,0-0.48c-0.23-0.13-0.6-0.13-0.83,0
		C6.89,34.3,6.89,34.52,7.12,34.65z"/>
	<ellipse class="st2" cx="5.36" cy="35.67" rx="0.59" ry="0.34"/>
	<path class="st2" d="M2.77,37.16c0.23,0.13,0.6,0.13,0.83,0c0.23-0.13,0.23-0.35,0-0.48c-0.23-0.13-0.6-0.13-0.83,0
		C2.54,36.82,2.54,37.03,2.77,37.16z"/>
	<path class="st2" d="M0.59,38.42c0.23,0.13,0.6,0.13,0.83,0c0.23-0.13,0.23-0.35,0-0.48c-0.23-0.13-0.6-0.13-0.83,0
		C0.36,38.07,0.36,38.29,0.59,38.42z"/>
	<path class="st2" d="M-1.59,39.68c0.23,0.13,0.6,0.13,0.83,0c0.23-0.13,0.23-0.35,0-0.48c-0.23-0.13-0.6-0.13-0.83,0
		C-1.82,39.33-1.82,39.54-1.59,39.68z"/>
	<path class="st2" d="M-3.76,40.93c0.23,0.13,0.6,0.13,0.83,0c0.23-0.13,0.23-0.35,0-0.48c-0.23-0.13-0.6-0.13-0.83,0
		C-3.99,40.59-3.99,40.8-3.76,40.93z"/>
	<path class="st2" d="M-5.11,41.71c-0.07-0.04-0.15-0.04-0.24-0.06c0.09,0.17,0.19,0.33,0.28,0.5C-4.89,42.02-4.9,41.83-5.11,41.71z
		"/>
	<path class="st2" d="M31.09,23.35c0.23,0.13,0.6,0.13,0.83,0c0.23-0.13,0.23-0.35,0-0.48c-0.23-0.13-0.6-0.13-0.83,0
		C30.86,23,30.86,23.22,31.09,23.35z"/>
	<path class="st2" d="M29.74,24.13c-0.23-0.13-0.6-0.13-0.83,0c-0.23,0.13-0.23,0.35,0,0.48c0.23,0.13,0.6,0.13,0.83,0
		C29.97,24.47,29.97,24.26,29.74,24.13z"/>
	<path class="st2" d="M27.57,25.38c-0.23-0.13-0.6-0.13-0.83,0c-0.23,0.13-0.23,0.35,0,0.48c0.23,0.13,0.6,0.13,0.83,0
		C27.79,25.73,27.8,25.52,27.57,25.38z"/>
	<ellipse class="st2" cx="24.97" cy="26.88" rx="0.59" ry="0.34"/>
	<path class="st2" d="M23.21,27.9c-0.23-0.13-0.6-0.13-0.83,0c-0.23,0.13-0.23,0.35,0,0.48c0.23,0.13,0.6,0.13,0.83,0
		C23.44,28.25,23.44,28.03,23.21,27.9z"/>
	<path class="st2" d="M21.03,29.15c-0.23-0.13-0.6-0.13-0.83,0c-0.23,0.13-0.23,0.35,0,0.48c0.23,0.13,0.6,0.13,0.83,0
		C21.26,29.5,21.26,29.29,21.03,29.15z"/>
	<path class="st2" d="M18.86,30.41c-0.23-0.13-0.6-0.13-0.83,0c-0.23,0.13-0.23,0.35,0,0.48c0.23,0.13,0.6,0.13,0.83,0
		C19.09,30.76,19.09,30.54,18.86,30.41z"/>
	<path class="st2" d="M16.68,31.67c-0.23-0.13-0.6-0.13-0.83,0c-0.23,0.13-0.23,0.35,0,0.48c0.23,0.13,0.6,0.13,0.83,0
		C16.91,32.02,16.91,31.8,16.68,31.67z"/>
	<ellipse class="st2" cx="14.09" cy="33.17" rx="0.59" ry="0.34"/>
	<ellipse class="st2" cx="11.91" cy="34.42" rx="0.59" ry="0.34"/>
	<path class="st2" d="M10.15,35.44c-0.23-0.13-0.6-0.13-0.83,0c-0.23,0.13-0.23,0.35,0,0.48c0.23,0.13,0.6,0.13,0.83,0
		C10.38,35.79,10.38,35.57,10.15,35.44z"/>
	<ellipse class="st2" cx="7.56" cy="36.94" rx="0.59" ry="0.34"/>
	<path class="st2" d="M5.79,37.95c-0.23-0.13-0.6-0.13-0.83,0c-0.23,0.13-0.23,0.35,0,0.48c0.23,0.13,0.6,0.13,0.83,0
		S6.02,38.09,5.79,37.95z"/>
	<ellipse class="st2" cx="3.2" cy="39.45" rx="0.59" ry="0.34"/>
	<path class="st2" d="M1.44,40.47c-0.23-0.13-0.6-0.13-0.83,0c-0.23,0.13-0.23,0.35,0,0.48c0.23,0.13,0.6,0.13,0.83,0
		C1.67,40.81,1.67,40.6,1.44,40.47z"/>
	<path class="st2" d="M-0.74,41.72c-0.23-0.13-0.6-0.13-0.83,0c-0.23,0.13-0.23,0.35,0,0.48c0.23,0.13,0.6,0.13,0.83,0
		C-0.51,42.07-0.51,41.86-0.74,41.72z"/>
	<ellipse class="st2" cx="-3.33" cy="43.22" rx="0.59" ry="0.34"/>
	<path class="st2" d="M33.27,24.61c0.23,0.13,0.6,0.13,0.83,0c0.23-0.13,0.23-0.35,0-0.48c-0.23-0.13-0.6-0.13-0.83,0
		C33.04,24.26,33.04,24.47,33.27,24.61z"/>
	<path class="st2" d="M31.09,25.86c0.23,0.13,0.6,0.13,0.83,0c0.23-0.13,0.23-0.35,0-0.48c-0.23-0.13-0.6-0.13-0.83,0
		C30.86,25.52,30.86,25.73,31.09,25.86z"/>
	<path class="st2" d="M29.74,26.64c-0.23-0.13-0.6-0.13-0.83,0c-0.23,0.13-0.23,0.35,0,0.48c0.23,0.13,0.6,0.13,0.83,0
		C29.97,26.99,29.97,26.77,29.74,26.64z"/>
	<ellipse class="st2" cx="27.15" cy="28.14" rx="0.59" ry="0.34"/>
	<path class="st2" d="M25.39,29.15c-0.23-0.13-0.6-0.13-0.83,0c-0.23,0.13-0.23,0.35,0,0.48c0.23,0.13,0.6,0.13,0.83,0
		C25.62,29.5,25.62,29.29,25.39,29.15z"/>
	<ellipse class="st2" cx="22.79" cy="30.65" rx="0.59" ry="0.34"/>
	<path class="st2" d="M21.03,31.67c-0.23-0.13-0.6-0.13-0.83,0c-0.23,0.13-0.23,0.35,0,0.48c0.23,0.13,0.6,0.13,0.83,0
		C21.26,32.02,21.26,31.8,21.03,31.67z"/>
	<path class="st2" d="M18.86,32.92c-0.23-0.13-0.6-0.13-0.83,0c-0.23,0.13-0.23,0.35,0,0.48c0.23,0.13,0.6,0.13,0.83,0
		C19.09,33.27,19.09,33.06,18.86,32.92z"/>
	<path class="st2" d="M16.68,34.18c-0.23-0.13-0.6-0.13-0.83,0c-0.23,0.13-0.23,0.35,0,0.48c0.23,0.13,0.6,0.13,0.83,0
		C16.91,34.53,16.91,34.31,16.68,34.18z"/>
	<path class="st2" d="M14.5,35.44c-0.23-0.13-0.6-0.13-0.83,0s-0.23,0.35,0,0.48c0.23,0.13,0.6,0.13,0.83,0
		C14.73,35.79,14.73,35.57,14.5,35.44z"/>
	<path class="st2" d="M12.33,36.7c-0.23-0.13-0.6-0.13-0.83,0c-0.23,0.13-0.23,0.35,0,0.48c0.23,0.13,0.6,0.13,0.83,0
		C12.56,37.04,12.56,36.83,12.33,36.7z"/>
	<ellipse class="st2" cx="9.73" cy="38.19" rx="0.59" ry="0.34"/>
	<ellipse class="st2" cx="7.56" cy="39.45" rx="0.59" ry="0.34"/>
	<path class="st2" d="M5.79,40.47c-0.23-0.13-0.6-0.13-0.83,0c-0.23,0.13-0.23,0.35,0,0.48c0.23,0.13,0.6,0.13,0.83,0
		C6.02,40.81,6.02,40.6,5.79,40.47z"/>
	<ellipse class="st2" cx="3.2" cy="41.96" rx="0.59" ry="0.34"/>
	<ellipse class="st2" cx="1.02" cy="43.22" rx="0.59" ry="0.34"/>
	<path class="st2" d="M-0.74,44.24c-0.23-0.13-0.6-0.13-0.83,0c-0.23,0.13-0.23,0.35,0,0.48s0.6,0.13,0.83,0
		C-0.51,44.59-0.51,44.37-0.74,44.24z"/>
	<path class="st2" d="M35.44,25.86c0.23,0.13,0.6,0.13,0.83,0c0.23-0.13,0.23-0.35,0-0.48c-0.23-0.13-0.6-0.13-0.83,0
		C35.21,25.52,35.21,25.73,35.44,25.86z"/>
	<path class="st2" d="M33.26,27.12c0.23,0.13,0.6,0.13,0.83,0c0.23-0.13,0.23-0.35,0-0.48c-0.23-0.13-0.6-0.13-0.83,0
		C33.03,26.77,33.03,26.99,33.26,27.12z"/>
	<path class="st2" d="M31.09,28.38c0.23,0.13,0.6,0.13,0.83,0c0.23-0.13,0.23-0.35,0-0.48c-0.23-0.13-0.6-0.13-0.83,0
		C30.86,28.03,30.86,28.25,31.09,28.38z"/>
	<path class="st2" d="M29.74,29.15c-0.23-0.13-0.6-0.13-0.83,0c-0.23,0.13-0.23,0.35,0,0.48c0.23,0.13,0.6,0.13,0.83,0
		C29.97,29.5,29.97,29.29,29.74,29.15z"/>
	<ellipse class="st2" cx="27.15" cy="30.65" rx="0.59" ry="0.34"/>
	<path class="st2" d="M25.39,31.67c-0.23-0.13-0.6-0.13-0.83,0c-0.23,0.13-0.23,0.35,0,0.48c0.23,0.13,0.6,0.13,0.83,0
		C25.62,32.02,25.62,31.8,25.39,31.67z"/>
	<ellipse class="st2" cx="22.79" cy="33.17" rx="0.59" ry="0.34"/>
	<path class="st2" d="M21.03,34.18c-0.23-0.13-0.6-0.13-0.83,0c-0.23,0.13-0.23,0.35,0,0.48c0.23,0.13,0.6,0.13,0.83,0
		C21.26,34.53,21.26,34.31,21.03,34.18z"/>
	<path class="st2" d="M18.86,35.44c-0.23-0.13-0.6-0.13-0.83,0s-0.23,0.35,0,0.48c0.23,0.13,0.6,0.13,0.83,0
		C19.09,35.79,19.09,35.57,18.86,35.44z"/>
	<path class="st2" d="M16.68,36.7c-0.23-0.13-0.6-0.13-0.83,0c-0.23,0.13-0.23,0.35,0,0.48c0.23,0.13,0.6,0.13,0.83,0
		C16.91,37.04,16.91,36.83,16.68,36.7z"/>
	<ellipse class="st2" cx="14.09" cy="38.19" rx="0.59" ry="0.34"/>
	<ellipse class="st2" cx="11.91" cy="39.45" rx="0.59" ry="0.34"/>
	<path class="st2" d="M10.15,40.47c-0.23-0.13-0.6-0.13-0.83,0c-0.23,0.13-0.23,0.35,0,0.48c0.23,0.13,0.6,0.13,0.83,0
		C10.38,40.81,10.38,40.6,10.15,40.47z"/>
	<path class="st2" d="M7.97,41.72c-0.23-0.13-0.6-0.13-0.83,0c-0.23,0.13-0.23,0.35,0,0.48c0.23,0.13,0.6,0.13,0.83,0
		C8.2,42.07,8.2,41.86,7.97,41.72z"/>
	<path class="st2" d="M3.62,44.24c-0.23-0.13-0.6-0.13-0.83,0c-0.23,0.13-0.23,0.35,0,0.48c0.23,0.13,0.6,0.13,0.83,0
		C3.85,44.59,3.85,44.37,3.62,44.24z"/>
	<path class="st2" d="M37.62,27.12c0.23,0.13,0.6,0.13,0.83,0c0.23-0.13,0.23-0.35,0-0.48c-0.23-0.13-0.6-0.13-0.83,0
		C37.39,26.77,37.39,26.99,37.62,27.12z"/>
	<path class="st2" d="M35.44,28.38c0.23,0.13,0.6,0.13,0.83,0c0.23-0.13,0.23-0.35,0-0.48c-0.23-0.13-0.6-0.13-0.83,0
		C35.21,28.03,35.21,28.25,35.44,28.38z"/>
	<path class="st2" d="M33.26,29.63c0.23,0.13,0.6,0.13,0.83,0c0.23-0.13,0.23-0.35,0-0.48c-0.23-0.13-0.6-0.13-0.83,0
		C33.03,29.29,33.03,29.5,33.26,29.63z"/>
	<path class="st2" d="M31.09,30.89c0.23,0.13,0.6,0.13,0.83,0c0.23-0.13,0.23-0.35,0-0.48c-0.23-0.13-0.6-0.13-0.83,0
		C30.86,30.54,30.86,30.76,31.09,30.89z"/>
	<ellipse class="st2" cx="29.33" cy="31.91" rx="0.59" ry="0.34"/>
	<path class="st2" d="M27.57,32.92c-0.23-0.13-0.6-0.13-0.83,0c-0.23,0.13-0.23,0.35,0,0.48c0.23,0.13,0.6,0.13,0.83,0
		C27.79,33.27,27.79,33.06,27.57,32.92z"/>
	<path class="st2" d="M25.39,34.18c-0.23-0.13-0.6-0.13-0.83,0c-0.23,0.13-0.23,0.35,0,0.48s0.6,0.13,0.83,0
		C25.62,34.53,25.62,34.31,25.39,34.18z"/>
	<path class="st2" d="M23.21,35.44c-0.23-0.13-0.6-0.13-0.83,0c-0.23,0.13-0.23,0.35,0,0.48c0.23,0.13,0.6,0.13,0.83,0
		C23.44,35.79,23.44,35.57,23.21,35.44z"/>
	<path class="st2" d="M21.03,36.7c-0.23-0.13-0.6-0.13-0.83,0c-0.23,0.13-0.23,0.35,0,0.48c0.23,0.13,0.6,0.13,0.83,0
		C21.26,37.04,21.26,36.83,21.03,36.7z"/>
	<path class="st2" d="M18.86,37.95c-0.23-0.13-0.6-0.13-0.83,0s-0.23,0.35,0,0.48c0.23,0.13,0.6,0.13,0.83,0
		C19.09,38.3,19.09,38.09,18.86,37.95z"/>
	<path class="st2" d="M16.68,39.21c-0.23-0.13-0.6-0.13-0.83,0c-0.23,0.13-0.23,0.35,0,0.48c0.23,0.13,0.6,0.13,0.83,0
		C16.91,39.56,16.91,39.34,16.68,39.21z"/>
	<ellipse class="st2" cx="14.09" cy="40.71" rx="0.59" ry="0.34"/>
	<path class="st2" d="M12.33,41.72c-0.23-0.13-0.6-0.13-0.83,0c-0.23,0.13-0.23,0.35,0,0.48c0.23,0.13,0.6,0.13,0.83,0
		C12.56,42.07,12.56,41.86,12.33,41.72z"/>
	<path class="st2" d="M10.15,42.98c-0.23-0.13-0.6-0.13-0.83,0c-0.23,0.13-0.23,0.35,0,0.48c0.23,0.13,0.6,0.13,0.83,0
		S10.38,43.11,10.15,42.98z"/>
	<ellipse class="st2" cx="7.56" cy="44.48" rx="0.59" ry="0.34"/>
	<path class="st2" d="M5.79,45.49c-0.23-0.13-0.6-0.13-0.83,0c-0.23,0.13-0.23,0.35,0,0.48c0.23,0.13,0.6,0.13,0.83,0
		C6.02,45.84,6.02,45.63,5.79,45.49z"/>
	<path class="st2" d="M39.8,28.38c0.23,0.13,0.6,0.13,0.83,0c0.23-0.13,0.23-0.35,0-0.48c-0.23-0.13-0.6-0.13-0.83,0
		C39.57,28.03,39.57,28.24,39.8,28.38z"/>
	<path class="st2" d="M37.62,29.63c0.23,0.13,0.6,0.13,0.83,0c0.23-0.13,0.23-0.35,0-0.48c-0.23-0.13-0.6-0.13-0.83,0
		C37.39,29.29,37.39,29.5,37.62,29.63z"/>
	<ellipse class="st2" cx="35.86" cy="30.65" rx="0.59" ry="0.34"/>
	<path class="st2" d="M33.26,32.15c0.23,0.13,0.6,0.13,0.83,0c0.23-0.13,0.23-0.35,0-0.48c-0.23-0.13-0.6-0.13-0.83,0
		C33.03,31.8,33.03,32.02,33.26,32.15z"/>
	<path class="st2" d="M31.09,33.41c0.23,0.13,0.6,0.13,0.83,0c0.23-0.13,0.23-0.35,0-0.48c-0.23-0.13-0.6-0.13-0.83,0
		S30.86,33.27,31.09,33.41z"/>
	<path class="st2" d="M29.74,34.18c-0.23-0.13-0.6-0.13-0.83,0c-0.23,0.13-0.23,0.35,0,0.48c0.23,0.13,0.6,0.13,0.83,0
		C29.97,34.53,29.97,34.31,29.74,34.18z"/>
	<path class="st2" d="M27.57,35.44c-0.23-0.13-0.6-0.13-0.83,0c-0.23,0.13-0.23,0.35,0,0.48c0.23,0.13,0.6,0.13,0.83,0
		C27.79,35.79,27.79,35.57,27.57,35.44z"/>
	<path class="st2" d="M25.39,36.7c-0.23-0.13-0.6-0.13-0.83,0c-0.23,0.13-0.23,0.35,0,0.48c0.23,0.13,0.6,0.13,0.83,0
		C25.62,37.04,25.62,36.83,25.39,36.7z"/>
	<ellipse class="st2" cx="22.79" cy="38.19" rx="0.59" ry="0.34"/>
	<path class="st2" d="M21.03,39.21c-0.23-0.13-0.6-0.13-0.83,0c-0.23,0.13-0.23,0.35,0,0.48c0.23,0.13,0.6,0.13,0.83,0
		C21.26,39.56,21.26,39.34,21.03,39.21z"/>
	<ellipse class="st2" cx="18.44" cy="40.71" rx="0.59" ry="0.34"/>
	<path class="st2" d="M16.68,41.72c-0.23-0.13-0.6-0.13-0.83,0c-0.23,0.13-0.23,0.35,0,0.48c0.23,0.13,0.6,0.13,0.83,0
		C16.91,42.07,16.91,41.86,16.68,41.72z"/>
	<path class="st2" d="M14.5,42.98c-0.23-0.13-0.6-0.13-0.83,0c-0.23,0.13-0.23,0.35,0,0.48c0.23,0.13,0.6,0.13,0.83,0
		C14.73,43.33,14.73,43.11,14.5,42.98z"/>
	<path class="st2" d="M12.33,44.24c-0.23-0.13-0.6-0.13-0.83,0c-0.23,0.13-0.23,0.35,0,0.48c0.23,0.13,0.6,0.13,0.83,0
		C12.56,44.59,12.56,44.37,12.33,44.24z"/>
	<path class="st2" d="M10.15,45.49c-0.23-0.13-0.6-0.13-0.83,0c-0.23,0.13-0.23,0.35,0,0.48c0.23,0.13,0.6,0.13,0.83,0
		C10.38,45.84,10.38,45.63,10.15,45.49z"/>
	<ellipse class="st2" cx="7.56" cy="46.99" rx="0.59" ry="0.34"/>
	<path class="st2" d="M41.97,29.63c0.23,0.13,0.6,0.13,0.83,0c0.23-0.13,0.23-0.35,0-0.48c-0.23-0.13-0.6-0.13-0.83,0
		C41.74,29.29,41.74,29.5,41.97,29.63z"/>
	<path class="st2" d="M39.79,30.89c0.23,0.13,0.6,0.13,0.83,0c0.23-0.13,0.23-0.35,0-0.48c-0.23-0.13-0.6-0.13-0.83,0
		C39.56,30.54,39.56,30.76,39.79,30.89z"/>
	<path class="st2" d="M37.62,32.15c0.23,0.13,0.6,0.13,0.83,0c0.23-0.13,0.23-0.35,0-0.48c-0.23-0.13-0.6-0.13-0.83,0
		C37.39,31.8,37.39,32.02,37.62,32.15z"/>
	<ellipse class="st2" cx="35.86" cy="33.17" rx="0.59" ry="0.34"/>
	<ellipse class="st2" cx="33.68" cy="34.42" rx="0.59" ry="0.34"/>
	<path class="st2" d="M31.09,35.92c0.23,0.13,0.6,0.13,0.83,0c0.23-0.13,0.23-0.35,0-0.48c-0.23-0.13-0.6-0.13-0.83,0
		C30.86,35.57,30.86,35.79,31.09,35.92z"/>
	<path class="st2" d="M29.74,36.7c-0.23-0.13-0.6-0.13-0.83,0c-0.23,0.13-0.23,0.35,0,0.48c0.23,0.13,0.6,0.13,0.83,0
		C29.97,37.04,29.97,36.83,29.74,36.7z"/>
	<path class="st2" d="M27.57,37.95c-0.23-0.13-0.6-0.13-0.83,0c-0.23,0.13-0.23,0.35,0,0.48c0.23,0.13,0.6,0.13,0.83,0
		C27.79,38.3,27.79,38.09,27.57,37.95z"/>
	<path class="st2" d="M25.39,39.21c-0.23-0.13-0.6-0.13-0.83,0c-0.23,0.13-0.23,0.35,0,0.48c0.23,0.13,0.6,0.13,0.83,0
		C25.62,39.56,25.62,39.34,25.39,39.21z"/>
	<path class="st2" d="M23.21,40.47c-0.23-0.13-0.6-0.13-0.83,0c-0.23,0.13-0.23,0.35,0,0.48c0.23,0.13,0.6,0.13,0.83,0
		C23.44,40.81,23.44,40.6,23.21,40.47z"/>
	<path class="st2" d="M21.03,41.72c-0.23-0.13-0.6-0.13-0.83,0s-0.23,0.35,0,0.48c0.23,0.13,0.6,0.13,0.83,0
		C21.26,42.07,21.26,41.86,21.03,41.72z"/>
	<path class="st2" d="M18.86,42.98c-0.23-0.13-0.6-0.13-0.83,0c-0.23,0.13-0.23,0.35,0,0.48c0.23,0.13,0.6,0.13,0.83,0
		C19.09,43.33,19.09,43.11,18.86,42.98z"/>
	<ellipse class="st2" cx="16.26" cy="44.48" rx="0.59" ry="0.34"/>
	<path class="st2" d="M14.5,45.49c-0.23-0.13-0.6-0.13-0.83,0c-0.23,0.13-0.23,0.35,0,0.48c0.23,0.13,0.6,0.13,0.83,0
		C14.73,45.84,14.73,45.63,14.5,45.49z"/>
	<path class="st2" d="M12.33,46.75c-0.23-0.13-0.6-0.13-0.83,0c-0.23,0.13-0.23,0.35,0,0.48c0.23,0.13,0.6,0.13,0.83,0
		C12.56,47.1,12.56,46.88,12.33,46.75z"/>
	<ellipse class="st2" cx="9.73" cy="48.25" rx="0.59" ry="0.34"/>
	<path class="st2" d="M44.15,30.89c0.23,0.13,0.6,0.13,0.83,0c0.23-0.13,0.23-0.35,0-0.48c-0.23-0.13-0.6-0.13-0.83,0
		S43.92,30.76,44.15,30.89z"/>
	<path class="st2" d="M41.97,32.15c0.23,0.13,0.6,0.13,0.83,0c0.23-0.13,0.23-0.35,0-0.48c-0.23-0.13-0.6-0.13-0.83,0
		C41.74,31.8,41.74,32.02,41.97,32.15z"/>
	<path class="st2" d="M39.79,33.41c0.23,0.13,0.6,0.13,0.83,0c0.23-0.13,0.23-0.35,0-0.48c-0.23-0.13-0.6-0.13-0.83,0
		C39.56,33.06,39.56,33.27,39.79,33.41z"/>
	<path class="st2" d="M37.62,34.66c0.23,0.13,0.6,0.13,0.83,0c0.23-0.13,0.23-0.35,0-0.48c-0.23-0.13-0.6-0.13-0.83,0
		C37.39,34.31,37.39,34.53,37.62,34.66z"/>
	<path class="st2" d="M35.44,35.92c0.23,0.13,0.6,0.13,0.83,0c0.23-0.13,0.23-0.35,0-0.48c-0.23-0.13-0.6-0.13-0.83,0
		C35.21,35.57,35.21,35.79,35.44,35.92z"/>
	<path class="st2" d="M33.26,37.18c0.23,0.13,0.6,0.13,0.83,0c0.23-0.13,0.23-0.35,0-0.48c-0.23-0.13-0.6-0.13-0.83,0
		S33.03,37.04,33.26,37.18z"/>
	<path class="st2" d="M31.09,38.43c0.23,0.13,0.6,0.13,0.83,0c0.23-0.13,0.23-0.35,0-0.48c-0.23-0.13-0.6-0.13-0.83,0
		C30.86,38.09,30.86,38.3,31.09,38.43z"/>
	<ellipse class="st2" cx="29.33" cy="39.45" rx="0.59" ry="0.34"/>
	<path class="st2" d="M27.57,40.47c-0.23-0.13-0.6-0.13-0.83,0c-0.23,0.13-0.23,0.35,0,0.48c0.23,0.13,0.6,0.13,0.83,0
		C27.79,40.81,27.79,40.6,27.57,40.47z"/>
	<path class="st2" d="M25.39,41.72c-0.23-0.13-0.6-0.13-0.83,0c-0.23,0.13-0.23,0.35,0,0.48c0.23,0.13,0.6,0.13,0.83,0
		C25.62,42.07,25.62,41.86,25.39,41.72z"/>
	<path class="st2" d="M23.21,42.98c-0.23-0.13-0.6-0.13-0.83,0c-0.23,0.13-0.23,0.35,0,0.48c0.23,0.13,0.6,0.13,0.83,0
		C23.44,43.33,23.44,43.11,23.21,42.98z"/>
	<path class="st2" d="M21.03,44.24c-0.23-0.13-0.6-0.13-0.83,0c-0.23,0.13-0.23,0.35,0,0.48c0.23,0.13,0.6,0.13,0.83,0
		C21.26,44.59,21.26,44.37,21.03,44.24z"/>
	<path class="st2" d="M18.86,45.49c-0.23-0.13-0.6-0.13-0.83,0c-0.23,0.13-0.23,0.35,0,0.48c0.23,0.13,0.6,0.13,0.83,0
		C19.09,45.84,19.09,45.63,18.86,45.49z"/>
	<path class="st2" d="M16.68,46.75c-0.23-0.13-0.6-0.13-0.83,0c-0.23,0.13-0.23,0.35,0,0.48c0.23,0.13,0.6,0.13,0.83,0
		C16.91,47.1,16.91,46.88,16.68,46.75z"/>
	<ellipse class="st2" cx="14.09" cy="48.25" rx="0.59" ry="0.34"/>
	<path class="st2" d="M46.33,32.15c0.23,0.13,0.6,0.13,0.83,0c0.23-0.13,0.23-0.35,0-0.48c-0.23-0.13-0.6-0.13-0.83,0
		C46.1,31.8,46.1,32.02,46.33,32.15z"/>
	<path class="st2" d="M44.15,33.41c0.23,0.13,0.6,0.13,0.83,0c0.23-0.13,0.23-0.35,0-0.48c-0.23-0.13-0.6-0.13-0.83,0
		C43.92,33.06,43.92,33.27,44.15,33.41z"/>
	<path class="st2" d="M41.97,34.66c0.23,0.13,0.6,0.13,0.83,0c0.23-0.13,0.23-0.35,0-0.48c-0.23-0.13-0.6-0.13-0.83,0
		C41.74,34.31,41.74,34.53,41.97,34.66z"/>
	<path class="st2" d="M39.79,35.92c0.23,0.13,0.6,0.13,0.83,0c0.23-0.13,0.23-0.35,0-0.48c-0.23-0.13-0.6-0.13-0.83,0
		C39.56,35.57,39.56,35.79,39.79,35.92z"/>
	<path class="st2" d="M37.62,37.18c0.23,0.13,0.6,0.13,0.83,0c0.23-0.13,0.23-0.35,0-0.48c-0.23-0.13-0.6-0.13-0.83,0
		C37.39,36.83,37.39,37.04,37.62,37.18z"/>
	<ellipse class="st2" cx="35.86" cy="38.19" rx="0.59" ry="0.34"/>
	<path class="st2" d="M33.26,39.69c0.23,0.13,0.6,0.13,0.83,0c0.23-0.13,0.23-0.35,0-0.48c-0.23-0.13-0.6-0.13-0.83,0
		C33.03,39.34,33.03,39.56,33.26,39.69z"/>
	<path class="st2" d="M31.09,40.95c0.23,0.13,0.6,0.13,0.83,0c0.23-0.13,0.23-0.35,0-0.48c-0.23-0.13-0.6-0.13-0.83,0
		C30.86,40.6,30.86,40.81,31.09,40.95z"/>
	<path class="st2" d="M28.91,42.2c0.23,0.13,0.6,0.13,0.83,0c0.23-0.13,0.23-0.35,0-0.48c-0.23-0.13-0.6-0.13-0.83,0
		C28.68,41.86,28.68,42.07,28.91,42.2z"/>
	<path class="st2" d="M26.73,43.46c0.23,0.13,0.6,0.13,0.83,0c0.23-0.13,0.23-0.35,0-0.48c-0.23-0.13-0.6-0.13-0.83,0
		C26.5,43.11,26.5,43.33,26.73,43.46z"/>
	<ellipse class="st2" cx="24.97" cy="44.48" rx="0.59" ry="0.34"/>
	<path class="st2" d="M22.38,45.97c0.23,0.13,0.6,0.13,0.83,0c0.23-0.13,0.23-0.35,0-0.48c-0.23-0.13-0.6-0.13-0.83,0
		C22.15,45.63,22.15,45.84,22.38,45.97z"/>
	<ellipse class="st2" cx="20.62" cy="46.99" rx="0.59" ry="0.34"/>
	<path class="st2" d="M18.86,48.01c-0.23-0.13-0.6-0.13-0.83,0c-0.23,0.13-0.23,0.35,0,0.48c0.23,0.13,0.6,0.13,0.83,0
		C19.09,48.36,19.09,48.14,18.86,48.01z"/>
	<path class="st2" d="M16.68,49.26c-0.23-0.13-0.6-0.13-0.83,0c-0.23,0.13-0.23,0.35,0,0.48c0.23,0.13,0.6,0.13,0.83,0
		C16.91,49.61,16.91,49.4,16.68,49.26z"/>
	<path class="st2" d="M48.52,33.42c0.23,0.13,0.6,0.13,0.83,0s0.23-0.35,0-0.48c-0.23-0.13-0.6-0.13-0.83,0
		C48.29,33.07,48.29,33.29,48.52,33.42z"/>
	<path class="st2" d="M47.18,34.2c-0.23-0.13-0.6-0.13-0.83,0c-0.23,0.13-0.23,0.35,0,0.48c0.23,0.13,0.6,0.13,0.83,0
		C47.41,34.54,47.41,34.33,47.18,34.2z"/>
	<path class="st2" d="M45,35.45c-0.23-0.13-0.6-0.13-0.83,0c-0.23,0.13-0.23,0.35,0,0.48c0.23,0.13,0.6,0.13,0.83,0
		C45.23,35.8,45.23,35.58,45,35.45z"/>
	<path class="st2" d="M42.82,36.71c-0.23-0.13-0.6-0.13-0.83,0c-0.23,0.13-0.23,0.35,0,0.48c0.23,0.13,0.6,0.13,0.83,0
		C43.05,37.06,43.05,36.84,42.82,36.71z"/>
	<ellipse class="st2" cx="40.23" cy="38.21" rx="0.59" ry="0.34"/>
	<path class="st2" d="M38.47,39.22c-0.23-0.13-0.6-0.13-0.83,0c-0.23,0.13-0.23,0.35,0,0.48c0.23,0.13,0.6,0.13,0.83,0
		C38.7,39.57,38.7,39.36,38.47,39.22z"/>
	<path class="st2" d="M36.29,40.48c-0.23-0.13-0.6-0.13-0.83,0c-0.23,0.13-0.23,0.35,0,0.48c0.23,0.13,0.6,0.13,0.83,0
		C36.52,40.83,36.52,40.61,36.29,40.48z"/>
	<path class="st2" d="M34.11,41.74c-0.23-0.13-0.6-0.13-0.83,0c-0.23,0.13-0.23,0.35,0,0.48c0.23,0.13,0.6,0.13,0.83,0
		C34.34,42.08,34.34,41.87,34.11,41.74z"/>
	<path class="st2" d="M31.94,42.99c-0.23-0.13-0.6-0.13-0.83,0c-0.23,0.13-0.23,0.35,0,0.48c0.23,0.13,0.6,0.13,0.83,0
		C32.17,43.34,32.17,43.13,31.94,42.99z"/>
	<path class="st2" d="M29.76,44.25c-0.23-0.13-0.6-0.13-0.83,0c-0.23,0.13-0.23,0.35,0,0.48c0.23,0.13,0.6,0.13,0.83,0
		C29.99,44.6,29.99,44.38,29.76,44.25z"/>
	<ellipse class="st2" cx="27.17" cy="45.75" rx="0.59" ry="0.34"/>
	<ellipse class="st2" cx="24.99" cy="47" rx="0.59" ry="0.34"/>
	<ellipse class="st2" cx="22.81" cy="48.26" rx="0.59" ry="0.34"/>
	<path class="st2" d="M21.05,49.28c-0.23-0.13-0.6-0.13-0.83,0c-0.23,0.13-0.23,0.35,0,0.48c0.23,0.13,0.6,0.13,0.83,0
		C21.28,49.63,21.28,49.41,21.05,49.28z"/>
	<path class="st2" d="M50.7,34.68c0.23,0.13,0.6,0.13,0.83,0c0.23-0.13,0.23-0.35,0-0.48c-0.23-0.13-0.6-0.13-0.83,0
		C50.47,34.33,50.47,34.54,50.7,34.68z"/>
	<path class="st2" d="M48.52,35.93c0.23,0.13,0.6,0.13,0.83,0c0.23-0.13,0.23-0.35,0-0.48c-0.23-0.13-0.6-0.13-0.83,0
		C48.29,35.58,48.29,35.8,48.52,35.93z"/>
	<path class="st2" d="M46.34,37.19c0.23,0.13,0.6,0.13,0.83,0c0.23-0.13,0.23-0.35,0-0.48c-0.23-0.13-0.6-0.13-0.83,0
		C46.11,36.84,46.11,37.06,46.34,37.19z"/>
	<path class="st2" d="M45,37.97c-0.23-0.13-0.6-0.13-0.83,0c-0.23,0.13-0.23,0.35,0,0.48c0.23,0.13,0.6,0.13,0.83,0
		C45.23,38.31,45.23,38.1,45,37.97z"/>
	<path class="st2" d="M42.82,39.22c-0.23-0.13-0.6-0.13-0.83,0c-0.23,0.13-0.23,0.35,0,0.48c0.23,0.13,0.6,0.13,0.83,0
		C43.05,39.57,43.05,39.36,42.82,39.22z"/>
	<path class="st2" d="M40.65,40.48c-0.23-0.13-0.6-0.13-0.83,0c-0.23,0.13-0.23,0.35,0,0.48c0.23,0.13,0.6,0.13,0.83,0
		C40.88,40.83,40.88,40.61,40.65,40.48z"/>
	<ellipse class="st2" cx="38.05" cy="41.98" rx="0.59" ry="0.34"/>
	<path class="st2" d="M36.29,42.99c-0.23-0.13-0.6-0.13-0.83,0c-0.23,0.13-0.23,0.35,0,0.48c0.23,0.13,0.6,0.13,0.83,0
		C36.52,43.34,36.52,43.13,36.29,42.99z"/>
	<ellipse class="st2" cx="33.7" cy="44.49" rx="0.59" ry="0.34"/>
	<path class="st2" d="M31.94,45.51c-0.23-0.13-0.6-0.13-0.83,0c-0.23,0.13-0.23,0.35,0,0.48c0.23,0.13,0.6,0.13,0.83,0
		C32.17,45.86,32.17,45.64,31.94,45.51z"/>
	<path class="st2" d="M29.76,46.76c-0.23-0.13-0.6-0.13-0.83,0c-0.23,0.13-0.23,0.35,0,0.48c0.23,0.13,0.6,0.13,0.83,0
		C29.99,47.11,29.99,46.9,29.76,46.76z"/>
	<path class="st2" d="M27.58,48.02c-0.23-0.13-0.6-0.13-0.83,0c-0.23,0.13-0.23,0.35,0,0.48c0.23,0.13,0.6,0.13,0.83,0
		C27.81,48.37,27.81,48.15,27.58,48.02z"/>
	<path class="st2" d="M25.41,49.28c-0.23-0.13-0.6-0.13-0.83,0c-0.23,0.13-0.23,0.35,0,0.48c0.23,0.13,0.6,0.13,0.83,0
		C25.64,49.63,25.64,49.41,25.41,49.28z"/>
	<path class="st2" d="M23.23,50.53c-0.23-0.13-0.6-0.13-0.83,0c-0.23,0.13-0.23,0.35,0,0.48c0.23,0.13,0.6,0.13,0.83,0
		C23.46,50.88,23.46,50.67,23.23,50.53z"/>
	<path class="st2" d="M52.88,35.93c0.23,0.13,0.6,0.13,0.83,0c0.23-0.13,0.23-0.35,0-0.48c-0.23-0.13-0.6-0.13-0.83,0
		C52.65,35.58,52.65,35.8,52.88,35.93z"/>
	<path class="st2" d="M50.7,37.19c0.23,0.13,0.6,0.13,0.83,0c0.23-0.13,0.23-0.35,0-0.48c-0.23-0.13-0.6-0.13-0.83,0
		C50.47,36.84,50.47,37.06,50.7,37.19z"/>
	<ellipse class="st2" cx="48.94" cy="38.21" rx="0.59" ry="0.34"/>
	<path class="st2" d="M46.34,39.7c0.23,0.13,0.6,0.13,0.83,0c0.23-0.13,0.23-0.35,0-0.48c-0.23-0.13-0.6-0.13-0.83,0
		C46.11,39.36,46.11,39.57,46.34,39.7z"/>
	<path class="st2" d="M45,40.48c-0.23-0.13-0.6-0.13-0.83,0c-0.23,0.13-0.23,0.35,0,0.48c0.23,0.13,0.6,0.13,0.83,0
		C45.23,40.83,45.23,40.61,45,40.48z"/>
	<path class="st2" d="M42.82,41.74c-0.23-0.13-0.6-0.13-0.83,0c-0.23,0.13-0.23,0.35,0,0.48c0.23,0.13,0.6,0.13,0.83,0
		C43.05,42.08,43.05,41.87,42.82,41.74z"/>
	<path class="st2" d="M40.65,42.99c-0.23-0.13-0.6-0.13-0.83,0c-0.23,0.13-0.23,0.35,0,0.48c0.23,0.13,0.6,0.13,0.83,0
		C40.88,43.34,40.88,43.13,40.65,42.99z"/>
	<path class="st2" d="M38.47,44.25c-0.23-0.13-0.6-0.13-0.83,0c-0.23,0.13-0.23,0.35,0,0.48c0.23,0.13,0.6,0.13,0.83,0
		C38.7,44.6,38.7,44.38,38.47,44.25z"/>
	<path class="st2" d="M36.29,45.51c-0.23-0.13-0.6-0.13-0.83,0c-0.23,0.13-0.23,0.35,0,0.48c0.23,0.13,0.6,0.13,0.83,0
		C36.52,45.86,36.52,45.64,36.29,45.51z"/>
	<path class="st2" d="M34.11,46.76c-0.23-0.13-0.6-0.13-0.83,0c-0.23,0.13-0.23,0.35,0,0.48c0.23,0.13,0.6,0.13,0.83,0
		C34.34,47.11,34.34,46.9,34.11,46.76z"/>
	<path class="st2" d="M31.94,48.02c-0.23-0.13-0.6-0.13-0.83,0c-0.23,0.13-0.23,0.35,0,0.48s0.6,0.13,0.83,0
		C32.17,48.37,32.17,48.15,31.94,48.02z"/>
	<path class="st2" d="M29.76,49.28c-0.23-0.13-0.6-0.13-0.83,0c-0.23,0.13-0.23,0.35,0,0.48c0.23,0.13,0.6,0.13,0.83,0
		C29.99,49.63,29.99,49.41,29.76,49.28z"/>
	<path class="st2" d="M27.58,50.53c-0.23-0.13-0.6-0.13-0.83,0c-0.23,0.13-0.23,0.35,0,0.48c0.23,0.13,0.6,0.13,0.83,0
		C27.81,50.88,27.81,50.67,27.58,50.53z"/>
	<path class="st2" d="M55.06,37.19c0.23,0.13,0.6,0.13,0.83,0c0.23-0.13,0.23-0.35,0-0.48c-0.23-0.13-0.6-0.13-0.83,0
		C54.82,36.84,54.83,37.06,55.06,37.19z"/>
	<path class="st2" d="M52.88,38.45c0.23,0.13,0.6,0.13,0.83,0c0.23-0.13,0.23-0.35,0-0.48c-0.23-0.13-0.6-0.13-0.83,0
		C52.65,38.1,52.65,38.31,52.88,38.45z"/>
	<path class="st2" d="M50.7,39.7c0.23,0.13,0.6,0.13,0.83,0c0.23-0.13,0.23-0.35,0-0.48c-0.23-0.13-0.6-0.13-0.83,0
		C50.47,39.36,50.47,39.57,50.7,39.7z"/>
	<ellipse class="st2" cx="48.94" cy="40.72" rx="0.59" ry="0.34"/>
	<path class="st2" d="M47.18,42.22c0.23-0.13,0.23-0.35,0-0.48c-0.23-0.13-0.6-0.13-0.83,0c-0.23,0.13-0.23,0.35,0,0.48
		C46.57,42.35,46.95,42.35,47.18,42.22z"/>
	<path class="st2" d="M45,43.47c0.23-0.13,0.23-0.35,0-0.48c-0.23-0.13-0.6-0.13-0.83,0c-0.23,0.13-0.23,0.35,0,0.48
		C44.4,43.61,44.77,43.61,45,43.47z"/>
	<path class="st2" d="M42.82,44.73c0.23-0.13,0.23-0.35,0-0.48c-0.23-0.13-0.6-0.13-0.83,0c-0.23,0.13-0.23,0.35,0,0.48
		C42.22,44.86,42.59,44.86,42.82,44.73z"/>
	<path class="st2" d="M40.65,45.99c0.23-0.13,0.23-0.35,0-0.48c-0.23-0.13-0.6-0.13-0.83,0c-0.23,0.13-0.23,0.35,0,0.48
		C40.04,46.12,40.42,46.12,40.65,45.99z"/>
	<ellipse class="st2" cx="38.05" cy="47" rx="0.59" ry="0.34"/>
	<path class="st2" d="M36.29,48.5c0.23-0.13,0.23-0.35,0-0.48c-0.23-0.13-0.6-0.13-0.83,0c-0.23,0.13-0.23,0.35,0,0.48
		C35.69,48.63,36.06,48.63,36.29,48.5z"/>
	<path class="st2" d="M34.11,49.28c-0.23-0.13-0.6-0.13-0.83,0c-0.23,0.13-0.23,0.35,0,0.48c0.23,0.13,0.6,0.13,0.83,0
		C34.34,49.63,34.34,49.41,34.11,49.28z"/>
	<path class="st2" d="M5.79,42.98c-0.23-0.13-0.6-0.13-0.83,0c-0.23,0.13-0.23,0.35,0,0.48c0.23,0.13,0.6,0.13,0.83,0
		C6.02,43.33,6.02,43.11,5.79,42.98z"/>
</g>
<g>
	<polyline id="XMLID_44_" class="st0" points="20.59,9.33 25.22,16.38 13.58,23.1 8.96,16.05 	"/>
	<line id="XMLID_43_" class="st0" x1="8.96" y1="16.05" x2="20.59" y2="9.33"/>
	<polyline id="XMLID_42_" class="st3" points="8.71,17.39 20.35,10.67 24.98,17.72 13.34,24.44 8.71,17.39 	"/>
	<polyline id="XMLID_41_" class="st4" points="20.61,9.23 25.33,16.4 13.56,23.2 8.84,16.03 	"/>
	<line id="XMLID_40_" class="st4" x1="8.84" y1="16.03" x2="20.61" y2="9.23"/>
	<line id="XMLID_39_" class="st4" x1="20.56" y1="9.44" x2="9.07" y2="16.08"/>
	<polyline id="XMLID_38_" class="st0" points="9.6,16.09 13.84,22.54 24.58,16.34 20.33,9.89 	"/>
	<polyline id="XMLID_37_" class="st0" points="29.91,9.37 25.28,16.42 36.91,23.14 41.54,16.09 29.91,9.37 	"/>
	<polygon id="XMLID_36_" class="st3" points="37.14,24.44 41.77,17.39 30.14,10.67 25.5,17.72 	"/>
	<polyline id="XMLID_35_" class="st4" points="29.88,9.27 41.65,16.06 41.61,16.13 36.94,23.24 25.16,16.44 29.88,9.27 	"/>
	<polyline id="XMLID_34_" class="st0" points="30.12,9.84 25.82,16.38 36.7,22.66 40.99,16.12 30.12,9.84 	"/>
	<g id="XMLID_29_">
		<polygon id="XMLID_33_" class="st0" points="13.64,23.14 13.64,35.57 25.28,42.29 25.28,29.86 		"/>
		<g>
			<path id="XMLID_21_" class="st4" d="M25.28,29.77L13.56,23v12.62l11.72,6.76l11.68-6.74L37,35.62V23L25.28,29.77z M13.72,35.53
				V23.27L25.2,29.9v12.26L13.72,35.53z"/>
			<path class="st5" d="M25.28,42.66l-0.12-0.07l-11.84-6.83V22.59l11.96,6.9l11.96-6.9v13.17l-0.12,0.07l-11.67,6.75l0,0
				L25.28,42.66z M25.44,29.95v12.06l11.32-6.53V23.42L25.44,29.95z M13.96,35.39l11,6.35v-11.7l-11-6.35V35.39z"/>
		</g>
	</g>
	<g id="XMLID_24_">
		<polygon id="XMLID_28_" class="st0" points="36.92,23.14 25.28,29.86 13.64,23.14 25.28,16.42 		"/>
		<path id="XMLID_25_" class="st4" d="M25.28,29.95l-11.8-6.81l11.8-6.81l0.04,0.02l11.76,6.79L25.28,29.95z M13.8,23.14l11.48,6.63
			l11.48-6.63l-11.48-6.63L13.8,23.14z"/>
	</g>
	<g id="XMLID_20_">
		<g>
			<path id="XMLID_10_" class="st0" d="M27.76,39.18v-2.2l-1.1,0.63l1.95-4.26l1.95,2.02l-1.04,0.6v2.2L27.76,39.18z M27.97,36.62
				v2.2l1.35-0.78v-2.2l0.91-0.53l-1.56-1.61l-1.56,3.41L27.97,36.62z"/>
			<path class="st0" d="M27.6,39.46v-2.2L26.31,38l2.25-4.93l2.25,2.33l-1.14,0.66v2.2L27.6,39.46z M28.13,36.35v2.2l1.03-0.59v-2.2
				l0.82-0.47l-1.25-1.3l-1.25,2.74L28.13,36.35z"/>
		</g>
	</g>
	<polygon id="XMLID_19_" class="st4" points="25.28,16.42 13.48,23.14 25.24,29.92 25.36,29.86 25.28,29.94 	"/>
	<polyline id="XMLID_18_" class="st0" points="5.7,23.38 13.64,23.14 25.28,29.86 17.56,30.11 5.7,23.38 	"/>
	<polyline id="XMLID_17_" class="st3" points="5.62,24.44 13.56,24.19 25.2,30.91 17.49,31.17 5.62,24.44 	"/>
	<polyline id="XMLID_16_" class="st4" points="5.42,23.31 13.66,23.06 13.68,23.07 25.55,29.93 17.54,30.19 17.52,30.18 5.42,23.31 
			"/>
	<polyline id="XMLID_15_" class="st0" points="7.13,23.84 17.33,29.62 23.85,29.41 13.84,23.63 7.13,23.84 	"/>
	<g id="XMLID_13_">
		<polygon id="XMLID_14_" class="st0" points="35.44,37.01 34.84,37.16 34.84,28.89 35.43,28.75 		"/>
	</g>
	<g id="XMLID_7_">
		<g>
			<polygon id="XMLID_9_" class="st3" points="25.2,30.91 32.91,31.17 44.78,24.44 36.84,24.19 			"/>
			<path class="st5" d="M32.95,31.33l-0.05,0l-7.95-0.26v-0.21V30.7l0.21,0.05l11.63-6.72l0.05,0l8.51,0.26L32.95,31.33z
				 M25.76,30.77l7.11,0.24l11.33-6.43l-7.32-0.23L25.76,30.77z"/>
		</g>
		<g>
			<polygon id="XMLID_8_" class="st0" points="25.28,29.86 32.99,30.11 44.86,23.38 36.92,23.14 			"/>
		</g>
		<g>
			<path id="XMLID_2_" class="st4" d="M33.01,30.19l-0.02,0L25,29.93l11.9-6.87l0.02,0l8.22,0.26L33.01,30.19z M25.55,29.79
				l7.42,0.25l11.6-6.58l-7.64-0.24L25.55,29.79z"/>
			<path class="st5" d="M33.05,30.35l-0.07,0l-8.02-0.27l-0.01-0.08l-0.2-0.12l12.1-6.99l0.05,0l8.81,0.27L33.05,30.35z
				 M26.12,29.65l6.81,0.23L44,23.6l-7.02-0.22L26.12,29.65z"/>
		</g>
	</g>
	<g id="XMLID_1_">
		<polygon id="XMLID_6_" class="st0" points="19.07,26.32 25.21,22.85 31.18,26.35 25.21,29.87 		"/>
		<polygon id="XMLID_5_" class="st3" points="19.91,26.79 25.51,23.63 30.64,26.62 25.21,29.82 		"/>
		<g>
			<path id="XMLID_100_" class="st4" d="M25.21,29.97l-0.05-0.03l-6.19-3.68l6.24-3.52l0.04,0.03l6.1,3.58L25.21,29.97z
				 M19.25,26.32l5.97,3.44L31,26.35l-5.79-3.4L19.25,26.32z"/>
			<path class="st5" d="M25.21,30.16l-0.13-0.07l-6.43-3.82l6.56-3.71l0.12,0.07l6.33,3.72L25.21,30.16z M19.57,26.32l5.64,3.26
				l5.47-3.23l-5.48-3.22L19.57,26.32z"/>
		</g>
	</g>
</g>
</svg>
