<svg width="192" height="64" viewBox="0 0 192 64" fill="none" xmlns="http://www.w3.org/2000/svg">
<g filter="url(#filter0_d)">
<rect x="10" y="6" width="172" height="44" rx="15" fill="#FFAE00"/>
<path d="M39.436 34.216C36.964 34.216 35.014 33.448 33.586 31.912L35.836 29.59C37.072 30.73 38.368 31.3 39.724 31.3C40.144 31.3 40.486 31.216 40.75 31.048C41.014 30.88 41.146 30.652 41.146 30.364C41.146 30.112 41.014 29.896 40.75 29.716C40.486 29.536 39.916 29.278 39.04 28.942C37.936 28.522 37.114 28.054 36.574 27.538C36.034 27.022 35.764 26.332 35.764 25.468C35.764 24.22 36.268 23.194 37.276 22.39C38.284 21.586 39.562 21.184 41.11 21.184C43.246 21.184 44.968 21.808 46.276 23.056L44.116 25.468C43.048 24.544 41.938 24.082 40.786 24.082C40.378 24.082 40.048 24.166 39.796 24.334C39.544 24.502 39.418 24.718 39.418 24.982C39.418 25.222 39.544 25.42 39.796 25.576C40.048 25.732 40.624 25.99 41.524 26.35C42.604 26.758 43.42 27.226 43.972 27.754C44.524 28.282 44.8 28.984 44.8 29.86C44.8 31.156 44.296 32.206 43.288 33.01C42.292 33.814 41.008 34.216 39.436 34.216ZM45.3856 34L48.7696 21.4H52.2796L51.0016 26.116H55.4476L56.7076 21.4H60.2176L56.8336 34H53.3236L54.6196 29.212H50.1736L48.8956 34H45.3856ZM66.1726 34.234C64.3966 34.234 62.9506 33.7 61.8346 32.632C60.7186 31.552 60.1606 30.202 60.1606 28.582C60.1606 27.634 60.3466 26.71 60.7186 25.81C61.1026 24.91 61.6186 24.118 62.2666 23.434C62.9146 22.75 63.7066 22.204 64.6426 21.796C65.5906 21.376 66.5986 21.166 67.6666 21.166C69.4426 21.166 70.8886 21.706 72.0046 22.786C73.1206 23.854 73.6786 25.198 73.6786 26.818C73.6786 27.766 73.4866 28.69 73.1026 29.59C72.7306 30.49 72.2206 31.282 71.5726 31.966C70.9246 32.65 70.1266 33.202 69.1786 33.622C68.2426 34.03 67.2406 34.234 66.1726 34.234ZM66.4786 31.102C67.5346 31.102 68.4046 30.688 69.0886 29.86C69.7726 29.02 70.1146 28.096 70.1146 27.088C70.1146 26.26 69.8686 25.588 69.3766 25.072C68.8966 24.556 68.2246 24.298 67.3606 24.298C66.3166 24.298 65.4466 24.718 64.7506 25.558C64.0666 26.398 63.7246 27.316 63.7246 28.312C63.7246 29.14 63.9646 29.812 64.4446 30.328C64.9366 30.844 65.6146 31.102 66.4786 31.102ZM73.6512 34L77.0352 21.4H81.1572C83.1492 21.4 84.5892 21.844 85.4772 22.732C86.1372 23.392 86.4672 24.25 86.4672 25.306C86.4672 26.854 85.8912 28.09 84.7392 29.014C83.5992 29.926 82.0872 30.382 80.2032 30.382H78.1332L77.1612 34H73.6512ZM78.8532 27.664H80.1672C81.0192 27.664 81.6852 27.49 82.1652 27.142C82.6452 26.782 82.8852 26.302 82.8852 25.702C82.8852 25.354 82.7652 25.06 82.5252 24.82C82.2012 24.496 81.7032 24.334 81.0312 24.334H79.7352L78.8532 27.664ZM90.7371 34L94.1211 21.4H97.3791L100.637 28.402L102.527 21.4H106.001L102.617 34H99.5571L96.1551 26.746L94.2111 34H90.7371ZM111.964 34.234C110.188 34.234 108.742 33.7 107.626 32.632C106.51 31.552 105.952 30.202 105.952 28.582C105.952 27.634 106.138 26.71 106.51 25.81C106.894 24.91 107.41 24.118 108.058 23.434C108.706 22.75 109.498 22.204 110.434 21.796C111.382 21.376 112.39 21.166 113.458 21.166C115.234 21.166 116.68 21.706 117.796 22.786C118.912 23.854 119.47 25.198 119.47 26.818C119.47 27.766 119.278 28.69 118.894 29.59C118.522 30.49 118.012 31.282 117.364 31.966C116.716 32.65 115.918 33.202 114.97 33.622C114.034 34.03 113.032 34.234 111.964 34.234ZM112.27 31.102C113.326 31.102 114.196 30.688 114.88 29.86C115.564 29.02 115.906 28.096 115.906 27.088C115.906 26.26 115.66 25.588 115.168 25.072C114.688 24.556 114.016 24.298 113.152 24.298C112.108 24.298 111.238 24.718 110.542 25.558C109.858 26.398 109.516 27.316 109.516 28.312C109.516 29.14 109.756 29.812 110.236 30.328C110.728 30.844 111.406 31.102 112.27 31.102ZM121.643 34.09L120.833 21.4H124.451L124.685 28.69L129.041 21.364H132.065L132.551 28.69L136.691 21.4H140.489L132.875 34.09H129.743L129.167 26.926L124.757 34.09H121.643Z" fill="black"/>
<path d="M33.586 31.912L33.2269 31.5641L32.8967 31.9049L33.2198 32.2524L33.586 31.912ZM35.836 29.59L36.175 29.2225L35.8164 28.8917L35.4769 29.2421L35.836 29.59ZM40.75 31.048L41.0184 31.4698L40.75 31.048ZM40.75 29.716L41.0317 29.3029L40.75 29.716ZM39.04 28.942L39.2191 28.4752L39.2178 28.4747L39.04 28.942ZM36.574 27.538L36.9194 27.1765H36.9194L36.574 27.538ZM37.276 22.39L36.9642 21.9991L37.276 22.39ZM46.276 23.056L46.6485 23.3896L46.9717 23.0287L46.6212 22.6942L46.276 23.056ZM44.116 25.468L43.7889 25.8461L44.1606 26.1677L44.4885 25.8016L44.116 25.468ZM41.524 26.35L41.3383 26.8143L41.3473 26.8177L41.524 26.35ZM43.972 27.754L43.6264 28.1153H43.6264L43.972 27.754ZM43.288 33.01L42.9762 32.6191L42.9739 32.6209L43.288 33.01ZM39.436 33.716C37.0759 33.716 35.2686 32.9876 33.9522 31.5716L33.2198 32.2524C34.7594 33.9084 36.8521 34.716 39.436 34.716V33.716ZM33.9451 32.2599L36.1951 29.9379L35.4769 29.2421L33.2269 31.5641L33.9451 32.2599ZM35.497 29.9575C36.8022 31.1613 38.214 31.8 39.724 31.8V30.8C38.522 30.8 37.3418 30.2987 36.175 29.2225L35.497 29.9575ZM39.724 31.8C40.2074 31.8 40.6511 31.7036 41.0184 31.4698L40.4816 30.6262C40.3209 30.7284 40.0806 30.8 39.724 30.8V31.8ZM41.0184 31.4698C41.4118 31.2195 41.646 30.8399 41.646 30.364H40.646C40.646 30.4641 40.6162 30.5405 40.4816 30.6262L41.0184 31.4698ZM41.646 30.364C41.646 29.9024 41.3912 29.548 41.0317 29.3029L40.4683 30.1291C40.6368 30.244 40.646 30.3216 40.646 30.364H41.646ZM41.0317 29.3029C40.7117 29.0847 40.0865 28.8079 39.2191 28.4752L38.8609 29.4088C39.7455 29.7481 40.2603 29.9873 40.4683 30.1291L41.0317 29.3029ZM39.2178 28.4747C38.144 28.0662 37.3913 27.6274 36.9194 27.1765L36.2286 27.8995C36.8367 28.4806 37.728 28.9778 38.8622 29.4093L39.2178 28.4747ZM36.9194 27.1765C36.4938 26.7698 36.264 26.2188 36.264 25.468H35.264C35.264 26.4452 35.5742 27.2742 36.2286 27.8995L36.9194 27.1765ZM36.264 25.468C36.264 24.3779 36.6941 23.4937 37.5878 22.7809L36.9642 21.9991C35.8419 22.8943 35.264 24.0621 35.264 25.468H36.264ZM37.5878 22.7809C38.4904 22.0609 39.6517 21.684 41.11 21.684V20.684C39.4723 20.684 38.0776 21.1111 36.9642 21.9991L37.5878 22.7809ZM41.11 21.684C43.1424 21.684 44.7324 22.2743 45.9308 23.4178L46.6212 22.6942C45.2036 21.3417 43.3496 20.684 41.11 20.684V21.684ZM45.9035 22.7224L43.7435 25.1344L44.4885 25.8016L46.6485 23.3896L45.9035 22.7224ZM44.4431 25.0899C43.3056 24.1057 42.0837 23.582 40.786 23.582V24.582C41.7923 24.582 42.7904 24.9823 43.7889 25.8461L44.4431 25.0899ZM40.786 23.582C40.3128 23.582 39.8768 23.6792 39.5187 23.918L40.0734 24.75C40.2192 24.6528 40.4433 24.582 40.786 24.582V23.582ZM39.5187 23.918C39.1514 24.1628 38.918 24.524 38.918 24.982H39.918C39.918 24.912 39.9366 24.8412 40.0734 24.75L39.5187 23.918ZM38.918 24.982C38.918 25.4374 39.1735 25.7787 39.5328 26.0011L40.0592 25.1509C39.9145 25.0613 39.918 25.0066 39.918 24.982H38.918ZM39.5328 26.0011C39.8288 26.1844 40.4478 26.458 41.3383 26.8142L41.7097 25.8858C40.8002 25.522 40.2672 25.2796 40.0592 25.1509L39.5328 26.0011ZM41.3473 26.8177C42.3935 27.213 43.1413 27.6513 43.6264 28.1153L44.3176 27.3927C43.6987 26.8007 42.8145 26.303 41.7007 25.8823L41.3473 26.8177ZM43.6264 28.1153C44.065 28.5349 44.3 29.0986 44.3 29.86H45.3C45.3 28.8694 44.983 28.0291 44.3176 27.3927L43.6264 28.1153ZM44.3 29.86C44.3 31.0048 43.8646 31.9106 42.9762 32.6191L43.5998 33.4009C44.7274 32.5014 45.3 31.3072 45.3 29.86H44.3ZM42.9739 32.6209C42.0857 33.3379 40.9206 33.716 39.436 33.716V34.716C41.0954 34.716 42.4983 34.2901 43.6021 33.3991L42.9739 32.6209ZM45.3856 34L44.9027 33.8703L44.7336 34.5H45.3856V34ZM48.7696 21.4V20.9H48.3861L48.2867 21.2703L48.7696 21.4ZM52.2796 21.4L52.7622 21.5308L52.9331 20.9H52.2796V21.4ZM51.0016 26.116L50.519 25.9852L50.348 26.616H51.0016V26.116ZM55.4476 26.116V26.616H55.8315L55.9306 26.2451L55.4476 26.116ZM56.7076 21.4V20.9H56.3236L56.2245 21.2709L56.7076 21.4ZM60.2176 21.4L60.7005 21.5297L60.8696 20.9H60.2176V21.4ZM56.8336 34V34.5H57.217L57.3165 34.1297L56.8336 34ZM53.3236 34L52.8409 33.8694L52.6702 34.5H53.3236V34ZM54.6196 29.212L55.1022 29.3426L55.2729 28.712H54.6196V29.212ZM50.1736 29.212V28.712H49.7895L49.6905 29.0831L50.1736 29.212ZM48.8956 34V34.5H49.2796L49.3786 34.1289L48.8956 34ZM45.8685 34.1297L49.2524 21.5297L48.2867 21.2703L44.9027 33.8703L45.8685 34.1297ZM48.7696 21.9H52.2796V20.9H48.7696V21.9ZM51.797 21.2692L50.519 25.9852L51.4842 26.2468L52.7622 21.5308L51.797 21.2692ZM51.0016 26.616H55.4476V25.616H51.0016V26.616ZM55.9306 26.2451L57.1906 21.5291L56.2245 21.2709L54.9645 25.9869L55.9306 26.2451ZM56.7076 21.9H60.2176V20.9H56.7076V21.9ZM59.7347 21.2703L56.3507 33.8703L57.3165 34.1297L60.7005 21.5297L59.7347 21.2703ZM56.8336 33.5H53.3236V34.5H56.8336V33.5ZM53.8062 34.1306L55.1022 29.3426L54.1369 29.0814L52.8409 33.8694L53.8062 34.1306ZM54.6196 28.712H50.1736V29.712H54.6196V28.712ZM49.6905 29.0831L48.4125 33.8711L49.3786 34.1289L50.6567 29.3409L49.6905 29.0831ZM48.8956 33.5H45.3856V34.5H48.8956V33.5ZM61.8346 32.632L61.4869 32.9913L61.4889 32.9932L61.8346 32.632ZM60.7186 25.81L60.2587 25.6138L60.2565 25.619L60.7186 25.81ZM62.2666 23.434L62.6296 23.7779V23.7779L62.2666 23.434ZM64.6426 21.796L64.8424 22.2544L64.8451 22.2531L64.6426 21.796ZM72.0046 22.786L71.6569 23.1453L71.6589 23.1472L72.0046 22.786ZM73.1026 29.59L72.6427 29.3938L72.6405 29.399L73.1026 29.59ZM71.5726 31.966L71.9356 32.3099V32.3099L71.5726 31.966ZM69.1786 33.622L69.3784 34.0804L69.3811 34.0791L69.1786 33.622ZM69.0886 29.86L69.4741 30.1784L69.4763 30.1757L69.0886 29.86ZM69.3766 25.072L69.0105 25.4126L69.0147 25.417L69.3766 25.072ZM64.7506 25.558L64.3656 25.239L64.3629 25.2423L64.7506 25.558ZM64.4446 30.328L64.0785 30.6686L64.0827 30.673L64.4446 30.328ZM66.1726 33.734C64.5046 33.734 63.1893 33.2363 62.1803 32.2708L61.4889 32.9932C62.712 34.1637 64.2886 34.734 66.1726 34.734V33.734ZM62.1823 32.2727C61.1683 31.2914 60.6606 30.0731 60.6606 28.582H59.6606C59.6606 30.3309 60.269 31.8126 61.4869 32.9913L62.1823 32.2727ZM60.6606 28.582C60.6606 27.7013 60.833 26.8421 61.1807 26.001L60.2565 25.619C59.8602 26.5779 59.6606 27.5667 59.6606 28.582H60.6606ZM61.1785 26.0062C61.5401 25.1587 62.024 24.4171 62.6296 23.7779L61.9036 23.0901C61.2133 23.8189 60.6651 24.6613 60.2587 25.6138L61.1785 26.0062ZM62.6296 23.7779C63.2277 23.1465 63.9627 22.6378 64.8424 22.2543L64.4428 21.3377C63.4505 21.7702 62.6015 22.3534 61.9036 23.0901L62.6296 23.7779ZM64.8451 22.2531C65.7274 21.8623 66.6662 21.666 67.6666 21.666V20.666C66.531 20.666 65.4538 20.8897 64.4401 21.3389L64.8451 22.2531ZM67.6666 21.666C69.333 21.666 70.6477 22.1686 71.6569 23.1453L72.3523 22.4267C71.1295 21.2434 69.5522 20.666 67.6666 20.666V21.666ZM71.6589 23.1472C72.6711 24.1159 73.1786 25.327 73.1786 26.818H74.1786C74.1786 25.069 73.5701 23.5921 72.3503 22.4248L71.6589 23.1472ZM73.1786 26.818C73.1786 27.6964 73.0011 28.5538 72.6427 29.3938L73.5625 29.7862C73.9721 28.8262 74.1786 27.8356 74.1786 26.818H73.1786ZM72.6405 29.399C72.2911 30.2443 71.8141 30.9841 71.2096 31.6221L71.9356 32.3099C72.6271 31.5799 73.1701 30.7357 73.5647 29.781L72.6405 29.399ZM71.2096 31.6221C70.6115 32.2535 69.8697 32.7689 68.9761 33.1649L69.3811 34.0791C70.3835 33.6351 71.2377 33.0465 71.9356 32.3099L71.2096 31.6221ZM68.9788 33.1637C68.1087 33.5429 67.1751 33.734 66.1726 33.734V34.734C67.3061 34.734 68.3765 34.5171 69.3784 34.0803L68.9788 33.1637ZM66.4786 31.602C67.6867 31.602 68.697 31.1192 69.4741 30.1784L68.7031 29.5416C68.1122 30.2568 67.3825 30.602 66.4786 30.602V31.602ZM69.4763 30.1757C70.2271 29.2537 70.6146 28.2199 70.6146 27.088H69.6146C69.6146 27.9721 69.3181 28.7863 68.7009 29.5443L69.4763 30.1757ZM70.6146 27.088C70.6146 26.1538 70.3334 25.3509 69.7385 24.727L69.0147 25.417C69.4038 25.8251 69.6146 26.3662 69.6146 27.088H70.6146ZM69.7427 24.7314C69.1473 24.0914 68.3297 23.798 67.3606 23.798V24.798C68.1195 24.798 68.6459 25.0206 69.0105 25.4126L69.7427 24.7314ZM67.3606 23.798C66.1602 23.798 65.1517 24.2903 64.3656 25.239L65.1356 25.877C65.7415 25.1457 66.473 24.798 67.3606 24.798V23.798ZM64.3629 25.2423C63.6131 26.1631 63.2246 27.1906 63.2246 28.312H64.2246C64.2246 27.4414 64.5201 26.6329 65.1383 25.8737L64.3629 25.2423ZM63.2246 28.312C63.2246 29.2428 63.4977 30.0441 64.0785 30.6686L64.8107 29.9874C64.4316 29.5799 64.2246 29.0372 64.2246 28.312H63.2246ZM64.0827 30.673C64.6886 31.3085 65.509 31.602 66.4786 31.602V30.602C65.7202 30.602 65.1846 30.3795 64.8065 29.983L64.0827 30.673ZM73.6512 34L73.1683 33.8703L72.9992 34.5H73.6512V34ZM77.0352 21.4V20.9H76.6518L76.5523 21.2703L77.0352 21.4ZM84.7392 29.014L85.0515 29.4044L85.052 29.404L84.7392 29.014ZM78.1332 30.382V29.882H77.7498L77.6503 30.2523L78.1332 30.382ZM77.1612 34V34.5H77.5446L77.6441 34.1297L77.1612 34ZM78.8532 27.664L78.3699 27.536L78.2035 28.164H78.8532V27.664ZM82.1652 27.142L82.4587 27.5469L82.4652 27.542L82.1652 27.142ZM82.5252 24.82L82.8787 24.4664V24.4664L82.5252 24.82ZM79.7352 24.334V23.834H79.3504L79.2519 24.206L79.7352 24.334ZM74.1341 34.1297L77.5181 21.5297L76.5523 21.2703L73.1683 33.8703L74.1341 34.1297ZM77.0352 21.9H81.1572V20.9H77.0352V21.9ZM81.1572 21.9C83.0917 21.9 84.3717 22.3336 85.1236 23.0856L85.8307 22.3784C84.8067 21.3544 83.2067 20.9 81.1572 20.9V21.9ZM85.1236 23.0856C85.6772 23.6392 85.9672 24.3636 85.9672 25.306H86.9672C86.9672 24.1364 86.5971 23.1448 85.8307 22.3784L85.1236 23.0856ZM85.9672 25.306C85.9672 26.7108 85.4536 27.8 84.4263 28.624L85.052 29.404C86.3288 28.38 86.9672 26.9972 86.9672 25.306H85.9672ZM84.4268 28.6236C83.3985 29.4463 82.007 29.882 80.2032 29.882V30.882C82.1673 30.882 83.7999 30.4057 85.0515 29.4044L84.4268 28.6236ZM80.2032 29.882H78.1332V30.882H80.2032V29.882ZM77.6503 30.2523L76.6783 33.8703L77.6441 34.1297L78.6161 30.5117L77.6503 30.2523ZM77.1612 33.5H73.6512V34.5H77.1612V33.5ZM78.8532 28.164H80.1672V27.164H78.8532V28.164ZM80.1672 28.164C81.0803 28.164 81.8633 27.9784 82.4587 27.5468L81.8717 26.7372C81.507 27.0016 80.9581 27.164 80.1672 27.164V28.164ZM82.4652 27.542C83.0711 27.0876 83.3852 26.4594 83.3852 25.702H82.3852C82.3852 26.1446 82.2193 26.4764 81.8652 26.742L82.4652 27.542ZM83.3852 25.702C83.3852 25.2251 83.2151 24.8028 82.8787 24.4664L82.1716 25.1736C82.3152 25.3172 82.3852 25.4829 82.3852 25.702H83.3852ZM82.8787 24.4664C82.4249 24.0126 81.7741 23.834 81.0312 23.834V24.834C81.6323 24.834 81.9775 24.9794 82.1716 25.1736L82.8787 24.4664ZM81.0312 23.834H79.7352V24.834H81.0312V23.834ZM79.2519 24.206L78.3699 27.536L79.3365 27.792L80.2185 24.462L79.2519 24.206ZM90.7371 34L90.2542 33.8703L90.0851 34.5H90.7371V34ZM94.1211 21.4V20.9H93.7377L93.6382 21.2703L94.1211 21.4ZM97.3791 21.4L97.8325 21.1891L97.698 20.9H97.3791V21.4ZM100.637 28.402L100.184 28.6129L100.762 29.8565L101.12 28.5323L100.637 28.402ZM102.527 21.4V20.9H102.144L102.044 21.2697L102.527 21.4ZM106.001 21.4L106.484 21.5297L106.653 20.9H106.001V21.4ZM102.617 34V34.5H103.001L103.1 34.1297L102.617 34ZM99.5571 34L99.1044 34.2123L99.2394 34.5H99.5571V34ZM96.1551 26.746L96.6078 26.5337L96.0265 25.2943L95.6722 26.6166L96.1551 26.746ZM94.2111 34V34.5H94.5948L94.6941 34.1294L94.2111 34ZM91.22 34.1297L94.604 21.5297L93.6382 21.2703L90.2542 33.8703L91.22 34.1297ZM94.1211 21.9H97.3791V20.9H94.1211V21.9ZM96.9258 21.6109L100.184 28.6129L101.09 28.1911L97.8325 21.1891L96.9258 21.6109ZM101.12 28.5323L103.01 21.5303L102.044 21.2697L100.154 28.2717L101.12 28.5323ZM102.527 21.9H106.001V20.9H102.527V21.9ZM105.518 21.2703L102.134 33.8703L103.1 34.1297L106.484 21.5297L105.518 21.2703ZM102.617 33.5H99.5571V34.5H102.617V33.5ZM100.01 33.7877L96.6078 26.5337L95.7024 26.9583L99.1044 34.2123L100.01 33.7877ZM95.6722 26.6166L93.7282 33.8706L94.6941 34.1294L96.6381 26.8754L95.6722 26.6166ZM94.2111 33.5H90.7371V34.5H94.2111V33.5ZM107.626 32.632L107.278 32.9913L107.28 32.9932L107.626 32.632ZM106.51 25.81L106.05 25.6138L106.048 25.619L106.51 25.81ZM108.058 23.434L108.421 23.7779V23.7779L108.058 23.434ZM110.434 21.796L110.633 22.2544L110.636 22.2531L110.434 21.796ZM117.796 22.786L117.448 23.1453L117.45 23.1472L117.796 22.786ZM118.894 29.59L118.434 29.3938L118.432 29.399L118.894 29.59ZM117.364 31.966L117.727 32.3099V32.3099L117.364 31.966ZM114.97 33.622L115.169 34.0804L115.172 34.0791L114.97 33.622ZM114.88 29.86L115.265 30.1784L115.267 30.1757L114.88 29.86ZM115.168 25.072L114.802 25.4126L114.806 25.417L115.168 25.072ZM110.542 25.558L110.157 25.239L110.154 25.2423L110.542 25.558ZM110.236 30.328L109.87 30.6686L109.874 30.673L110.236 30.328ZM111.964 33.734C110.296 33.734 108.98 33.2363 107.971 32.2708L107.28 32.9932C108.503 34.1637 110.08 34.734 111.964 34.734V33.734ZM107.973 32.2727C106.959 31.2914 106.452 30.0731 106.452 28.582H105.452C105.452 30.3309 106.06 31.8126 107.278 32.9913L107.973 32.2727ZM106.452 28.582C106.452 27.7013 106.624 26.8421 106.972 26.001L106.048 25.619C105.651 26.5779 105.452 27.5667 105.452 28.582H106.452ZM106.97 26.0062C107.331 25.1587 107.815 24.4171 108.421 23.7779L107.695 23.0901C107.004 23.8189 106.456 24.6613 106.05 25.6138L106.97 26.0062ZM108.421 23.7779C109.019 23.1465 109.754 22.6378 110.633 22.2543L110.234 21.3377C109.242 21.7702 108.393 22.3534 107.695 23.0901L108.421 23.7779ZM110.636 22.2531C111.518 21.8623 112.457 21.666 113.458 21.666V20.666C112.322 20.666 111.245 20.8897 110.231 21.3389L110.636 22.2531ZM113.458 21.666C115.124 21.666 116.439 22.1686 117.448 23.1453L118.143 22.4267C116.921 21.2434 115.343 20.666 113.458 20.666V21.666ZM117.45 23.1472C118.462 24.1159 118.97 25.327 118.97 26.818H119.97C119.97 25.069 119.361 23.5921 118.141 22.4248L117.45 23.1472ZM118.97 26.818C118.97 27.6964 118.792 28.5538 118.434 29.3938L119.354 29.7862C119.763 28.8262 119.97 27.8356 119.97 26.818H118.97ZM118.432 29.399C118.082 30.2443 117.605 30.9841 117.001 31.6221L117.727 32.3099C118.418 31.5799 118.961 30.7357 119.356 29.781L118.432 29.399ZM117.001 31.6221C116.402 32.2535 115.661 32.7689 114.767 33.1649L115.172 34.0791C116.175 33.6351 117.029 33.0465 117.727 32.3099L117.001 31.6221ZM114.77 33.1637C113.9 33.5429 112.966 33.734 111.964 33.734V34.734C113.097 34.734 114.168 34.5171 115.169 34.0803L114.77 33.1637ZM112.27 31.602C113.478 31.602 114.488 31.1192 115.265 30.1784L114.494 29.5416C113.903 30.2568 113.174 30.602 112.27 30.602V31.602ZM115.267 30.1757C116.018 29.2537 116.406 28.2199 116.406 27.088H115.406C115.406 27.9721 115.109 28.7863 114.492 29.5443L115.267 30.1757ZM116.406 27.088C116.406 26.1538 116.124 25.3509 115.529 24.727L114.806 25.417C115.195 25.8251 115.406 26.3662 115.406 27.088H116.406ZM115.534 24.7314C114.938 24.0914 114.121 23.798 113.152 23.798V24.798C113.91 24.798 114.437 25.0206 114.802 25.4126L115.534 24.7314ZM113.152 23.798C111.951 23.798 110.943 24.2903 110.157 25.239L110.927 25.877C111.533 25.1457 112.264 24.798 113.152 24.798V23.798ZM110.154 25.2423C109.404 26.1631 109.016 27.1906 109.016 28.312H110.016C110.016 27.4414 110.311 26.6329 110.929 25.8737L110.154 25.2423ZM109.016 28.312C109.016 29.2428 109.289 30.0441 109.87 30.6686L110.602 29.9874C110.223 29.5799 110.016 29.0372 110.016 28.312H109.016ZM109.874 30.673C110.48 31.3085 111.3 31.602 112.27 31.602V30.602C111.511 30.602 110.976 30.3795 110.597 29.983L109.874 30.673ZM121.643 34.09L121.144 34.1219L121.173 34.59H121.643V34.09ZM120.833 21.4V20.9H120.3L120.334 21.4318L120.833 21.4ZM124.451 21.4L124.95 21.384L124.935 20.9H124.451V21.4ZM124.685 28.69L124.185 28.706L124.24 30.4165L125.114 28.9455L124.685 28.69ZM129.041 21.364V20.864H128.756L128.611 21.1085L129.041 21.364ZM132.065 21.364L132.563 21.3309L132.532 20.864H132.065V21.364ZM132.551 28.69L132.052 28.7231L132.162 30.3867L132.985 28.9369L132.551 28.69ZM136.691 21.4V20.9H136.4L136.256 21.1531L136.691 21.4ZM140.489 21.4L140.917 21.6572L141.372 20.9H140.489V21.4ZM132.875 34.09V34.59H133.158L133.303 34.3472L132.875 34.09ZM129.743 34.09L129.244 34.1301L129.281 34.59H129.743V34.09ZM129.167 26.926L129.665 26.8859L129.542 25.3617L128.741 26.6639L129.167 26.926ZM124.757 34.09V34.59H125.036L125.182 34.3521L124.757 34.09ZM122.142 34.0582L121.332 21.3681L120.334 21.4318L121.144 34.1219L122.142 34.0582ZM120.833 21.9H124.451V20.9H120.833V21.9ZM123.951 21.416L124.185 28.706L125.184 28.674L124.95 21.384L123.951 21.416ZM125.114 28.9455L129.47 21.6195L128.611 21.1085L124.255 28.4345L125.114 28.9455ZM129.041 21.864H132.065V20.864H129.041V21.864ZM131.566 21.3971L132.052 28.7231L133.049 28.6569L132.563 21.3309L131.566 21.3971ZM132.985 28.9369L137.125 21.6469L136.256 21.1531L132.116 28.4431L132.985 28.9369ZM136.691 21.9H140.489V20.9H136.691V21.9ZM140.06 21.1428L132.446 33.8328L133.303 34.3472L140.917 21.6572L140.06 21.1428ZM132.875 33.59H129.743V34.59H132.875V33.59ZM130.241 34.0499L129.665 26.8859L128.668 26.9661L129.244 34.1301L130.241 34.0499ZM128.741 26.6639L124.331 33.8279L125.182 34.3521L129.592 27.1881L128.741 26.6639ZM124.757 33.59H121.643V34.59H124.757V33.59Z" fill="black"/>
<path d="M169 28L155.5 35.7942L155.5 20.2058L169 28Z" fill="black"/>
</g>
<defs>
<filter id="filter0_d" x="0" y="0" width="192" height="64" filterUnits="userSpaceOnUse" color-interpolation-filters="sRGB">
<feFlood flood-opacity="0" result="BackgroundImageFix"/>
<feColorMatrix in="SourceAlpha" type="matrix" values="0 0 0 0 0 0 0 0 0 0 0 0 0 0 0 0 0 0 127 0"/>
<feOffset dy="4"/>
<feGaussianBlur stdDeviation="5"/>
<feColorMatrix type="matrix" values="0 0 0 0 0 0 0 0 0 0 0 0 0 0 0 0 0 0 0.4 0"/>
<feBlend mode="normal" in2="BackgroundImageFix" result="effect1_dropShadow"/>
<feBlend mode="normal" in="SourceGraphic" in2="effect1_dropShadow" result="shape"/>
</filter>
</defs>
</svg>
