<svg width="72" height="40" viewBox="0 0 72 40" fill="none" xmlns="http://www.w3.org/2000/svg">
<path d="M23.2 25.8C20.3 25.8 18 28.2 18 31C18 33.8 20.4 36.2 23.2 36.2C26.1 36.2 28.4 33.8 28.4 31C28.4 28.2 26.1 25.8 23.2 25.8ZM24 27.3C24.1 27.3 24.3 27.3 24.6 27.4C25.3 27.6 25.7 28 26.2 28.6C26.5 29 26.5 29.1 26.5 29.1C26.5 29.1 26.5 29.1 26.4 29.1L24.4 29.7C24.3 29.7 24.2 29.7 24.1 29.7C24.1 29.7 24 29.6 24 29.5V27.3ZM20.3 28.5C20.7 27.9 21.2 27.6 21.9 27.3C22.3 27.1 22.5 27.2 22.5 27.1C22.5 27.1 22.5 27.1 22.5 27.2L22.4 29.3C22.4 29.4 22.3 29.5 22.3 29.5C22.3 29.5 22.2 29.6 22 29.6L20 29.1C20 29.1 20 29.1 19.9 29.1C20 29 20 28.9 20.3 28.5ZM21.6 31.8L20.5 33.5C20.4 33.4 20.3 33.3 20.1 33C19.7 32.4 19.5 31.9 19.5 31.1C19.5 30.6 19.5 30.5 19.5 30.5C19.5 30.5 19.5 30.5 19.6 30.5L21.5 31.2C21.6 31.2 21.7 31.3 21.7 31.4C21.6 31.6 21.7 31.7 21.6 31.8ZM24.2 34.7C23.5 34.9 22.9 34.9 22.2 34.7C21.8 34.6 21.6 34.5 21.6 34.5C21.6 34.5 21.6 34.5 21.6 34.4L22.9 32.8C23 32.7 23.1 32.7 23.2 32.7C23.3 32.7 23.4 32.7 23.4 32.8L24.7 34.4C24.7 34.5 24.6 34.6 24.2 34.7ZM27 30.6C27 30.7 27.1 30.9 27.1 31.3C27.1 32 26.9 32.6 26.5 33.2C26.3 33.6 26.1 33.7 26.1 33.7C26.1 33.7 26.1 33.7 26.1 33.6L25 31.9C24.9 31.8 24.9 31.7 25 31.6C25.1 31.5 25.1 31.4 25.2 31.4L27 30.6Z" fill="black"/>
<path d="M10.8 9.10001H14.5L16.9 20.1H19L16.1 7.10001H10.8C7.6 7.10001 6 6.80001 4.6 4.70001H7.9L7.4 2.70001H0L0.8 4.70001H2.3C3.4 7.40001 6.6 9.10001 10.8 9.10001Z" fill="black"/>
<path d="M50.5 25.8C47.6 25.8 45.3 28.2 45.3 31C45.3 33.8 47.7 36.2 50.5 36.2C53.4 36.2 55.7001 33.8 55.7001 31C55.7001 28.2 53.4 25.8 50.5 25.8ZM51.3 27.3C51.4 27.3 51.6001 27.3 51.9001 27.4C52.6001 27.6 53 28 53.5 28.6C53.8 29 53.8 29.1 53.8 29.1C53.8 29.1 53.8001 29.1 53.7001 29.1L51.7001 29.7C51.6001 29.7 51.5001 29.7 51.4001 29.7C51.4001 29.7 51.3 29.6 51.3 29.5V27.3ZM47.5 28.5C47.9 27.9 48.4 27.6 49.1 27.3C49.5 27.1 49.7001 27.2 49.7001 27.1C49.7001 27.1 49.7001 27.1 49.7001 27.2L49.6 29.3C49.6 29.4 49.5 29.5 49.5 29.5C49.5 29.5 49.4001 29.6 49.2001 29.6L47.2001 29.1C47.2001 29.1 47.2 29.1 47.1 29.1C47.2 29 47.3 28.9 47.5 28.5ZM48.9001 31.8L47.8 33.5C47.7 33.4 47.6001 33.3 47.4001 33C47.0001 32.4 46.8 31.9 46.8 31.1C46.8 30.6 46.8 30.5 46.8 30.5C46.8 30.5 46.8001 30.5 46.9001 30.5L48.8 31.2C48.9 31.2 49 31.3 49 31.4C48.9 31.6 48.9001 31.7 48.9001 31.8ZM51.5 34.7C50.8 34.9 50.2 34.9 49.5 34.7C49.1 34.6 48.9001 34.5 48.9001 34.5C48.9001 34.5 48.9001 34.5 48.9001 34.4L50.2001 32.8C50.3001 32.7 50.4 32.7 50.5 32.7C50.6 32.7 50.7001 32.7 50.7001 32.8L52 34.4C52 34.5 51.9 34.6 51.5 34.7ZM54.3 30.6C54.3 30.7 54.4001 30.9 54.4001 31.3C54.4001 32 54.2 32.6 53.8 33.2C53.6 33.6 53.4001 33.7 53.4001 33.7C53.4001 33.7 53.4001 33.7 53.4001 33.6L52.3 31.9C52.2 31.8 52.2 31.7 52.3 31.6C52.4 31.5 52.4 31.4 52.5 31.4L54.3 30.6Z" fill="black"/>
<path d="M57.2999 32.8L56.5 34.8H71.3L68.4 33C68.3 33 62.5 29.2 58.5999 26.6C57.7999 25.2 56.7 24.1 55.4 23.2L61.2 14.4H19.3L19.7 16.4H57.2999L56.2999 18H20.3L20.7 20H55L53.5999 22.2C52.5999 21.9 51.5999 21.7 50.5999 21.7C48.5 21.7 46.5999 22.4 45 23.6H28.7999C27.2999 22.4 25.3 21.7 23.2 21.7C19.3 21.7 15.9 24.1 14.6 27.7L8.29995 25.7L8.19995 27.8L15.8 30.2L16.1 29.1C16.9 25.9 19.8 23.7 23.1 23.7C27.1 23.7 30.2999 26.9 30.2999 30.9H32.2999H41.0999H43.0999C43.0999 26.9 46.3999 23.7 50.2999 23.7C53.3999 23.7 56.0999 25.6 57.0999 28.5C57.2999 29 57.4 30.3 57.4 31.1H59.2C59.2 30.9 59.2 30.2 59.2 29.4C60.9 30.5 62.7999 31.7 64.1999 32.7H57.2999V32.8ZM32.2999 29C32 27.8 31.5 26.6 30.7999 25.6H43C42.2999 26.6 41.7999 27.7 41.5 29H32.2999Z" fill="black"/>
<path d="M30.2999 32.8L29.2 34.8H44.5L43.5 32.8H30.2999Z" fill="black"/>
<path d="M8.19995 29.3V31.4L16.5 34L15.9 31.7L8.19995 29.3Z" fill="black"/>
</svg>
