<?xml version="1.0" encoding="utf-8"?>
<!-- Generator: Adobe Illustrator 23.1.0, SVG Export Plug-In . SVG Version: 6.00 Build 0)  -->
<svg version="1.1" id="Слой_1" xmlns="http://www.w3.org/2000/svg" xmlns:xlink="http://www.w3.org/1999/xlink" x="0px" y="0px"
	 viewBox="0 0 72 40" style="enable-background:new 0 0 72 40;" xml:space="preserve">
<g>
	<path d="M23.2,25.8c-2.9,0-5.2,2.4-5.2,5.2s2.4,5.2,5.2,5.2c2.9,0,5.2-2.4,5.2-5.2S26.1,25.8,23.2,25.8z M24,27.3
		c0.1,0,0.3,0,0.6,0.1c0.7,0.2,1.1,0.6,1.6,1.2c0.3,0.4,0.3,0.5,0.3,0.5c0,0,0,0-0.1,0l-2,0.6c-0.1,0-0.2,0-0.3,0
		c0,0-0.1-0.1-0.1-0.2L24,27.3C24,27.3,24,27.3,24,27.3z M20.3,28.5c0.4-0.6,0.9-0.9,1.6-1.2c0.4-0.2,0.6-0.1,0.6-0.2c0,0,0,0,0,0.1
		l-0.1,2.1c0,0.1-0.1,0.2-0.1,0.2c0,0-0.1,0.1-0.3,0.1l-2-0.5c0,0,0,0-0.1,0C20,29,20,28.9,20.3,28.5z M21.6,31.8l-1.1,1.7
		c0,0,0,0,0,0c-0.1-0.1-0.2-0.2-0.4-0.5c-0.4-0.6-0.6-1.1-0.6-1.9c0-0.5,0-0.6,0-0.6c0,0,0,0,0.1,0l1.9,0.7c0.1,0,0.2,0.1,0.2,0.2
		C21.6,31.6,21.7,31.7,21.6,31.8z M24.2,34.7c-0.7,0.2-1.3,0.2-2,0c-0.4-0.1-0.6-0.2-0.6-0.2h0c0,0,0,0,0-0.1l1.3-1.6
		c0.1-0.1,0.2-0.1,0.3-0.1c0,0,0,0,0,0c0.1,0,0.2,0,0.2,0.1l1.3,1.6c0,0,0,0,0,0C24.7,34.5,24.6,34.6,24.2,34.7z M27,30.6
		c0,0.1,0.1,0.3,0.1,0.7c0,0.7-0.2,1.3-0.6,1.9c-0.2,0.4-0.4,0.5-0.4,0.5c0,0,0,0,0-0.1l-1.1-1.7c-0.1-0.1-0.1-0.2,0-0.3
		s0.1-0.2,0.2-0.2L27,30.6C27,30.6,27,30.6,27,30.6z"/>
	<path d="M10.8,9.1h3.7l2.4,11H19l-2.9-13h-5.3C7.6,7.1,6,6.8,4.6,4.7h3.3l-0.5-2H0l0.8,2h1.5C3.4,7.4,6.6,9.1,10.8,9.1z"/>
	<path d="M50.5,25.8c-2.9,0-5.2,2.4-5.2,5.2s2.4,5.2,5.2,5.2c2.9,0,5.2-2.4,5.2-5.2S53.4,25.8,50.5,25.8z M51.3,27.3
		c0.1,0,0.3,0,0.6,0.1c0.7,0.2,1.1,0.6,1.6,1.2c0.3,0.4,0.3,0.5,0.3,0.5c0,0,0,0-0.1,0l-2,0.6c-0.1,0-0.2,0-0.3,0
		c0,0-0.1-0.1-0.1-0.2L51.3,27.3C51.3,27.3,51.3,27.3,51.3,27.3z M47.5,28.5c0.4-0.6,0.9-0.9,1.6-1.2c0.4-0.2,0.6-0.1,0.6-0.2
		c0,0,0,0,0,0.1l-0.1,2.1c0,0.1-0.1,0.2-0.1,0.2c0,0-0.1,0.1-0.3,0.1l-2-0.5c0,0,0,0-0.1,0C47.2,29,47.3,28.9,47.5,28.5z M48.9,31.8
		l-1.1,1.7c0,0,0,0,0,0c-0.1-0.1-0.2-0.2-0.4-0.5c-0.4-0.6-0.6-1.1-0.6-1.9c0-0.5,0-0.6,0-0.6c0,0,0,0,0.1,0l1.9,0.7
		c0.1,0,0.2,0.1,0.2,0.2C48.9,31.6,48.9,31.7,48.9,31.8z M51.5,34.7c-0.7,0.2-1.3,0.2-2,0c-0.4-0.1-0.6-0.2-0.6-0.2h0c0,0,0,0,0-0.1
		l1.3-1.6c0.1-0.1,0.2-0.1,0.3-0.1c0,0,0,0,0,0c0.1,0,0.2,0,0.2,0.1l1.3,1.6c0,0,0,0,0,0C52,34.5,51.9,34.6,51.5,34.7z M54.3,30.6
		c0,0.1,0.1,0.3,0.1,0.7c0,0.7-0.2,1.3-0.6,1.9c-0.2,0.4-0.4,0.5-0.4,0.5c0,0,0,0,0-0.1l-1.1-1.7c-0.1-0.1-0.1-0.2,0-0.3
		s0.1-0.2,0.2-0.2L54.3,30.6C54.3,30.6,54.3,30.6,54.3,30.6z"/>
	<path d="M57.3,32.8l-0.8,2h14.8L68.4,33c-0.1,0-5.9-3.8-9.8-6.4c-0.8-1.4-1.9-2.5-3.2-3.4l5.8-8.8H19.3l0.4,2h37.6L56.3,18h-36
		l0.4,2H55l-1.4,2.2c-1-0.3-2-0.5-3-0.5c-2.1,0-4,0.7-5.6,1.9H28.8c-1.5-1.2-3.5-1.9-5.6-1.9c-3.9,0-7.3,2.4-8.6,6l-6.3-2l-0.1,2.1
		l7.6,2.4l0.3-1.1c0.8-3.2,3.7-5.4,7-5.4c4,0,7.2,3.2,7.2,7.2v0h0h2h8.8h2h0c0-4,3.3-7.2,7.2-7.2c3.1,0,5.8,1.9,6.8,4.8
		c0.2,0.5,0.3,1.8,0.3,2.6h1.8c0-0.2,0-0.9,0-1.7c1.7,1.1,3.6,2.3,5,3.3H57.3z M32.3,29c-0.3-1.2-0.8-2.4-1.5-3.4H43
		c-0.7,1-1.2,2.1-1.5,3.4H32.3z"/>
	<polygon points="30.3,32.8 29.2,34.8 44.5,34.8 43.5,32.8 	"/>
	<polygon points="8.2,29.3 8.2,31.4 16.5,34 15.9,31.7 	"/>
</g>
</svg>
