<svg width="26" height="26" viewBox="0 0 26 26" fill="none" xmlns="http://www.w3.org/2000/svg">
<path d="M13 26C20.1797 26 26 20.1797 26 13C26 5.8203 20.1797 0 13 0C5.8203 0 0 5.8203 0 13C0 20.1797 5.8203 26 13 26Z" fill="#9D998E"/>
<path d="M12.0489 5.92705C12.3483 5.00574 13.6517 5.00574 13.9511 5.92705L15.0206 9.21885C15.1545 9.63087 15.5385 9.90983 15.9717 9.90983H19.4329C20.4016 9.90983 20.8044 11.1494 20.0207 11.7188L17.2205 13.7533C16.87 14.0079 16.7234 14.4593 16.8572 14.8713L17.9268 18.1631C18.2261 19.0844 17.1717 19.8506 16.388 19.2812L13.5878 17.2467C13.2373 16.9921 12.7627 16.9921 12.4122 17.2467L9.61204 19.2812C8.82833 19.8506 7.77385 19.0844 8.0732 18.1631L9.14277 14.8713C9.27665 14.4593 9.12999 14.0079 8.7795 13.7533L5.97933 11.7188C5.19562 11.1494 5.59839 9.90983 6.56712 9.90983H10.0283C10.4615 9.90983 10.8455 9.63087 10.9794 9.21885L12.0489 5.92705Z" fill="white"/>
</svg>
