<?xml version="1.0" encoding="utf-8"?>
<!-- Generator: Adobe Illustrator 23.1.0, SVG Export Plug-In . SVG Version: 6.00 Build 0)  -->
<svg version="1.1" id="Слой_1" xmlns="http://www.w3.org/2000/svg" xmlns:xlink="http://www.w3.org/1999/xlink" x="0px" y="0px"
	 viewBox="0 0 500 500" style="enable-background:new 0 0 500 500;" xml:space="preserve">
<path d="M498.7,147.1c-1.2-26.6-5.5-44.9-11.6-60.7C480.8,69.6,471,54.6,458.2,42c-12.5-12.7-27.6-22.6-44.3-28.8
	C398,7,379.8,2.7,353.3,1.6C326.5,0.3,318,0,250.1,0S173.7,0.3,147,1.5c-26.6,1.2-44.8,5.5-60.7,11.6C69.6,19.5,54.5,29.2,42,42
	C29.3,54.6,19.4,69.7,13.2,86.3C7,102.3,2.7,120.4,1.6,147C0.3,173.8,0,182.3,0,250.3s0.3,76.5,1.5,103.1
	c1.2,26.6,5.5,44.9,11.6,60.7c6.4,16.8,16.2,31.9,28.9,44.4c12.5,12.7,27.6,22.6,44.3,28.8c15.9,6.2,34.1,10.5,60.7,11.6
	c26.7,1.2,35.2,1.5,103.1,1.5s76.4-0.3,103.1-1.5c26.6-1.2,44.8-5.5,60.7-11.6c33.6-13,60.2-39.6,73.2-73.2
	c6.2-15.9,10.5-34.1,11.6-60.7c1.2-26.7,1.5-35.2,1.5-103.1S499.9,173.8,498.7,147.1z M453.7,351.5c-1.1,24.4-5.2,37.6-8.6,46.4
	c-8.4,21.8-25.7,39.1-47.5,47.5c-8.8,3.4-22.1,7.5-46.4,8.6c-26.4,1.2-34.3,1.5-101,1.5s-74.7-0.3-101-1.5
	c-24.4-1.1-37.6-5.2-46.4-8.6c-10.8-4-20.7-10.4-28.7-18.7c-8.3-8.1-14.7-17.9-18.7-28.7c-3.4-8.8-7.5-22.1-8.6-46.4
	c-1.2-26.4-1.5-34.3-1.5-101.1s0.3-74.8,1.5-101.1c1.1-24.4,5.2-37.6,8.6-46.4c4-10.9,10.4-20.7,18.8-28.7
	c8.1-8.3,17.9-14.7,28.7-18.7c8.8-3.4,22.1-7.5,46.4-8.6c26.4-1.2,34.3-1.5,101-1.5c66.8,0,74.7,0.3,101,1.5
	c24.4,1.1,37.6,5.2,46.4,8.6c10.8,4,20.7,10.4,28.7,18.7c8.3,8.1,14.7,17.9,18.7,28.7c3.4,8.8,7.5,22.1,8.6,46.4
	c1.2,26.4,1.5,34.3,1.5,101.1S454.9,325.1,453.7,351.5z"/>
<g>
	<path d="M344.3,207.3l-7.1,0c-7.2,0-14.1,0.1-20.9-0.2c7.8-20.3,12-40.2,12.5-59.6c0-37.3-24.5-41.3-35-41.3
		c-16,0-25,11.2-30.5,19.9c-1.5,2.5-4.5,8.4-9.3,17.7c-3.5,6.9-7.5,14.7-9.1,17.5c-2.1,3.7-4.3,7.1-6.7,10.3l-2.7,3.3
		c-6.5,8-13.2,16.2-20.9,22.6c-2.6-1.9-5.8-3-9.3-3h-69.5c-8.9,0-16.1,7.2-16.1,16.1v151.7c0,8.9,7.2,16.1,16.1,16.1h69.5
		c5.3,0,10-2.6,12.9-6.5c0.9,0.1,1.8,0.3,2.7,0.4c1.8,0.3,3.7,0.6,5.7,0.9c21.7,3.3,46.1,5.2,67.2,5.2h38.2
		c24.3,0,41.3-15.7,41.3-38.2l-0.2-2.7c-0.3-3.9-0.4-5-1.7-8.2c7.6-8.4,9.8-19.3,6.2-31.5c7.7-8.4,9.9-19.3,6.3-31.6
		c5.5-6.1,8.3-13.3,8-20.7C391.9,221.6,374.1,207.3,344.3,207.3z M345.7,305.2c1.2,1.5,1.4,1.7,1.4,3.1c-0.6,0.5-1.8,1.2-2.6,1.7
		c-3.5,2.1-10,6.1-10,14.4c0,6.3,3.1,10,4.9,12.3c1.3,1.6,1.4,1.8,1.4,3.5c0,2.1,0,6.1-9.2,6.1l-37.7,0c-24.1-0.8-49-1.7-72.6-6.6
		V232.4c16.3-11.1,30.6-24.9,42.3-41.1c8.5-11.3,14.6-23.8,19.5-33.9c3.5-7.2,8.4-17.1,11.1-19.1c0.7,0,1.1,0.1,1.2,0.1
		c0.2,0.4,1.2,2.4,1.2,9.1c0,23.1-11.3,51.8-17.9,65.2c-3.7,7.4-2.1,12.8-0.1,16.1c6.6,10.6,22.7,10.6,65.7,10.6
		c14.5,0,15.5,3.7,15.5,5.7c-0.6,0.5-1.8,1.2-2.6,1.7c-3.5,2.1-10,6.1-10,14.4c0,6.3,3.1,10,4.9,12.3c1.2,1.5,1.4,1.7,1.4,3.1
		c-0.6,0.5-1.8,1.2-2.6,1.7c-3.5,2.1-10,6.1-10,14.4C340.8,299.2,343.9,302.9,345.7,305.2z M151.8,346.3V226.8h37.4v119.5H151.8z"/>
</g>
</svg>
