<svg width="26" height="26" viewBox="0 0 26 26" fill="none" xmlns="http://www.w3.org/2000/svg">
<path d="M13 26C20.1797 26 26 20.1797 26 13C26 5.8203 20.1797 0 13 0C5.8203 0 0 5.8203 0 13C0 20.1797 5.8203 26 13 26Z" fill="#9D998E"/>
<g clip-path="url(#clip0)">
<path d="M13.9499 13.3904C13.7036 13.3815 13.4222 13.4791 13.2111 13.6122C12.5778 14.0026 11.971 14.4373 11.3377 14.8631C11.0651 14.455 10.81 14.0558 10.5462 13.6654C11.1882 13.2307 11.8039 12.8137 12.4283 12.3967C12.7801 12.1572 12.9912 11.8378 12.9296 11.4031C12.8153 10.6844 12.0589 10.3739 11.4433 10.782C10.8012 11.2079 10.168 11.6426 9.50836 12.0862C9.38523 11.8999 9.27089 11.7313 9.15656 11.5628C8.9103 11.1813 8.57608 11.1014 8.20669 11.3498C7.60862 11.7491 7.00176 12.1394 6.42129 12.5564C5.36588 13.3194 4.68866 14.3574 4.50396 15.6794C4.41601 16.3004 4.49517 16.9037 4.70625 17.5159C4.12578 17.9062 3.56289 18.2877 2.99121 18.6692C3.25506 19.1306 3.5453 19.5742 3.87072 19.9911C4.4336 19.6096 4.99649 19.2282 5.55937 18.8467C5.59455 18.8644 5.62094 18.8821 5.64732 18.891C6.99297 20.0089 8.50572 20.1775 10.0361 19.4854C10.9771 19.0596 11.8127 18.4031 12.6834 17.8264C12.9384 17.6578 12.956 17.3295 12.7977 17.0545C12.6746 16.8505 12.5427 16.6464 12.4019 16.4423C12.4899 16.3802 12.569 16.3181 12.6482 16.2649C13.2111 15.8834 13.7828 15.5019 14.3457 15.1204C14.7063 14.872 14.847 14.4994 14.7502 14.0913C14.6711 13.7187 14.3544 13.3993 13.9499 13.3904Z" fill="white"/>
<path d="M23.0003 7.35742C22.7365 6.86058 22.455 6.45247 22.1208 6C21.3644 6.51458 20.5993 7.03802 19.8429 7.5526C19.7462 7.6147 19.6494 7.67681 19.5702 7.73004C19.368 7.57922 19.2009 7.43726 19.0074 7.32193C17.6793 6.52345 16.2985 6.48796 14.9352 7.15336C14.1085 7.56147 13.3609 8.13815 12.587 8.64385C12.2088 8.89227 12.156 9.23828 12.4023 9.6109C12.5078 9.76173 12.6045 9.91255 12.7101 10.0722C13.3521 9.63752 13.9766 9.21166 14.601 8.79468C15.2167 8.38657 15.9819 8.69709 16.0874 9.41572C16.1578 9.85045 15.9467 10.1698 15.5861 10.4094C14.9792 10.8175 14.3812 11.2256 13.7479 11.6515C14.0118 12.0507 14.2756 12.4499 14.5483 12.8492C15.1639 12.4322 15.7532 12.0152 16.3776 11.6248C16.5887 11.4918 16.8614 11.3942 17.1164 11.403C17.521 11.4119 17.8376 11.7313 17.9256 12.1039C18.0223 12.512 17.8816 12.8847 17.521 13.1331C16.9581 13.5235 16.3952 13.8961 15.8235 14.2776C15.7532 14.3219 15.6828 14.3752 15.6125 14.4284C15.7444 14.6236 15.8675 14.8188 15.9994 15.0051C16.2721 15.4132 16.5799 15.4753 16.9933 15.2091C17.5562 14.8276 18.1279 14.4639 18.6907 14.0646C19.8517 13.2307 20.5817 12.1217 20.6784 10.6667C20.7136 10.1344 20.5993 9.59316 20.5465 8.99873C21.2237 8.53739 21.9625 8.04056 22.7189 7.53486L23.0003 7.35742Z" fill="white"/>
</g>
<defs>
<clipPath id="clip0">
<rect x="3" y="6" width="20" height="14" fill="white"/>
</clipPath>
</defs>
</svg>
