<svg width="66" height="66" viewBox="0 0 66 66" fill="none" xmlns="http://www.w3.org/2000/svg">
<g filter="url(#filter0_d)">
<circle cx="33" cy="32" r="23" fill="white"/>
</g>
<path d="M33 15L39.9282 27H26.0718L33 15Z" fill="#9D998E"/>
<path d="M29.0411 36.12C27.9544 36.12 27.0677 35.78 26.3811 35.1C25.7011 34.42 25.3611 33.5533 25.3611 32.5C25.3611 31.4933 25.7111 30.64 26.4111 29.94C27.1111 29.2333 27.9844 28.88 29.0311 28.88C29.6377 28.88 30.1511 28.96 30.5711 29.12C30.9911 29.2733 31.3944 29.5133 31.7811 29.84L30.8111 31.01C30.5177 30.7633 30.2344 30.5833 29.9611 30.47C29.6877 30.3567 29.3611 30.3 28.9811 30.3C28.4211 30.3 27.9444 30.5167 27.5511 30.95C27.1644 31.3767 26.9711 31.8933 26.9711 32.5C26.9711 33.14 27.1677 33.67 27.5611 34.09C27.9611 34.51 28.4711 34.72 29.0911 34.72C29.6644 34.72 30.1477 34.58 30.5411 34.3V33.3H28.9911V31.97H32.0311V35.01C31.1577 35.75 30.1611 36.12 29.0411 36.12ZM39.5729 35.07C38.8662 35.77 37.9795 36.12 36.9129 36.12C35.8462 36.12 34.9595 35.77 34.2529 35.07C33.5529 34.37 33.2029 33.5133 33.2029 32.5C33.2029 31.4933 33.5562 30.64 34.2629 29.94C34.9762 29.2333 35.8662 28.88 36.9329 28.88C37.9995 28.88 38.8829 29.23 39.5829 29.93C40.2895 30.63 40.6429 31.4867 40.6429 32.5C40.6429 33.5067 40.2862 34.3633 39.5729 35.07ZM35.4129 34.06C35.8129 34.4867 36.3195 34.7 36.9329 34.7C37.5462 34.7 38.0495 34.49 38.4429 34.07C38.8362 33.6433 39.0329 33.12 39.0329 32.5C39.0329 31.8867 38.8329 31.3667 38.4329 30.94C38.0329 30.5133 37.5262 30.3 36.9129 30.3C36.2995 30.3 35.7962 30.5133 35.4029 30.94C35.0095 31.36 34.8129 31.88 34.8129 32.5C34.8129 33.1133 35.0129 33.6333 35.4129 34.06ZM24.7913 46V40.42H22.6613V39H28.4613V40.42H26.3313V46H24.7913ZM35.4029 45.07C34.6963 45.77 33.8096 46.12 32.7429 46.12C31.6763 46.12 30.7896 45.77 30.0829 45.07C29.3829 44.37 29.0329 43.5133 29.0329 42.5C29.0329 41.4933 29.3863 40.64 30.0929 39.94C30.8063 39.2333 31.6963 38.88 32.7629 38.88C33.8296 38.88 34.7129 39.23 35.4129 39.93C36.1196 40.63 36.4729 41.4867 36.4729 42.5C36.4729 43.5067 36.1163 44.3633 35.4029 45.07ZM31.2429 44.06C31.6429 44.4867 32.1496 44.7 32.7629 44.7C33.3763 44.7 33.8796 44.49 34.2729 44.07C34.6663 43.6433 34.8629 43.12 34.8629 42.5C34.8629 41.8867 34.6629 41.3667 34.2629 40.94C33.8629 40.5133 33.3563 40.3 32.7429 40.3C32.1296 40.3 31.6263 40.5133 31.2329 40.94C30.8396 41.36 30.6429 41.88 30.6429 42.5C30.6429 43.1133 30.8429 43.6333 31.2429 44.06ZM37.839 46V39H40.699C41.5257 39 42.179 39.2233 42.659 39.67C43.139 40.1167 43.379 40.7067 43.379 41.44C43.379 42.22 43.1124 42.8267 42.579 43.26C42.0457 43.6867 41.369 43.9 40.549 43.9H39.379V46H37.839ZM39.379 42.53H40.599C40.979 42.53 41.2757 42.43 41.489 42.23C41.709 42.03 41.819 41.77 41.819 41.45C41.819 41.11 41.709 40.85 41.489 40.67C41.269 40.4833 40.9624 40.39 40.569 40.39H39.379V42.53Z" fill="#9D998E"/>
<defs>
<filter id="filter0_d" x="0" y="0" width="66" height="66" filterUnits="userSpaceOnUse" color-interpolation-filters="sRGB">
<feFlood flood-opacity="0" result="BackgroundImageFix"/>
<feColorMatrix in="SourceAlpha" type="matrix" values="0 0 0 0 0 0 0 0 0 0 0 0 0 0 0 0 0 0 127 0"/>
<feOffset dy="1"/>
<feGaussianBlur stdDeviation="5"/>
<feColorMatrix type="matrix" values="0 0 0 0 0 0 0 0 0 0 0 0 0 0 0 0 0 0 0.25 0"/>
<feBlend mode="normal" in2="BackgroundImageFix" result="effect1_dropShadow"/>
<feBlend mode="normal" in="SourceGraphic" in2="effect1_dropShadow" result="shape"/>
</filter>
</defs>
</svg>
