<svg width="26" height="26" viewBox="0 0 26 26" fill="none" xmlns="http://www.w3.org/2000/svg">
<path d="M13 26C20.1797 26 26 20.1797 26 13C26 5.8203 20.1797 0 13 0C5.8203 0 0 5.8203 0 13C0 20.1797 5.8203 26 13 26Z" fill="#9D998E"/>
<path d="M10.8352 22C10.2722 22 9.70928 21.6804 9.34705 21.1426C8.98481 20.61 8.8967 19.9251 9.11208 19.3062L11.3002 13.0662H9.36663C9.16593 13.0662 8.99949 12.8938 8.99949 12.6858C8.99949 11.2196 10.0128 9.96149 11.5792 9.48462C12.1911 9.29691 13.4149 9.01789 14.0855 9.05848C14.482 9.08384 15.2603 9.3375 15.647 9.91076C16.0093 10.4434 16.0974 11.1283 15.882 11.7472L13.6939 17.9872H15.6324C15.8331 17.9872 15.9995 18.1596 15.9995 18.3676C15.9995 19.9657 14.8981 21.3151 13.3757 21.5789C13.1995 21.6094 12.9645 21.655 12.7149 21.7057C12.103 21.8224 11.403 21.9594 10.9673 21.9949C10.9233 21.9949 10.8792 22 10.8352 22ZM14.0855 8.50776C13.0184 8.50776 12.1519 7.60982 12.1519 6.50388C12.1519 5.39794 13.0184 4.5 14.0855 4.5C15.1526 4.5 16.0191 5.39794 16.0191 6.50388C16.0191 7.60982 15.1526 8.50776 14.0855 8.50776Z" fill="white"/>
</svg>
