<svg width="66" height="17" viewBox="0 0 66 17" fill="none" xmlns="http://www.w3.org/2000/svg">
<g clip-path="url(#clip0)">
<path d="M51.0192 4.51756H47.4573C47.2477 4.51756 47.0382 4.72444 46.9335 4.93132L45.4668 14.034C45.4668 14.2408 45.5716 14.3443 45.7811 14.3443H47.6668C47.8763 14.3443 47.9811 14.2408 47.9811 14.034L48.4001 11.448C48.4001 11.2411 48.6097 11.0342 48.9239 11.0342H50.0763C52.4858 11.0342 53.8478 9.8964 54.162 7.62074C54.3716 6.68979 54.162 5.86227 53.743 5.34508C53.1144 4.82788 52.1716 4.51756 51.0192 4.51756ZM51.4382 7.93106C51.2287 9.17233 50.2858 9.17233 49.343 9.17233H48.7144L49.1335 6.79323C49.1335 6.68979 49.2382 6.58635 49.4478 6.58635H49.6573C50.2858 6.58635 50.9144 6.58635 51.2287 7.0001C51.4382 7.10354 51.4382 7.41386 51.4382 7.93106Z" fill="#139AD6"/>
<path d="M25.3522 4.51756H21.7903C21.5808 4.51756 21.3712 4.72444 21.2665 4.93132L19.7998 14.034C19.7998 14.2408 19.9046 14.3443 20.1141 14.3443H21.7903C21.9998 14.3443 22.2093 14.1374 22.3141 13.9305L22.7331 11.448C22.7331 11.2411 22.9427 11.0342 23.2569 11.0342H24.4093C26.8189 11.0342 28.1808 9.8964 28.495 7.62074C28.7046 6.68979 28.495 5.86227 28.076 5.34508C27.4474 4.82788 26.6093 4.51756 25.3522 4.51756ZM25.7712 7.93106C25.5617 9.17233 24.6189 9.17233 23.676 9.17233H23.1522L23.5712 6.79323C23.5712 6.68979 23.676 6.58635 23.8855 6.58635H24.095C24.7236 6.58635 25.3522 6.58635 25.6665 7.0001C25.7712 7.10354 25.876 7.41386 25.7712 7.93106Z" fill="#263B80"/>
<path d="M36.143 7.82762H34.4669C34.3621 7.82762 34.1526 7.93106 34.1526 8.0345L34.0478 8.5517L33.943 8.34482C33.524 7.82762 32.7907 7.62074 31.9526 7.62074C30.0668 7.62074 28.3907 9.06889 28.0764 11.0342C27.8668 12.0686 28.1811 12.9996 28.7049 13.6202C29.2288 14.2409 29.9621 14.4477 30.9049 14.4477C32.4764 14.4477 33.3145 13.5168 33.3145 13.5168L33.2097 14.034C33.2097 14.2409 33.3145 14.3443 33.524 14.3443H35.0954C35.3049 14.3443 35.5145 14.1374 35.6192 13.9305L36.5621 8.13794C36.4573 8.0345 36.2478 7.82762 36.143 7.82762ZM33.7335 11.1377C33.524 12.0686 32.7907 12.7927 31.743 12.7927C31.2192 12.7927 30.8002 12.5858 30.5907 12.379C30.3811 12.0686 30.2764 11.6549 30.2764 11.1377C30.3811 10.2067 31.2192 9.48265 32.1621 9.48265C32.6859 9.48265 33.0002 9.68953 33.3145 9.89641C33.6288 10.2067 33.7335 10.7239 33.7335 11.1377Z" fill="#263B80"/>
<path d="M61.7036 7.82764H60.0274C59.9226 7.82764 59.7131 7.93108 59.7131 8.03451L59.6083 8.55171L59.5036 8.34483C59.0845 7.82764 58.3512 7.62076 57.5131 7.62076C55.6274 7.62076 53.9512 9.06891 53.6369 11.0343C53.4274 12.0687 53.7417 12.9996 54.2655 13.6202C54.7893 14.2409 55.5226 14.4478 56.4655 14.4478C58.0369 14.4478 58.875 13.5168 58.875 13.5168L58.7702 14.034C58.7702 14.2409 58.875 14.3443 59.0845 14.3443H60.656C60.8655 14.3443 61.075 14.1374 61.1798 13.9306L62.1226 8.13795C62.0179 8.03452 61.9131 7.82764 61.7036 7.82764ZM59.2941 11.1377C59.0845 12.0686 58.3512 12.7927 57.3036 12.7927C56.7798 12.7927 56.3607 12.5858 56.1512 12.379C55.9417 12.0686 55.8369 11.6549 55.8369 11.1377C55.9417 10.2067 56.7798 9.48267 57.7226 9.48267C58.2464 9.48267 58.5607 9.68954 58.875 9.89642C59.2941 10.2067 59.3988 10.7239 59.2941 11.1377Z" fill="#139AD6"/>
<path d="M45.2571 7.82766H43.4762C43.2666 7.82766 43.1619 7.9311 43.0571 8.03454L40.7523 11.5515L39.7047 8.24142C39.6 8.03454 39.4952 7.9311 39.1809 7.9311H37.5047C37.2952 7.9311 37.1904 8.13798 37.1904 8.34485L39.0761 13.8271L37.2952 16.3097C37.1904 16.5165 37.2952 16.8269 37.5047 16.8269H39.1809C39.3904 16.8269 39.4952 16.7234 39.6 16.62L45.3619 8.44829C45.6762 8.13798 45.4666 7.82766 45.2571 7.82766Z" fill="#263B80"/>
<path d="M63.6952 4.82786L62.2285 14.1374C62.2285 14.3443 62.3333 14.4477 62.5428 14.4477H64.0095C64.219 14.4477 64.4285 14.2408 64.5333 14.0339L65.9999 4.93129C65.9999 4.72442 65.8952 4.62098 65.6857 4.62098H64.0095C63.9047 4.51754 63.7999 4.62098 63.6952 4.82786Z" fill="#139AD6"/>
<path d="M12.0476 1.41447C11.3143 0.586958 9.95238 0.173203 8.06667 0.173203H2.82857C2.51429 0.173203 2.2 0.483518 2.09524 0.793836L0 14.3444C0 14.6547 0.209524 14.8616 0.419048 14.8616H3.66667L4.50476 9.79304V9.99992C4.60952 9.6896 4.92381 9.37928 5.23809 9.37928H6.80952C9.84762 9.37928 12.1524 8.13802 12.8857 4.72452C12.8857 4.62109 12.8857 4.51765 12.8857 4.41421C12.781 4.41421 12.781 4.41421 12.8857 4.41421C12.9905 3.0695 12.781 2.24198 12.0476 1.41447Z" fill="#263B80"/>
<path d="M12.7811 4.41422C12.7811 4.51765 12.7811 4.62109 12.7811 4.72453C12.0478 8.24147 9.74302 9.37929 6.70492 9.37929H5.13349C4.81921 9.37929 4.50492 9.68961 4.40016 9.99993L3.35254 16.3097C3.35254 16.5166 3.4573 16.7235 3.77159 16.7235H6.4954C6.80968 16.7235 7.12397 16.5166 7.12397 16.2063V16.1028L7.64778 12.8962V12.6893C7.64778 12.379 7.96206 12.1722 8.27635 12.1722H8.6954C11.3144 12.1722 13.4097 11.1378 13.9335 8.03459C14.143 6.79332 14.0383 5.65548 13.4097 4.93141C13.3049 4.72453 13.0954 4.51765 12.7811 4.41422Z" fill="#139AD6"/>
<path d="M12.0477 4.10386C11.943 4.10386 11.8382 4.00042 11.7335 4.00042C11.6287 4.00042 11.5239 4.00042 11.4192 3.89698C11.0001 3.79354 10.5811 3.79354 10.0573 3.79354H5.97155C5.86679 3.79354 5.76203 3.79354 5.65726 3.89698C5.44774 4.00042 5.34298 4.2073 5.34298 4.41417L4.50488 9.79301V9.99989C4.60964 9.68957 4.92393 9.37925 5.23822 9.37925H6.80965C9.84774 9.37925 12.1525 8.13798 12.8858 4.72449C12.8858 4.62105 12.8858 4.51761 12.9906 4.41417C12.7811 4.31074 12.6763 4.2073 12.4668 4.2073C12.1525 4.10386 12.1525 4.10386 12.0477 4.10386Z" fill="#232C65"/>
</g>
<defs>
<clipPath id="clip0">
<rect width="66" height="17" fill="white"/>
</clipPath>
</defs>
</svg>
