<svg width="230" height="72" viewBox="0 0 230 72" fill="none" xmlns="http://www.w3.org/2000/svg">
<g filter="url(#filter0_d)">
<rect x="20" y="16" width="190" height="32" rx="16" fill="#FFAE00"/>
<path d="M43.7819 38.18C41.7179 38.18 39.9359 37.508 38.4359 36.164L40.0739 34.202C41.3099 35.222 42.5639 35.732 43.8359 35.732C44.3999 35.732 44.8439 35.624 45.1679 35.408C45.4919 35.192 45.6539 34.892 45.6539 34.508C45.6539 34.148 45.4859 33.86 45.1499 33.644C44.8139 33.416 44.1359 33.17 43.1159 32.906C42.3959 32.726 41.8139 32.552 41.3699 32.384C40.9259 32.204 40.4999 31.97 40.0919 31.682C39.6959 31.394 39.4019 31.034 39.2099 30.602C39.0299 30.158 38.9399 29.63 38.9399 29.018C38.9399 27.878 39.3479 26.96 40.1639 26.264C40.9919 25.568 42.0539 25.22 43.3499 25.22C45.1379 25.22 46.6979 25.754 48.0299 26.822L46.5899 28.91C45.4019 28.082 44.3099 27.668 43.3139 27.668C42.7979 27.668 42.3959 27.776 42.1079 27.992C41.8319 28.196 41.6939 28.466 41.6939 28.802C41.6939 29.21 41.8679 29.516 42.2159 29.72C42.5639 29.924 43.2959 30.17 44.4119 30.458C45.7799 30.818 46.7879 31.28 47.4359 31.844C48.0839 32.408 48.4079 33.218 48.4079 34.274C48.4079 35.498 47.9819 36.458 47.1299 37.154C46.2899 37.838 45.1739 38.18 43.7819 38.18ZM50.8136 38V25.4H53.5856V30.386H58.6976V25.4H61.4696V38H58.6976V32.942H53.5856V38H50.8136ZM75.3973 36.326C74.1253 37.586 72.5293 38.216 70.6093 38.216C68.6893 38.216 67.0933 37.586 65.8213 36.326C64.5613 35.066 63.9313 33.524 63.9313 31.7C63.9313 29.888 64.5673 28.352 65.8393 27.092C67.1233 25.82 68.7253 25.184 70.6453 25.184C72.5653 25.184 74.1553 25.814 75.4153 27.074C76.6873 28.334 77.3233 29.876 77.3233 31.7C77.3233 33.512 76.6813 35.054 75.3973 36.326ZM67.9093 34.508C68.6293 35.276 69.5413 35.66 70.6453 35.66C71.7493 35.66 72.6553 35.282 73.3633 34.526C74.0713 33.758 74.4253 32.816 74.4253 31.7C74.4253 30.596 74.0653 29.66 73.3453 28.892C72.6253 28.124 71.7133 27.74 70.6093 27.74C69.5053 27.74 68.5993 28.124 67.8913 28.892C67.1833 29.648 66.8293 30.584 66.8293 31.7C66.8293 32.804 67.1893 33.74 67.9093 34.508ZM82.3916 38.09L78.0896 25.4H81.0596L83.6696 33.932L86.4956 25.364H88.8716L91.6976 33.932L94.3076 25.4H97.2056L92.9036 38.09H90.4916L87.6476 29.846L84.8036 38.09H82.3916ZM104.655 38V25.4H107.643L110.955 30.728L114.267 25.4H117.255V38H114.501V29.774L110.955 35.156H110.883L107.373 29.828V38H104.655ZM120.282 38V25.4H129.786V27.866H123.036V30.422H128.976V32.888H123.036V35.534H129.876V38H120.282ZM137.737 38V25.4H140.725L144.037 30.728L147.349 25.4H150.337V38H147.583V29.774L144.037 35.156H143.965L140.455 29.828V38H137.737ZM164.272 36.326C163 37.586 161.404 38.216 159.484 38.216C157.564 38.216 155.968 37.586 154.696 36.326C153.436 35.066 152.806 33.524 152.806 31.7C152.806 29.888 153.442 28.352 154.714 27.092C155.998 25.82 157.6 25.184 159.52 25.184C161.44 25.184 163.03 25.814 164.29 27.074C165.562 28.334 166.198 29.876 166.198 31.7C166.198 33.512 165.556 35.054 164.272 36.326ZM156.784 34.508C157.504 35.276 158.416 35.66 159.52 35.66C160.624 35.66 161.53 35.282 162.238 34.526C162.946 33.758 163.3 32.816 163.3 31.7C163.3 30.596 162.94 29.66 162.22 28.892C161.5 28.124 160.588 27.74 159.484 27.74C158.38 27.74 157.474 28.124 156.766 28.892C156.058 29.648 155.704 30.584 155.704 31.7C155.704 32.804 156.064 33.74 156.784 34.508ZM168.657 38V25.4H174.417C176.013 25.4 177.237 25.826 178.089 26.678C178.809 27.398 179.169 28.37 179.169 29.594C179.169 31.526 178.269 32.828 176.469 33.5L179.547 38H176.307L173.571 33.968H171.429V38H168.657ZM171.429 31.52H174.237C174.909 31.52 175.431 31.358 175.803 31.034C176.175 30.698 176.361 30.254 176.361 29.702C176.361 29.114 176.169 28.67 175.785 28.37C175.401 28.058 174.867 27.902 174.183 27.902H171.429V31.52ZM181.665 38V25.4H191.169V27.866H184.419V30.422H190.359V32.888H184.419V35.534H191.259V38H181.665Z" fill="black"/>
</g>
<defs>
<filter id="filter0_d" x="0" y="0" width="230" height="72" filterUnits="userSpaceOnUse" color-interpolation-filters="sRGB">
<feFlood flood-opacity="0" result="BackgroundImageFix"/>
<feColorMatrix in="SourceAlpha" type="matrix" values="0 0 0 0 0 0 0 0 0 0 0 0 0 0 0 0 0 0 127 0"/>
<feOffset dy="4"/>
<feGaussianBlur stdDeviation="10"/>
<feColorMatrix type="matrix" values="0 0 0 0 0 0 0 0 0 0 0 0 0 0 0 0 0 0 0.2 0"/>
<feBlend mode="normal" in2="BackgroundImageFix" result="effect1_dropShadow"/>
<feBlend mode="normal" in="SourceGraphic" in2="effect1_dropShadow" result="shape"/>
</filter>
</defs>
</svg>
