<?xml version="1.0" encoding="utf-8"?>
<!-- Generator: Adobe Illustrator 23.1.0, SVG Export Plug-In . SVG Version: 6.00 Build 0)  -->
<svg version="1.1" id="Слой_1" xmlns="http://www.w3.org/2000/svg" xmlns:xlink="http://www.w3.org/1999/xlink" x="0px" y="0px"
	 viewBox="0 0 50 50" style="enable-background:new 0 0 50 50;" xml:space="preserve">
<style type="text/css">
	.st0{fill:#80C99B;}
	.st1{display:none;}
	.st2{display:inline;fill:#FFFFFF;}
	.st3{fill:#FFFFFF;}
	.st4{display:none;fill:none;stroke:#FFFFFF;stroke-linecap:round;stroke-linejoin:round;stroke-miterlimit:10;}
	.st5{display:none;fill:#73B289;}
	.st6{font-family:'GothamPro-Black';}
	.st7{font-size:13.1525px;}
	.st8{letter-spacing:-2;}
	.st9{fill:#73B289;}
</style>
<g>
	<path class="st0" d="M1.4,30.4c0.2,0.1,0.2,0.4,0,0.5c-0.2,0.1-0.5,0.1-0.7,0c0.2,0.7,0.3,1.3,0.6,2c0,0,0.1,0,0.1,0
		c0.2,0.1,0.2,0.3,0,0.5c0.4,1.1,0.9,2.2,1.5,3.3c0.2-0.1,0.5-0.1,0.7,0c0.2,0.1,0.2,0.3,0,0.5c-0.1,0.1-0.3,0.1-0.4,0.1
		c0.6,1.1,1.3,2.1,2.1,3.1c0.2,0,0.3,0,0.5,0.1c0.2,0.1,0.2,0.3,0,0.5c0,0,0,0,0,0c3.6,4.3,8.6,7.4,14.3,8.6c0-0.1,0.1-0.2,0.2-0.2
		c0.2-0.1,0.6-0.1,0.8,0c0.2,0.1,0.2,0.3,0.1,0.4c1.3,0.2,2.6,0.3,3.9,0.3c1.3,0,2.6-0.1,3.9-0.3c-0.2-0.1-0.1-0.3,0.1-0.4
		c0.2-0.1,0.6-0.1,0.8,0c0.1,0.1,0.2,0.2,0.2,0.2c5.7-1.1,10.7-4.2,14.3-8.5c0,0,0,0-0.1,0c-0.2-0.1-0.2-0.3,0-0.5
		c0.2-0.1,0.3-0.1,0.5-0.1C48,36.1,50,30.8,50,25C50,11.2,38.8,0,25,0S0,11.2,0,25c0,1.9,0.2,3.6,0.6,5.4
		C0.8,30.3,1.2,30.3,1.4,30.4z M5.8,38.4c-0.2,0.1-0.6,0.1-0.8,0s-0.2-0.3,0-0.5s0.6-0.1,0.8,0S6,38.3,5.8,38.4z M8,42.2
		c-0.2,0.1-0.6,0.1-0.8,0s-0.2-0.3,0-0.5s0.6-0.1,0.8,0C8.2,41.8,8.2,42.1,8,42.2z M8,39.7c-0.2,0.1-0.6,0.1-0.8,0s-0.2-0.3,0-0.5
		s0.6-0.1,0.8,0C8.2,39.3,8.2,39.5,8,39.7z M8,37.2c-0.2,0.1-0.6,0.1-0.8,0s-0.2-0.3,0-0.5s0.6-0.1,0.8,0C8.2,36.8,8.2,37,8,37.2z
		 M10.1,43.4c-0.2,0.1-0.6,0.1-0.8,0s-0.2-0.3,0-0.5s0.6-0.1,0.8,0C10.4,43.1,10.4,43.3,10.1,43.4z M10.1,40.9
		c-0.2,0.1-0.6,0.1-0.8,0s-0.2-0.3,0-0.5s0.6-0.1,0.8,0S10.4,40.8,10.1,40.9z M10.1,38.4c-0.2,0.1-0.6,0.1-0.8,0s-0.2-0.3,0-0.5
		s0.6-0.1,0.8,0S10.4,38.3,10.1,38.4z M10.1,35.9c-0.2,0.1-0.6,0.1-0.8,0s-0.2-0.3,0-0.5s0.6-0.1,0.8,0
		C10.4,35.6,10.4,35.8,10.1,35.9z M12.3,44.7c-0.2,0.1-0.6,0.1-0.8,0s-0.2-0.3,0-0.5s0.6-0.1,0.8,0S12.5,44.6,12.3,44.7z M12.3,42.2
		c-0.2,0.1-0.6,0.1-0.8,0s-0.2-0.3,0-0.5s0.6-0.1,0.8,0C12.5,41.8,12.5,42.1,12.3,42.2z M12.3,39.7c-0.2,0.1-0.6,0.1-0.8,0
		s-0.2-0.3,0-0.5s0.6-0.1,0.8,0S12.5,39.5,12.3,39.7z M12.3,37.2c-0.2,0.1-0.6,0.1-0.8,0s-0.2-0.3,0-0.5s0.6-0.1,0.8,0
		S12.5,37,12.3,37.2z M12.3,34.7c-0.2,0.1-0.6,0.1-0.8,0s-0.2-0.3,0-0.5s0.6-0.1,0.8,0S12.5,34.5,12.3,34.7z M14.5,46
		c-0.2,0.1-0.6,0.1-0.8,0s-0.2-0.3,0-0.5s0.6-0.1,0.8,0C14.7,45.6,14.7,45.8,14.5,46z M14.5,43.4c-0.2,0.1-0.6,0.1-0.8,0
		s-0.2-0.3,0-0.5s0.6-0.1,0.8,0C14.7,43.1,14.7,43.3,14.5,43.4z M14.5,40.9c-0.2,0.1-0.6,0.1-0.8,0s-0.2-0.3,0-0.5s0.6-0.1,0.8,0
		C14.7,40.6,14.7,40.8,14.5,40.9z M14.5,38.4c-0.2,0.1-0.6,0.1-0.8,0s-0.2-0.3,0-0.5s0.6-0.1,0.8,0C14.7,38.1,14.7,38.3,14.5,38.4z
		 M14.5,35.9c-0.2,0.1-0.6,0.1-0.8,0s-0.2-0.3,0-0.5s0.6-0.1,0.8,0C14.7,35.6,14.7,35.8,14.5,35.9z M14.5,33.4
		c-0.2,0.1-0.6,0.1-0.8,0s-0.2-0.3,0-0.5s0.6-0.1,0.8,0C14.7,33,14.7,33.3,14.5,33.4z M16.7,47.2c-0.2,0.1-0.6,0.1-0.8,0
		s-0.2-0.3,0-0.5s0.6-0.1,0.8,0S16.9,47.1,16.7,47.2z M16.7,44.7c-0.2,0.1-0.6,0.1-0.8,0s-0.2-0.3,0-0.5s0.6-0.1,0.8,0
		S16.9,44.6,16.7,44.7z M16.7,42.2c-0.2,0.1-0.6,0.1-0.8,0s-0.2-0.3,0-0.5s0.6-0.1,0.8,0C16.9,41.8,16.9,42.1,16.7,42.2z M16.7,39.7
		c-0.2,0.1-0.6,0.1-0.8,0s-0.2-0.3,0-0.5s0.6-0.1,0.8,0C16.9,39.3,16.9,39.5,16.7,39.7z M16.7,37.2c-0.2,0.1-0.6,0.1-0.8,0
		s-0.2-0.3,0-0.5s0.6-0.1,0.8,0S16.9,37,16.7,37.2z M16.7,34.7c-0.2,0.1-0.6,0.1-0.8,0s-0.2-0.3,0-0.5s0.6-0.1,0.8,0
		S16.9,34.5,16.7,34.7z M16.7,32.1c-0.2,0.1-0.6,0.1-0.8,0s-0.2-0.4,0-0.5s0.6-0.1,0.8,0C16.9,31.8,16.9,32,16.7,32.1z M18,32.9
		c0.2-0.1,0.6-0.1,0.8,0s0.2,0.3,0,0.5s-0.6,0.1-0.8,0C17.8,33.3,17.8,33,18,32.9z M18,30.4c0.2-0.1,0.6-0.1,0.8,0s0.2,0.4,0,0.5
		s-0.6,0.1-0.8,0C17.8,30.7,17.8,30.5,18,30.4z M18,35.4c0.2-0.1,0.6-0.1,0.8,0s0.2,0.3,0,0.5s-0.6,0.1-0.8,0S17.8,35.6,18,35.4z
		 M18,37.9c0.2-0.1,0.6-0.1,0.8,0s0.2,0.3,0,0.5s-0.6,0.1-0.8,0C17.8,38.3,17.8,38.1,18,37.9z M18,40.5c0.2-0.1,0.6-0.1,0.8,0
		s0.2,0.3,0,0.5s-0.6,0.1-0.8,0C17.8,40.8,17.8,40.6,18,40.5z M18,43c0.2-0.1,0.6-0.1,0.8,0s0.2,0.3,0,0.5s-0.6,0.1-0.8,0
		S17.8,43.1,18,43z M18,45.5c0.2-0.1,0.6-0.1,0.8,0s0.2,0.3,0,0.5s-0.6,0.1-0.8,0S17.8,45.6,18,45.5z M23.2,48.5
		c-0.2,0.1-0.6,0.1-0.8,0s-0.2-0.3,0-0.5s0.6-0.1,0.8,0C23.5,48.1,23.5,48.4,23.2,48.5z M25.4,49.7c-0.2,0.1-0.6,0.1-0.8,0
		s-0.2-0.3,0-0.5s0.6-0.1,0.8,0C25.6,49.4,25.6,49.6,25.4,49.7z M25.4,47.2c-0.2,0.1-0.6,0.1-0.8,0s-0.2-0.3,0-0.5s0.6-0.1,0.8,0
		C25.6,46.9,25.6,47.1,25.4,47.2z M27.6,48.5c-0.2,0.1-0.6,0.1-0.8,0s-0.2-0.3,0-0.5s0.6-0.1,0.8,0S27.8,48.4,27.6,48.5z M27.6,46
		c-0.2,0.1-0.6,0.1-0.8,0s-0.2-0.3,0-0.5s0.6-0.1,0.8,0S27.8,45.8,27.6,46z M29.8,47.2c-0.2,0.1-0.6,0.1-0.8,0s-0.2-0.3,0-0.5
		s0.6-0.1,0.8,0C30,46.9,30,47.1,29.8,47.2z M29.8,44.7c-0.2,0.1-0.6,0.1-0.8,0s-0.2-0.3,0-0.5s0.6-0.1,0.8,0
		C30,44.4,30,44.6,29.8,44.7z M31.9,48.5c-0.2,0.1-0.6,0.1-0.8,0s-0.2-0.3,0-0.5s0.6-0.1,0.8,0C32.2,48.1,32.2,48.4,31.9,48.5z
		 M31.9,46c-0.2,0.1-0.6,0.1-0.8,0s-0.2-0.3,0-0.5s0.6-0.1,0.8,0C32.2,45.6,32.2,45.8,31.9,46z M31.9,43.5c-0.2,0.1-0.6,0.1-0.8,0
		s-0.2-0.3,0-0.5s0.6-0.1,0.8,0C32.2,43.1,32.2,43.3,31.9,43.5z M34.1,47.2c-0.2,0.1-0.6,0.1-0.8,0c-0.2-0.1-0.2-0.3,0-0.5
		s0.6-0.1,0.8,0C34.3,46.9,34.3,47.1,34.1,47.2z M34.1,44.7c-0.2,0.1-0.6,0.1-0.8,0c-0.2-0.1-0.2-0.3,0-0.5s0.6-0.1,0.8,0
		C34.3,44.4,34.3,44.6,34.1,44.7z M34.1,42.2c-0.2,0.1-0.6,0.1-0.8,0c-0.2-0.1-0.2-0.3,0-0.5s0.6-0.1,0.8,0S34.3,42.1,34.1,42.2z
		 M36.3,46c-0.2,0.1-0.6,0.1-0.8,0c-0.2-0.1-0.2-0.3,0-0.5s0.6-0.1,0.8,0C36.5,45.6,36.5,45.8,36.3,46z M36.3,43.5
		c-0.2,0.1-0.6,0.1-0.8,0c-0.2-0.1-0.2-0.3,0-0.5s0.6-0.1,0.8,0C36.5,43.1,36.5,43.3,36.3,43.5z M36.3,40.9c-0.2,0.1-0.6,0.1-0.8,0
		c-0.2-0.1-0.2-0.3,0-0.5s0.6-0.1,0.8,0C36.5,40.6,36.5,40.8,36.3,40.9z M42,39.2c0.2-0.1,0.6-0.1,0.8,0c0.2,0.1,0.2,0.3,0,0.5
		s-0.6,0.1-0.8,0C41.8,39.6,41.8,39.3,42,39.2z M42,41.7c0.2-0.1,0.6-0.1,0.8,0c0.2,0.1,0.2,0.3,0,0.5s-0.6,0.1-0.8,0
		C41.8,42.1,41.8,41.9,42,41.7z M39.8,38c0.2-0.1,0.6-0.1,0.8,0c0.2,0.1,0.2,0.3,0,0.5s-0.6,0.1-0.8,0C39.6,38.3,39.6,38.1,39.8,38z
		 M39.8,40.5c0.2-0.1,0.6-0.1,0.8,0c0.2,0.1,0.2,0.3,0,0.5s-0.6,0.1-0.8,0C39.6,40.8,39.6,40.6,39.8,40.5z M39.8,43
		c0.2-0.1,0.6-0.1,0.8,0c0.2,0.1,0.2,0.3,0,0.5s-0.6,0.1-0.8,0C39.6,43.3,39.6,43.1,39.8,43z M37.6,36.7c0.2-0.1,0.6-0.1,0.8,0
		c0.2,0.1,0.2,0.3,0,0.5s-0.6,0.1-0.8,0C37.4,37,37.4,36.8,37.6,36.7z M37.6,39.2c0.2-0.1,0.6-0.1,0.8,0c0.2,0.1,0.2,0.3,0,0.5
		s-0.6,0.1-0.8,0C37.4,39.6,37.4,39.3,37.6,39.2z M37.6,41.7c0.2-0.1,0.6-0.1,0.8,0c0.2,0.1,0.2,0.3,0,0.5s-0.6,0.1-0.8,0
		C37.4,42.1,37.4,41.9,37.6,41.7z M37.6,44.2c0.2-0.1,0.6-0.1,0.8,0c0.2,0.1,0.2,0.3,0,0.5s-0.6,0.1-0.8,0
		C37.4,44.6,37.4,44.4,37.6,44.2z M36.3,38.4c-0.2,0.1-0.6,0.1-0.8,0c-0.2-0.1-0.2-0.3,0-0.5s0.6-0.1,0.8,0
		C36.5,38.1,36.5,38.3,36.3,38.4z M35.4,35.4c0.2-0.1,0.6-0.1,0.8,0c0.2,0.1,0.2,0.3,0,0.5s-0.6,0.1-0.8,0
		C35.2,35.8,35.2,35.6,35.4,35.4z M34.1,39.7c-0.2,0.1-0.6,0.1-0.8,0c-0.2-0.1-0.2-0.3,0-0.5s0.6-0.1,0.8,0
		C34.3,39.3,34.3,39.6,34.1,39.7z M33.3,34.2c0.2-0.1,0.6-0.1,0.8,0c0.2,0.1,0.2,0.3,0,0.5s-0.6,0.1-0.8,0
		C33,34.5,33,34.3,33.3,34.2z M33.3,36.7c0.2-0.1,0.6-0.1,0.8,0c0.2,0.1,0.2,0.3,0,0.5s-0.6,0.1-0.8,0C33,37,33,36.8,33.3,36.7z
		 M31.9,40.9c-0.2,0.1-0.6,0.1-0.8,0s-0.2-0.3,0-0.5s0.6-0.1,0.8,0C32.2,40.6,32.2,40.8,31.9,40.9z M31.1,32.9
		c0.2-0.1,0.6-0.1,0.8,0c0.2,0.1,0.2,0.3,0,0.5c-0.2,0.1-0.6,0.1-0.8,0C30.8,33.3,30.8,33,31.1,32.9z M31.1,35.4
		c0.2-0.1,0.6-0.1,0.8,0c0.2,0.1,0.2,0.3,0,0.5c-0.2,0.1-0.6,0.1-0.8,0S30.8,35.6,31.1,35.4z M31.1,37.9c0.2-0.1,0.6-0.1,0.8,0
		c0.2,0.1,0.2,0.3,0,0.5c-0.2,0.1-0.6,0.1-0.8,0C30.8,38.3,30.8,38.1,31.1,37.9z M29.8,42.2c-0.2,0.1-0.6,0.1-0.8,0s-0.2-0.3,0-0.5
		s0.6-0.1,0.8,0S30,42.1,29.8,42.2z M28.9,31.7c0.2-0.1,0.6-0.1,0.8,0s0.2,0.3,0,0.5s-0.6,0.1-0.8,0S28.7,31.8,28.9,31.7z
		 M28.9,34.2c0.2-0.1,0.6-0.1,0.8,0s0.2,0.3,0,0.5s-0.6,0.1-0.8,0C28.7,34.5,28.7,34.3,28.9,34.2z M28.9,36.7c0.2-0.1,0.6-0.1,0.8,0
		s0.2,0.3,0,0.5s-0.6,0.1-0.8,0C28.7,37,28.7,36.8,28.9,36.7z M28.9,39.2c0.2-0.1,0.6-0.1,0.8,0s0.2,0.3,0,0.5s-0.6,0.1-0.8,0
		S28.7,39.3,28.9,39.2z M27.6,43.5c-0.2,0.1-0.6,0.1-0.8,0s-0.2-0.3,0-0.5s0.6-0.1,0.8,0C27.8,43.1,27.8,43.3,27.6,43.5z M26.7,30.4
		c0.2-0.1,0.6-0.1,0.8,0s0.2,0.4,0,0.5s-0.6,0.1-0.8,0S26.5,30.5,26.7,30.4z M26.7,32.9c0.2-0.1,0.6-0.1,0.8,0s0.2,0.3,0,0.5
		s-0.6,0.1-0.8,0C26.5,33.3,26.5,33,26.7,32.9z M26.7,35.4c0.2-0.1,0.6-0.1,0.8,0s0.2,0.3,0,0.5s-0.6,0.1-0.8,0S26.5,35.6,26.7,35.4
		z M26.7,37.9c0.2-0.1,0.6-0.1,0.8,0s0.2,0.3,0,0.5s-0.6,0.1-0.8,0C26.5,38.3,26.5,38.1,26.7,37.9z M26.7,40.5
		c0.2-0.1,0.6-0.1,0.8,0s0.2,0.3,0,0.5s-0.6,0.1-0.8,0C26.5,40.8,26.5,40.6,26.7,40.5z M25.4,44.7c-0.2,0.1-0.6,0.1-0.8,0
		s-0.2-0.3,0-0.5s0.6-0.1,0.8,0C25.6,44.4,25.6,44.6,25.4,44.7z M24.5,29.1c0.2-0.1,0.6-0.1,0.8,0s0.2,0.4,0,0.5s-0.6,0.1-0.8,0
		C24.3,29.5,24.3,29.3,24.5,29.1z M24.5,31.7c0.2-0.1,0.6-0.1,0.8,0s0.2,0.3,0,0.5s-0.6,0.1-0.8,0C24.3,32,24.3,31.8,24.5,31.7z
		 M24.5,34.2c0.2-0.1,0.6-0.1,0.8,0s0.2,0.3,0,0.5s-0.6,0.1-0.8,0C24.3,34.5,24.3,34.3,24.5,34.2z M24.5,36.7c0.2-0.1,0.6-0.1,0.8,0
		s0.2,0.3,0,0.5s-0.6,0.1-0.8,0C24.3,37,24.3,36.8,24.5,36.7z M24.5,39.2c0.2-0.1,0.6-0.1,0.8,0s0.2,0.3,0,0.5s-0.6,0.1-0.8,0
		C24.3,39.5,24.3,39.3,24.5,39.2z M24.5,41.7c0.2-0.1,0.6-0.1,0.8,0s0.2,0.3,0,0.5s-0.6,0.1-0.8,0C24.3,42.1,24.3,41.8,24.5,41.7z
		 M23.2,46c-0.2,0.1-0.6,0.1-0.8,0s-0.2-0.3,0-0.5s0.6-0.1,0.8,0C23.5,45.6,23.5,45.8,23.2,46z M22.4,27.9c0.2-0.1,0.6-0.1,0.8,0
		s0.2,0.4,0,0.5s-0.6,0.1-0.8,0C22.1,28.2,22.1,28,22.4,27.9z M22.4,30.4c0.2-0.1,0.6-0.1,0.8,0s0.2,0.4,0,0.5s-0.6,0.1-0.8,0
		C22.1,30.7,22.1,30.5,22.4,30.4z M22.4,32.9c0.2-0.1,0.6-0.1,0.8,0s0.2,0.3,0,0.5s-0.6,0.1-0.8,0C22.1,33.3,22.1,33,22.4,32.9z
		 M22.4,35.4c0.2-0.1,0.6-0.1,0.8,0s0.2,0.3,0,0.5s-0.6,0.1-0.8,0C22.1,35.8,22.1,35.6,22.4,35.4z M22.4,37.9c0.2-0.1,0.6-0.1,0.8,0
		s0.2,0.3,0,0.5s-0.6,0.1-0.8,0C22.1,38.3,22.1,38.1,22.4,37.9z M22.4,40.5c0.2-0.1,0.6-0.1,0.8,0s0.2,0.3,0,0.5s-0.6,0.1-0.8,0
		C22.1,40.8,22.1,40.6,22.4,40.5z M22.4,43c0.2-0.1,0.6-0.1,0.8,0s0.2,0.3,0,0.5s-0.6,0.1-0.8,0S22.1,43.1,22.4,43z M21,47.2
		c-0.2,0.1-0.6,0.1-0.8,0s-0.2-0.3,0-0.5s0.6-0.1,0.8,0C21.3,46.9,21.3,47.1,21,47.2z M20.2,26.6c0.2-0.1,0.6-0.1,0.8,0
		s0.2,0.4,0,0.5s-0.6,0.1-0.8,0C20,27,20,26.8,20.2,26.6z M20.2,29.1c0.2-0.1,0.6-0.1,0.8,0s0.2,0.4,0,0.5s-0.6,0.1-0.8,0
		C20,29.5,20,29.3,20.2,29.1z M20.2,31.7c0.2-0.1,0.6-0.1,0.8,0s0.2,0.3,0,0.5s-0.6,0.1-0.8,0C20,32,20,31.8,20.2,31.7z M20.2,34.2
		c0.2-0.1,0.6-0.1,0.8,0s0.2,0.3,0,0.5s-0.6,0.1-0.8,0C20,34.5,20,34.3,20.2,34.2z M20.2,36.7c0.2-0.1,0.6-0.1,0.8,0s0.2,0.3,0,0.5
		s-0.6,0.1-0.8,0C20,37,20,36.8,20.2,36.7z M20.2,39.2c0.2-0.1,0.6-0.1,0.8,0s0.2,0.3,0,0.5s-0.6,0.1-0.8,0
		C20,39.5,20,39.3,20.2,39.2z M20.2,41.7c0.2-0.1,0.6-0.1,0.8,0s0.2,0.3,0,0.5s-0.6,0.1-0.8,0C20,42.1,20,41.8,20.2,41.7z
		 M20.2,44.2c0.2-0.1,0.6-0.1,0.8,0s0.2,0.3,0,0.5s-0.6,0.1-0.8,0C20,44.6,20,44.4,20.2,44.2z M18.9,48.5c-0.2,0.1-0.6,0.1-0.8,0
		s-0.2-0.3,0-0.5s0.6-0.1,0.8,0S19.1,48.4,18.9,48.5z M18.8,28.4c-0.2,0.1-0.6,0.1-0.8,0s-0.2-0.4,0-0.5s0.6-0.1,0.8,0
		S19.1,28.2,18.8,28.4z M18,25.4c0.2-0.1,0.6-0.1,0.8,0s0.2,0.4,0,0.5s-0.6,0.1-0.8,0C17.8,25.7,17.8,25.5,18,25.4z M16.7,29.6
		c-0.2,0.1-0.6,0.1-0.8,0s-0.2-0.4,0-0.5s0.6-0.1,0.8,0C16.9,29.3,16.9,29.5,16.7,29.6z M15.8,24.1c0.2-0.1,0.6-0.1,0.8,0
		s0.2,0.4,0,0.5s-0.6,0.1-0.8,0C15.6,24.4,15.6,24.2,15.8,24.1z M15.8,26.6c0.2-0.1,0.6-0.1,0.8,0c0.2,0.1,0.2,0.4,0,0.5
		s-0.6,0.1-0.8,0C15.6,27,15.6,26.7,15.8,26.6z M14.5,30.9c-0.2,0.1-0.6,0.1-0.8,0s-0.2-0.4,0-0.5s0.6-0.1,0.8,0
		C14.7,30.5,14.7,30.7,14.5,30.9z M13.6,25.4c0.2-0.1,0.6-0.1,0.8,0s0.2,0.4,0,0.5s-0.6,0.1-0.8,0C13.4,25.7,13.4,25.5,13.6,25.4z
		 M13.6,27.9c0.2-0.1,0.6-0.1,0.8,0s0.2,0.4,0,0.5s-0.6,0.1-0.8,0C13.4,28.2,13.4,28,13.6,27.9z M12.3,32.1c-0.2,0.1-0.6,0.1-0.8,0
		s-0.2-0.4,0-0.5s0.6-0.1,0.8,0C12.5,31.8,12.5,32,12.3,32.1z M11.5,24.1c0.2-0.1,0.6-0.1,0.8,0s0.2,0.4,0,0.5s-0.6,0.1-0.8,0
		C11.2,24.5,11.2,24.2,11.5,24.1z M11.5,26.6c0.2-0.1,0.6-0.1,0.8,0s0.2,0.4,0,0.5s-0.6,0.1-0.8,0C11.2,27,11.2,26.7,11.5,26.6z
		 M11.5,29.1c0.2-0.1,0.6-0.1,0.8,0s0.2,0.4,0,0.5s-0.6,0.1-0.8,0C11.2,29.5,11.2,29.3,11.5,29.1z M10.1,33.4
		c-0.2,0.1-0.6,0.1-0.8,0s-0.2-0.3,0-0.5s0.6-0.1,0.8,0C10.4,33,10.4,33.3,10.1,33.4z M9.3,25.4c0.2-0.1,0.6-0.1,0.8,0
		s0.2,0.4,0,0.5s-0.6,0.1-0.8,0C9.1,25.7,9.1,25.5,9.3,25.4z M9.3,27.9c0.2-0.1,0.6-0.1,0.8,0s0.2,0.4,0,0.5s-0.6,0.1-0.8,0
		S9.1,28,9.3,27.9z M9.3,30.4c0.2-0.1,0.6-0.1,0.8,0s0.2,0.4,0,0.5s-0.6,0.1-0.8,0S9.1,30.5,9.3,30.4z M8,34.7
		c-0.2,0.1-0.6,0.1-0.8,0s-0.2-0.3,0-0.5s0.6-0.1,0.8,0C8.2,34.3,8.2,34.5,8,34.7z M7.1,26.6c0.2-0.1,0.6-0.1,0.8,0s0.2,0.4,0,0.5
		s-0.6,0.1-0.8,0C6.9,27,6.9,26.7,7.1,26.6z M7.1,29.1c0.2-0.1,0.6-0.1,0.8,0s0.2,0.4,0,0.5s-0.6,0.1-0.8,0S6.9,29.3,7.1,29.1z
		 M7.1,31.6c0.2-0.1,0.6-0.1,0.8,0s0.2,0.4,0,0.5s-0.6,0.1-0.8,0S6.9,31.8,7.1,31.6z M5.8,35.9C5.6,36,5.2,36,5,35.9s-0.2-0.3,0-0.5
		s0.6-0.1,0.8,0C6,35.6,6,35.8,5.8,35.9z M4.9,27.9c0.2-0.1,0.6-0.1,0.8,0s0.2,0.4,0,0.5s-0.6,0.1-0.8,0S4.7,28,4.9,27.9z M4.9,30.4
		c0.2-0.1,0.6-0.1,0.8,0s0.2,0.4,0,0.5s-0.6,0.1-0.8,0S4.7,30.5,4.9,30.4z M4.9,32.9c0.2-0.1,0.6-0.1,0.8,0s0.2,0.3,0,0.5
		s-0.6,0.1-0.8,0C4.7,33.2,4.7,33,4.9,32.9z M2.8,29.1C3,29,3.3,29,3.6,29.1s0.2,0.4,0,0.5s-0.6,0.1-0.8,0S2.5,29.3,2.8,29.1z
		 M2.8,31.6c0.2-0.1,0.6-0.1,0.8,0s0.2,0.4,0,0.5s-0.6,0.1-0.8,0S2.5,31.8,2.8,31.6z M2.8,34.2C3,34,3.3,34,3.6,34.2s0.2,0.3,0,0.5
		s-0.6,0.1-0.8,0S2.5,34.3,2.8,34.2z"/>
</g>
<g class="st1">
	<ellipse class="st2" cx="55.5" cy="39.3" rx="0.6" ry="0.3"/>
	<path class="st2" d="M53,40.3c-0.2,0.1-0.2,0.3,0,0.5s0.6,0.1,0.8,0c0.2-0.1,0.2-0.3,0-0.5C53.6,40.1,53.2,40.1,53,40.3z"/>
	<ellipse class="st2" cx="51.2" cy="41.8" rx="0.6" ry="0.3"/>
	<ellipse class="st2" cx="49" cy="43" rx="0.6" ry="0.3"/>
	<path class="st2" d="M46.4,44c-0.2,0.1-0.2,0.3,0,0.5s0.6,0.1,0.8,0c0.2-0.1,0.2-0.3,0-0.5C47,43.9,46.7,43.9,46.4,44z"/>
	<path class="st2" d="M45.1,45.3c-0.2-0.1-0.6-0.1-0.8,0c-0.2,0.1-0.2,0.3,0,0.5s0.6,0.1,0.8,0C45.3,45.6,45.3,45.4,45.1,45.3z"/>
	<path class="st2" d="M42.9,46.6c-0.2-0.1-0.6-0.1-0.8,0c-0.2,0.1-0.2,0.3,0,0.5s0.6,0.1,0.8,0C43.1,46.9,43.1,46.7,42.9,46.6z"/>
	<path class="st2" d="M40.7,47.8c-0.2-0.1-0.6-0.1-0.8,0c-0.2,0.1-0.2,0.3,0,0.5s0.6,0.1,0.8,0C41,48.2,41,47.9,40.7,47.8z"/>
	<path class="st2" d="M38.5,49.1c-0.2-0.1-0.6-0.1-0.8,0c-0.2,0.1-0.2,0.3,0,0.5s0.6,0.1,0.8,0C38.8,49.4,38.8,49.2,38.5,49.1z"/>
	<path class="st2" d="M36.4,50.3c-0.2-0.1-0.6-0.1-0.8,0c-0.2,0.1-0.2,0.3,0,0.5s0.6,0.1,0.8,0C36.6,50.7,36.6,50.5,36.4,50.3z"/>
	<path class="st2" d="M55.1,42c0.1-0.2,0.2-0.4,0.3-0.6c-0.1,0-0.2,0-0.3,0.1C54.9,41.7,54.9,41.9,55.1,42z"/>
	<path class="st2" d="M53.8,42.8c-0.2-0.1-0.6-0.1-0.8,0c-0.2,0.1-0.2,0.3,0,0.5s0.6,0.1,0.8,0C54,43.1,54,42.9,53.8,42.8z"/>
	<path class="st2" d="M51.6,44c-0.2-0.1-0.6-0.1-0.8,0c-0.2,0.1-0.2,0.3,0,0.5s0.6,0.1,0.8,0C51.8,44.4,51.8,44.2,51.6,44z"/>
	<path class="st2" d="M49.4,45.3c-0.2-0.1-0.6-0.1-0.8,0c-0.2,0.1-0.2,0.3,0,0.5s0.6,0.1,0.8,0C49.7,45.6,49.7,45.4,49.4,45.3z"/>
	<ellipse class="st2" cx="46.8" cy="46.8" rx="0.6" ry="0.3"/>
	<path class="st2" d="M45.1,47.8c-0.2-0.1-0.6-0.1-0.8,0c-0.2,0.1-0.2,0.3,0,0.5s0.6,0.1,0.8,0C45.3,48.2,45.3,47.9,45.1,47.8z"/>
	<path class="st2" d="M40.7,50.3c-0.2-0.1-0.6-0.1-0.8,0c-0.2,0.1-0.2,0.3,0,0.5s0.6,0.1,0.8,0C41,50.7,41,50.5,40.7,50.3z"/>
	<path class="st2" d="M42.9,49.1c-0.2-0.1-0.6-0.1-0.8,0c-0.2,0.1-0.2,0.3,0,0.5s0.6,0.1,0.8,0C43.1,49.4,43.1,49.2,42.9,49.1z"/>
	<path class="st2" d="M52.8,45.6c0.1-0.1,0.2-0.2,0.2-0.3c0,0-0.1,0-0.1,0C52.8,45.4,52.8,45.5,52.8,45.6z"/>
	<path class="st2" d="M51.6,46.6c-0.2-0.1-0.6-0.1-0.8,0c-0.2,0.1-0.2,0.3,0,0.5s0.6,0.1,0.8,0S51.8,46.7,51.6,46.6z"/>
	<path class="st2" d="M49.4,47.8c-0.2-0.1-0.6-0.1-0.8,0c-0.2,0.1-0.2,0.3,0,0.5s0.6,0.1,0.8,0S49.7,47.9,49.4,47.8z"/>
	<path class="st2" d="M47.3,49.1c-0.2-0.1-0.6-0.1-0.8,0c-0.2,0.1-0.2,0.3,0,0.5s0.6,0.1,0.8,0C47.5,49.4,47.5,49.2,47.3,49.1z"/>
	<ellipse class="st2" cx="44.7" cy="50.6" rx="0.6" ry="0.3"/>
	<ellipse class="st2" cx="42.5" cy="51.8" rx="0.6" ry="0.3"/>
	<path class="st2" d="M46.4,51.6c-0.2,0.1-0.2,0.3,0,0.5c0,0,0.1,0,0.1,0c0.2-0.2,0.4-0.3,0.7-0.5C47,51.5,46.6,51.5,46.4,51.6z"/>
	<path class="st2" d="M45.1,53.3c0.1-0.1,0.2-0.2,0.2-0.3c-0.2,0.1-0.3,0.2-0.5,0.3C44.9,53.4,45,53.4,45.1,53.3z"/>
	<path class="st2" d="M45.1,52.8c-0.2-0.1-0.6-0.1-0.8,0c-0.2,0.1-0.2,0.3,0,0.5c0.2,0.1,0.4,0.1,0.5,0.1c0.2-0.1,0.3-0.2,0.5-0.3
		C45.3,53,45.2,52.9,45.1,52.8z"/>
	<ellipse class="st2" cx="22.8" cy="20.6" rx="0.6" ry="0.3"/>
	<path class="st2" d="M20.2,22.1c0.2,0.1,0.6,0.1,0.8,0s0.2-0.4,0-0.5s-0.6-0.1-0.8,0S20,21.9,20.2,22.1z"/>
	<ellipse class="st2" cx="18.4" cy="23.1" rx="0.6" ry="0.3"/>
	<path class="st2" d="M15.8,24.6c0.2,0.1,0.6,0.1,0.8,0s0.2-0.4,0-0.5s-0.6-0.1-0.8,0S15.6,24.5,15.8,24.6z"/>
	<path class="st2" d="M13.6,25.8c0.2,0.1,0.6,0.1,0.8,0s0.2-0.4,0-0.5s-0.6-0.1-0.8,0S13.4,25.7,13.6,25.8z"/>
	<path class="st2" d="M11.5,27.1c0.2,0.1,0.6,0.1,0.8,0s0.2-0.4,0-0.5s-0.6-0.1-0.8,0C11.2,26.8,11.2,27,11.5,27.1z"/>
	<path class="st2" d="M9.3,28.4c0.2,0.1,0.6,0.1,0.8,0s0.2-0.4,0-0.5s-0.6-0.1-0.8,0C9.1,28,9.1,28.2,9.3,28.4z"/>
	<ellipse class="st2" cx="7.5" cy="29.4" rx="0.6" ry="0.3"/>
	<path class="st2" d="M4.9,30.9c0.2,0.1,0.6,0.1,0.8,0s0.2-0.4,0-0.5s-0.6-0.1-0.8,0C4.7,30.5,4.7,30.7,4.9,30.9z"/>
	<path class="st2" d="M2.8,32.1c0.2,0.1,0.6,0.1,0.8,0s0.2-0.4,0-0.5s-0.6-0.1-0.8,0C2.5,31.8,2.5,32,2.8,32.1z"/>
	<path class="st2" d="M0.6,33.4c0.2,0.1,0.6,0.1,0.8,0s0.2-0.3,0-0.5s-0.6-0.1-0.8,0S0.4,33.3,0.6,33.4z"/>
	<path class="st2" d="M-1.6,34.6c0.2,0.1,0.6,0.1,0.8,0s0.2-0.3,0-0.5s-0.6-0.1-0.8,0C-1.8,34.3-1.8,34.5-1.6,34.6z"/>
	<path class="st2" d="M-3.8,35.9c0.2,0.1,0.6,0.1,0.8,0c0.2-0.1,0.2-0.3,0-0.5s-0.6-0.1-0.8,0C-4,35.6-4,35.8-3.8,35.9z"/>
	<path class="st2" d="M-5.1,36.7c-0.2-0.1-0.6-0.1-0.8,0s-0.2,0.3,0,0.5s0.6,0.1,0.8,0S-4.9,36.8-5.1,36.7z"/>
	<path class="st2" d="M26.7,20.8c0.2,0.1,0.6,0.1,0.8,0s0.2-0.4,0-0.5s-0.6-0.1-0.8,0S26.5,20.7,26.7,20.8z"/>
	<path class="st2" d="M24.5,22.1c0.2,0.1,0.6,0.1,0.8,0s0.2-0.4,0-0.5s-0.6-0.1-0.8,0C24.3,21.7,24.3,21.9,24.5,22.1z"/>
	<path class="st2" d="M22.4,23.3c0.2,0.1,0.6,0.1,0.8,0s0.2-0.4,0-0.5s-0.6-0.1-0.8,0C22.1,23,22.1,23.2,22.4,23.3z"/>
	<path class="st2" d="M20.2,24.6c0.2,0.1,0.6,0.1,0.8,0s0.2-0.4,0-0.5s-0.6-0.1-0.8,0C20,24.2,20,24.5,20.2,24.6z"/>
	<path class="st2" d="M18,25.8c0.2,0.1,0.6,0.1,0.8,0s0.2-0.4,0-0.5s-0.6-0.1-0.8,0S17.8,25.7,18,25.8z"/>
	<ellipse class="st2" cx="16.2" cy="26.9" rx="0.6" ry="0.3"/>
	<path class="st2" d="M13.6,28.4c0.2,0.1,0.6,0.1,0.8,0s0.2-0.4,0-0.5s-0.6-0.1-0.8,0C13.4,28,13.4,28.2,13.6,28.4z"/>
	<path class="st2" d="M11.5,29.6c0.2,0.1,0.6,0.1,0.8,0s0.2-0.4,0-0.5s-0.6-0.1-0.8,0C11.2,29.3,11.2,29.5,11.5,29.6z"/>
	<path class="st2" d="M9.3,30.9c0.2,0.1,0.6,0.1,0.8,0s0.2-0.4,0-0.5s-0.6-0.1-0.8,0C9.1,30.5,9.1,30.7,9.3,30.9z"/>
	<path class="st2" d="M7.1,32.1c0.2,0.1,0.6,0.1,0.8,0c0.2-0.1,0.2-0.4,0-0.5c-0.2-0.1-0.6-0.1-0.8,0C6.9,31.8,6.9,32,7.1,32.1z"/>
	<path class="st2" d="M4.9,33.4c0.2,0.1,0.6,0.1,0.8,0s0.2-0.3,0-0.5s-0.6-0.1-0.8,0S4.7,33.3,4.9,33.4z"/>
	<path class="st2" d="M2.8,34.6c0.2,0.1,0.6,0.1,0.8,0s0.2-0.3,0-0.5S3,34,2.8,34.2C2.5,34.3,2.5,34.5,2.8,34.6z"/>
	<ellipse class="st2" cx="1" cy="35.7" rx="0.6" ry="0.3"/>
	<path class="st2" d="M-1.6,37.2c0.2,0.1,0.6,0.1,0.8,0s0.2-0.3,0-0.5s-0.6-0.1-0.8,0C-1.8,36.8-1.8,37-1.6,37.2z"/>
	<path class="st2" d="M-3.8,38.4c0.2,0.1,0.6,0.1,0.8,0c0.2-0.1,0.2-0.3,0-0.5s-0.6-0.1-0.8,0C-4,38.1-4,38.3-3.8,38.4z"/>
	<ellipse class="st2" cx="-5.5" cy="39.4" rx="0.6" ry="0.3"/>
	<path class="st2" d="M28.9,22.1c0.2,0.1,0.6,0.1,0.8,0s0.2-0.4,0-0.5s-0.6-0.1-0.8,0S28.7,21.9,28.9,22.1z"/>
	<ellipse class="st2" cx="27.1" cy="23.1" rx="0.6" ry="0.3"/>
	<path class="st2" d="M24.5,24.6c0.2,0.1,0.6,0.1,0.8,0s0.2-0.4,0-0.5s-0.6-0.1-0.8,0C24.3,24.2,24.3,24.5,24.5,24.6z"/>
	<path class="st2" d="M22.4,25.8c0.2,0.1,0.6,0.1,0.8,0s0.2-0.4,0-0.5s-0.6-0.1-0.8,0C22.1,25.5,22.1,25.7,22.4,25.8z"/>
	<path class="st2" d="M20.2,27.1c0.2,0.1,0.6,0.1,0.8,0s0.2-0.4,0-0.5s-0.6-0.1-0.8,0S20,27,20.2,27.1z"/>
	<path class="st2" d="M18,28.4c0.2,0.1,0.6,0.1,0.8,0s0.2-0.4,0-0.5s-0.6-0.1-0.8,0C17.8,28,17.8,28.2,18,28.4z"/>
	<path class="st2" d="M15.8,29.6c0.2,0.1,0.6,0.1,0.8,0s0.2-0.4,0-0.5s-0.6-0.1-0.8,0S15.6,29.5,15.8,29.6z"/>
	<ellipse class="st2" cx="14.1" cy="30.6" rx="0.6" ry="0.3"/>
	<ellipse class="st2" cx="11.9" cy="31.9" rx="0.6" ry="0.3"/>
	<path class="st2" d="M9.3,33.4c0.2,0.1,0.6,0.1,0.8,0s0.2-0.3,0-0.5s-0.6-0.1-0.8,0C9.1,33,9.1,33.3,9.3,33.4z"/>
	<path class="st2" d="M7.1,34.6c0.2,0.1,0.6,0.1,0.8,0c0.2-0.1,0.2-0.3,0-0.5c-0.2-0.1-0.6-0.1-0.8,0C6.9,34.3,6.9,34.5,7.1,34.6z"
		/>
	<ellipse class="st2" cx="5.4" cy="35.7" rx="0.6" ry="0.3"/>
	<path class="st2" d="M2.8,37.2c0.2,0.1,0.6,0.1,0.8,0s0.2-0.3,0-0.5s-0.6-0.1-0.8,0C2.5,36.8,2.5,37,2.8,37.2z"/>
	<path class="st2" d="M0.6,38.4c0.2,0.1,0.6,0.1,0.8,0s0.2-0.3,0-0.5s-0.6-0.1-0.8,0S0.4,38.3,0.6,38.4z"/>
	<path class="st2" d="M-1.6,39.7c0.2,0.1,0.6,0.1,0.8,0s0.2-0.3,0-0.5s-0.6-0.1-0.8,0S-1.8,39.5-1.6,39.7z"/>
	<path class="st2" d="M-3.8,40.9c0.2,0.1,0.6,0.1,0.8,0c0.2-0.1,0.2-0.3,0-0.5s-0.6-0.1-0.8,0C-4,40.6-4,40.8-3.8,40.9z"/>
	<path class="st2" d="M-5.1,41.7c-0.1,0-0.2,0-0.2-0.1c0.1,0.2,0.2,0.3,0.3,0.5C-4.9,42-4.9,41.8-5.1,41.7z"/>
	<path class="st2" d="M31.1,23.3c0.2,0.1,0.6,0.1,0.8,0c0.2-0.1,0.2-0.4,0-0.5c-0.2-0.1-0.6-0.1-0.8,0S30.9,23.2,31.1,23.3z"/>
	<path class="st2" d="M29.7,24.1c-0.2-0.1-0.6-0.1-0.8,0s-0.2,0.4,0,0.5s0.6,0.1,0.8,0C30,24.5,30,24.3,29.7,24.1z"/>
	<path class="st2" d="M27.6,25.4c-0.2-0.1-0.6-0.1-0.8,0s-0.2,0.4,0,0.5s0.6,0.1,0.8,0C27.8,25.7,27.8,25.5,27.6,25.4z"/>
	<ellipse class="st2" cx="25" cy="26.9" rx="0.6" ry="0.3"/>
	<path class="st2" d="M23.2,27.9c-0.2-0.1-0.6-0.1-0.8,0s-0.2,0.4,0,0.5s0.6,0.1,0.8,0C23.4,28.2,23.4,28,23.2,27.9z"/>
	<path class="st2" d="M21,29.1c-0.2-0.1-0.6-0.1-0.8,0s-0.2,0.4,0,0.5s0.6,0.1,0.8,0S21.3,29.3,21,29.1z"/>
	<path class="st2" d="M18.9,30.4c-0.2-0.1-0.6-0.1-0.8,0s-0.2,0.4,0,0.5s0.6,0.1,0.8,0S19.1,30.5,18.9,30.4z"/>
	<path class="st2" d="M16.7,31.7c-0.2-0.1-0.6-0.1-0.8,0s-0.2,0.4,0,0.5s0.6,0.1,0.8,0S16.9,31.8,16.7,31.7z"/>
	<ellipse class="st2" cx="14.1" cy="33.2" rx="0.6" ry="0.3"/>
	<ellipse class="st2" cx="11.9" cy="34.4" rx="0.6" ry="0.3"/>
	<path class="st2" d="M10.1,35.4c-0.2-0.1-0.6-0.1-0.8,0s-0.2,0.3,0,0.5s0.6,0.1,0.8,0C10.4,35.8,10.4,35.6,10.1,35.4z"/>
	<ellipse class="st2" cx="7.6" cy="36.9" rx="0.6" ry="0.3"/>
	<path class="st2" d="M5.8,37.9c-0.2-0.1-0.6-0.1-0.8,0s-0.2,0.3,0,0.5s0.6,0.1,0.8,0S6,38.1,5.8,37.9z"/>
	<ellipse class="st2" cx="3.2" cy="39.4" rx="0.6" ry="0.3"/>
	<path class="st2" d="M1.4,40.5c-0.2-0.1-0.6-0.1-0.8,0s-0.2,0.3,0,0.5s0.6,0.1,0.8,0C1.7,40.8,1.7,40.6,1.4,40.5z"/>
	<path class="st2" d="M-0.7,41.7c-0.2-0.1-0.6-0.1-0.8,0s-0.2,0.3,0,0.5s0.6,0.1,0.8,0S-0.5,41.9-0.7,41.7z"/>
	<ellipse class="st2" cx="-3.3" cy="43.2" rx="0.6" ry="0.3"/>
	<path class="st2" d="M33.3,24.6c0.2,0.1,0.6,0.1,0.8,0c0.2-0.1,0.2-0.4,0-0.5s-0.6-0.1-0.8,0C33,24.3,33,24.5,33.3,24.6z"/>
	<path class="st2" d="M31.1,25.9c0.2,0.1,0.6,0.1,0.8,0c0.2-0.1,0.2-0.4,0-0.5c-0.2-0.1-0.6-0.1-0.8,0
		C30.9,25.5,30.9,25.7,31.1,25.9z"/>
	<path class="st2" d="M29.7,26.6c-0.2-0.1-0.6-0.1-0.8,0s-0.2,0.4,0,0.5s0.6,0.1,0.8,0S30,26.8,29.7,26.6z"/>
	<ellipse class="st2" cx="27.1" cy="28.1" rx="0.6" ry="0.3"/>
	<path class="st2" d="M25.4,29.1c-0.2-0.1-0.6-0.1-0.8,0s-0.2,0.4,0,0.5s0.6,0.1,0.8,0C25.6,29.5,25.6,29.3,25.4,29.1z"/>
	<ellipse class="st2" cx="22.8" cy="30.6" rx="0.6" ry="0.3"/>
	<path class="st2" d="M21,31.7c-0.2-0.1-0.6-0.1-0.8,0s-0.2,0.4,0,0.5s0.6,0.1,0.8,0S21.3,31.8,21,31.7z"/>
	<path class="st2" d="M18.9,32.9c-0.2-0.1-0.6-0.1-0.8,0s-0.2,0.3,0,0.5s0.6,0.1,0.8,0C19.1,33.3,19.1,33.1,18.9,32.9z"/>
	<path class="st2" d="M16.7,34.2c-0.2-0.1-0.6-0.1-0.8,0s-0.2,0.3,0,0.5s0.6,0.1,0.8,0S16.9,34.3,16.7,34.2z"/>
	<path class="st2" d="M14.5,35.4c-0.2-0.1-0.6-0.1-0.8,0s-0.2,0.3,0,0.5s0.6,0.1,0.8,0C14.7,35.8,14.7,35.6,14.5,35.4z"/>
	<path class="st2" d="M12.3,36.7c-0.2-0.1-0.6-0.1-0.8,0s-0.2,0.3,0,0.5s0.6,0.1,0.8,0C12.6,37,12.6,36.8,12.3,36.7z"/>
	<ellipse class="st2" cx="9.7" cy="38.2" rx="0.6" ry="0.3"/>
	<ellipse class="st2" cx="7.6" cy="39.4" rx="0.6" ry="0.3"/>
	<path class="st2" d="M5.8,40.5c-0.2-0.1-0.6-0.1-0.8,0s-0.2,0.3,0,0.5s0.6,0.1,0.8,0C6,40.8,6,40.6,5.8,40.5z"/>
	<ellipse class="st2" cx="3.2" cy="42" rx="0.6" ry="0.3"/>
	<ellipse class="st2" cx="1" cy="43.2" rx="0.6" ry="0.3"/>
	<path class="st2" d="M-0.7,44.2c-0.2-0.1-0.6-0.1-0.8,0s-0.2,0.3,0,0.5s0.6,0.1,0.8,0S-0.5,44.4-0.7,44.2z"/>
	<path class="st2" d="M35.4,25.9c0.2,0.1,0.6,0.1,0.8,0c0.2-0.1,0.2-0.4,0-0.5s-0.6-0.1-0.8,0C35.2,25.5,35.2,25.7,35.4,25.9z"/>
	<path class="st2" d="M33.3,27.1c0.2,0.1,0.6,0.1,0.8,0c0.2-0.1,0.2-0.4,0-0.5s-0.6-0.1-0.8,0C33,26.8,33,27,33.3,27.1z"/>
	<path class="st2" d="M31.1,28.4c0.2,0.1,0.6,0.1,0.8,0c0.2-0.1,0.2-0.4,0-0.5c-0.2-0.1-0.6-0.1-0.8,0C30.9,28,30.9,28.2,31.1,28.4z
		"/>
	<path class="st2" d="M29.7,29.1c-0.2-0.1-0.6-0.1-0.8,0s-0.2,0.4,0,0.5s0.6,0.1,0.8,0S30,29.3,29.7,29.1z"/>
	<ellipse class="st2" cx="27.1" cy="30.6" rx="0.6" ry="0.3"/>
	<path class="st2" d="M25.4,31.7c-0.2-0.1-0.6-0.1-0.8,0s-0.2,0.4,0,0.5s0.6,0.1,0.8,0C25.6,32,25.6,31.8,25.4,31.7z"/>
	<ellipse class="st2" cx="22.8" cy="33.2" rx="0.6" ry="0.3"/>
	<path class="st2" d="M21,34.2c-0.2-0.1-0.6-0.1-0.8,0s-0.2,0.3,0,0.5s0.6,0.1,0.8,0S21.3,34.3,21,34.2z"/>
	<path class="st2" d="M18.9,35.4c-0.2-0.1-0.6-0.1-0.8,0s-0.2,0.3,0,0.5s0.6,0.1,0.8,0C19.1,35.8,19.1,35.6,18.9,35.4z"/>
	<path class="st2" d="M16.7,36.7c-0.2-0.1-0.6-0.1-0.8,0s-0.2,0.3,0,0.5s0.6,0.1,0.8,0C16.9,37,16.9,36.8,16.7,36.7z"/>
	<ellipse class="st2" cx="14.1" cy="38.2" rx="0.6" ry="0.3"/>
	<ellipse class="st2" cx="11.9" cy="39.4" rx="0.6" ry="0.3"/>
	<path class="st2" d="M10.1,40.5c-0.2-0.1-0.6-0.1-0.8,0s-0.2,0.3,0,0.5s0.6,0.1,0.8,0C10.4,40.8,10.4,40.6,10.1,40.5z"/>
	<path class="st2" d="M8,41.7c-0.2-0.1-0.6-0.1-0.8,0s-0.2,0.3,0,0.5s0.6,0.1,0.8,0S8.2,41.9,8,41.7z"/>
	<path class="st2" d="M3.6,44.2c-0.2-0.1-0.6-0.1-0.8,0s-0.2,0.3,0,0.5s0.6,0.1,0.8,0S3.8,44.4,3.6,44.2z"/>
	<path class="st2" d="M37.6,27.1c0.2,0.1,0.6,0.1,0.8,0c0.2-0.1,0.2-0.4,0-0.5s-0.6-0.1-0.8,0C37.4,26.8,37.4,27,37.6,27.1z"/>
	<path class="st2" d="M35.4,28.4c0.2,0.1,0.6,0.1,0.8,0c0.2-0.1,0.2-0.4,0-0.5s-0.6-0.1-0.8,0C35.2,28,35.2,28.2,35.4,28.4z"/>
	<path class="st2" d="M33.3,29.6c0.2,0.1,0.6,0.1,0.8,0c0.2-0.1,0.2-0.4,0-0.5s-0.6-0.1-0.8,0C33,29.3,33,29.5,33.3,29.6z"/>
	<path class="st2" d="M31.1,30.9c0.2,0.1,0.6,0.1,0.8,0c0.2-0.1,0.2-0.4,0-0.5c-0.2-0.1-0.6-0.1-0.8,0
		C30.9,30.5,30.9,30.8,31.1,30.9z"/>
	<ellipse class="st2" cx="29.3" cy="31.9" rx="0.6" ry="0.3"/>
	<path class="st2" d="M27.6,32.9c-0.2-0.1-0.6-0.1-0.8,0s-0.2,0.3,0,0.5s0.6,0.1,0.8,0C27.8,33.3,27.8,33.1,27.6,32.9z"/>
	<path class="st2" d="M25.4,34.2c-0.2-0.1-0.6-0.1-0.8,0s-0.2,0.3,0,0.5s0.6,0.1,0.8,0C25.6,34.5,25.6,34.3,25.4,34.2z"/>
	<path class="st2" d="M23.2,35.4c-0.2-0.1-0.6-0.1-0.8,0s-0.2,0.3,0,0.5s0.6,0.1,0.8,0C23.4,35.8,23.4,35.6,23.2,35.4z"/>
	<path class="st2" d="M21,36.7c-0.2-0.1-0.6-0.1-0.8,0s-0.2,0.3,0,0.5s0.6,0.1,0.8,0C21.3,37,21.3,36.8,21,36.7z"/>
	<path class="st2" d="M18.9,37.9c-0.2-0.1-0.6-0.1-0.8,0s-0.2,0.3,0,0.5s0.6,0.1,0.8,0S19.1,38.1,18.9,37.9z"/>
	<path class="st2" d="M16.7,39.2c-0.2-0.1-0.6-0.1-0.8,0s-0.2,0.3,0,0.5s0.6,0.1,0.8,0C16.9,39.6,16.9,39.3,16.7,39.2z"/>
	<ellipse class="st2" cx="14.1" cy="40.7" rx="0.6" ry="0.3"/>
	<path class="st2" d="M12.3,41.7c-0.2-0.1-0.6-0.1-0.8,0s-0.2,0.3,0,0.5s0.6,0.1,0.8,0C12.6,42.1,12.6,41.9,12.3,41.7z"/>
	<path class="st2" d="M10.1,43c-0.2-0.1-0.6-0.1-0.8,0s-0.2,0.3,0,0.5s0.6,0.1,0.8,0S10.4,43.1,10.1,43z"/>
	<ellipse class="st2" cx="7.6" cy="44.5" rx="0.6" ry="0.3"/>
	<path class="st2" d="M5.8,45.5c-0.2-0.1-0.6-0.1-0.8,0S4.7,45.8,5,46s0.6,0.1,0.8,0S6,45.6,5.8,45.5z"/>
	<path class="st2" d="M39.8,28.4c0.2,0.1,0.6,0.1,0.8,0c0.2-0.1,0.2-0.4,0-0.5s-0.6-0.1-0.8,0C39.6,28,39.6,28.2,39.8,28.4z"/>
	<path class="st2" d="M37.6,29.6c0.2,0.1,0.6,0.1,0.8,0c0.2-0.1,0.2-0.4,0-0.5s-0.6-0.1-0.8,0C37.4,29.3,37.4,29.5,37.6,29.6z"/>
	<ellipse class="st2" cx="35.9" cy="30.6" rx="0.6" ry="0.3"/>
	<path class="st2" d="M33.3,32.1c0.2,0.1,0.6,0.1,0.8,0c0.2-0.1,0.2-0.4,0-0.5s-0.6-0.1-0.8,0C33,31.8,33,32,33.3,32.1z"/>
	<path class="st2" d="M31.1,33.4c0.2,0.1,0.6,0.1,0.8,0c0.2-0.1,0.2-0.3,0-0.5c-0.2-0.1-0.6-0.1-0.8,0S30.9,33.3,31.1,33.4z"/>
	<path class="st2" d="M29.7,34.2c-0.2-0.1-0.6-0.1-0.8,0s-0.2,0.3,0,0.5s0.6,0.1,0.8,0S30,34.3,29.7,34.2z"/>
	<path class="st2" d="M27.6,35.4c-0.2-0.1-0.6-0.1-0.8,0s-0.2,0.3,0,0.5s0.6,0.1,0.8,0C27.8,35.8,27.8,35.6,27.6,35.4z"/>
	<path class="st2" d="M25.4,36.7c-0.2-0.1-0.6-0.1-0.8,0s-0.2,0.3,0,0.5s0.6,0.1,0.8,0C25.6,37,25.6,36.8,25.4,36.7z"/>
	<ellipse class="st2" cx="22.8" cy="38.2" rx="0.6" ry="0.3"/>
	<path class="st2" d="M21,39.2c-0.2-0.1-0.6-0.1-0.8,0s-0.2,0.3,0,0.5s0.6,0.1,0.8,0C21.3,39.6,21.3,39.3,21,39.2z"/>
	<ellipse class="st2" cx="18.4" cy="40.7" rx="0.6" ry="0.3"/>
	<path class="st2" d="M16.7,41.7c-0.2-0.1-0.6-0.1-0.8,0s-0.2,0.3,0,0.5s0.6,0.1,0.8,0S16.9,41.9,16.7,41.7z"/>
	<path class="st2" d="M14.5,43c-0.2-0.1-0.6-0.1-0.8,0s-0.2,0.3,0,0.5s0.6,0.1,0.8,0C14.7,43.3,14.7,43.1,14.5,43z"/>
	<path class="st2" d="M12.3,44.2c-0.2-0.1-0.6-0.1-0.8,0s-0.2,0.3,0,0.5s0.6,0.1,0.8,0C12.6,44.6,12.6,44.4,12.3,44.2z"/>
	<path class="st2" d="M10.1,45.5c-0.2-0.1-0.6-0.1-0.8,0s-0.2,0.3,0,0.5s0.6,0.1,0.8,0C10.4,45.8,10.4,45.6,10.1,45.5z"/>
	<ellipse class="st2" cx="7.6" cy="47" rx="0.6" ry="0.3"/>
	<path class="st2" d="M42,29.6c0.2,0.1,0.6,0.1,0.8,0c0.2-0.1,0.2-0.4,0-0.5s-0.6-0.1-0.8,0C41.7,29.3,41.7,29.5,42,29.6z"/>
	<path class="st2" d="M39.8,30.9c0.2,0.1,0.6,0.1,0.8,0c0.2-0.1,0.2-0.4,0-0.5s-0.6-0.1-0.8,0C39.6,30.5,39.6,30.8,39.8,30.9z"/>
	<path class="st2" d="M37.6,32.1c0.2,0.1,0.6,0.1,0.8,0c0.2-0.1,0.2-0.4,0-0.5s-0.6-0.1-0.8,0C37.4,31.8,37.4,32,37.6,32.1z"/>
	<ellipse class="st2" cx="35.9" cy="33.2" rx="0.6" ry="0.3"/>
	<ellipse class="st2" cx="33.7" cy="34.4" rx="0.6" ry="0.3"/>
	<path class="st2" d="M31.1,35.9c0.2,0.1,0.6,0.1,0.8,0c0.2-0.1,0.2-0.3,0-0.5c-0.2-0.1-0.6-0.1-0.8,0S30.9,35.8,31.1,35.9z"/>
	<path class="st2" d="M29.7,36.7c-0.2-0.1-0.6-0.1-0.8,0s-0.2,0.3,0,0.5s0.6,0.1,0.8,0C30,37,30,36.8,29.7,36.7z"/>
	<path class="st2" d="M27.6,37.9c-0.2-0.1-0.6-0.1-0.8,0s-0.2,0.3,0,0.5s0.6,0.1,0.8,0C27.8,38.3,27.8,38.1,27.6,37.9z"/>
	<path class="st2" d="M25.4,39.2c-0.2-0.1-0.6-0.1-0.8,0s-0.2,0.3,0,0.5s0.6,0.1,0.8,0C25.6,39.6,25.6,39.3,25.4,39.2z"/>
	<path class="st2" d="M23.2,40.5c-0.2-0.1-0.6-0.1-0.8,0s-0.2,0.3,0,0.5s0.6,0.1,0.8,0C23.4,40.8,23.4,40.6,23.2,40.5z"/>
	<path class="st2" d="M21,41.7c-0.2-0.1-0.6-0.1-0.8,0s-0.2,0.3,0,0.5s0.6,0.1,0.8,0S21.3,41.9,21,41.7z"/>
	<path class="st2" d="M18.9,43c-0.2-0.1-0.6-0.1-0.8,0s-0.2,0.3,0,0.5s0.6,0.1,0.8,0C19.1,43.3,19.1,43.1,18.9,43z"/>
	<ellipse class="st2" cx="16.3" cy="44.5" rx="0.6" ry="0.3"/>
	<path class="st2" d="M14.5,45.5c-0.2-0.1-0.6-0.1-0.8,0s-0.2,0.3,0,0.5s0.6,0.1,0.8,0S14.7,45.6,14.5,45.5z"/>
	<path class="st2" d="M12.3,46.7c-0.2-0.1-0.6-0.1-0.8,0s-0.2,0.3,0,0.5s0.6,0.1,0.8,0C12.6,47.1,12.6,46.9,12.3,46.7z"/>
	<ellipse class="st2" cx="9.7" cy="48.2" rx="0.6" ry="0.3"/>
	<path class="st2" d="M44.2,30.9c0.2,0.1,0.6,0.1,0.8,0c0.2-0.1,0.2-0.4,0-0.5s-0.6-0.1-0.8,0S43.9,30.8,44.2,30.9z"/>
	<path class="st2" d="M42,32.1c0.2,0.1,0.6,0.1,0.8,0c0.2-0.1,0.2-0.4,0-0.5s-0.6-0.1-0.8,0C41.7,31.8,41.7,32,42,32.1z"/>
	<path class="st2" d="M39.8,33.4c0.2,0.1,0.6,0.1,0.8,0c0.2-0.1,0.2-0.3,0-0.5s-0.6-0.1-0.8,0C39.6,33.1,39.6,33.3,39.8,33.4z"/>
	<path class="st2" d="M37.6,34.7c0.2,0.1,0.6,0.1,0.8,0c0.2-0.1,0.2-0.3,0-0.5s-0.6-0.1-0.8,0C37.4,34.3,37.4,34.5,37.6,34.7z"/>
	<path class="st2" d="M35.4,35.9c0.2,0.1,0.6,0.1,0.8,0c0.2-0.1,0.2-0.3,0-0.5s-0.6-0.1-0.8,0C35.2,35.6,35.2,35.8,35.4,35.9z"/>
	<path class="st2" d="M33.3,37.2c0.2,0.1,0.6,0.1,0.8,0c0.2-0.1,0.2-0.3,0-0.5s-0.6-0.1-0.8,0S33,37,33.3,37.2z"/>
	<path class="st2" d="M31.1,38.4c0.2,0.1,0.6,0.1,0.8,0c0.2-0.1,0.2-0.3,0-0.5c-0.2-0.1-0.6-0.1-0.8,0
		C30.9,38.1,30.9,38.3,31.1,38.4z"/>
	<ellipse class="st2" cx="29.3" cy="39.4" rx="0.6" ry="0.3"/>
	<path class="st2" d="M27.6,40.5c-0.2-0.1-0.6-0.1-0.8,0s-0.2,0.3,0,0.5s0.6,0.1,0.8,0C27.8,40.8,27.8,40.6,27.6,40.5z"/>
	<path class="st2" d="M25.4,41.7c-0.2-0.1-0.6-0.1-0.8,0s-0.2,0.3,0,0.5s0.6,0.1,0.8,0C25.6,42.1,25.6,41.9,25.4,41.7z"/>
	<path class="st2" d="M23.2,43c-0.2-0.1-0.6-0.1-0.8,0s-0.2,0.3,0,0.5s0.6,0.1,0.8,0C23.4,43.3,23.4,43.1,23.2,43z"/>
	<path class="st2" d="M21,44.2c-0.2-0.1-0.6-0.1-0.8,0s-0.2,0.3,0,0.5s0.6,0.1,0.8,0S21.3,44.4,21,44.2z"/>
	<path class="st2" d="M18.9,45.5c-0.2-0.1-0.6-0.1-0.8,0s-0.2,0.3,0,0.5s0.6,0.1,0.8,0S19.1,45.6,18.9,45.5z"/>
	<path class="st2" d="M16.7,46.7c-0.2-0.1-0.6-0.1-0.8,0s-0.2,0.3,0,0.5s0.6,0.1,0.8,0S16.9,46.9,16.7,46.7z"/>
	<ellipse class="st2" cx="14.1" cy="48.2" rx="0.6" ry="0.3"/>
	<path class="st2" d="M46.3,32.1c0.2,0.1,0.6,0.1,0.8,0c0.2-0.1,0.2-0.4,0-0.5s-0.6-0.1-0.8,0C46.1,31.8,46.1,32,46.3,32.1z"/>
	<path class="st2" d="M44.2,33.4c0.2,0.1,0.6,0.1,0.8,0c0.2-0.1,0.2-0.3,0-0.5s-0.6-0.1-0.8,0S43.9,33.3,44.2,33.4z"/>
	<path class="st2" d="M42,34.7c0.2,0.1,0.6,0.1,0.8,0c0.2-0.1,0.2-0.3,0-0.5s-0.6-0.1-0.8,0C41.7,34.3,41.7,34.5,42,34.7z"/>
	<path class="st2" d="M39.8,35.9c0.2,0.1,0.6,0.1,0.8,0c0.2-0.1,0.2-0.3,0-0.5s-0.6-0.1-0.8,0C39.6,35.6,39.6,35.8,39.8,35.9z"/>
	<path class="st2" d="M37.6,37.2c0.2,0.1,0.6,0.1,0.8,0c0.2-0.1,0.2-0.3,0-0.5s-0.6-0.1-0.8,0C37.4,36.8,37.4,37,37.6,37.2z"/>
	<ellipse class="st2" cx="35.9" cy="38.2" rx="0.6" ry="0.3"/>
	<path class="st2" d="M33.3,39.7c0.2,0.1,0.6,0.1,0.8,0c0.2-0.1,0.2-0.3,0-0.5s-0.6-0.1-0.8,0C33,39.3,33,39.6,33.3,39.7z"/>
	<path class="st2" d="M31.1,40.9c0.2,0.1,0.6,0.1,0.8,0c0.2-0.1,0.2-0.3,0-0.5c-0.2-0.1-0.6-0.1-0.8,0
		C30.9,40.6,30.9,40.8,31.1,40.9z"/>
	<path class="st2" d="M28.9,42.2c0.2,0.1,0.6,0.1,0.8,0s0.2-0.3,0-0.5s-0.6-0.1-0.8,0C28.7,41.9,28.7,42.1,28.9,42.2z"/>
	<path class="st2" d="M26.7,43.5c0.2,0.1,0.6,0.1,0.8,0s0.2-0.3,0-0.5s-0.6-0.1-0.8,0S26.5,43.3,26.7,43.5z"/>
	<ellipse class="st2" cx="25" cy="44.5" rx="0.6" ry="0.3"/>
	<path class="st2" d="M22.4,46c0.2,0.1,0.6,0.1,0.8,0s0.2-0.3,0-0.5s-0.6-0.1-0.8,0C22.1,45.6,22.1,45.8,22.4,46z"/>
	<ellipse class="st2" cx="20.6" cy="47" rx="0.6" ry="0.3"/>
	<path class="st2" d="M18.9,48c-0.2-0.1-0.6-0.1-0.8,0s-0.2,0.3,0,0.5s0.6,0.1,0.8,0C19.1,48.4,19.1,48.1,18.9,48z"/>
	<path class="st2" d="M16.7,49.3c-0.2-0.1-0.6-0.1-0.8,0s-0.2,0.3,0,0.5s0.6,0.1,0.8,0C16.9,49.6,16.9,49.4,16.7,49.3z"/>
	<path class="st2" d="M48.5,33.4c0.2,0.1,0.6,0.1,0.8,0s0.2-0.3,0-0.5s-0.6-0.1-0.8,0C48.3,33.1,48.3,33.3,48.5,33.4z"/>
	<path class="st2" d="M47.2,34.2c-0.2-0.1-0.6-0.1-0.8,0c-0.2,0.1-0.2,0.3,0,0.5s0.6,0.1,0.8,0C47.4,34.5,47.4,34.3,47.2,34.2z"/>
	<path class="st2" d="M45,35.4c-0.2-0.1-0.6-0.1-0.8,0c-0.2,0.1-0.2,0.3,0,0.5s0.6,0.1,0.8,0C45.2,35.8,45.2,35.6,45,35.4z"/>
	<path class="st2" d="M42.8,36.7c-0.2-0.1-0.6-0.1-0.8,0c-0.2,0.1-0.2,0.3,0,0.5s0.6,0.1,0.8,0C43,37.1,43,36.8,42.8,36.7z"/>
	<ellipse class="st2" cx="40.2" cy="38.2" rx="0.6" ry="0.3"/>
	<path class="st2" d="M38.5,39.2c-0.2-0.1-0.6-0.1-0.8,0c-0.2,0.1-0.2,0.3,0,0.5s0.6,0.1,0.8,0C38.7,39.6,38.7,39.4,38.5,39.2z"/>
	<path class="st2" d="M36.3,40.5c-0.2-0.1-0.6-0.1-0.8,0c-0.2,0.1-0.2,0.3,0,0.5s0.6,0.1,0.8,0C36.5,40.8,36.5,40.6,36.3,40.5z"/>
	<path class="st2" d="M34.1,41.7c-0.2-0.1-0.6-0.1-0.8,0c-0.2,0.1-0.2,0.3,0,0.5s0.6,0.1,0.8,0C34.3,42.1,34.3,41.9,34.1,41.7z"/>
	<path class="st2" d="M31.9,43c-0.2-0.1-0.6-0.1-0.8,0s-0.2,0.3,0,0.5s0.6,0.1,0.8,0C32.2,43.3,32.2,43.1,31.9,43z"/>
	<path class="st2" d="M29.8,44.2c-0.2-0.1-0.6-0.1-0.8,0s-0.2,0.3,0,0.5s0.6,0.1,0.8,0S30,44.4,29.8,44.2z"/>
	<ellipse class="st2" cx="27.2" cy="45.7" rx="0.6" ry="0.3"/>
	<ellipse class="st2" cx="25" cy="47" rx="0.6" ry="0.3"/>
	<ellipse class="st2" cx="22.8" cy="48.3" rx="0.6" ry="0.3"/>
	<path class="st2" d="M21,49.3c-0.2-0.1-0.6-0.1-0.8,0s-0.2,0.3,0,0.5s0.6,0.1,0.8,0C21.3,49.6,21.3,49.4,21,49.3z"/>
	<path class="st2" d="M50.7,34.7c0.2,0.1,0.6,0.1,0.8,0c0.2-0.1,0.2-0.3,0-0.5s-0.6-0.1-0.8,0C50.5,34.3,50.5,34.5,50.7,34.7z"/>
	<path class="st2" d="M48.5,35.9c0.2,0.1,0.6,0.1,0.8,0c0.2-0.1,0.2-0.3,0-0.5s-0.6-0.1-0.8,0C48.3,35.6,48.3,35.8,48.5,35.9z"/>
	<path class="st2" d="M46.3,37.2c0.2,0.1,0.6,0.1,0.8,0c0.2-0.1,0.2-0.3,0-0.5s-0.6-0.1-0.8,0C46.1,36.8,46.1,37.1,46.3,37.2z"/>
	<path class="st2" d="M45,38c-0.2-0.1-0.6-0.1-0.8,0c-0.2,0.1-0.2,0.3,0,0.5s0.6,0.1,0.8,0C45.2,38.3,45.2,38.1,45,38z"/>
	<path class="st2" d="M42.8,39.2c-0.2-0.1-0.6-0.1-0.8,0c-0.2,0.1-0.2,0.3,0,0.5s0.6,0.1,0.8,0C43,39.6,43,39.4,42.8,39.2z"/>
	<path class="st2" d="M40.7,40.5c-0.2-0.1-0.6-0.1-0.8,0c-0.2,0.1-0.2,0.3,0,0.5s0.6,0.1,0.8,0C40.9,40.8,40.9,40.6,40.7,40.5z"/>
	<ellipse class="st2" cx="38" cy="42" rx="0.6" ry="0.3"/>
	<path class="st2" d="M36.3,43c-0.2-0.1-0.6-0.1-0.8,0c-0.2,0.1-0.2,0.3,0,0.5s0.6,0.1,0.8,0C36.5,43.3,36.5,43.1,36.3,43z"/>
	<ellipse class="st2" cx="33.7" cy="44.5" rx="0.6" ry="0.3"/>
	<path class="st2" d="M31.9,45.5c-0.2-0.1-0.6-0.1-0.8,0s-0.2,0.3,0,0.5s0.6,0.1,0.8,0C32.2,45.9,32.2,45.6,31.9,45.5z"/>
	<path class="st2" d="M29.8,46.8c-0.2-0.1-0.6-0.1-0.8,0s-0.2,0.3,0,0.5s0.6,0.1,0.8,0C30,47.1,30,46.9,29.8,46.8z"/>
	<path class="st2" d="M27.6,48c-0.2-0.1-0.6-0.1-0.8,0s-0.2,0.3,0,0.5s0.6,0.1,0.8,0S27.8,48.1,27.6,48z"/>
	<path class="st2" d="M25.4,49.3c-0.2-0.1-0.6-0.1-0.8,0s-0.2,0.3,0,0.5s0.6,0.1,0.8,0C25.6,49.6,25.6,49.4,25.4,49.3z"/>
	<path class="st2" d="M23.2,50.5c-0.2-0.1-0.6-0.1-0.8,0s-0.2,0.3,0,0.5s0.6,0.1,0.8,0C23.5,50.9,23.5,50.7,23.2,50.5z"/>
	<path class="st2" d="M52.9,35.9c0.2,0.1,0.6,0.1,0.8,0c0.2-0.1,0.2-0.3,0-0.5s-0.6-0.1-0.8,0C52.7,35.6,52.7,35.8,52.9,35.9z"/>
	<path class="st2" d="M50.7,37.2c0.2,0.1,0.6,0.1,0.8,0c0.2-0.1,0.2-0.3,0-0.5s-0.6-0.1-0.8,0C50.5,36.8,50.5,37.1,50.7,37.2z"/>
	<ellipse class="st2" cx="48.9" cy="38.2" rx="0.6" ry="0.3"/>
	<path class="st2" d="M46.3,39.7c0.2,0.1,0.6,0.1,0.8,0c0.2-0.1,0.2-0.3,0-0.5s-0.6-0.1-0.8,0C46.1,39.4,46.1,39.6,46.3,39.7z"/>
	<path class="st2" d="M45,40.5c-0.2-0.1-0.6-0.1-0.8,0c-0.2,0.1-0.2,0.3,0,0.5s0.6,0.1,0.8,0C45.2,40.8,45.2,40.6,45,40.5z"/>
	<path class="st2" d="M42.8,41.7c-0.2-0.1-0.6-0.1-0.8,0c-0.2,0.1-0.2,0.3,0,0.5s0.6,0.1,0.8,0C43,42.1,43,41.9,42.8,41.7z"/>
	<path class="st2" d="M40.7,43c-0.2-0.1-0.6-0.1-0.8,0c-0.2,0.1-0.2,0.3,0,0.5s0.6,0.1,0.8,0C40.9,43.3,40.9,43.1,40.7,43z"/>
	<path class="st2" d="M38.5,44.2c-0.2-0.1-0.6-0.1-0.8,0c-0.2,0.1-0.2,0.3,0,0.5s0.6,0.1,0.8,0C38.7,44.6,38.7,44.4,38.5,44.2z"/>
	<path class="st2" d="M36.3,45.5c-0.2-0.1-0.6-0.1-0.8,0c-0.2,0.1-0.2,0.3,0,0.5s0.6,0.1,0.8,0C36.5,45.9,36.5,45.6,36.3,45.5z"/>
	<path class="st2" d="M34.1,46.8c-0.2-0.1-0.6-0.1-0.8,0c-0.2,0.1-0.2,0.3,0,0.5s0.6,0.1,0.8,0C34.3,47.1,34.3,46.9,34.1,46.8z"/>
	<path class="st2" d="M31.9,48c-0.2-0.1-0.6-0.1-0.8,0s-0.2,0.3,0,0.5s0.6,0.1,0.8,0C32.2,48.4,32.2,48.1,31.9,48z"/>
	<path class="st2" d="M29.8,49.3c-0.2-0.1-0.6-0.1-0.8,0s-0.2,0.3,0,0.5s0.6,0.1,0.8,0C30,49.6,30,49.4,29.8,49.3z"/>
	<path class="st2" d="M27.6,50.5c-0.2-0.1-0.6-0.1-0.8,0s-0.2,0.3,0,0.5s0.6,0.1,0.8,0C27.8,50.9,27.8,50.7,27.6,50.5z"/>
	<path class="st2" d="M55.1,37.2c0.2,0.1,0.6,0.1,0.8,0c0.2-0.1,0.2-0.3,0-0.5s-0.6-0.1-0.8,0C54.8,36.8,54.8,37.1,55.1,37.2z"/>
	<path class="st2" d="M52.9,38.4c0.2,0.1,0.6,0.1,0.8,0c0.2-0.1,0.2-0.3,0-0.5s-0.6-0.1-0.8,0C52.7,38.1,52.7,38.3,52.9,38.4z"/>
	<path class="st2" d="M50.7,39.7c0.2,0.1,0.6,0.1,0.8,0c0.2-0.1,0.2-0.3,0-0.5s-0.6-0.1-0.8,0C50.5,39.4,50.5,39.6,50.7,39.7z"/>
	<ellipse class="st2" cx="48.9" cy="40.7" rx="0.6" ry="0.3"/>
	<path class="st2" d="M47.2,42.2c0.2-0.1,0.2-0.3,0-0.5s-0.6-0.1-0.8,0c-0.2,0.1-0.2,0.3,0,0.5C46.6,42.3,47,42.3,47.2,42.2z"/>
	<path class="st2" d="M45,43.5c0.2-0.1,0.2-0.3,0-0.5s-0.6-0.1-0.8,0c-0.2,0.1-0.2,0.3,0,0.5C44.4,43.6,44.8,43.6,45,43.5z"/>
	<path class="st2" d="M42.8,44.7c0.2-0.1,0.2-0.3,0-0.5s-0.6-0.1-0.8,0c-0.2,0.1-0.2,0.3,0,0.5C42.2,44.9,42.6,44.9,42.8,44.7z"/>
	<path class="st2" d="M40.7,46c0.2-0.1,0.2-0.3,0-0.5s-0.6-0.1-0.8,0c-0.2,0.1-0.2,0.3,0,0.5C40,46.1,40.4,46.1,40.7,46z"/>
	<ellipse class="st2" cx="38" cy="47" rx="0.6" ry="0.3"/>
	<path class="st2" d="M36.3,48.5c0.2-0.1,0.2-0.3,0-0.5s-0.6-0.1-0.8,0c-0.2,0.1-0.2,0.3,0,0.5S36.1,48.6,36.3,48.5z"/>
	<path class="st2" d="M34.1,49.3c-0.2-0.1-0.6-0.1-0.8,0c-0.2,0.1-0.2,0.3,0,0.5s0.6,0.1,0.8,0C34.3,49.6,34.3,49.4,34.1,49.3z"/>
	<path class="st2" d="M5.8,43c-0.2-0.1-0.6-0.1-0.8,0s-0.2,0.3,0,0.5s0.6,0.1,0.8,0C6,43.3,6,43.1,5.8,43z"/>
</g>
<path class="st3" d="M43.3,20.1c-0.2-0.6-0.7-1-1.4-1.1l-11.1-1L29,13.7c0,0,0,0,0-0.1l-1.5-3.4l-1-2.4c-0.3-0.6-0.8-1-1.5-1
	c-0.6,0-1.2,0.4-1.5,1L19.2,18l-11.1,1c-0.6,0.1-1.2,0.5-1.4,1.1c-0.2,0.6,0,1.3,0.4,1.7l8.3,7.3L15,31.6c0,0,0,0,0,0.1L13.1,40
	c-0.1,0.6,0.1,1.3,0.6,1.6c0.3,0.2,0.6,0.3,0.9,0.3c0.3,0,0.6-0.1,0.8-0.2L25,36l9.6,5.7c0.6,0.3,1.2,0.3,1.7-0.1
	c0.5-0.4,0.8-1,0.6-1.6l-2.4-10.8l8.3-7.3C43.3,21.4,43.5,20.7,43.3,20.1z"/>
<line class="st4" x1="23.7" y1="22.2" x2="23.7" y2="25"/>
<line class="st4" x1="26.1" y1="22.2" x2="26.1" y2="25"/>
<path class="st4" d="M28.2,25.6c0,1.8-1.5,3.3-3.3,3.3c-1.8,0-3.3-1.5-3.3-3.3"/>
<text transform="matrix(1 0 0 1 17.3735 29.58)" class="st5 st6 st7 st8">A+</text>
<path class="st9" d="M30.6,23.8v-2.3h-2.3v2.3H26v1.7l-2.2-5.2h-2.5l-3.9,9.3h2.7l0.7-1.6h3.6l0.7,1.6h2.7l-1.5-3.5h2v2.3h2.3v-2.3
	h2.2v-2.2H30.6z M21.5,26l1-2.6l1,2.6H21.5z"/>
</svg>
