<?xml version="1.0" encoding="utf-8"?>
<!-- Generator: Adobe Illustrator 23.1.0, SVG Export Plug-In . SVG Version: 6.00 Build 0)  -->
<svg version="1.1" id="Слой_1" xmlns="http://www.w3.org/2000/svg" xmlns:xlink="http://www.w3.org/1999/xlink" x="0px" y="0px"
	 viewBox="0 0 500 500" style="enable-background:new 0 0 500 500;" xml:space="preserve">
<path d="M498.7,147.1c-1.2-26.6-5.5-44.9-11.6-60.7C480.8,69.6,471,54.6,458.2,42c-12.5-12.7-27.6-22.6-44.3-28.8
	C398,7,379.8,2.7,353.3,1.6C326.5,0.3,318,0,250.1,0S173.7,0.3,147,1.5c-26.6,1.2-44.8,5.5-60.7,11.6C69.6,19.5,54.5,29.2,42,42
	C29.3,54.6,19.4,69.7,13.2,86.3C7,102.3,2.7,120.4,1.6,147C0.3,173.8,0,182.3,0,250.3s0.3,76.5,1.5,103.1
	c1.2,26.6,5.5,44.9,11.6,60.7c6.4,16.8,16.2,31.9,28.9,44.4c12.5,12.7,27.6,22.6,44.3,28.8c15.9,6.2,34.1,10.5,60.7,11.6
	c26.7,1.2,35.2,1.5,103.1,1.5s76.4-0.3,103.1-1.5c26.6-1.2,44.8-5.5,60.7-11.6c33.6-13,60.2-39.6,73.2-73.2
	c6.2-15.9,10.5-34.1,11.6-60.7c1.2-26.7,1.5-35.2,1.5-103.1S499.9,173.8,498.7,147.1z M453.7,351.5c-1.1,24.4-5.2,37.6-8.6,46.4
	c-8.4,21.8-25.7,39.1-47.5,47.5c-8.8,3.4-22.1,7.5-46.4,8.6c-26.4,1.2-34.3,1.5-101,1.5s-74.7-0.3-101-1.5
	c-24.4-1.1-37.6-5.2-46.4-8.6c-10.8-4-20.7-10.4-28.7-18.7c-8.3-8.1-14.7-17.9-18.7-28.7c-3.4-8.8-7.5-22.1-8.6-46.4
	c-1.2-26.4-1.5-34.3-1.5-101.1s0.3-74.8,1.5-101.1c1.1-24.4,5.2-37.6,8.6-46.4c4-10.9,10.4-20.7,18.8-28.7
	c8.1-8.3,17.9-14.7,28.7-18.7c8.8-3.4,22.1-7.5,46.4-8.6c26.4-1.2,34.3-1.5,101-1.5c66.8,0,74.7,0.3,101,1.5
	c24.4,1.1,37.6,5.2,46.4,8.6c10.8,4,20.7,10.4,28.7,18.7c8.3,8.1,14.7,17.9,18.7,28.7c3.4,8.8,7.5,22.1,8.6,46.4
	c1.2,26.4,1.5,34.3,1.5,101.1S454.9,325.1,453.7,351.5z"/>
<path d="M185.1,347.9c-8.3,0-16.5-2.5-23.5-7.5c-10.8-7.6-17.2-20.1-17.2-33.3l0.4-114.6c0-13.2,6.5-25.5,17.3-33.1
	c10.8-7.6,24.6-9.4,37-5l160.2,57.1c16.4,5.8,27,20.9,27,38.3s-10.6,32.4-26.9,38.3l-160.6,57.5
	C194.3,347.1,189.7,347.9,185.1,347.9z M185.5,191.7c-0.1,0-0.3,0-0.5,0.2c-0.4,0.3-0.4,0.6-0.4,0.8l-0.4,114.6c0,0.2,0,0.5,0.4,0.8
	c0.4,0.3,0.7,0.2,0.9,0.1L346,250.6c0.5-0.2,0.6-0.2,0.6-0.9c0-0.7-0.1-0.7-0.6-0.9l-160.2-57.1
	C185.7,191.8,185.6,191.7,185.5,191.7z"/>
</svg>
