<svg width="110" height="110" viewBox="0 0 110 110" fill="none" xmlns="http://www.w3.org/2000/svg">
<g clip-path="url(#clip0)">
<path d="M3.08 66.88C3.52 67.1 3.52 67.76 3.08 67.98C2.64 68.2 1.98 68.2 1.54 67.98C1.98 69.52 2.2 70.84 2.86 72.38H3.08C3.52 72.6 3.52 73.04 3.08 73.48C3.96 75.9 5.06 78.32 6.38 80.74C6.82 80.52 7.48 80.52 7.92 80.74C8.36 80.96 8.36 81.4 7.92 81.84C7.7 82.06 7.26 82.06 7.04 82.06C8.36 84.48 9.9 86.68 11.66 88.88C12.1 88.88 12.32 88.88 12.76 89.1C13.2 89.32 13.2 89.76 12.76 90.2C20.68 99.66 31.68 106.48 44.22 109.12C44.22 108.9 44.44 108.68 44.66 108.68C45.1 108.46 45.98 108.46 46.42 108.68C46.86 108.9 46.86 109.34 46.64 109.56C49.5 110 52.36 110.22 55.22 110.22C58.08 110.22 60.94 110 63.8 109.56C63.36 109.34 63.58 108.9 64.02 108.68C64.46 108.46 65.34 108.46 65.78 108.68C66 108.9 66.22 109.12 66.22 109.12C78.76 106.7 89.76 99.88 97.68 90.42C97.68 90.42 97.68 90.42 97.46 90.42C97.02 90.2 97.02 89.76 97.46 89.32C97.9 89.1 98.12 89.1 98.56 89.1C105.6 79.42 110 67.76 110 55C110 24.64 85.36 0 55 0C24.64 0 0 24.64 0 55C0 59.18 0.44 62.92 1.32 66.88C1.76 66.66 2.64 66.66 3.08 66.88ZM12.76 84.48C12.32 84.7 11.44 84.7 11 84.48C10.56 84.26 10.56 83.82 11 83.38C11.44 82.94 12.32 83.16 12.76 83.38C13.2 83.6 13.2 84.26 12.76 84.48ZM17.6 92.84C17.16 93.06 16.28 93.06 15.84 92.84C15.4 92.62 15.4 92.18 15.84 91.74C16.28 91.3 17.16 91.52 17.6 91.74C18.04 91.96 18.04 92.62 17.6 92.84ZM17.6 87.34C17.16 87.56 16.28 87.56 15.84 87.34C15.4 87.12 15.4 86.68 15.84 86.24C16.28 85.8 17.16 86.02 17.6 86.24C18.04 86.46 18.04 86.9 17.6 87.34ZM17.6 81.84C17.16 82.06 16.28 82.06 15.84 81.84C15.4 81.62 15.4 81.18 15.84 80.74C16.28 80.3 17.16 80.52 17.6 80.74C18.04 80.96 18.04 81.4 17.6 81.84ZM22.22 95.48C21.78 95.7 20.9 95.7 20.46 95.48C20.02 95.26 20.02 94.82 20.46 94.38C20.9 93.94 21.78 94.16 22.22 94.38C22.88 94.82 22.88 95.26 22.22 95.48ZM22.22 89.98C21.78 90.2 20.9 90.2 20.46 89.98C20.02 89.76 20.02 89.32 20.46 88.88C20.9 88.44 21.78 88.66 22.22 88.88C22.66 89.1 22.88 89.76 22.22 89.98ZM22.22 84.48C21.78 84.7 20.9 84.7 20.46 84.48C20.02 84.26 20.02 83.82 20.46 83.38C20.9 82.94 21.78 83.16 22.22 83.38C22.66 83.6 22.88 84.26 22.22 84.48ZM22.22 78.98C21.78 79.2 20.9 79.2 20.46 78.98C20.02 78.76 20.02 78.32 20.46 77.88C20.9 77.44 21.78 77.66 22.22 77.88C22.88 78.32 22.88 78.76 22.22 78.98ZM27.06 98.34C26.62 98.56 25.74 98.56 25.3 98.34C24.86 98.12 24.86 97.68 25.3 97.24C25.74 96.8 26.62 97.02 27.06 97.24C27.5 97.46 27.5 98.12 27.06 98.34ZM27.06 92.84C26.62 93.06 25.74 93.06 25.3 92.84C24.86 92.62 24.86 92.18 25.3 91.74C25.74 91.3 26.62 91.52 27.06 91.74C27.5 91.96 27.5 92.62 27.06 92.84ZM27.06 87.34C26.62 87.56 25.74 87.56 25.3 87.34C24.86 87.12 24.86 86.68 25.3 86.24C25.74 85.8 26.62 86.02 27.06 86.24C27.5 86.46 27.5 86.9 27.06 87.34ZM27.06 81.84C26.62 82.06 25.74 82.06 25.3 81.84C24.86 81.62 24.86 81.18 25.3 80.74C25.74 80.3 26.62 80.52 27.06 80.74C27.5 80.96 27.5 81.4 27.06 81.84ZM27.06 76.34C26.62 76.56 25.74 76.56 25.3 76.34C24.86 76.12 24.86 75.68 25.3 75.24C25.74 74.8 26.62 75.02 27.06 75.24C27.5 75.46 27.5 75.9 27.06 76.34ZM31.9 101.2C31.46 101.42 30.58 101.42 30.14 101.2C29.7 100.98 29.7 100.54 30.14 100.1C30.58 99.66 31.46 99.88 31.9 100.1C32.34 100.32 32.34 100.76 31.9 101.2ZM31.9 95.48C31.46 95.7 30.58 95.7 30.14 95.48C29.7 95.26 29.7 94.82 30.14 94.38C30.58 93.94 31.46 94.16 31.9 94.38C32.34 94.82 32.34 95.26 31.9 95.48ZM31.9 89.98C31.46 90.2 30.58 90.2 30.14 89.98C29.7 89.76 29.7 89.32 30.14 88.88C30.58 88.44 31.46 88.66 31.9 88.88C32.34 89.32 32.34 89.76 31.9 89.98ZM31.9 84.48C31.46 84.7 30.58 84.7 30.14 84.48C29.7 84.26 29.7 83.82 30.14 83.38C30.58 82.94 31.46 83.16 31.9 83.38C32.34 83.82 32.34 84.26 31.9 84.48ZM31.9 78.98C31.46 79.2 30.58 79.2 30.14 78.98C29.7 78.76 29.7 78.32 30.14 77.88C30.58 77.44 31.46 77.66 31.9 77.88C32.34 78.32 32.34 78.76 31.9 78.98ZM31.9 73.48C31.46 73.7 30.58 73.7 30.14 73.48C29.7 73.26 29.7 72.82 30.14 72.38C30.58 71.94 31.46 72.16 31.9 72.38C32.34 72.6 32.34 73.26 31.9 73.48ZM36.74 103.84C36.3 104.06 35.42 104.06 34.98 103.84C34.54 103.62 34.54 103.18 34.98 102.74C35.42 102.3 36.3 102.52 36.74 102.74C37.18 102.96 37.18 103.62 36.74 103.84ZM36.74 98.34C36.3 98.56 35.42 98.56 34.98 98.34C34.54 98.12 34.54 97.68 34.98 97.24C35.42 96.8 36.3 97.02 36.74 97.24C37.18 97.46 37.18 98.12 36.74 98.34ZM36.74 92.84C36.3 93.06 35.42 93.06 34.98 92.84C34.54 92.62 34.54 92.18 34.98 91.74C35.42 91.3 36.3 91.52 36.74 91.74C37.18 91.96 37.18 92.62 36.74 92.84ZM36.74 87.34C36.3 87.56 35.42 87.56 34.98 87.34C34.54 87.12 34.54 86.68 34.98 86.24C35.42 85.8 36.3 86.02 36.74 86.24C37.18 86.46 37.18 86.9 36.74 87.34ZM36.74 81.84C36.3 82.06 35.42 82.06 34.98 81.84C34.54 81.62 34.54 81.18 34.98 80.74C35.42 80.3 36.3 80.52 36.74 80.74C37.18 80.96 37.18 81.4 36.74 81.84ZM36.74 76.34C36.3 76.56 35.42 76.56 34.98 76.34C34.54 76.12 34.54 75.68 34.98 75.24C35.42 74.8 36.3 75.02 36.74 75.24C37.18 75.46 37.18 75.9 36.74 76.34ZM36.74 70.62C36.3 70.84 35.42 70.84 34.98 70.62C34.54 70.4 34.54 69.74 34.98 69.52C35.42 69.3 36.3 69.3 36.74 69.52C37.18 69.96 37.18 70.4 36.74 70.62ZM39.6 72.38C40.04 72.16 40.92 72.16 41.36 72.38C41.8 72.6 41.8 73.04 41.36 73.48C40.92 73.92 40.04 73.7 39.6 73.48C39.16 73.26 39.16 72.6 39.6 72.38ZM39.6 66.88C40.04 66.66 40.92 66.66 41.36 66.88C41.8 67.1 41.8 67.76 41.36 67.98C40.92 68.2 40.04 68.2 39.6 67.98C39.16 67.54 39.16 67.1 39.6 66.88ZM39.6 77.88C40.04 77.66 40.92 77.66 41.36 77.88C41.8 78.1 41.8 78.54 41.36 78.98C40.92 79.42 40.04 79.2 39.6 78.98C39.16 78.76 39.16 78.32 39.6 77.88ZM39.6 83.38C40.04 83.16 40.92 83.16 41.36 83.38C41.8 83.6 41.8 84.04 41.36 84.48C40.92 84.92 40.04 84.7 39.6 84.48C39.16 84.26 39.16 83.82 39.6 83.38ZM39.6 89.1C40.04 88.88 40.92 88.88 41.36 89.1C41.8 89.32 41.8 89.76 41.36 90.2C40.92 90.64 40.04 90.42 39.6 90.2C39.16 89.76 39.16 89.32 39.6 89.1ZM39.6 94.6C40.04 94.38 40.92 94.38 41.36 94.6C41.8 94.82 41.8 95.26 41.36 95.7C40.92 96.14 40.04 95.92 39.6 95.7C39.16 95.48 39.16 94.82 39.6 94.6ZM39.6 100.1C40.04 99.88 40.92 99.88 41.36 100.1C41.8 100.32 41.8 100.76 41.36 101.2C40.92 101.64 40.04 101.42 39.6 101.2C39.16 100.98 39.16 100.32 39.6 100.1ZM51.04 106.7C50.6 106.92 49.72 106.92 49.28 106.7C48.84 106.48 48.84 106.04 49.28 105.6C49.72 105.16 50.6 105.38 51.04 105.6C51.7 105.82 51.7 106.48 51.04 106.7ZM55.88 109.34C55.44 109.56 54.56 109.56 54.12 109.34C53.68 109.12 53.68 108.68 54.12 108.24C54.56 107.8 55.44 108.02 55.88 108.24C56.32 108.68 56.32 109.12 55.88 109.34ZM55.88 103.84C55.44 104.06 54.56 104.06 54.12 103.84C53.68 103.62 53.68 103.18 54.12 102.74C54.56 102.3 55.44 102.52 55.88 102.74C56.32 103.18 56.32 103.62 55.88 103.84ZM60.72 106.7C60.28 106.92 59.4 106.92 58.96 106.7C58.52 106.48 58.52 106.04 58.96 105.6C59.4 105.16 60.28 105.38 60.72 105.6C61.16 105.82 61.16 106.48 60.72 106.7ZM60.72 101.2C60.28 101.42 59.4 101.42 58.96 101.2C58.52 100.98 58.52 100.54 58.96 100.1C59.4 99.66 60.28 99.88 60.72 100.1C61.16 100.32 61.16 100.76 60.72 101.2ZM65.56 103.84C65.12 104.06 64.24 104.06 63.8 103.84C63.36 103.62 63.36 103.18 63.8 102.74C64.24 102.3 65.12 102.52 65.56 102.74C66 103.18 66 103.62 65.56 103.84ZM65.56 98.34C65.12 98.56 64.24 98.56 63.8 98.34C63.36 98.12 63.36 97.68 63.8 97.24C64.24 96.8 65.12 97.02 65.56 97.24C66 97.68 66 98.12 65.56 98.34ZM70.18 106.7C69.74 106.92 68.86 106.92 68.42 106.7C67.98 106.48 67.98 106.04 68.42 105.6C68.86 105.16 69.74 105.38 70.18 105.6C70.84 105.82 70.84 106.48 70.18 106.7ZM70.18 101.2C69.74 101.42 68.86 101.42 68.42 101.2C67.98 100.98 67.98 100.54 68.42 100.1C68.86 99.66 69.74 99.88 70.18 100.1C70.84 100.32 70.84 100.76 70.18 101.2ZM70.18 95.7C69.74 95.92 68.86 95.92 68.42 95.7C67.98 95.48 67.98 95.04 68.42 94.6C68.86 94.16 69.74 94.38 70.18 94.6C70.84 94.82 70.84 95.26 70.18 95.7ZM75.02 103.84C74.58 104.06 73.7 104.06 73.26 103.84C72.82 103.62 72.82 103.18 73.26 102.74C73.7 102.3 74.58 102.52 75.02 102.74C75.46 103.18 75.46 103.62 75.02 103.84ZM75.02 98.34C74.58 98.56 73.7 98.56 73.26 98.34C72.82 98.12 72.82 97.68 73.26 97.24C73.7 96.8 74.58 97.02 75.02 97.24C75.46 97.68 75.46 98.12 75.02 98.34ZM75.02 92.84C74.58 93.06 73.7 93.06 73.26 92.84C72.82 92.62 72.82 92.18 73.26 91.74C73.7 91.3 74.58 91.52 75.02 91.74C75.46 91.96 75.46 92.62 75.02 92.84ZM79.86 101.2C79.42 101.42 78.54 101.42 78.1 101.2C77.66 100.98 77.66 100.54 78.1 100.1C78.54 99.66 79.42 99.88 79.86 100.1C80.3 100.32 80.3 100.76 79.86 101.2ZM79.86 95.7C79.42 95.92 78.54 95.92 78.1 95.7C77.66 95.48 77.66 95.04 78.1 94.6C78.54 94.16 79.42 94.38 79.86 94.6C80.3 94.82 80.3 95.26 79.86 95.7ZM79.86 89.98C79.42 90.2 78.54 90.2 78.1 89.98C77.66 89.76 77.66 89.32 78.1 88.88C78.54 88.44 79.42 88.66 79.86 88.88C80.3 89.32 80.3 89.76 79.86 89.98ZM92.4 86.24C92.84 86.02 93.72 86.02 94.16 86.24C94.6 86.46 94.6 86.9 94.16 87.34C93.72 87.78 92.84 87.56 92.4 87.34C91.96 87.12 91.96 86.46 92.4 86.24ZM92.4 91.74C92.84 91.52 93.72 91.52 94.16 91.74C94.6 91.96 94.6 92.4 94.16 92.84C93.72 93.28 92.84 93.06 92.4 92.84C91.96 92.62 91.96 92.18 92.4 91.74ZM87.56 83.6C88 83.38 88.88 83.38 89.32 83.6C89.76 83.82 89.76 84.26 89.32 84.7C88.88 85.14 88 84.92 87.56 84.7C87.12 84.26 87.12 83.82 87.56 83.6ZM87.56 89.1C88 88.88 88.88 88.88 89.32 89.1C89.76 89.32 89.76 89.76 89.32 90.2C88.88 90.64 88 90.42 87.56 90.2C87.12 89.76 87.12 89.32 87.56 89.1ZM87.56 94.6C88 94.38 88.88 94.38 89.32 94.6C89.76 94.82 89.76 95.26 89.32 95.7C88.88 96.14 88 95.92 87.56 95.7C87.12 95.26 87.12 94.82 87.56 94.6ZM82.72 80.74C83.16 80.52 84.04 80.52 84.48 80.74C84.92 80.96 84.92 81.4 84.48 81.84C84.04 82.28 83.16 82.06 82.72 81.84C82.28 81.4 82.28 80.96 82.72 80.74ZM82.72 86.24C83.16 86.02 84.04 86.02 84.48 86.24C84.92 86.46 84.92 86.9 84.48 87.34C84.04 87.78 83.16 87.56 82.72 87.34C82.28 87.12 82.28 86.46 82.72 86.24ZM82.72 91.74C83.16 91.52 84.04 91.52 84.48 91.74C84.92 91.96 84.92 92.4 84.48 92.84C84.04 93.28 83.16 93.06 82.72 92.84C82.28 92.62 82.28 92.18 82.72 91.74ZM82.72 97.24C83.16 97.02 84.04 97.02 84.48 97.24C84.92 97.46 84.92 97.9 84.48 98.34C84.04 98.78 83.16 98.56 82.72 98.34C82.28 98.12 82.28 97.68 82.72 97.24ZM79.86 84.48C79.42 84.7 78.54 84.7 78.1 84.48C77.66 84.26 77.66 83.82 78.1 83.38C78.54 82.94 79.42 83.16 79.86 83.38C80.3 83.82 80.3 84.26 79.86 84.48ZM77.88 77.88C78.32 77.66 79.2 77.66 79.64 77.88C80.08 78.1 80.08 78.54 79.64 78.98C79.2 79.42 78.32 79.2 77.88 78.98C77.44 78.76 77.44 78.32 77.88 77.88ZM75.02 87.34C74.58 87.56 73.7 87.56 73.26 87.34C72.82 87.12 72.82 86.68 73.26 86.24C73.7 85.8 74.58 86.02 75.02 86.24C75.46 86.46 75.46 87.12 75.02 87.34ZM73.26 75.24C73.7 75.02 74.58 75.02 75.02 75.24C75.46 75.46 75.46 75.9 75.02 76.34C74.58 76.78 73.7 76.56 73.26 76.34C72.6 75.9 72.6 75.46 73.26 75.24ZM73.26 80.74C73.7 80.52 74.58 80.52 75.02 80.74C75.46 80.96 75.46 81.4 75.02 81.84C74.58 82.28 73.7 82.06 73.26 81.84C72.6 81.4 72.6 80.96 73.26 80.74ZM70.18 89.98C69.74 90.2 68.86 90.2 68.42 89.98C67.98 89.76 67.98 89.32 68.42 88.88C68.86 88.44 69.74 88.66 70.18 88.88C70.84 89.32 70.84 89.76 70.18 89.98ZM68.42 72.38C68.86 72.16 69.74 72.16 70.18 72.38C70.62 72.6 70.62 73.04 70.18 73.48C69.74 73.7 68.86 73.7 68.42 73.48C67.76 73.26 67.76 72.6 68.42 72.38ZM68.42 77.88C68.86 77.66 69.74 77.66 70.18 77.88C70.62 78.1 70.62 78.54 70.18 78.98C69.74 79.2 68.86 79.2 68.42 78.98C67.98 78.76 67.76 78.32 68.42 77.88ZM68.42 83.38C68.86 83.16 69.74 83.16 70.18 83.38C70.62 83.6 70.62 84.04 70.18 84.48C69.74 84.7 68.86 84.7 68.42 84.48C67.76 84.26 67.76 83.82 68.42 83.38ZM65.56 92.84C65.12 93.06 64.24 93.06 63.8 92.84C63.36 92.62 63.36 92.18 63.8 91.74C64.24 91.3 65.12 91.52 65.56 91.74C66 91.96 66 92.62 65.56 92.84ZM63.58 69.74C64.02 69.52 64.9 69.52 65.34 69.74C65.78 69.96 65.78 70.4 65.34 70.84C64.9 71.28 64.02 71.06 63.58 70.84C63.14 70.62 63.14 69.96 63.58 69.74ZM63.58 75.24C64.02 75.02 64.9 75.02 65.34 75.24C65.78 75.46 65.78 75.9 65.34 76.34C64.9 76.78 64.02 76.56 63.58 76.34C63.14 75.9 63.14 75.46 63.58 75.24ZM63.58 80.74C64.02 80.52 64.9 80.52 65.34 80.74C65.78 80.96 65.78 81.4 65.34 81.84C64.9 82.28 64.02 82.06 63.58 81.84C63.14 81.4 63.14 80.96 63.58 80.74ZM63.58 86.24C64.02 86.02 64.9 86.02 65.34 86.24C65.78 86.46 65.78 86.9 65.34 87.34C64.9 87.78 64.02 87.56 63.58 87.34C63.14 87.12 63.14 86.46 63.58 86.24ZM60.72 95.7C60.28 95.92 59.4 95.92 58.96 95.7C58.52 95.48 58.52 95.04 58.96 94.6C59.4 94.16 60.28 94.38 60.72 94.6C61.16 94.82 61.16 95.26 60.72 95.7ZM58.74 66.88C59.18 66.66 60.06 66.66 60.5 66.88C60.94 67.1 60.94 67.76 60.5 67.98C60.06 68.2 59.18 68.2 58.74 67.98C58.3 67.76 58.3 67.1 58.74 66.88ZM58.74 72.38C59.18 72.16 60.06 72.16 60.5 72.38C60.94 72.6 60.94 73.04 60.5 73.48C60.06 73.92 59.18 73.7 58.74 73.48C58.3 73.26 58.3 72.6 58.74 72.38ZM58.74 77.88C59.18 77.66 60.06 77.66 60.5 77.88C60.94 78.1 60.94 78.54 60.5 78.98C60.06 79.42 59.18 79.2 58.74 78.98C58.3 78.76 58.3 78.32 58.74 77.88ZM58.74 83.38C59.18 83.16 60.06 83.16 60.5 83.38C60.94 83.6 60.94 84.04 60.5 84.48C60.06 84.92 59.18 84.7 58.74 84.48C58.3 84.26 58.3 83.82 58.74 83.38ZM58.74 89.1C59.18 88.88 60.06 88.88 60.5 89.1C60.94 89.32 60.94 89.76 60.5 90.2C60.06 90.64 59.18 90.42 58.74 90.2C58.3 89.76 58.3 89.32 58.74 89.1ZM55.88 98.34C55.44 98.56 54.56 98.56 54.12 98.34C53.68 98.12 53.68 97.68 54.12 97.24C54.56 96.8 55.44 97.02 55.88 97.24C56.32 97.68 56.32 98.12 55.88 98.34ZM53.9 64.02C54.34 63.8 55.22 63.8 55.66 64.02C56.1 64.24 56.1 64.9 55.66 65.12C55.22 65.34 54.34 65.34 53.9 65.12C53.46 64.9 53.46 64.46 53.9 64.02ZM53.9 69.74C54.34 69.52 55.22 69.52 55.66 69.74C56.1 69.96 56.1 70.4 55.66 70.84C55.22 71.28 54.34 71.06 53.9 70.84C53.46 70.4 53.46 69.96 53.9 69.74ZM53.9 75.24C54.34 75.02 55.22 75.02 55.66 75.24C56.1 75.46 56.1 75.9 55.66 76.34C55.22 76.78 54.34 76.56 53.9 76.34C53.46 75.9 53.46 75.46 53.9 75.24ZM53.9 80.74C54.34 80.52 55.22 80.52 55.66 80.74C56.1 80.96 56.1 81.4 55.66 81.84C55.22 82.28 54.34 82.06 53.9 81.84C53.46 81.4 53.46 80.96 53.9 80.74ZM53.9 86.24C54.34 86.02 55.22 86.02 55.66 86.24C56.1 86.46 56.1 86.9 55.66 87.34C55.22 87.78 54.34 87.56 53.9 87.34C53.46 86.9 53.46 86.46 53.9 86.24ZM53.9 91.74C54.34 91.52 55.22 91.52 55.66 91.74C56.1 91.96 56.1 92.4 55.66 92.84C55.22 93.28 54.34 93.06 53.9 92.84C53.46 92.62 53.46 91.96 53.9 91.74ZM51.04 101.2C50.6 101.42 49.72 101.42 49.28 101.2C48.84 100.98 48.84 100.54 49.28 100.1C49.72 99.66 50.6 99.88 51.04 100.1C51.7 100.32 51.7 100.76 51.04 101.2ZM49.28 61.38C49.72 61.16 50.6 61.16 51.04 61.38C51.48 61.6 51.48 62.26 51.04 62.48C50.6 62.7 49.72 62.7 49.28 62.48C48.62 62.04 48.62 61.6 49.28 61.38ZM49.28 66.88C49.72 66.66 50.6 66.66 51.04 66.88C51.48 67.1 51.48 67.76 51.04 67.98C50.6 68.2 49.72 68.2 49.28 67.98C48.62 67.54 48.62 67.1 49.28 66.88ZM49.28 72.38C49.72 72.16 50.6 72.16 51.04 72.38C51.48 72.6 51.48 73.04 51.04 73.48C50.6 73.92 49.72 73.7 49.28 73.48C48.62 73.26 48.62 72.6 49.28 72.38ZM49.28 77.88C49.72 77.66 50.6 77.66 51.04 77.88C51.48 78.1 51.48 78.54 51.04 78.98C50.6 79.42 49.72 79.2 49.28 78.98C48.62 78.76 48.62 78.32 49.28 77.88ZM49.28 83.38C49.72 83.16 50.6 83.16 51.04 83.38C51.48 83.6 51.48 84.04 51.04 84.48C50.6 84.92 49.72 84.7 49.28 84.48C48.62 84.26 48.62 83.82 49.28 83.38ZM49.28 89.1C49.72 88.88 50.6 88.88 51.04 89.1C51.48 89.32 51.48 89.76 51.04 90.2C50.6 90.64 49.72 90.42 49.28 90.2C48.62 89.76 48.62 89.32 49.28 89.1ZM49.28 94.6C49.72 94.38 50.6 94.38 51.04 94.6C51.48 94.82 51.48 95.26 51.04 95.7C50.6 96.14 49.72 95.92 49.28 95.7C48.84 95.48 48.62 94.82 49.28 94.6ZM46.2 103.84C45.76 104.06 44.88 104.06 44.44 103.84C44 103.62 44 103.18 44.44 102.74C44.88 102.3 45.76 102.52 46.2 102.74C46.86 103.18 46.86 103.62 46.2 103.84ZM44.44 58.52C44.88 58.3 45.76 58.3 46.2 58.52C46.64 58.74 46.64 59.4 46.2 59.62C45.76 59.84 44.88 59.84 44.44 59.62C44 59.4 44 58.96 44.44 58.52ZM44.44 64.02C44.88 63.8 45.76 63.8 46.2 64.02C46.64 64.24 46.64 64.9 46.2 65.12C45.76 65.34 44.88 65.34 44.44 65.12C44 64.9 44 64.46 44.44 64.02ZM44.44 69.74C44.88 69.52 45.76 69.52 46.2 69.74C46.64 69.96 46.64 70.4 46.2 70.84C45.76 71.28 44.88 71.06 44.44 70.84C44 70.4 44 69.96 44.44 69.74ZM44.44 75.24C44.88 75.02 45.76 75.02 46.2 75.24C46.64 75.46 46.64 75.9 46.2 76.34C45.76 76.78 44.88 76.56 44.44 76.34C44 75.9 44 75.46 44.44 75.24ZM44.44 80.74C44.88 80.52 45.76 80.52 46.2 80.74C46.64 80.96 46.64 81.4 46.2 81.84C45.76 82.28 44.88 82.06 44.44 81.84C44 81.4 44 80.96 44.44 80.74ZM44.44 86.24C44.88 86.02 45.76 86.02 46.2 86.24C46.64 86.46 46.64 86.9 46.2 87.34C45.76 87.78 44.88 87.56 44.44 87.34C44 86.9 44 86.46 44.44 86.24ZM44.44 91.74C44.88 91.52 45.76 91.52 46.2 91.74C46.64 91.96 46.64 92.4 46.2 92.84C45.76 93.28 44.88 93.06 44.44 92.84C44 92.62 44 91.96 44.44 91.74ZM44.44 97.24C44.88 97.02 45.76 97.02 46.2 97.24C46.64 97.46 46.64 97.9 46.2 98.34C45.76 98.78 44.88 98.56 44.44 98.34C44 98.12 44 97.68 44.44 97.24ZM41.58 106.7C41.14 106.92 40.26 106.92 39.82 106.7C39.38 106.48 39.38 106.04 39.82 105.6C40.26 105.16 41.14 105.38 41.58 105.6C42.02 105.82 42.02 106.48 41.58 106.7ZM41.36 62.48C40.92 62.7 40.04 62.7 39.6 62.48C39.16 62.26 39.16 61.6 39.6 61.38C40.04 61.16 40.92 61.16 41.36 61.38C41.8 61.6 42.02 62.04 41.36 62.48ZM39.6 55.88C40.04 55.66 40.92 55.66 41.36 55.88C41.8 56.1 41.8 56.76 41.36 56.98C40.92 57.2 40.04 57.2 39.6 56.98C39.16 56.54 39.16 56.1 39.6 55.88ZM36.74 65.12C36.3 65.34 35.42 65.34 34.98 65.12C34.54 64.9 34.54 64.24 34.98 64.02C35.42 63.8 36.3 63.8 36.74 64.02C37.18 64.46 37.18 64.9 36.74 65.12ZM34.76 53.02C35.2 52.8 36.08 52.8 36.52 53.02C36.96 53.24 36.96 53.9 36.52 54.12C36.08 54.34 35.2 54.34 34.76 54.12C34.32 53.68 34.32 53.24 34.76 53.02ZM34.76 58.52C35.2 58.3 36.08 58.3 36.52 58.52C36.96 58.74 36.96 59.4 36.52 59.62C36.08 59.84 35.2 59.84 34.76 59.62C34.32 59.4 34.32 58.74 34.76 58.52ZM31.9 67.98C31.46 68.2 30.58 68.2 30.14 67.98C29.7 67.76 29.7 67.1 30.14 66.88C30.58 66.66 31.46 66.66 31.9 66.88C32.34 67.1 32.34 67.54 31.9 67.98ZM29.92 55.88C30.36 55.66 31.24 55.66 31.68 55.88C32.12 56.1 32.12 56.76 31.68 56.98C31.24 57.2 30.36 57.2 29.92 56.98C29.48 56.54 29.48 56.1 29.92 55.88ZM29.92 61.38C30.36 61.16 31.24 61.16 31.68 61.38C32.12 61.6 32.12 62.26 31.68 62.48C31.24 62.7 30.36 62.7 29.92 62.48C29.48 62.04 29.48 61.6 29.92 61.38ZM27.06 70.62C26.62 70.84 25.74 70.84 25.3 70.62C24.86 70.4 24.86 69.74 25.3 69.52C25.74 69.3 26.62 69.3 27.06 69.52C27.5 69.96 27.5 70.4 27.06 70.62ZM25.3 53.02C25.74 52.8 26.62 52.8 27.06 53.02C27.5 53.24 27.5 53.9 27.06 54.12C26.62 54.34 25.74 54.34 25.3 54.12C24.64 53.9 24.64 53.24 25.3 53.02ZM25.3 58.52C25.74 58.3 26.62 58.3 27.06 58.52C27.5 58.74 27.5 59.4 27.06 59.62C26.62 59.84 25.74 59.84 25.3 59.62C24.64 59.4 24.64 58.74 25.3 58.52ZM25.3 64.02C25.74 63.8 26.62 63.8 27.06 64.02C27.5 64.24 27.5 64.9 27.06 65.12C26.62 65.34 25.74 65.34 25.3 65.12C24.64 64.9 24.64 64.46 25.3 64.02ZM22.22 73.48C21.78 73.7 20.9 73.7 20.46 73.48C20.02 73.26 20.02 72.82 20.46 72.38C20.9 71.94 21.78 72.16 22.22 72.38C22.88 72.6 22.88 73.26 22.22 73.48ZM20.46 55.88C20.9 55.66 21.78 55.66 22.22 55.88C22.66 56.1 22.66 56.76 22.22 56.98C21.78 57.2 20.9 57.2 20.46 56.98C20.02 56.54 20.02 56.1 20.46 55.88ZM20.46 61.38C20.9 61.16 21.78 61.16 22.22 61.38C22.66 61.6 22.66 62.26 22.22 62.48C21.78 62.7 20.9 62.7 20.46 62.48C20.02 62.26 20.02 61.6 20.46 61.38ZM20.46 66.88C20.9 66.66 21.78 66.66 22.22 66.88C22.66 67.1 22.66 67.76 22.22 67.98C21.78 68.2 20.9 68.2 20.46 67.98C20.02 67.76 20.02 67.1 20.46 66.88ZM17.6 76.34C17.16 76.56 16.28 76.56 15.84 76.34C15.4 76.12 15.4 75.68 15.84 75.24C16.28 74.8 17.16 75.02 17.6 75.24C18.04 75.46 18.04 75.9 17.6 76.34ZM15.62 58.52C16.06 58.3 16.94 58.3 17.38 58.52C17.82 58.74 17.82 59.4 17.38 59.62C16.94 59.84 16.06 59.84 15.62 59.62C15.18 59.4 15.18 58.74 15.62 58.52ZM15.62 64.02C16.06 63.8 16.94 63.8 17.38 64.02C17.82 64.24 17.82 64.9 17.38 65.12C16.94 65.34 16.06 65.34 15.62 65.12C15.18 64.9 15.18 64.46 15.62 64.02ZM15.62 69.52C16.06 69.3 16.94 69.3 17.38 69.52C17.82 69.74 17.82 70.4 17.38 70.62C16.94 70.84 16.06 70.84 15.62 70.62C15.18 70.4 15.18 69.96 15.62 69.52ZM12.76 78.98C12.32 79.2 11.44 79.2 11 78.98C10.56 78.76 10.56 78.32 11 77.88C11.44 77.44 12.32 77.66 12.76 77.88C13.2 78.32 13.2 78.76 12.76 78.98ZM10.78 61.38C11.22 61.16 12.1 61.16 12.54 61.38C12.98 61.6 12.98 62.26 12.54 62.48C12.1 62.7 11.22 62.7 10.78 62.48C10.34 62.26 10.34 61.6 10.78 61.38ZM10.78 66.88C11.22 66.66 12.1 66.66 12.54 66.88C12.98 67.1 12.98 67.76 12.54 67.98C12.1 68.2 11.22 68.2 10.78 67.98C10.34 67.76 10.34 67.1 10.78 66.88ZM10.78 72.38C11.22 72.16 12.1 72.16 12.54 72.38C12.98 72.6 12.98 73.04 12.54 73.48C12.1 73.92 11.22 73.7 10.78 73.48C10.34 73.04 10.34 72.6 10.78 72.38ZM6.16 64.02C6.6 63.8 7.26 63.8 7.92 64.02C8.58 64.24 8.36 64.9 7.92 65.12C7.48 65.34 6.6 65.34 6.16 65.12C5.72 64.9 5.5 64.46 6.16 64.02ZM6.16 69.52C6.6 69.3 7.48 69.3 7.92 69.52C8.36 69.74 8.36 70.4 7.92 70.62C7.48 70.84 6.6 70.84 6.16 70.62C5.72 70.4 5.5 69.96 6.16 69.52ZM6.16 75.24C6.6 74.8 7.26 74.8 7.92 75.24C8.58 75.68 8.36 75.9 7.92 76.34C7.48 76.78 6.6 76.56 6.16 76.34C5.72 76.12 5.5 75.46 6.16 75.24Z" fill="#80C99B"/>
<path d="M95.26 44.2201C94.82 42.9001 93.72 42.0201 92.18 41.8001L67.76 39.6001L63.8 30.1401C63.8 30.1401 63.8 30.1401 63.8 29.9201L60.5 22.4401L58.3 17.1601C57.64 15.8401 56.54 14.9601 55 14.9601C53.68 14.9601 52.36 15.8401 51.7 17.1601L42.24 39.6001L17.82 41.8001C16.5 42.0201 15.18 42.9001 14.74 44.2201C14.3 45.5401 14.74 47.0801 15.62 47.9601L33.88 64.0201L33 69.5201C33 69.5201 33 69.5201 33 69.7401L28.82 88.0001C28.6 89.3201 29.04 90.8601 30.14 91.5201C30.8 91.9601 31.46 92.1801 32.12 92.1801C32.78 92.1801 33.44 91.9601 33.88 91.7401L55 79.2001L76.12 91.7401C77.44 92.4001 78.76 92.4001 79.86 91.5201C80.96 90.6401 81.62 89.3201 81.18 88.0001L75.9 64.2401L94.16 48.1801C95.26 47.0801 95.7 45.5401 95.26 44.2201Z" fill="white"/>
<path d="M67.3198 52.36V47.3H62.2598V52.36H57.1998V56.1L52.3598 44.66H46.8598L38.2798 65.12H44.2198L45.7598 61.6H53.6798L55.2198 65.12H61.1598L57.8598 57.42H62.2598V62.48H67.3198V57.42H72.1598V52.58H67.3198V52.36ZM47.2998 57.2L49.4998 51.48L51.6998 57.2H47.2998Z" fill="#73B289"/>
</g>
<defs>
<clipPath id="clip0">
<rect width="110" height="110" fill="white"/>
</clipPath>
</defs>
</svg>
