<svg width="110" height="110" viewBox="0 0 110 110" fill="none" xmlns="http://www.w3.org/2000/svg">
<g clip-path="url(#clip0)">
<path d="M3.102 66.858C3.608 67.144 3.608 67.628 3.102 67.914C2.684 68.156 2.068 68.156 1.562 67.98C1.914 69.454 2.332 70.884 2.794 72.314C2.882 72.336 3.014 72.336 3.08 72.38C3.564 72.666 3.564 73.084 3.146 73.37C4.026 75.878 5.104 78.298 6.336 80.63C6.842 80.454 7.48 80.432 7.92 80.696C8.426 80.982 8.426 81.466 7.92 81.752C7.678 81.884 7.37 81.95 7.062 81.95C8.426 84.348 9.944 86.636 11.638 88.792C12.012 88.77 12.408 88.814 12.694 88.968C13.2 89.254 13.2 89.738 12.694 90.024C12.672 90.024 12.65 90.024 12.628 90.046C20.504 99.55 31.504 106.348 44.066 108.878C44.066 108.702 44.198 108.504 44.44 108.372C44.946 108.086 45.76 108.086 46.266 108.372C46.706 108.636 46.75 109.01 46.42 109.296C49.214 109.736 52.074 109.956 55 109.956C57.882 109.956 60.72 109.736 63.492 109.296C63.14 109.01 63.162 108.614 63.624 108.35C64.13 108.064 64.944 108.064 65.45 108.35C65.714 108.504 65.824 108.68 65.824 108.878C78.386 106.37 89.43 99.572 97.306 90.09C97.262 90.068 97.196 90.068 97.13 90.046C96.624 89.76 96.624 89.276 97.13 88.99C97.46 88.792 97.878 88.77 98.296 88.836C105.622 79.53 110 67.782 110 55C110 24.618 85.382 0 55 0C24.618 0 0 24.618 0 55C0 59.07 0.462 63.03 1.298 66.858C1.804 66.572 2.596 66.572 3.102 66.858ZM12.716 84.546C12.21 84.832 11.396 84.832 10.89 84.546C10.384 84.26 10.384 83.776 10.89 83.49C11.396 83.204 12.21 83.204 12.716 83.49C13.222 83.776 13.222 84.238 12.716 84.546ZM17.512 92.84C17.006 93.126 16.192 93.126 15.686 92.84C15.18 92.554 15.18 92.07 15.686 91.784C16.192 91.498 17.006 91.498 17.512 91.784C18.018 92.07 18.018 92.554 17.512 92.84ZM17.512 87.296C17.006 87.582 16.192 87.582 15.686 87.296C15.18 87.01 15.18 86.526 15.686 86.24C16.192 85.954 17.006 85.954 17.512 86.24C18.018 86.548 18.018 87.01 17.512 87.296ZM17.512 81.774C17.006 82.06 16.192 82.06 15.686 81.774C15.18 81.488 15.18 81.004 15.686 80.718C16.192 80.432 17.006 80.432 17.512 80.718C18.018 81.004 18.018 81.488 17.512 81.774ZM22.286 95.59C21.78 95.876 20.966 95.876 20.46 95.59C19.954 95.304 19.954 94.82 20.46 94.534C20.966 94.248 21.78 94.248 22.286 94.534C22.792 94.842 22.792 95.304 22.286 95.59ZM22.286 90.068C21.78 90.354 20.966 90.354 20.46 90.068C19.954 89.782 19.954 89.298 20.46 89.012C20.966 88.726 21.78 88.726 22.286 89.012C22.792 89.298 22.792 89.782 22.286 90.068ZM22.286 84.546C21.78 84.832 20.966 84.832 20.46 84.546C19.954 84.26 19.954 83.776 20.46 83.49C20.966 83.204 21.78 83.204 22.286 83.49C22.792 83.776 22.792 84.238 22.286 84.546ZM22.286 79.002C21.78 79.288 20.966 79.288 20.46 79.002C19.954 78.716 19.954 78.232 20.46 77.946C20.966 77.66 21.78 77.66 22.286 77.946C22.792 78.254 22.792 78.716 22.286 79.002ZM27.082 98.362C26.576 98.648 25.762 98.648 25.256 98.362C24.75 98.076 24.75 97.592 25.256 97.306C25.762 97.02 26.576 97.02 27.082 97.306C27.588 97.592 27.588 98.076 27.082 98.362ZM27.082 92.84C26.576 93.126 25.762 93.126 25.256 92.84C24.75 92.554 24.75 92.07 25.256 91.784C25.762 91.498 26.576 91.498 27.082 91.784C27.588 92.07 27.588 92.554 27.082 92.84ZM27.082 87.296C26.576 87.582 25.762 87.582 25.256 87.296C24.75 87.01 24.75 86.526 25.256 86.24C25.762 85.954 26.576 85.954 27.082 86.24C27.588 86.526 27.588 87.01 27.082 87.296ZM27.082 81.774C26.576 82.06 25.762 82.06 25.256 81.774C24.75 81.488 24.75 81.004 25.256 80.718C25.762 80.432 26.576 80.432 27.082 80.718C27.588 81.004 27.588 81.488 27.082 81.774ZM27.082 76.252C26.576 76.538 25.762 76.538 25.256 76.252C24.75 75.966 24.75 75.482 25.256 75.196C25.762 74.91 26.576 74.91 27.082 75.196C27.588 75.482 27.588 75.944 27.082 76.252ZM31.878 101.134C31.372 101.42 30.558 101.42 30.052 101.134C29.546 100.848 29.546 100.364 30.052 100.078C30.558 99.792 31.372 99.792 31.878 100.078C32.384 100.364 32.384 100.848 31.878 101.134ZM31.878 95.59C31.372 95.876 30.558 95.876 30.052 95.59C29.546 95.304 29.546 94.82 30.052 94.534C30.558 94.248 31.372 94.248 31.878 94.534C32.384 94.842 32.384 95.304 31.878 95.59ZM31.878 90.068C31.372 90.354 30.558 90.354 30.052 90.068C29.546 89.782 29.546 89.298 30.052 89.012C30.558 88.726 31.372 88.726 31.878 89.012C32.384 89.298 32.384 89.782 31.878 90.068ZM31.878 84.546C31.372 84.832 30.558 84.832 30.052 84.546C29.546 84.26 29.546 83.776 30.052 83.49C30.558 83.204 31.372 83.204 31.878 83.49C32.384 83.776 32.384 84.238 31.878 84.546ZM31.878 79.002C31.372 79.288 30.558 79.288 30.052 79.002C29.546 78.716 29.546 78.232 30.052 77.946C30.558 77.66 31.372 77.66 31.878 77.946C32.384 78.254 32.384 78.716 31.878 79.002ZM31.878 73.48C31.372 73.766 30.558 73.766 30.052 73.48C29.546 73.194 29.546 72.71 30.052 72.424C30.558 72.138 31.372 72.138 31.878 72.424C32.384 72.71 32.384 73.194 31.878 73.48ZM36.674 103.906C36.168 104.192 35.354 104.192 34.848 103.906C34.342 103.62 34.342 103.136 34.848 102.85C35.354 102.564 36.168 102.564 36.674 102.85C37.18 103.136 37.18 103.598 36.674 103.906ZM36.674 98.362C36.168 98.648 35.354 98.648 34.848 98.362C34.342 98.076 34.342 97.592 34.848 97.306C35.354 97.02 36.168 97.02 36.674 97.306C37.18 97.592 37.18 98.076 36.674 98.362ZM36.674 92.84C36.168 93.126 35.354 93.126 34.848 92.84C34.342 92.554 34.342 92.07 34.848 91.784C35.354 91.498 36.168 91.498 36.674 91.784C37.18 92.07 37.18 92.554 36.674 92.84ZM36.674 87.296C36.168 87.582 35.354 87.582 34.848 87.296C34.342 87.01 34.342 86.526 34.848 86.24C35.354 85.954 36.168 85.954 36.674 86.24C37.18 86.548 37.18 87.01 36.674 87.296ZM36.674 81.774C36.168 82.06 35.354 82.06 34.848 81.774C34.342 81.488 34.342 81.004 34.848 80.718C35.354 80.432 36.168 80.432 36.674 80.718C37.18 81.004 37.18 81.488 36.674 81.774ZM36.674 76.252C36.168 76.538 35.354 76.538 34.848 76.252C34.342 75.966 34.342 75.482 34.848 75.196C35.354 74.91 36.168 74.91 36.674 75.196C37.18 75.482 37.18 75.944 36.674 76.252ZM36.674 70.708C36.168 70.994 35.354 70.994 34.848 70.708C34.342 70.422 34.342 69.938 34.848 69.652C35.354 69.366 36.168 69.366 36.674 69.652C37.18 69.938 37.18 70.422 36.674 70.708ZM39.622 72.424C40.128 72.138 40.942 72.138 41.448 72.424C41.954 72.71 41.954 73.194 41.448 73.48C40.942 73.766 40.128 73.766 39.622 73.48C39.116 73.194 39.116 72.71 39.622 72.424ZM39.622 66.902C40.128 66.616 40.942 66.616 41.448 66.902C41.954 67.188 41.954 67.672 41.448 67.958C40.942 68.244 40.128 68.244 39.622 67.958C39.116 67.65 39.116 67.188 39.622 66.902ZM39.622 77.946C40.128 77.66 40.942 77.66 41.448 77.946C41.954 78.232 41.954 78.716 41.448 79.002C40.942 79.288 40.128 79.288 39.622 79.002C39.116 78.716 39.116 78.254 39.622 77.946ZM39.622 83.49C40.128 83.204 40.942 83.204 41.448 83.49C41.954 83.776 41.954 84.26 41.448 84.546C40.942 84.832 40.128 84.832 39.622 84.546C39.116 84.238 39.116 83.776 39.622 83.49ZM39.622 89.012C40.128 88.726 40.942 88.726 41.448 89.012C41.954 89.298 41.954 89.782 41.448 90.068C40.942 90.354 40.128 90.354 39.622 90.068C39.116 89.782 39.116 89.298 39.622 89.012ZM39.622 94.534C40.128 94.248 40.942 94.248 41.448 94.534C41.954 94.82 41.954 95.304 41.448 95.59C40.942 95.876 40.128 95.876 39.622 95.59C39.116 95.304 39.116 94.842 39.622 94.534ZM39.622 100.078C40.128 99.792 40.942 99.792 41.448 100.078C41.954 100.364 41.954 100.848 41.448 101.134C40.942 101.42 40.128 101.42 39.622 101.134C39.116 100.848 39.116 100.364 39.622 100.078ZM51.084 106.7C50.578 106.986 49.764 106.986 49.258 106.7C48.752 106.414 48.752 105.93 49.258 105.644C49.764 105.358 50.578 105.358 51.084 105.644C51.59 105.93 51.59 106.392 51.084 106.7ZM55.858 109.45C55.352 109.736 54.538 109.736 54.032 109.45C53.526 109.164 53.526 108.68 54.032 108.394C54.538 108.108 55.352 108.108 55.858 108.394C56.364 108.68 56.364 109.164 55.858 109.45ZM55.858 103.928C55.352 104.214 54.538 104.214 54.032 103.928C53.526 103.642 53.526 103.158 54.032 102.872C54.538 102.586 55.352 102.586 55.858 102.872C56.364 103.158 56.364 103.642 55.858 103.928ZM60.654 106.7C60.148 106.986 59.334 106.986 58.828 106.7C58.322 106.414 58.322 105.93 58.828 105.644C59.334 105.358 60.148 105.358 60.654 105.644C61.16 105.93 61.16 106.392 60.654 106.7ZM60.654 101.156C60.148 101.442 59.334 101.442 58.828 101.156C58.322 100.87 58.322 100.386 58.828 100.1C59.334 99.814 60.148 99.814 60.654 100.1C61.16 100.386 61.16 100.87 60.654 101.156ZM65.45 103.928C64.944 104.214 64.13 104.214 63.624 103.928C63.118 103.642 63.118 103.158 63.624 102.872C64.13 102.586 64.944 102.586 65.45 102.872C65.956 103.158 65.956 103.642 65.45 103.928ZM65.45 98.384C64.944 98.67 64.13 98.67 63.624 98.384C63.118 98.098 63.118 97.614 63.624 97.328C64.13 97.042 64.944 97.042 65.45 97.328C65.956 97.636 65.956 98.098 65.45 98.384ZM70.224 106.7C69.718 106.986 68.904 106.986 68.398 106.7C67.892 106.414 67.892 105.93 68.398 105.644C68.904 105.358 69.718 105.358 70.224 105.644C70.73 105.93 70.73 106.392 70.224 106.7ZM70.224 101.156C69.718 101.442 68.904 101.442 68.398 101.156C67.892 100.87 67.892 100.386 68.398 100.1C68.904 99.814 69.718 99.814 70.224 100.1C70.73 100.386 70.73 100.87 70.224 101.156ZM70.224 95.634C69.718 95.92 68.904 95.92 68.398 95.634C67.892 95.348 67.892 94.864 68.398 94.578C68.904 94.292 69.718 94.292 70.224 94.578C70.73 94.864 70.73 95.348 70.224 95.634ZM75.02 103.928C74.514 104.214 73.7 104.214 73.194 103.928C72.688 103.642 72.688 103.158 73.194 102.872C73.7 102.586 74.514 102.586 75.02 102.872C75.526 103.158 75.526 103.642 75.02 103.928ZM75.02 98.384C74.514 98.67 73.7 98.67 73.194 98.384C72.688 98.098 72.688 97.614 73.194 97.328C73.7 97.042 74.514 97.042 75.02 97.328C75.526 97.636 75.526 98.098 75.02 98.384ZM75.02 92.862C74.514 93.148 73.7 93.148 73.194 92.862C72.688 92.576 72.688 92.092 73.194 91.806C73.7 91.52 74.514 91.52 75.02 91.806C75.526 92.092 75.526 92.576 75.02 92.862ZM79.816 101.156C79.31 101.442 78.496 101.442 77.99 101.156C77.484 100.87 77.484 100.386 77.99 100.1C78.496 99.814 79.31 99.814 79.816 100.1C80.322 100.386 80.322 100.87 79.816 101.156ZM79.816 95.634C79.31 95.92 78.496 95.92 77.99 95.634C77.484 95.348 77.484 94.864 77.99 94.578C78.496 94.292 79.31 94.292 79.816 94.578C80.322 94.864 80.322 95.348 79.816 95.634ZM79.816 90.09C79.31 90.376 78.496 90.376 77.99 90.09C77.484 89.804 77.484 89.32 77.99 89.034C78.496 88.748 79.31 88.748 79.816 89.034C80.322 89.342 80.322 89.804 79.816 90.09ZM92.356 86.284C92.862 85.998 93.676 85.998 94.182 86.284C94.688 86.57 94.688 87.054 94.182 87.34C93.676 87.626 92.862 87.626 92.356 87.34C91.85 87.032 91.85 86.57 92.356 86.284ZM92.356 91.806C92.862 91.52 93.676 91.52 94.182 91.806C94.688 92.092 94.688 92.576 94.182 92.862C93.676 93.148 92.862 93.148 92.356 92.862C91.85 92.576 91.85 92.092 92.356 91.806ZM87.56 83.512C88.066 83.226 88.88 83.226 89.386 83.512C89.892 83.798 89.892 84.282 89.386 84.568C88.88 84.854 88.066 84.854 87.56 84.568C87.054 84.282 87.054 83.798 87.56 83.512ZM87.56 89.034C88.066 88.748 88.88 88.748 89.386 89.034C89.892 89.32 89.892 89.804 89.386 90.09C88.88 90.376 88.066 90.376 87.56 90.09C87.054 89.804 87.054 89.342 87.56 89.034ZM87.56 94.578C88.066 94.292 88.88 94.292 89.386 94.578C89.892 94.864 89.892 95.348 89.386 95.634C88.88 95.92 88.066 95.92 87.56 95.634C87.054 95.348 87.054 94.864 87.56 94.578ZM82.764 80.74C83.27 80.454 84.084 80.454 84.59 80.74C85.096 81.026 85.096 81.51 84.59 81.796C84.084 82.082 83.27 82.082 82.764 81.796C82.258 81.51 82.258 81.026 82.764 80.74ZM82.764 86.284C83.27 85.998 84.084 85.998 84.59 86.284C85.096 86.57 85.096 87.054 84.59 87.34C84.084 87.626 83.27 87.626 82.764 87.34C82.258 87.032 82.258 86.57 82.764 86.284ZM82.764 91.806C83.27 91.52 84.084 91.52 84.59 91.806C85.096 92.092 85.096 92.576 84.59 92.862C84.084 93.148 83.27 93.148 82.764 92.862C82.258 92.576 82.258 92.092 82.764 91.806ZM82.764 97.328C83.27 97.042 84.084 97.042 84.59 97.328C85.096 97.614 85.096 98.098 84.59 98.384C84.084 98.67 83.27 98.67 82.764 98.384C82.258 98.098 82.258 97.636 82.764 97.328ZM79.816 84.568C79.31 84.854 78.496 84.854 77.99 84.568C77.484 84.282 77.484 83.798 77.99 83.512C78.496 83.226 79.31 83.226 79.816 83.512C80.322 83.798 80.322 84.282 79.816 84.568ZM77.946 77.946C78.452 77.66 79.266 77.66 79.772 77.946C80.278 78.232 80.278 78.716 79.772 79.002C79.266 79.288 78.452 79.288 77.946 79.002C77.44 78.716 77.44 78.232 77.946 77.946ZM75.02 87.34C74.514 87.626 73.7 87.626 73.194 87.34C72.688 87.054 72.688 86.57 73.194 86.284C73.7 85.998 74.514 85.998 75.02 86.284C75.526 86.57 75.526 87.032 75.02 87.34ZM73.15 75.196C73.656 74.91 74.47 74.91 74.976 75.196C75.482 75.482 75.482 75.966 74.976 76.252C74.47 76.538 73.656 76.538 73.15 76.252C72.644 75.944 72.644 75.482 73.15 75.196ZM73.15 80.718C73.656 80.432 74.47 80.432 74.976 80.718C75.482 81.004 75.482 81.488 74.976 81.774C74.47 82.06 73.656 82.06 73.15 81.774C72.644 81.488 72.644 81.004 73.15 80.718ZM70.224 90.09C69.718 90.376 68.904 90.376 68.398 90.09C67.892 89.804 67.892 89.32 68.398 89.034C68.904 88.748 69.718 88.748 70.224 89.034C70.73 89.342 70.73 89.804 70.224 90.09ZM68.354 72.424C68.86 72.138 69.674 72.138 70.18 72.424C70.686 72.71 70.686 73.194 70.18 73.48C69.674 73.766 68.86 73.766 68.354 73.48C67.848 73.194 67.848 72.71 68.354 72.424ZM68.354 77.946C68.86 77.66 69.674 77.66 70.18 77.946C70.686 78.232 70.686 78.716 70.18 79.002C69.674 79.288 68.86 79.288 68.354 79.002C67.848 78.716 67.848 78.254 68.354 77.946ZM68.354 83.49C68.86 83.204 69.674 83.204 70.18 83.49C70.686 83.776 70.686 84.26 70.18 84.546C69.674 84.832 68.86 84.832 68.354 84.546C67.848 84.238 67.848 83.776 68.354 83.49ZM65.45 92.862C64.944 93.148 64.13 93.148 63.624 92.862C63.118 92.576 63.118 92.092 63.624 91.806C64.13 91.52 64.944 91.52 65.45 91.806C65.956 92.092 65.956 92.576 65.45 92.862ZM63.58 69.652C64.086 69.366 64.9 69.366 65.406 69.652C65.912 69.938 65.912 70.422 65.406 70.708C64.9 70.994 64.086 70.994 63.58 70.708C63.074 70.422 63.074 69.938 63.58 69.652ZM63.558 75.196C64.064 74.91 64.878 74.91 65.384 75.196C65.89 75.482 65.89 75.966 65.384 76.252C64.878 76.538 64.064 76.538 63.558 76.252C63.052 75.944 63.052 75.482 63.558 75.196ZM63.558 80.718C64.064 80.432 64.878 80.432 65.384 80.718C65.89 81.004 65.89 81.488 65.384 81.774C64.878 82.06 64.064 82.06 63.558 81.774C63.052 81.488 63.052 81.004 63.558 80.718ZM63.558 86.24C64.064 85.954 64.878 85.954 65.384 86.24C65.89 86.526 65.89 87.01 65.384 87.296C64.878 87.582 64.064 87.582 63.558 87.296C63.052 87.01 63.052 86.548 63.558 86.24ZM60.654 95.634C60.148 95.92 59.334 95.92 58.828 95.634C58.322 95.348 58.322 94.864 58.828 94.578C59.334 94.292 60.148 94.292 60.654 94.578C61.16 94.864 61.16 95.348 60.654 95.634ZM58.784 66.88C59.29 66.594 60.104 66.594 60.61 66.88C61.116 67.166 61.116 67.65 60.61 67.936C60.104 68.222 59.29 68.222 58.784 67.936C58.278 67.65 58.278 67.188 58.784 66.88ZM58.784 72.424C59.29 72.138 60.104 72.138 60.61 72.424C61.116 72.71 61.116 73.194 60.61 73.48C60.104 73.766 59.29 73.766 58.784 73.48C58.278 73.194 58.278 72.71 58.784 72.424ZM58.784 77.946C59.29 77.66 60.104 77.66 60.61 77.946C61.116 78.232 61.116 78.716 60.61 79.002C60.104 79.288 59.29 79.288 58.784 79.002C58.278 78.716 58.278 78.254 58.784 77.946ZM58.784 83.49C59.29 83.204 60.104 83.204 60.61 83.49C61.116 83.776 61.116 84.26 60.61 84.546C60.104 84.832 59.29 84.832 58.784 84.546C58.278 84.238 58.278 83.776 58.784 83.49ZM58.784 89.012C59.29 88.726 60.104 88.726 60.61 89.012C61.116 89.298 61.116 89.782 60.61 90.068C60.104 90.354 59.29 90.354 58.784 90.068C58.278 89.782 58.278 89.298 58.784 89.012ZM55.858 98.384C55.352 98.67 54.538 98.67 54.032 98.384C53.526 98.098 53.526 97.614 54.032 97.328C54.538 97.042 55.352 97.042 55.858 97.328C56.364 97.636 56.364 98.098 55.858 98.384ZM53.988 64.13C54.494 63.844 55.308 63.844 55.814 64.13C56.32 64.416 56.32 64.9 55.814 65.186C55.308 65.472 54.494 65.472 53.988 65.186C53.482 64.9 53.482 64.416 53.988 64.13ZM53.988 69.652C54.494 69.366 55.308 69.366 55.814 69.652C56.32 69.938 56.32 70.422 55.814 70.708C55.308 70.994 54.494 70.994 53.988 70.708C53.482 70.422 53.482 69.938 53.988 69.652ZM53.988 75.196C54.494 74.91 55.308 74.91 55.814 75.196C56.32 75.482 56.32 75.966 55.814 76.252C55.308 76.538 54.494 76.538 53.988 76.252C53.482 75.944 53.482 75.482 53.988 75.196ZM53.988 80.718C54.494 80.432 55.308 80.432 55.814 80.718C56.32 81.004 56.32 81.488 55.814 81.774C55.308 82.06 54.494 82.06 53.988 81.774C53.482 81.488 53.482 81.004 53.988 80.718ZM53.988 86.24C54.494 85.954 55.308 85.954 55.814 86.24C56.32 86.526 56.32 87.01 55.814 87.296C55.308 87.582 54.494 87.582 53.988 87.296C53.482 87.01 53.482 86.548 53.988 86.24ZM53.988 91.784C54.494 91.498 55.308 91.498 55.814 91.784C56.32 92.07 56.32 92.554 55.814 92.84C55.308 93.126 54.494 93.126 53.988 92.84C53.482 92.554 53.482 92.07 53.988 91.784ZM51.084 101.156C50.578 101.442 49.764 101.442 49.258 101.156C48.752 100.87 48.752 100.386 49.258 100.1C49.764 99.814 50.578 99.814 51.084 100.1C51.59 100.386 51.59 100.87 51.084 101.156ZM49.192 61.358C49.698 61.072 50.512 61.072 51.018 61.358C51.524 61.644 51.524 62.128 51.018 62.414C50.512 62.7 49.698 62.7 49.192 62.414C48.708 62.128 48.708 61.644 49.192 61.358ZM49.192 66.902C49.698 66.616 50.512 66.616 51.018 66.902C51.524 67.188 51.524 67.672 51.018 67.958C50.512 68.244 49.698 68.244 49.192 67.958C48.686 67.65 48.686 67.188 49.192 66.902ZM49.192 72.424C49.698 72.138 50.512 72.138 51.018 72.424C51.524 72.71 51.524 73.194 51.018 73.48C50.512 73.766 49.698 73.766 49.192 73.48C48.686 73.194 48.686 72.71 49.192 72.424ZM49.192 77.946C49.698 77.66 50.512 77.66 51.018 77.946C51.524 78.232 51.524 78.716 51.018 79.002C50.512 79.288 49.698 79.288 49.192 79.002C48.686 78.716 48.686 78.254 49.192 77.946ZM49.192 83.49C49.698 83.204 50.512 83.204 51.018 83.49C51.524 83.776 51.524 84.26 51.018 84.546C50.512 84.832 49.698 84.832 49.192 84.546C48.686 84.238 48.686 83.776 49.192 83.49ZM49.192 89.012C49.698 88.726 50.512 88.726 51.018 89.012C51.524 89.298 51.524 89.782 51.018 90.068C50.512 90.354 49.698 90.354 49.192 90.068C48.686 89.782 48.686 89.298 49.192 89.012ZM49.192 94.534C49.698 94.248 50.512 94.248 51.018 94.534C51.524 94.82 51.524 95.304 51.018 95.59C50.512 95.876 49.698 95.876 49.192 95.59C48.686 95.304 48.686 94.842 49.192 94.534ZM46.288 103.928C45.782 104.214 44.968 104.214 44.462 103.928C43.956 103.642 43.956 103.158 44.462 102.872C44.968 102.586 45.782 102.586 46.288 102.872C46.794 103.158 46.794 103.642 46.288 103.928ZM44.418 58.586C44.924 58.3 45.738 58.3 46.244 58.586C46.75 58.872 46.75 59.356 46.244 59.642C45.738 59.928 44.924 59.928 44.418 59.642C43.912 59.356 43.912 58.894 44.418 58.586ZM44.418 64.13C44.924 63.844 45.738 63.844 46.244 64.13C46.75 64.416 46.75 64.9 46.244 65.186C45.738 65.472 44.924 65.472 44.418 65.186C43.912 64.9 43.912 64.416 44.418 64.13ZM44.418 69.652C44.924 69.366 45.738 69.366 46.244 69.652C46.75 69.938 46.75 70.422 46.244 70.708C45.738 70.994 44.924 70.994 44.418 70.708C43.912 70.422 43.912 69.938 44.418 69.652ZM44.418 75.196C44.924 74.91 45.738 74.91 46.244 75.196C46.75 75.482 46.75 75.966 46.244 76.252C45.738 76.538 44.924 76.538 44.418 76.252C43.912 75.944 43.912 75.482 44.418 75.196ZM44.418 80.718C44.924 80.432 45.738 80.432 46.244 80.718C46.75 81.004 46.75 81.488 46.244 81.774C45.738 82.06 44.924 82.06 44.418 81.774C43.912 81.488 43.912 81.004 44.418 80.718ZM44.418 86.24C44.924 85.954 45.738 85.954 46.244 86.24C46.75 86.526 46.75 87.01 46.244 87.296C45.738 87.582 44.924 87.582 44.418 87.296C43.912 87.01 43.912 86.548 44.418 86.24ZM44.418 91.784C44.924 91.498 45.738 91.498 46.244 91.784C46.75 92.07 46.75 92.554 46.244 92.84C45.738 93.126 44.924 93.126 44.418 92.84C43.912 92.554 43.912 92.07 44.418 91.784ZM44.418 97.306C44.924 97.02 45.738 97.02 46.244 97.306C46.75 97.592 46.75 98.076 46.244 98.362C45.738 98.648 44.924 98.648 44.418 98.362C43.912 98.076 43.912 97.592 44.418 97.306ZM41.492 106.7C40.986 106.986 40.172 106.986 39.666 106.7C39.16 106.414 39.16 105.93 39.666 105.644C40.172 105.358 40.986 105.358 41.492 105.644C41.998 105.93 41.998 106.392 41.492 106.7ZM41.448 62.414C40.942 62.7 40.128 62.7 39.622 62.414C39.116 62.128 39.116 61.644 39.622 61.358C40.128 61.072 40.942 61.072 41.448 61.358C41.954 61.644 41.954 62.128 41.448 62.414ZM39.578 55.792C40.084 55.506 40.898 55.506 41.404 55.792C41.91 56.078 41.91 56.562 41.404 56.848C40.898 57.134 40.084 57.134 39.578 56.848C39.072 56.562 39.072 56.1 39.578 55.792ZM36.674 65.186C36.168 65.472 35.354 65.472 34.848 65.186C34.342 64.9 34.342 64.416 34.848 64.13C35.354 63.844 36.168 63.844 36.674 64.13C37.18 64.416 37.18 64.9 36.674 65.186ZM34.804 53.042C35.31 52.756 36.124 52.756 36.63 53.042C37.136 53.328 37.136 53.812 36.63 54.098C36.124 54.384 35.31 54.384 34.804 54.098C34.298 53.79 34.298 53.328 34.804 53.042ZM34.782 58.564C35.288 58.278 36.102 58.278 36.608 58.564C37.114 58.85 37.114 59.334 36.608 59.62C36.102 59.906 35.288 59.906 34.782 59.62C34.276 59.334 34.276 58.85 34.782 58.564ZM31.878 67.958C31.372 68.244 30.558 68.244 30.052 67.958C29.546 67.672 29.546 67.188 30.052 66.902C30.558 66.616 31.372 66.616 31.878 66.902C32.384 67.188 32.384 67.65 31.878 67.958ZM30.008 55.792C30.514 55.506 31.328 55.506 31.834 55.792C32.34 56.078 32.34 56.562 31.834 56.848C31.328 57.134 30.514 57.134 30.008 56.848C29.502 56.562 29.502 56.1 30.008 55.792ZM30.008 61.336C30.514 61.05 31.328 61.05 31.834 61.336C32.34 61.622 32.34 62.106 31.834 62.392C31.328 62.678 30.514 62.678 30.008 62.392C29.502 62.106 29.502 61.622 30.008 61.336ZM27.082 70.708C26.576 70.994 25.762 70.994 25.256 70.708C24.75 70.422 24.75 69.938 25.256 69.652C25.762 69.366 26.576 69.366 27.082 69.652C27.588 69.938 27.588 70.422 27.082 70.708ZM25.212 53.042C25.718 52.756 26.532 52.756 27.038 53.042C27.544 53.328 27.544 53.812 27.038 54.098C26.532 54.384 25.718 54.384 25.212 54.098C24.706 53.812 24.706 53.328 25.212 53.042ZM25.212 58.564C25.718 58.278 26.532 58.278 27.038 58.564C27.544 58.85 27.544 59.334 27.038 59.62C26.532 59.906 25.718 59.906 25.212 59.62C24.706 59.334 24.706 58.85 25.212 58.564ZM25.212 64.086C25.718 63.8 26.532 63.8 27.038 64.086C27.544 64.372 27.544 64.856 27.038 65.142C26.532 65.428 25.718 65.428 25.212 65.142C24.706 64.856 24.706 64.394 25.212 64.086ZM22.286 73.48C21.78 73.766 20.966 73.766 20.46 73.48C19.954 73.194 19.954 72.71 20.46 72.424C20.966 72.138 21.78 72.138 22.286 72.424C22.792 72.71 22.792 73.194 22.286 73.48ZM20.416 55.792C20.922 55.506 21.736 55.506 22.242 55.792C22.748 56.078 22.748 56.562 22.242 56.848C21.736 57.134 20.922 57.134 20.416 56.848C19.91 56.562 19.91 56.1 20.416 55.792ZM20.416 61.336C20.922 61.05 21.736 61.05 22.242 61.336C22.748 61.622 22.748 62.106 22.242 62.392C21.736 62.678 20.922 62.678 20.416 62.392C19.91 62.106 19.91 61.622 20.416 61.336ZM20.416 66.858C20.922 66.572 21.736 66.572 22.242 66.858C22.748 67.144 22.748 67.628 22.242 67.914C21.736 68.2 20.922 68.2 20.416 67.914C19.91 67.628 19.91 67.144 20.416 66.858ZM17.512 76.252C17.006 76.538 16.192 76.538 15.686 76.252C15.18 75.966 15.18 75.482 15.686 75.196C16.192 74.91 17.006 74.91 17.512 75.196C18.018 75.482 18.018 75.944 17.512 76.252ZM15.642 58.564C16.148 58.278 16.962 58.278 17.468 58.564C17.974 58.85 17.974 59.334 17.468 59.62C16.962 59.906 16.148 59.906 15.642 59.62C15.136 59.334 15.136 58.85 15.642 58.564ZM15.642 64.086C16.148 63.8 16.962 63.8 17.468 64.086C17.974 64.372 17.974 64.856 17.468 65.142C16.962 65.428 16.148 65.428 15.642 65.142C15.136 64.856 15.136 64.394 15.642 64.086ZM15.642 69.63C16.148 69.344 16.962 69.344 17.468 69.63C17.974 69.916 17.974 70.4 17.468 70.686C16.962 70.972 16.148 70.972 15.642 70.686C15.136 70.4 15.136 69.916 15.642 69.63ZM12.716 79.002C12.21 79.288 11.396 79.288 10.89 79.002C10.384 78.716 10.384 78.232 10.89 77.946C11.396 77.66 12.21 77.66 12.716 77.946C13.222 78.254 13.222 78.716 12.716 79.002ZM10.846 61.336C11.352 61.05 12.166 61.05 12.672 61.336C13.178 61.622 13.178 62.106 12.672 62.392C12.166 62.678 11.352 62.678 10.846 62.392C10.34 62.106 10.34 61.622 10.846 61.336ZM10.846 66.858C11.352 66.572 12.166 66.572 12.672 66.858C13.178 67.144 13.178 67.628 12.672 67.914C12.166 68.2 11.352 68.2 10.846 67.914C10.34 67.628 10.34 67.144 10.846 66.858ZM10.846 72.402C11.352 72.116 12.166 72.116 12.672 72.402C13.178 72.688 13.178 73.172 12.672 73.458C12.166 73.744 11.352 73.744 10.846 73.458C10.34 73.15 10.34 72.688 10.846 72.402ZM6.05 64.086C6.556 63.8 7.37 63.8 7.876 64.086C8.382 64.372 8.382 64.856 7.876 65.142C7.37 65.428 6.556 65.428 6.05 65.142C5.544 64.856 5.544 64.394 6.05 64.086ZM6.05 69.63C6.556 69.344 7.37 69.344 7.876 69.63C8.382 69.916 8.382 70.4 7.876 70.686C7.37 70.972 6.556 70.972 6.05 70.686C5.544 70.4 5.544 69.916 6.05 69.63ZM6.05 75.152C6.556 74.866 7.37 74.866 7.876 75.152C8.382 75.438 8.382 75.922 7.876 76.208C7.37 76.494 6.556 76.494 6.05 76.208C5.544 75.922 5.544 75.46 6.05 75.152Z" fill="#80C99B"/>
<path d="M68.3099 32.3839C62.3479 32.3839 57.0679 35.2219 53.7019 39.5999C50.3359 35.2219 45.0339 32.3839 39.0939 32.3839C28.9299 32.3839 20.6799 40.6339 20.6799 50.7979C20.6799 73.5899 53.7019 87.3179 53.7019 87.3179C53.7019 87.3179 86.7239 73.7879 86.7239 50.7979C86.7239 40.6119 78.4739 32.3839 68.3099 32.3839Z" fill="#73B289"/>
<path d="M69.6961 33.792C64.0421 33.792 59.0261 36.476 55.8141 40.634C52.6241 36.476 47.5861 33.792 41.9321 33.792C32.2741 33.792 24.4421 41.624 24.4421 51.282C24.4421 72.908 55.7921 85.954 55.7921 85.954C55.7921 85.954 87.1421 73.106 87.1421 51.282C87.1861 41.624 79.3541 33.792 69.6961 33.792Z" fill="white"/>
</g>
<defs>
<clipPath id="clip0">
<rect width="110" height="110" fill="white"/>
</clipPath>
</defs>
</svg>
