<svg width="165" height="81" viewBox="0 0 165 81" fill="none" xmlns="http://www.w3.org/2000/svg">
<g clip-path="url(#clip0)">
<path d="M132.287 9.21672e-06C133.051 -0.0920653 134.913 11.228 137.329 13.0388C139.745 14.8496 141.689 14.957 151.88 16.1079C162.071 17.2589 165 17.3202 165 18.154C165 18.9878 162.584 18.9213 155.917 19.6886C149.249 20.4559 144.51 20.9674 140.981 21.6682C137.457 22.369 135.919 23.0084 134.252 23.0084C132.585 23.0084 131.302 23.1363 130.087 23.0084C128.871 22.8805 127.009 22.4969 124.896 21.9854C122.783 21.4738 113.166 20.0058 109.063 19.6221C104.96 19.2385 98.8102 18.6656 98.8718 18.0875C98.9333 17.5095 105.027 17.2589 113.1 16.1693C121.173 15.0798 126.343 14.4455 128.333 11.5298C130.215 8.77778 131.2 0.12789 132.287 9.21672e-06Z" fill="black"/>
<path d="M6.60628 26.7528L0.0155086 64.4061C-0.0973295 65.066 0.410442 65.6696 1.07721 65.6696H6.79092C7.4064 65.6696 7.92956 65.2194 8.02188 64.6107L11.0275 43.894L13.433 58.8356C13.5253 59.4085 14.0228 59.8331 14.6075 59.8331H17.5003C18.0952 59.8331 18.6389 59.5006 18.9056 58.9686L26.158 44.5743L22.4857 64.2885C22.3523 65.0046 22.9062 65.6696 23.6397 65.6696H28.8456C29.5688 65.6696 30.1894 65.1529 30.3177 64.4419L36.9802 27.7144C37.1546 26.7528 36.4109 25.8627 35.4313 25.8627H29.5637C29.3893 25.8627 29.2252 25.9599 29.1431 26.1133L17.7772 47.0347C17.7054 47.1677 17.5105 47.1319 17.4849 46.9836L14.3203 26.4254C14.269 26.1082 13.9972 25.8678 13.674 25.8678H7.66285C7.13969 25.8678 6.69347 26.2412 6.60628 26.7528Z" fill="black"/>
<path d="M41.7706 25.8678H35.5747C35.2003 25.8678 34.9131 26.2054 34.9746 26.5737L38.924 49.9862L35.862 64.2476C35.703 64.979 36.262 65.6696 37.016 65.6696H43.2734C43.5555 65.6696 43.8017 65.4701 43.8632 65.1939L46.9662 50.6256L59.3271 27.3359C59.681 26.6709 59.1938 25.8678 58.4398 25.8678H52.4286C51.7208 25.8678 51.0746 26.277 50.7771 26.9216L45.1557 39.0294C45.089 39.1675 44.8839 39.1368 44.8634 38.9884L43.1657 27.075C43.0682 26.3794 42.4732 25.8678 41.7706 25.8678Z" fill="black"/>
<path d="M71.17 38.4974C70.7032 38.4871 70.3442 38.083 70.3955 37.6227C70.5237 36.441 70.7135 34.4052 70.5955 33.8374C70.4263 33.0292 69.4825 31.6225 68.4157 31.8782C67.3489 32.134 63.3328 34.8195 69.8672 42.3594C76.4015 49.8993 76.1912 54.2677 75.3603 59.3216C74.5294 64.3703 70.4263 66.6722 65.1075 66.6722C59.7887 66.6722 55.1726 64.8818 55.1726 54.8457C55.1726 51.0758 56.8395 51.3929 56.8395 51.3929H61.8557C62.4301 51.3929 62.8866 51.884 62.8353 52.4569C62.6404 54.6667 62.5173 59.5313 65.2973 59.3829C67.7951 59.2244 67.8412 55.9762 67.1796 51.9454C66.5385 47.1728 57.8243 43.5512 58.4398 34.9627C58.4398 34.9627 59.3989 24.8857 68.6721 25.3103C77.9454 25.7348 78.1557 32.1289 77.8171 34.8144C77.6684 35.9858 77.5607 36.8554 77.4838 37.4641C77.4017 38.1137 76.8478 38.5946 76.1913 38.5843L71.17 38.4974Z" fill="black"/>
<path d="M124.563 36.3081C126.527 28.1237 120.634 25.8678 117.213 25.8678H106.545C105.945 25.8678 105.427 26.2975 105.319 26.8858L98.441 64.5852C98.3385 65.1478 98.7744 65.6696 99.3489 65.6696H112.346C115.423 65.6696 120.465 65.286 122.517 56.4212C124.568 47.5565 118.413 44.917 118.413 44.917C118.413 44.917 122.599 44.4925 124.563 36.3081ZM114.587 54.2677C113.946 58.2934 112.218 58.6157 110.515 58.6157C108.812 58.6157 107.596 58.6157 107.596 58.6157L109.263 49.0911C109.289 49.0911 109.545 49.0911 111.376 49.0911C113.69 49.0911 115.228 50.242 114.587 54.2677ZM116.444 37.3925C115.546 41.8018 110.515 41.1982 110.515 41.1982L112.023 32.4409C112.023 32.4409 112.92 32.4409 114.361 32.4409C115.803 32.4409 117.341 32.9831 116.444 37.3925Z" fill="black"/>
<path d="M127.409 27.4638L120.773 64.7181C120.685 65.2143 121.065 65.6645 121.568 65.6645H128.697C128.907 65.6645 129.092 65.511 129.128 65.3064L135.975 26.8858C136.067 26.3538 135.657 25.8627 135.118 25.8627H129.323C128.379 25.8678 127.574 26.5379 127.409 27.4638Z" fill="black"/>
<path d="M153.126 25.8678H144.289H141.673H138.191C137.77 25.8678 137.411 26.1696 137.339 26.5788L130.543 64.7182C130.456 65.2143 130.836 65.6645 131.338 65.6645H137.401H147.013C147.187 65.6645 148.023 60.1093 148.305 58.1911C148.356 57.8484 148.09 57.5466 147.746 57.5466L140.319 57.5517C139.986 57.5517 139.734 57.2499 139.791 56.9225L141.14 49.3468H146.895C147.356 49.3468 147.756 49.0143 147.838 48.5642L148.992 42.1957C149.069 41.7763 148.746 41.3875 148.315 41.3875H142.561V41.3824L143.884 33.9448C143.899 33.8681 143.961 33.8169 144.038 33.8169H151.7C152.162 33.8169 152.562 33.4844 152.644 33.0343L153.798 26.6658C153.875 26.2515 153.552 25.8678 153.126 25.8678Z" fill="black"/>
<path d="M103.56 25.8678C104.057 25.8678 104.432 26.3231 104.339 26.809L98.7896 55.1987C98.7896 55.1987 97.0714 63.4956 92.6246 65.2041C88.1828 66.9075 80.833 66.9944 78.2685 63.4138C75.704 59.8331 75.4475 56.8509 78.2685 41.853C80.1149 32.0317 80.7868 28.2208 81.033 26.7579C81.1202 26.2412 81.5664 25.8678 82.0896 25.8678H88.2085C88.906 25.8678 89.4395 26.497 89.3164 27.1876C88.4137 32.2056 85.2439 49.9146 85.0234 51.7817C84.7669 53.9557 84.1668 57.3215 85.3209 57.6642C86.4749 58.007 88.6086 58.3446 89.2958 57.2806C89.978 56.2166 91.8193 49.7816 93.6093 39.3414C95.0403 31.0291 95.6814 27.4177 95.8866 26.2873C95.9276 26.0469 96.1379 25.8729 96.3841 25.8729L103.56 25.8678Z" fill="black"/>
<path d="M66.7539 72.524V72.6417L66.6719 72.7235V72.8412L66.6052 72.9435L66.5385 73.1123L66.4872 73.2811L66.4205 73.4294L66.318 73.6443L66.3026 73.7466L66.2205 73.8949L66.1179 74.0944L66.0512 74.1609L65.9179 74.1967H65.7179L65.5332 74.2121L64.6151 74.1967L64.5997 74.2786L64.5331 74.4934L64.4664 74.6622L64.3638 74.964L64.3125 75.1635L64.2458 75.2812L64.1946 75.3988L64.1586 75.5318L64.1074 75.6495L63.9381 76.0843L63.8868 76.2838L63.7842 76.519L63.933 76.5344L64.1176 76.5497L64.2202 76.5344L64.4869 76.5497H65.1024L65.205 76.5855H65.3075L65.3588 76.6674L65.2922 76.918L65.2614 76.9999L65.2255 77.1482L65.1742 77.2301L65.1229 77.4142L65.0716 77.5319L65.0203 77.7007L64.9177 77.8848L64.9024 77.9871L64.8511 78.0894L64.8203 78.2071L64.7177 78.3094L64.569 78.3912H64.0868L63.8714 78.4066L63.4867 78.3759H63.2047L63.138 78.5242L63.1072 78.6572L62.9379 79.1227L62.8713 79.3376L62.8405 79.4552L62.8046 79.6394L62.7738 79.7417L62.6918 79.9411L62.6558 80.0435L62.5738 80.2583L62.5225 80.4936L62.4199 80.7084L62.384 80.8414L62.3019 80.9898L62.1532 81.0409H61.8044L61.7224 81.0256H61.3377L61.2351 81.0102L61.1531 80.9949H61.0351L60.953 81.0102L60.8043 80.9949L60.7017 80.9795L60.5991 80.9949L60.5171 80.9591L60.4145 80.8414L60.4658 80.5908L60.5683 80.3555L60.635 80.1048L60.6863 79.9872L60.753 79.7519L60.8043 79.6189L60.8863 79.3682L60.9222 79.2506L60.9735 79.1176L61.0043 78.9999L61.1069 78.7851L61.1223 78.6828L61.1736 78.4833L61.2043 78.381L61.2402 78.2992H60.9735L60.8915 78.3145L60.7889 78.2992H60.5735L60.4401 78.3145H60.0913L59.8759 78.3299L59.7272 78.3145L59.6605 78.4833L59.6246 78.6521L59.4553 79.1176L59.3887 79.3324L59.3528 79.4501L59.3015 79.6342L59.2707 79.7365L59.1886 79.936L59.1579 80.0383L59.0758 80.2532L59.0245 80.4885L58.9219 80.7033L58.8912 80.8363L58.8091 80.9847L58.6604 81.0358H58.3116L58.2295 81.0205H57.8448L57.7423 81.0051L57.6602 80.9898H57.5422L57.4602 81.0051L57.3114 80.9898L57.2088 80.9744L57.1063 80.9898L57.0242 80.954L56.9216 80.8363L56.9729 80.5857L57.0755 80.3504L57.1422 80.0997L57.1935 79.9821L57.2601 79.7468L57.3114 79.6138L57.3935 79.3631L57.4243 79.2455L57.4756 79.1125L57.5115 78.9948L57.614 78.78L57.6294 78.6777L57.6807 78.4782L57.7115 78.3759L57.7628 78.2429H57.0088L56.9062 78.2582L56.8242 78.2224H56.4908L56.3882 78.2071L56.3369 78.0587V77.9411L56.3882 77.8592L56.419 77.7416L56.4857 77.6598L56.5369 77.491L56.6036 77.3221L56.6703 77.1738L56.7524 76.9743L56.7831 76.8567L56.8652 76.739L56.9678 76.5242L56.9986 76.473L57.1473 76.4372H57.3473L57.5474 76.4219L58.4142 76.4372L58.4295 76.3554L58.4449 76.2531L58.4962 76.1354L58.527 76.0178L58.5783 75.9155L58.645 75.6801L58.6963 75.4449L58.7988 75.2095V75.0919L58.8655 74.8566L58.9681 74.7236L59.004 74.5088L59.0707 74.3093L59.1527 74.0944V74.0791H59.122L58.9373 74.0637L58.8347 74.0791L58.568 74.0637L57.9474 74.0484L57.8448 74.033H57.7423L57.7269 73.9665L57.7577 73.6852L57.7884 73.6187L57.8397 73.4704L57.891 73.3527L57.9269 73.1839L58.009 73.0663L58.0603 72.8975L58.1269 72.6826L58.1577 72.6008L58.209 72.4985L58.2449 72.3655L58.327 72.2632L58.4757 72.1813H58.9578L59.1938 72.166L59.5631 72.2018H59.799L59.8503 72.0841L59.9529 71.8693V71.7516L59.9836 71.6186L60.0349 71.4038L60.0862 71.322L60.1529 71.0867L60.235 70.8718L60.2657 70.7695L60.317 70.6672L60.3683 70.4677L60.435 70.2836L60.5171 70.0994L60.5837 69.8488L60.635 69.7465L60.6658 69.6288L60.8145 69.46L60.8658 69.3577L60.9992 69.3424L61.1018 69.327L61.3018 69.3117L61.4198 69.327H61.6044L61.707 69.3117H62.4097L62.5122 69.2963L62.661 69.3475V69.5163L62.6302 69.6186L62.6148 69.8334L62.5635 69.8846L62.5122 70.0687V70.171L62.4456 70.2375L62.4302 70.3859L62.3635 70.4677L62.2968 70.703L62.2148 70.8514L62.1789 70.9844L62.1481 71.0867L62.1327 71.2043L62.1019 71.3066L61.9532 71.7414L61.8865 71.9256L61.8352 72.0279L61.7839 72.2274L61.7685 72.2785H62.1173L62.184 72.2632L62.3019 72.2785L62.4712 72.2939L62.502 72.2785L62.6353 72.2632H62.9841L63.1995 72.2478L63.3021 72.2632L63.3175 72.212L63.3688 72.0944L63.4714 71.8795V71.7619L63.538 71.6289L63.5893 71.414L63.6047 71.3322L63.6714 71.0969L63.7535 70.8821L63.7842 70.7797L63.8355 70.6774L63.8868 70.4779L63.9535 70.2938L64.0355 70.1096L64.1022 69.859L64.1535 69.7567L64.1843 69.639L64.333 69.4702L64.4151 69.4191L64.5177 69.3526L64.6203 69.3372L64.8203 69.3219L64.9383 69.3372H65.1229L65.2255 69.3219H65.9281L66.0307 69.3066L66.1795 69.3577V69.5265L66.1436 69.6288L66.1282 69.8437L66.0769 69.8948L66.0256 70.079V70.1813L65.9589 70.2478L65.9435 70.3961L65.8769 70.4779L65.8461 70.6621L65.7948 70.7797L65.7435 70.9485L65.6768 71.0969L65.6461 71.2145L65.6102 71.3168L65.4614 71.7516L65.3947 71.9358L65.3434 72.0381L65.2922 72.2376L65.2614 72.3399L66.1128 72.3552L66.1795 72.3399L66.2974 72.3552H66.6308L66.7334 72.3706L66.7539 72.524ZM61.3428 76.4884L61.5275 76.473H61.9121L61.948 76.3554L61.9634 76.2531L62.0147 76.1354L62.0455 76.0178L62.0968 75.9155L62.1635 75.6801L62.2148 75.4449L62.3173 75.2095V75.0919L62.384 74.8566L62.4866 74.7236L62.5174 74.5088L62.584 74.3093L62.6507 74.1251H62.584L61.7326 74.1098L61.548 74.1251H61.1325L61.1171 74.1405L61.1018 74.2581L61.0505 74.473L60.9684 74.6418L60.7991 75.143L60.6966 75.3784L60.6299 75.496L60.6145 75.629L60.4452 76.0638L60.394 76.2633L60.3119 76.4628H60.4965L61.3428 76.4884Z" fill="black"/>
<path d="M65.6308 80.9847L65.5129 80.9693L65.2102 80.9847L65.1077 80.9028V80.5857L65.159 80.4834L65.1436 80.3657L65.1949 80.1304V80.0281L65.2461 79.7928L65.2974 79.5422L65.3487 79.3273L65.3641 79.2097L65.4154 79.0102L65.4308 78.8925L65.4462 78.7902L65.5129 78.4066L65.5641 78.3043L65.5795 78.0894L65.5949 77.9718L65.6308 77.8695L65.6975 77.6546L65.7129 77.5523L65.7283 77.3528V77.271L65.8103 77.1022V76.918L65.8462 76.8157V76.6981L65.8975 76.5958L65.9129 76.3451L65.9642 75.9973L66.0155 75.8796L66.0309 75.7466L66.0463 75.5113L66.077 75.3937L66.0924 75.2914L66.1232 75.1737L66.1386 75.0714L66.1899 74.8361L66.2053 74.7031L66.236 74.4525L66.2873 74.1865L66.3386 73.9717V73.7722L66.354 73.5573L66.3848 73.4397L66.4361 73.322L66.4515 73.1072L66.4668 73.0049L66.5335 72.7389L66.5489 72.5547L66.5335 72.4882L66.5848 72.2734L66.6002 72.1711L66.6156 71.8693L66.6464 71.7363L66.6977 71.501L66.7489 71.3526L66.7643 71.1532L66.7951 71.0355V70.9025L66.831 70.7849L66.8464 70.6672V70.5649L66.8823 70.4472L66.949 70.1813L66.9644 70.0636L66.9797 69.9306L67.031 69.6953L67.0464 69.5623L67.1131 69.3475L67.2465 69.281H68.1133L68.3287 69.2656L68.5441 69.281L68.6467 69.2656H69.7648L69.8828 69.281L70.1341 69.2656H70.37L70.6213 69.3014H70.7547L70.9701 69.3321L71.3189 69.3833L71.5856 69.4344L71.7036 69.4702L71.8215 69.5521L71.9395 69.6032L72.1549 69.7209L72.3037 69.8539L72.3703 69.9357L72.4729 70.0687L72.5755 70.1864L72.6268 70.3194L72.7294 70.5342L72.7653 70.6519L72.8319 70.836L72.8473 71.0202L72.8627 71.1378L72.914 71.322L72.8986 71.4908L72.914 71.7414V71.8591L72.9294 72.0432L72.914 72.2274L72.8832 72.4115L72.8678 72.5291L72.8371 72.8974L72.8012 73.1328L72.7499 73.2504L72.7345 73.3834L72.6832 73.5011L72.6678 73.6034L72.6319 73.7057L72.5806 73.941L72.5293 74.074L72.4473 74.3093L72.3139 74.6264L72.2318 74.8106L72.1139 75.01L71.9651 75.2607L71.8626 75.363L71.7446 75.5625L71.5958 75.6955L71.4779 75.8643L71.3958 75.9819L71.1804 76.1507L71.0983 76.2531L70.8624 76.3707L70.6931 76.4219L70.4777 76.5242L70.211 76.606L70.011 76.6367L69.7956 76.652L69.5596 76.6827L69.0929 76.7185L68.7749 76.7032H68.4056L68.1543 76.6879V76.7237L68.1389 76.8413L68.0876 76.9743L68.0722 77.1891L68.0363 77.271L68.0209 77.4858L68.0055 77.5881L67.9902 77.7058L67.9594 77.8081L67.944 77.9257V78.028L67.8927 78.2633L67.8414 78.4117L67.8107 78.6112L67.7747 78.7288L67.7235 78.9283L67.7081 79.046L67.6568 79.1636V79.3324L67.6055 79.5831V79.8184L67.5388 79.9207V80.0537L67.5234 80.1713L67.4926 80.2736L67.4773 80.3913L67.426 80.5243L67.4106 80.6726L67.3952 80.8056L67.3439 81.0051L67.2259 81.0205H65.8924L65.6308 80.9847ZM68.9544 74.5906L69.1391 74.5548L69.4571 74.5241L69.575 74.4729L69.8417 74.2735L70.0264 74.1046L70.1443 73.9205L70.211 73.8182L70.2931 73.5829L70.329 73.4346L70.3957 73.2862L70.4623 73.0049L70.529 72.5394L70.5598 72.1046V71.8233L70.4931 71.6238L70.3905 71.4754L70.2059 71.3424L70.0571 71.3066L69.6058 71.2913L69.2211 71.3066L69.1032 71.3424L69.0211 71.5419L68.9903 71.6238L68.9749 71.7926L68.9442 72.0739L68.9083 72.1915L68.857 72.391L68.8057 72.7235L68.7749 72.8923L68.7236 73.1583L68.7082 73.3578V73.4908L68.6774 73.6392L68.5954 74.0535V74.2018L68.5441 74.4371L68.5287 74.5855H68.9544V74.5906Z" fill="black"/>
<path d="M71.642 81L71.524 80.9847L70.3033 80.9693L70.1546 80.9335L70.1238 80.8005L70.1546 80.6828L70.1699 80.5805L70.2725 80.3811L70.4059 80.1662L70.5751 79.6649L70.6777 79.4654L70.7598 79.2659L70.9444 78.8669L71.0111 78.6521L71.1445 78.3503L71.1752 78.248L71.2573 78.1303L71.3393 77.9308L71.3701 77.8285L71.3855 77.7109L71.4368 77.6086L71.5189 77.3937L71.5702 77.2761L71.6881 77.0408L71.724 76.9231L71.7548 76.7748L71.8369 76.6418L71.9394 76.4423L71.9702 76.3247L72.0728 76.0894L72.0882 75.9871L72.1395 75.8694L72.1908 75.7671L72.2728 75.5318L72.3241 75.4295L72.4575 74.964L72.5088 74.831L72.6267 74.6162L72.7088 74.3348L72.8114 74.1507L72.8627 74.0484L72.914 73.8335L72.996 73.7159L73.0473 73.501L73.0781 73.4192L73.1807 73.2044L73.2319 72.9691L73.314 72.8514L73.3807 72.7491L73.514 72.4013L73.5961 72.1864L73.6474 72.0841L73.75 71.9358L73.8013 71.767L73.8526 71.6493L74.0013 71.3475L74.0372 71.2299L74.0885 71.1276L74.1193 71.0253L74.15 70.9076L74.2526 70.7235L74.3193 70.6212L74.3552 70.5393L74.4578 70.2375L74.5757 70.0227L74.7245 69.7209L74.7758 69.6032L74.8271 69.5009L74.8937 69.3168L75.0117 69.3014H75.181L75.499 69.3168L75.6682 69.3014H75.9349L76.2529 69.2861H76.4017L76.5196 69.3219L76.6684 69.3065H76.9351L77.0172 69.3372L77.1351 69.4191L77.1864 70.1352V70.5035L77.2172 70.6058V70.9076L77.2326 71.5061V71.7414L77.248 71.9562L77.2787 72.2887V72.524L77.2941 72.7747L77.2787 72.8923V73.2606L77.3095 73.4959V73.8284L77.3249 74.0637L77.3095 74.166L77.3249 74.3809V74.4832L77.3403 74.7492L77.3711 74.9333V75.5829L77.3864 75.7824L77.4018 75.9154V76.4167L77.4172 77.184V77.3017L77.4326 77.5523L77.4172 77.803L77.4326 78.0383L77.4172 78.1559L77.4531 78.7902V78.8925L77.4685 79.1074L77.4839 79.225V79.4756L77.4685 79.711L77.4839 79.8439V79.9923L77.4993 80.3606V80.7084C77.5147 80.7749 77.53 80.9233 77.448 80.9744C77.3813 80.9898 77.33 80.9744 77.2633 80.9744L77.1454 80.9898L77.012 80.9744H76.7761L76.4068 80.9898H76.2734L76.0734 80.9744L75.9554 80.9898L75.7862 81.0051L75.5708 80.9898H75.3195L75.2528 80.9386L75.2169 80.7698L75.2015 80.468L75.1861 80.2992L75.2015 80.1304V79.3478L75.1861 79.2148L74.8168 79.1994L74.5501 79.1636L73.8167 79.1483H73.3653L73.2832 79.3324L73.1653 79.5473L73.1294 79.6649L73.0781 79.7826L73.0114 79.9821L72.8421 80.2992L72.7396 80.5499L72.6883 80.734L72.637 80.8159L72.5703 80.9335L72.4677 81L72.001 80.9847L71.8676 81H71.642ZM75.1502 77.005L75.2528 76.9231L75.2682 76.6878L75.2528 76.5548L75.2682 76.4218V75.9871L75.2835 75.8694V75.5881L75.3195 75.4551L75.3041 75.0561L75.3195 74.4218L75.3348 73.8233L75.3195 73.4397L75.1861 73.4908L75.1194 73.7056L75.0374 73.9716L74.9861 74.1404L74.904 74.4064L74.8373 74.5394L74.7706 74.7082L74.7553 74.8259L74.6886 74.9435L74.6373 75.0919L74.586 75.2095L74.5347 75.3579L74.4321 75.7262L74.4167 75.8438L74.3347 76.0945L74.268 76.2121L74.1859 76.4935L74.15 76.6111L74.1193 76.7595L74.068 76.8771L74.1859 76.9794H74.3193L74.5039 76.9948L74.6527 77.0101H75.1502V77.005Z" fill="black"/>
<path d="M78.1556 81H77.9402L77.4222 80.9693L77.2735 80.9335L77.2375 80.8312V80.6828L77.2888 80.514L77.3042 80.3452L77.3196 80.1611V80.0434L77.3504 79.9411V79.8235L77.4017 79.7058V79.6035L77.4171 79.4859L77.4684 79.2506V79.1329L77.5196 78.9999L77.5043 78.8823L77.5556 78.7493L77.5709 78.514L77.6017 78.381L77.6171 78.2633L77.6017 78.1303L77.6684 77.9973V77.7467L77.7504 77.4449V77.2966L77.7864 77.1278L77.8017 76.8771V76.7441L77.8684 76.5088L77.8838 76.3912L77.8992 76.2582V76.1098L77.9813 75.9922L78.0172 75.8899L78.0018 75.7876L78.0172 75.5881L78.0479 75.4704L78.0992 75.3681V75.2658L78.13 75.1482L78.1659 74.964L78.1813 74.8617L78.2172 74.6469L78.248 74.4116V74.2786L78.33 73.9307V73.8131L78.3454 73.7108L78.3608 73.5931L78.3916 73.3783L78.407 73.276V73.1583L78.4223 73.056L78.489 72.8565L78.5044 72.6212L78.5198 72.5189L78.5711 72.2836L78.6224 72.0176L78.6737 71.7823L78.6891 71.68V71.5777L78.7044 71.3629V71.2606L78.7404 71.1429L78.7916 70.9434L78.8429 70.6774L78.9096 70.2119L78.925 70.0789L78.9404 69.9613V69.8283L79.0071 69.6953L78.9917 69.5111L79.0583 69.4293L79.1763 69.2963L79.3456 69.2605H79.5815L80.5817 69.2758H81.2997L81.4177 69.2605L81.587 69.2451L81.7203 69.281L81.9716 69.3116H82.1204L82.3358 69.3475L82.5871 69.3628L82.7718 69.3986H83.0385L83.1718 69.4344L83.3565 69.5163L83.5052 69.5828L83.6232 69.6186L83.7719 69.7209L83.8745 69.772L83.9565 69.8232L84.1566 69.9408L84.2233 70.0073L84.3053 70.1096L84.372 70.1915L84.49 70.391L84.6079 70.6263L84.6592 70.8923L84.69 71.2094V71.3271L84.7413 71.6442V71.7772L84.69 72.0125L84.6746 72.1301L84.69 72.3808V72.4984L84.6387 72.7644L84.6079 73.0304L84.5566 73.1992L84.49 73.3987L84.4592 73.5164L84.4284 73.6187L84.3771 73.7363L84.2951 73.9358L84.1463 74.1507L84.095 74.2683L84.0284 74.4167L83.895 74.6315L83.8437 74.7338L83.6591 74.9487L83.577 75.0305L83.3411 75.2811L83.0077 75.496L82.7718 75.6136L82.6538 75.629V75.7773L82.7051 75.9103L82.7871 76.161V76.3093L82.823 76.5242L82.8897 76.6265L82.9051 76.7595L82.9359 76.9743L82.9872 77.0766L83.0385 77.2914L83.0744 77.3937L83.1051 77.629L83.1564 77.7467L83.1923 77.8797L83.259 78.0945V78.1968L83.3411 78.4475L83.3718 78.6623L83.5565 79.2608L83.5873 79.4961L83.7052 79.7775L83.7206 79.9769L83.736 80.0946L83.7719 80.2429L83.8899 80.5601L83.8386 80.7749L83.7565 80.7903L83.5719 80.8261H83.3565L83.0077 80.8772L82.5717 80.9284H82.3563L82.1717 80.9437H82.0383L81.8896 80.9591L81.787 80.9437L81.6382 80.7954L81.6023 80.7135L81.551 80.514L81.5203 80.4322L81.469 80.2481L81.3664 79.9974V79.8644L81.3151 79.7314L81.2792 79.6803L81.2484 79.4654L81.1971 79.3478V79.2301L81.1459 79.1278L81.1305 79.0102L81.0792 78.826L81.0125 78.6572V78.4577L80.9099 78.1559L80.8945 78.0383L80.8279 77.8388L80.792 77.7211L80.7612 77.5063L80.6945 77.2914L80.6791 77.0561L80.6432 76.9743L80.5919 76.739L80.5612 76.5702L80.4945 76.4372L80.4637 76.3042L80.397 76.1712L80.3303 76.1047L80.2124 76.0894L80.197 76.1559L80.1611 76.2582L80.1098 76.4935L80.0944 76.6265L80.0431 76.9743V77.2556L79.961 77.4705L79.9303 77.7058V77.8081L79.8944 78.0434L79.8277 78.1764V78.5242L79.7969 78.6572L79.7302 79.005L79.7149 79.138L79.679 79.2404V79.3733L79.6277 79.6087L79.6431 79.711L79.6123 79.8286V79.9309L79.5969 80.1457L79.5815 80.2634V80.3657L79.5661 80.4834L79.5507 80.6828L79.4994 80.8005L79.4481 80.9488L79.2789 80.9335L79.1302 80.9488L78.8788 80.9642L78.7455 80.9795L78.1556 81ZM81.1971 74.1558L81.3972 74.1046L81.4998 74.0381L81.669 73.9358L81.787 73.8693L81.9049 73.7363L81.9716 73.634L82.0896 73.5317L82.1717 73.3169L82.2024 73.1839L82.2178 73.0816L82.3358 72.8463V72.7133L82.3871 72.5803L82.4025 72.3143L82.3871 71.946L82.3358 71.5982L82.2537 71.4498L82.1358 71.3322L81.987 71.2503L81.6177 71.1992L81.2177 71.1838L81.0689 71.235L81.0176 71.4191L80.9663 71.5368L80.9356 71.8028L80.9202 72.0534L80.9048 72.2683L80.8689 72.4013L80.8176 72.6673V72.7849L80.7868 73.0356L80.7355 73.1839L80.7509 73.3322L80.715 73.4806L80.6637 73.7466L80.6483 73.8642L80.6637 73.9819L80.6483 74.1149L80.9304 74.1507H81.1971V74.1558Z" fill="black"/>
<path d="M84.9055 80.9847H84.7875L84.6388 80.8517L84.6696 80.601L84.6849 80.2532L84.8029 79.9053L84.8337 79.7877L84.8491 79.537L84.8798 79.4347L84.8952 79.1994V79.0818L84.9773 78.8465L84.9927 78.7288L84.9773 78.5958L85.0594 78.248V78.115L85.1106 77.9155L85.1619 77.6649L85.1927 77.5472L85.2081 77.4296L85.2389 77.2147L85.2748 77.1124L85.2902 76.8771L85.3722 76.7083L85.3414 76.5395L85.3568 76.4218L85.3927 76.3042L85.4748 76.0689L85.5415 75.8182L85.5723 75.7006L85.5415 75.5829L85.6235 75.3835L85.6594 75.2811V75.0458L85.7107 74.877V74.7287L85.7415 74.6111L85.8082 74.5087V74.3911L85.839 74.2888L85.8903 74.0381L85.8749 73.9205L85.9569 73.7363V73.5675L85.9877 73.4857V73.3527L86.0031 73.235L86.039 73.1174L86.1211 72.8514L86.1364 72.7491V72.6468L86.1518 72.5291V72.4268L86.2031 72.212L86.239 72.0943L86.2698 71.8437L86.2852 71.5777H85.3825L85.1465 71.5624L85.0286 71.5777H84.8798L84.7106 71.5624H84.5772L84.4285 71.5112L84.3772 71.3629L84.4131 71.1634L84.4644 71.0304V70.8974L84.449 70.7797L84.5157 70.5444L84.5465 70.4421L84.5618 70.2068L84.6285 69.992L84.6798 69.8897V69.6544L84.6952 69.5521L84.7773 69.3679L84.926 69.2503L85.044 69.2349H85.4799L85.562 69.2503H85.68L85.7979 69.2349H87.034L87.152 69.2503H87.5213L88.5881 69.2349L88.8394 69.2503L89.1882 69.2349L89.3369 69.2503H90.373L90.6089 69.2656L90.7577 69.3014L90.7884 69.4344V69.5367L90.773 69.6544L90.7371 69.7874V69.905L90.7218 70.0073L90.6859 70.125V70.2273L90.6551 70.4268L90.6243 70.5444L90.6089 70.6467L90.5935 70.8462L90.5269 71.0611L90.4961 71.1787L90.4807 71.414L90.414 71.5624L90.2448 71.5777L90.096 71.5624H89.896L89.7472 71.5777H89.578L88.8753 71.5624L88.7266 71.5777L88.6958 71.6954L88.7112 71.7977L88.6599 71.9153V72.0176L88.6291 72.1199L88.5984 72.3348L88.583 72.4524L88.5163 72.7542L88.4496 72.8872L88.4855 72.9691L88.4035 73.2044L88.3368 73.4192V73.5215L88.3214 73.721L88.306 73.8233V73.941L88.2239 74.1404L88.1932 74.3911L88.1573 74.5087L88.106 74.744L88.0547 74.8464V74.964L88.0393 75.1788L87.988 75.3783L87.9213 75.496L87.9059 75.7313L87.87 75.8336V75.9359L87.8188 76.1712L87.7675 76.4218L87.7367 76.5702V76.739L87.7213 76.8413L87.6905 76.9436L87.6751 77.0613L87.6085 77.2607L87.5931 77.3784L87.5777 77.4807L87.5931 77.5984L87.5418 77.8337L87.4905 78.0996L87.4238 78.3145L87.4084 78.4321L87.3571 78.647L87.2751 78.9948L87.2392 79.1278L87.1879 79.3631L87.2033 79.4961L87.1212 79.8644L87.0186 80.3299L86.9879 80.5652L86.9366 80.8005L86.9058 80.9028L86.7058 80.9847H85.2543L85.0542 81.0358L84.9055 80.9847Z" fill="black"/>
<path d="M91.6296 81.1688L91.5117 81.1535H91.3424L91.1578 81.1228L90.9885 81.087L90.8706 81.0512L90.6038 80.9335L90.4192 80.867L90.2499 80.7494L90.0499 80.6164L89.8807 80.4015L89.7114 80.202L89.5627 79.9667L89.4447 79.6854L89.4139 79.5524L89.296 79.2506L89.2806 79.1483L89.2293 78.913L89.2139 78.8107L89.178 78.5447V78.0434L89.1934 77.7621L89.178 77.6444L89.2139 77.3938L89.2293 77.2608L89.2652 77.1431L89.3165 76.8771L89.5524 76.7595L89.9525 76.7237L90.1525 76.739H91.086L91.3014 76.7544L91.4347 76.9897V77.6086L91.4194 77.7263V78.0741L91.4553 78.4424L91.5066 78.6112L91.6245 78.8618L91.7938 79.0306L92.0092 79.0818H92.1579L92.2913 79.046L92.4759 78.9948L92.558 78.913L92.6401 78.7647L92.7067 78.647L92.7734 78.4475L92.8042 78.248L92.8196 78.0792V77.9616L92.8042 77.7263V77.4603L92.7375 77.1585V77.0562L92.6862 76.8055L92.5529 76.5702L92.4195 76.3707L92.3015 76.1354L92.2349 76.0331L92.2041 75.9513L92.1528 75.8694L92.0348 75.7518L91.9528 75.6188L91.7681 75.4039L91.6861 75.3221L91.6194 75.2198L91.4347 75.0049L91.2347 74.7901L91.086 74.5753L90.9167 74.3911L90.7475 74.2581L90.6654 74.1405L90.5628 73.9717L90.4602 73.721L90.3936 73.5727L90.3115 73.455L90.2602 73.3374L90.2294 73.2044L90.1627 72.9895L90.1474 72.7747L90.132 72.6417L90.1474 72.524V72.0432L90.1833 71.7107L90.2346 71.5931L90.2499 71.3578L90.3166 71.2401L90.3679 71.0713L90.3833 70.9025L90.4859 70.6877L90.5526 70.5547L90.6038 70.437L90.6551 70.3552L90.7885 70.2068L90.8398 70.1403L90.9424 69.9715L91.0449 69.8692L91.245 69.7004L91.5476 69.4856L91.8143 69.3833L91.9989 69.281L92.3169 69.2145L92.599 69.1326H93.1171L93.5325 69.148H93.6505L93.7992 69.1838L94.0505 69.1991L94.3326 69.281L94.4506 69.2963L94.5173 69.3475L94.7173 69.4498L94.8353 69.5521L94.9686 69.6032L95.1533 69.772L95.2046 69.8385L95.3738 70.0227L95.4251 70.1045L95.5431 70.2887L95.6098 70.391L95.6457 70.5751L95.6969 70.6928L95.7995 71.0918V71.4601L95.8149 71.7926L95.7995 72.0739L95.7328 72.5394L95.6662 72.9077L95.4661 73.01L95.1635 73.0253H94.2301L93.9941 73.01H93.7582L93.6248 72.8923L93.6094 72.6775L93.6402 72.5445L93.6915 72.0279V71.6442L93.6607 71.4447L93.6094 71.3424L93.4607 71.1941L93.2914 71.0611L93.076 71.0304L92.876 71.0969L92.6913 71.1787L92.6093 71.2964L92.558 71.414L92.4913 71.5828L92.4759 71.7005L92.4246 71.8693L92.4093 72.1046V72.3194L92.4246 72.4371L92.5426 72.7542L92.676 72.9895L92.7426 73.1225L92.8606 73.3374L93.0453 73.5727L93.2607 73.8387L93.3273 73.941L93.4094 74.0228L93.4761 74.1558L93.5428 74.2377L93.6453 74.3041L93.8146 74.4372L93.8659 74.5395L93.948 74.5906L93.9992 74.6724L94.148 74.8413L94.2301 74.9896L94.4301 75.1891L94.548 75.4704L94.6968 75.6546L94.7122 75.7364L94.8455 76.0689L94.9481 76.2838L95.0507 76.6316L95.0661 76.7492L95.0815 76.8822L95.0969 76.9999L95.1789 77.2812L95.2148 77.3835L95.1994 77.6188L95.184 77.7211L95.1994 77.8388L95.184 77.9564V78.4219L95.1328 78.6572L95.1174 78.7595V79.0102L95.0507 79.225L95.0199 79.358L94.984 79.5064L94.9019 79.7417L94.7532 80.023L94.6506 80.0895L94.5686 80.2583L94.4865 80.3248L94.3531 80.4732L94.2711 80.5396L94.1377 80.6573L93.9685 80.7596L93.8197 80.8773L93.6197 80.9284L93.5171 80.9949L93.2658 81.0767L93.1324 81.0921L92.917 81.1586L92.7991 81.1739L92.6503 81.1586L92.5324 81.1739H92.3477L92.2297 81.1893L92.0451 81.2046L91.6296 81.1688Z" fill="black"/>
<path d="M102.406 81.0511H101.221L101.139 80.9846L101.088 80.8005L101.072 80.5652L101.088 80.4629L101.052 80.2276L101.021 79.9616L100.97 79.8286L100.985 79.6138L101 79.5114L100.985 79.2761L100.97 79.1585V78.826L100.918 78.7084L100.949 78.606L100.934 78.4884L100.949 78.2531L100.898 78.0536L100.934 77.8694L100.964 77.6188L100.934 77.404L100.898 77.2556L100.867 76.9538V76.8362L100.934 76.4218L100.918 76.1405L100.903 75.8387L100.918 75.5369L100.882 75.2351H100.8L100.698 75.4039L100.662 75.5216L100.595 75.6239L100.513 75.9257L100.395 76.207L100.293 76.4218L99.8925 77.3886L99.8259 77.5063L99.5232 78.1713L99.5078 78.2889L99.4053 78.4884L99.3899 78.5907L99.3386 78.7749L99.236 78.9897L99.1334 79.1892L99.1027 79.2915L99.0514 79.491L99.0001 79.6086L98.9334 79.7109L98.8821 79.9462L98.8308 80.0639L98.7641 80.2327L98.7129 80.381L98.677 80.5652L98.559 80.7493L98.5077 80.8516L98.4769 80.9335L98.241 81.0153H98.1384L97.9897 80.9642L97.9076 80.9949L97.5229 80.9795L97.3229 81.0307L97.1536 80.9642L97.0511 80.9795H96.8818L96.7638 80.9949H96.5946L96.4766 80.9795L96.374 80.8312L96.3894 80.6982L96.3535 80.5805L96.3689 80.4117V80.2634L96.3535 80.1457L96.3689 79.9462L96.3535 79.8439L96.3689 79.7263L96.3535 79.5779L96.3689 79.4603L96.3843 79.2761V79.1073L96.3997 79.005L96.4151 78.7697L96.3997 78.6521L96.4151 78.5344L96.3997 78.2991V77.9666L96.4151 77.8643L96.4304 77.629V76.7134L96.4458 76.4781V76.3451L96.4766 76.0433L96.4458 75.8285L96.4612 75.6801L96.4971 75.4653V75.3476L96.5279 75.2146L96.5125 75.097V74.8156L96.5279 74.698L96.5433 74.4985L96.5279 74.3809L96.5433 74.166L96.5279 74.0637L96.5433 73.8284L96.5279 73.6954L96.5587 73.5778L96.5433 73.3271L96.5279 73.2095L96.5433 72.7286L96.5587 72.4933L96.5433 72.2785L96.5741 71.9613L96.5895 71.8437L96.6048 71.6749V71.4754L96.6202 71.2247L96.6048 70.8769V70.7593L96.6356 70.4268V70.3245L96.651 70.2068L96.6356 70.0073V69.8897L96.651 69.7874V69.639L96.6818 69.4037L96.8818 69.3526H97.3178L97.5024 69.3372L97.6717 69.3526H97.7537L97.8871 69.3372H98.2205L98.4359 69.373L98.6205 69.3577H98.7385L98.9231 69.46L98.9539 69.7413V69.8897L98.9693 70.0073L98.9026 70.524V70.6263L98.918 70.7439L98.9026 71.3629L98.8719 71.4652L98.8565 71.8488V72.1506L98.8411 72.2683L98.7898 72.5036V72.7184L98.8206 72.9537L98.8052 73.0714L98.7898 73.1737L98.7744 73.409L98.759 73.5266V73.6289L98.7282 73.7466V73.8489L98.7129 73.9665L98.7282 74.0688L98.7129 74.4371L98.6821 74.6724L98.6975 74.7901L98.6821 74.9231V75.1584L98.6462 75.3732L98.6616 75.542H98.7282L98.8308 75.3579L98.8821 75.2556L98.9847 75.0407L99.0155 74.9231L99.118 74.7082L99.1693 74.5087L99.2873 74.2939L99.3027 74.1916L99.5386 73.7926L99.5694 73.5931L99.6874 73.2913L99.7181 73.1737L99.8669 72.8719L99.9336 72.6724L99.9848 72.5905L100.067 72.391L100.118 72.2887L100.169 72.1046L100.272 71.8693L100.441 71.4549L100.472 71.3373L100.59 71.0048L100.693 70.7899L100.729 70.657L100.831 70.3551L100.882 70.2528L101 70.038L101.17 69.9562H101.703L101.903 69.9715L102.072 69.9562H102.206L102.324 69.9715H102.442L102.524 70.0892L102.539 70.5035V71.0048L102.554 71.2708L102.539 71.6186V71.7209L102.554 71.9562L102.539 72.0585L102.554 72.6724V72.79L102.519 73.0049L102.534 73.189V73.5215L102.549 73.6545L102.513 73.7568L102.529 73.8898L102.513 74.0074L102.498 74.1404L102.529 74.4729L102.513 75.0714L102.549 75.3067V75.5881H102.631L102.683 75.4039L102.765 75.2044L102.831 74.9896L102.965 74.5241L102.98 74.4064L103.016 74.3041L103.165 73.9205L103.216 73.721L103.267 73.6187L103.298 73.501L103.334 73.3987L103.385 73.2811L103.437 73.1788L103.503 72.9639L103.534 72.8309L103.601 72.6314L103.616 72.5138L103.647 72.4115L103.678 72.2938L103.796 72.0943L103.811 71.9767L103.862 71.7772L103.944 71.3424L104.062 71.1276L104.129 70.9127L104.18 70.7286L104.262 70.5444L104.345 70.3091L104.396 70.2068L104.427 70.0892L104.478 69.9715L104.493 69.8539L104.524 69.7516L104.627 69.5367L104.678 69.4549L104.878 69.373H104.996L105.114 69.3372L105.632 69.3526H105.965L106.314 69.3372L106.55 69.3526L106.668 69.3372L106.786 69.3526H106.955L107.058 69.4549L107.027 69.7362L106.991 69.8385L106.924 70.0227L106.873 70.125L106.704 70.524L106.637 70.7234L106.586 70.9588L106.519 71.1736L106.468 71.2912L106.453 71.3936L106.319 71.6084L106.288 71.726L106.17 72.0432L106.135 72.1608L106.052 72.3603L106.037 72.478L105.904 72.7798L105.868 72.9281L105.837 73.01L105.734 73.2248L105.704 73.3271L105.622 73.5931L105.555 73.6954L105.473 73.9103L105.422 74.0279L105.386 74.1455L105.334 74.3809L105.304 74.4832L105.237 74.6008L105.17 74.785L105.052 74.9845L104.97 75.2198L104.919 75.4039L104.801 75.5522L104.77 75.6545L104.755 75.7569L104.652 76.1558L104.57 76.3707L104.519 76.473L104.452 76.6725L104.319 76.9385L104.268 77.1738L104.134 77.4091L104.083 77.6444L104.016 77.762L104.001 77.8797L103.867 78.2275L103.832 78.3298L103.75 78.5651L103.719 78.6674L103.652 78.7851L103.621 78.9999L103.585 79.1176L103.483 79.3171L103.416 79.5319L103.365 79.6649L103.283 79.9002L103.267 80.0025L103.216 80.2174L102.98 80.6163L102.862 81.0307L102.611 81.0818L102.406 81.0511Z" fill="black"/>
<path d="M106.714 81.0511H106.232L105.996 81.0204H105.863L105.745 81.0358L105.56 81.0204L105.442 81.0051L105.309 81.0204L105.175 80.9846L105.042 80.867L105.027 80.6163L105.109 80.381L105.124 80.1304L105.155 80.0127L105.191 79.7774L105.206 79.6444L105.257 79.3938L105.273 79.2761L105.304 79.1432L105.319 79.0255L105.386 78.8107L105.37 78.7084L105.422 78.4066L105.473 78.2224L105.509 78.0741L105.56 77.9257L105.591 77.7774L105.622 77.5779V77.4602L105.657 77.3426L105.673 77.2403L105.709 77.1226L105.693 77.005L105.811 76.6367L105.842 76.386V76.2837L105.878 76.1661L105.893 76.0484L105.909 75.9461L105.94 75.7108V75.4755L106.006 75.2402V75.1226L106.042 74.8873L106.109 74.7543V74.5394L106.145 74.3399L106.196 74.1251L106.278 73.8898L106.329 73.542V73.3067L106.381 73.189L106.417 72.9537L106.432 72.8514L106.417 72.7337L106.483 72.5343L106.499 72.432L106.55 72.2171L106.565 72.0995L106.632 71.8846L106.617 71.767L106.632 71.634L106.647 71.4191L106.683 71.3373L106.714 71.102L106.765 70.8871L106.781 70.7848L106.812 70.6825L106.827 70.483L106.858 70.2989L106.924 70.1147L106.955 69.8641L106.991 69.7618L107.006 69.6441L107.124 69.4753L107.242 69.4242L107.345 69.3577L107.463 69.3423L107.714 69.327L107.863 69.3423H108.099L108.217 69.327H109.104L109.222 69.3116L109.407 69.3628L109.473 69.5316L109.458 69.6339V69.8487L109.422 69.8999L109.407 70.084L109.422 70.1864L109.371 70.2528V70.4012L109.32 70.483L109.289 70.7183L109.222 70.8667V70.9997L109.207 71.102V71.2196L109.191 71.3219L109.109 71.7567L109.079 71.9409L109.048 72.0432L109.012 72.2427L108.996 72.3603L108.981 72.5598L108.966 72.6775L108.935 72.8923L108.884 73.0918L108.832 73.3067L108.817 73.3885L108.766 73.6238L108.714 73.7721V73.9205L108.699 74.0381L108.684 74.1711V74.2888L108.653 74.5036L108.602 74.6724L108.519 75.1737L108.453 75.409L108.401 75.5267V75.6597L108.35 75.8745L108.314 76.0893L108.284 76.2888L108.217 76.5241V76.6571L108.15 76.8924V77.0254L108.119 77.2607L108.104 77.3426V77.5779L108.022 77.7467L108.037 77.9308L107.986 78.1815L107.971 78.3145L107.904 78.5293V78.6623L107.853 78.8976L107.822 79.1329L107.786 79.3478V79.4654L107.735 79.6496L107.668 80.0486L107.617 80.2634L107.586 80.4987L107.535 80.7135L107.519 80.8465L107.468 80.9949L107.283 81.046H106.847L106.714 81.0511Z" fill="black"/>
<path d="M109.776 81.0358H109.658L109.509 80.9028L109.54 80.6522L109.556 80.3043L109.674 79.9565L109.704 79.8388L109.72 79.5882L109.75 79.4859L109.766 79.2506V79.1329L109.848 78.8976L109.863 78.78L109.848 78.647L109.93 78.2992V78.1662L109.981 77.9667L110.033 77.716L110.063 77.5984L110.079 77.4807L110.109 77.2659L110.145 77.1636L110.161 76.9283L110.243 76.7595L110.212 76.5907L110.227 76.473L110.263 76.3554L110.345 76.1201L110.412 75.8694L110.443 75.7518L110.412 75.6341L110.494 75.4346L110.53 75.3323V75.097L110.581 74.9282V74.7799L110.612 74.6622L110.679 74.5599V74.4422L110.71 74.3399L110.761 74.0893L110.745 73.9716L110.828 73.7875V73.6187L110.858 73.5368V73.4039L110.874 73.2862L110.91 73.1685L110.992 72.9026L111.007 72.8003V72.6979L111.022 72.5803V72.478L111.074 72.2632L111.11 72.1455L111.14 71.8949L111.156 71.6289H110.253L110.017 71.6135L109.899 71.6289H109.75L109.581 71.6135H109.448L109.299 71.5624L109.248 71.414L109.284 71.2145L109.335 71.0815V70.9485L109.32 70.8309L109.386 70.5956L109.417 70.4933L109.432 70.258L109.499 70.0431L109.55 69.9408V69.7055L109.566 69.6032L109.648 69.4191L109.622 69.3168L109.915 69.2861H110.351L110.433 69.3014H110.551L110.669 69.2861H111.905L112.023 69.3014H112.392L113.459 69.2861L113.71 69.3014L114.059 69.2861L114.208 69.3014H115.244L115.48 69.3168L115.628 69.3526L115.659 69.4856V69.5879L115.644 69.7055L115.608 69.8385V69.9562L115.592 70.0585L115.556 70.1761V70.2784L115.526 70.4779L115.495 70.5956L115.48 70.6979L115.464 70.8974L115.397 71.1122L115.367 71.2299L115.351 71.4652L115.285 71.6135L115.115 71.6289L114.967 71.6135H114.767L114.618 71.6289H114.449L113.746 71.6135L113.597 71.6289L113.566 71.7465L113.582 71.8488L113.531 71.9665V72.0688L113.5 72.1711L113.469 72.3859L113.454 72.5036L113.387 72.8054L113.32 72.9384L113.356 73.0202L113.274 73.2555L113.207 73.4704V73.5727L113.192 73.7722L113.177 73.8745V73.9921L113.095 74.1916L113.064 74.4422L113.028 74.5599L112.977 74.7952L112.925 74.8975V75.0152L112.91 75.23L112.859 75.4295L112.792 75.5471L112.777 75.7824L112.741 75.8848V75.9871L112.689 76.2224L112.638 76.473L112.607 76.6213V76.7901L112.592 76.8925L112.561 76.9948L112.546 77.1124L112.479 77.3119L112.464 77.4296L112.448 77.5319L112.464 77.6495L112.412 77.8848L112.361 78.1508L112.294 78.3656L112.279 78.4833L112.228 78.6981L112.146 79.046L112.11 79.179L112.058 79.4143L112.074 79.5473L111.992 79.9156L111.889 80.3811L111.858 80.6164L111.807 80.8517L111.776 80.954L111.576 81.0358H110.125L109.925 81.087L109.776 81.0358Z" fill="black"/>
<path d="M118.87 81.0358H118.418L118.234 81.0205H118.116L117.998 81.0051L117.895 80.8568L117.911 80.7238L117.926 80.5754L117.957 80.4271L118.023 80.3094V80.0741L118.09 79.7263L118.105 79.6087V79.491L118.121 79.3733L118.136 79.1585L118.167 79.0767L118.182 78.8414L118.234 78.5907L118.264 78.2736L118.367 77.7723L118.434 77.5881L118.464 77.4193V77.2198L118.516 76.9845L118.552 76.8669L118.582 76.6316V76.5139L118.618 76.3144L118.47 76.3298H118.352L118.203 76.294L117.669 76.3451L117.418 76.294L117.136 76.2786L117.121 76.3605L117.105 76.4935L117.039 76.7288L117.008 76.9436L116.941 77.0613V77.3426L116.91 77.4602L116.828 77.8439L116.726 78.2122L116.741 78.3145L116.659 78.514L116.644 78.5958L116.577 78.8107L116.546 79.0613L116.444 79.5268L116.428 79.6598L116.377 79.8951V80.0128L116.341 80.2481L116.31 80.3811L116.295 80.4987L116.264 80.7494L116.182 80.9182L116.049 80.9847L115.9 81L115.7 81.0153L115.449 81.046H115.315L115.197 80.9949L115.079 81.0102L114.961 81.0409L114.761 81.0102H114.228L113.895 80.9744L113.828 80.7903V80.6573L113.895 80.5089L113.977 80.2941L113.992 80.1253L114.023 79.977V79.8593L114.054 79.757L114.023 79.6393L114.125 79.4552L114.156 79.3375L114.141 79.2045L114.207 78.9692L114.192 78.7339L114.259 78.6163L114.325 78.4679L114.341 78.3503V78.2173L114.392 77.982L114.423 77.849L114.505 77.2659L114.536 77.1636L114.551 77.0613L114.582 76.9283L114.566 76.8106L114.633 76.5753L114.649 76.3605L114.7 76.1917L114.731 75.9922V75.8745L114.766 75.6239L114.818 75.5062L114.869 75.3732V75.2402L114.936 75.0049L115.018 74.5241L115.033 74.4218L115.064 74.1865L115.079 73.9512L115.182 73.7159L115.197 73.5982L115.213 73.3629L115.279 73.0151L115.31 72.8003L115.346 72.6673L115.397 72.3194L115.413 72.2376V72.0023L115.479 71.8693L115.495 71.7363L115.51 71.634L115.561 71.4191V71.0713L115.679 70.8565L115.664 70.6212L115.695 70.5035L115.71 70.3859L115.762 70.2682L115.746 70.1352L115.782 70.0176L115.833 69.8027L115.849 69.6032L115.864 69.4191L116.013 69.3372H116.428L117.11 69.3219L117.346 69.3372H117.716L117.885 69.2861L118.085 69.3219L118.254 69.3577L118.285 69.506V69.6083L118.3 69.726L118.249 69.9255L118.234 70.0278L118.218 70.2631L118.167 70.4114L118.152 70.5598L118.085 70.8769L118.049 71.1122L118.034 71.3117L117.982 71.4294V71.6954L117.952 71.813L117.921 71.946L117.905 72.1608L117.875 72.2427L117.859 72.4422V72.5445L117.828 72.6263L117.793 72.7593L117.777 72.877L117.726 72.9793L117.741 73.0969L117.69 73.3118L117.659 73.4294L117.675 73.5317L117.644 73.6647L117.628 73.767L117.598 73.9L117.716 73.9154H117.849L118.331 73.9307L118.464 73.9154L118.665 73.9307L118.798 73.9154L119.147 73.9307L119.162 73.8489L119.193 73.6647L119.259 73.5164V73.3987L119.275 73.2811L119.357 73.0304L119.326 72.9281L119.408 72.7133L119.424 72.611L119.439 72.4933L119.454 72.3603L119.47 72.2427L119.501 72.1404V72.0227L119.552 71.8079L119.567 71.5931L119.634 71.4447V71.2452L119.619 71.1122L119.634 70.9946L119.701 70.7593V70.6263L119.752 70.4114L119.788 70.3091L119.819 70.0943L119.834 69.992L119.901 69.8436L119.931 69.726L119.916 69.6083L119.931 69.506L120.065 69.3577L120.167 69.3423L120.316 69.327H120.916L121.25 69.3423H121.716L121.983 69.3782L122.101 69.4293L122.219 69.5776L122.204 69.6799L122.219 69.7976L122.152 69.8999L122.168 69.9664L122.152 70.0687V70.1864L122.086 70.3859L122.07 70.6212V70.7542L122.055 70.8718L122.024 70.9895L121.993 71.1224L121.978 71.3373V71.4549L121.942 71.6698L121.927 71.7874L121.875 72.0023L121.86 72.1199L121.829 72.2376L121.814 72.3706L121.783 72.5854L121.768 72.6877L121.685 72.8872L121.67 72.9895L121.634 73.2044L121.603 73.4704L121.588 73.721L121.506 73.9563L121.491 74.2069L121.475 74.3093L121.424 74.5445L121.409 74.6622L121.342 74.7645V74.8975L121.373 75.0152L121.321 75.1175L121.306 75.2351V75.45L121.291 75.5676L121.209 75.7824L121.193 75.9001L121.126 76.2019V76.3042L121.096 76.4883L121.044 76.7237L121.008 76.8413L121.024 76.9436L120.921 77.2914L120.937 77.3937L120.901 77.5114L120.87 77.6137L120.855 77.7314L120.803 77.9667V78.0996L120.788 78.2173L120.737 78.4526L120.685 78.6368L120.655 78.7391L120.639 78.9744L120.624 79.2404L120.573 79.4757L120.557 79.5933L120.521 79.8081L120.49 79.9258L120.475 80.1099L120.444 80.3094L120.393 80.3913L120.378 80.5243L120.347 80.6419V80.7749L120.311 80.8926L120.244 80.9949L120.044 81.046H119.793L119.69 81.0614L119.475 81.0767H119.142L119.008 81.0921L118.87 81.0358Z" fill="black"/>
<path d="M121.721 80.9693L121.655 80.867L121.639 80.7493L121.624 80.647L121.639 80.5447L121.706 80.3759L121.757 80.2071L121.773 80.0895L121.788 79.9872L121.855 79.7723V79.5217L121.922 79.3068V79.1892L121.937 79.0869L121.968 78.872L121.998 78.7237V78.5242L122.081 78.2889L122.111 78.1866L122.163 78.0689L122.147 77.9666L122.198 77.7518L122.25 77.6342V77.5319L122.265 77.4295L122.301 77.1942L122.332 77.0919V76.8566L122.347 76.7543L122.363 76.6367V76.5344L122.429 76.2991V76.1814L122.511 75.9461L122.578 75.4448L122.645 75.2095V75.1277L122.747 74.6622L122.783 74.4473L122.814 74.2479L122.896 74.033L122.911 73.9V73.6647L122.993 73.4499V73.3322L123.024 73.1327L123.076 72.7849L123.06 72.6519L123.111 72.5189L123.178 72.2836L123.214 72.1506L123.178 72.033L123.214 71.9L123.229 71.6851L123.265 71.501L123.332 71.3987V71.281L123.347 71.1634V71.0611L123.414 70.9434L123.429 70.6774L123.481 70.4114L123.547 70.2119L123.563 70.0124V69.8948L123.594 69.7925L123.676 69.46L123.727 69.3577L123.994 69.3219H124.394L125.014 69.3372H125.666L125.999 69.3526L126.05 69.5521L126.035 69.6697V69.7874L125.932 70.1863V70.304L125.896 70.4063L125.845 70.7541L125.814 70.9383L125.784 71.1071L125.65 71.6902L125.599 71.9255V72.0585L125.532 72.2938L125.502 72.5291L125.435 72.6468L125.466 72.7798L125.435 72.9128L125.419 73.0304L125.389 73.1481L125.337 73.3834L125.286 73.5982L125.219 73.7159L125.235 73.8489L125.199 73.9665V74.0995L125.148 74.4473L125.117 74.565V74.8003L125.086 74.918L125.035 75.1686L125.019 75.2862L124.953 75.5522L124.937 75.8029L124.886 76.0382L124.871 76.1712L124.855 76.2888L124.789 76.5548V76.6725L124.758 76.8055L124.742 77.0408L124.676 77.2556L124.66 77.4705L124.624 77.6188V77.7876L124.609 77.9053L124.594 78.0076L124.563 78.1252L124.548 78.3094L124.517 78.4782V78.647L124.599 78.7288H124.768L124.917 78.7442H125.784L126.153 78.7288H126.589L126.691 78.78L126.676 79.0306L126.645 79.1483L126.661 79.2659L126.609 79.3989L126.527 79.9821L126.476 80.0997V80.2174L126.461 80.3197L126.43 80.5703L126.363 80.8363L126.23 80.954H125.912L125.696 80.9846L125.327 81.0358L125.025 81.0205L124.773 81.0358L124.537 81.0051L124.204 81.0205H122.834L122.665 81.0358H122.198L122.081 81.0205L121.865 81.0358L121.721 80.9693Z" fill="black"/>
<path d="M129.143 81.2506L128.928 81.266L128.81 81.2506L128.661 81.2353L128.276 81.1176L128.143 81.1023L127.892 81.0358L127.774 80.9693L127.538 80.821L127.235 80.5703L126.999 80.3043L126.948 80.2225L126.866 80.1406L126.815 80.0383L126.733 79.9207L126.599 79.7058V79.6035L126.548 79.4859L126.533 79.3836L126.502 79.3017L126.466 79.1994L126.45 79.0818L126.415 78.9795L126.399 78.7442L126.384 78.6419L126.333 78.3094L126.363 78.1917V77.8746L126.415 77.7058L126.399 77.5728V77.4551L126.43 77.0868L126.497 76.8515V76.7185L126.527 76.4832V76.3656L126.594 76.1303L126.563 76.0484L126.594 75.8336L126.625 75.7159L126.676 75.4141L126.727 75.2146V74.9998L126.779 74.8003V74.6827L126.83 74.5804L126.861 74.4627V74.3604L126.892 74.2428L126.876 74.1405L126.979 73.9716L127.01 73.854V73.6187L127.045 73.4192L127.097 73.3015L127.112 73.1992L127.148 72.9639L127.215 72.5496L127.297 72.432L127.328 72.2171L127.43 72.0023L127.481 71.8846L127.548 71.6851L127.63 71.4498L127.733 71.2503L127.799 71.1327L127.948 70.9178L127.964 70.8002L128.03 70.6979L128.164 70.483L128.297 70.2835L128.415 70.2017L128.497 70.0994L128.733 69.8488L128.948 69.7004L129.082 69.6493L129.2 69.5674L129.4 69.4498L129.6 69.3475L129.851 69.281L129.954 69.2656L130.205 69.1991L130.374 69.1838L130.677 69.1326L130.913 69.1173L131.113 69.1019L131.415 69.1173L131.518 69.1326L131.703 69.148L131.969 69.1787L132.103 69.2298L132.236 69.2452L132.339 69.2758L132.59 69.3935L132.893 69.593L133.026 69.6748L133.108 69.7771L133.293 69.9255L133.477 70.0943L133.559 70.1966L133.611 70.3142L133.713 70.5291L133.764 70.6314L133.8 70.7337L133.831 70.8513L133.882 71.102L133.913 71.4191L133.929 71.5521V71.6698L133.913 71.8846L133.898 71.9869L133.913 72.2018V72.3194L133.898 72.5343L133.862 72.6519L133.847 72.7542L133.862 72.8719V73.0407L133.847 73.143L133.811 73.3783L133.795 73.6289L133.78 73.8949L133.749 74.0126L133.713 74.2786L133.729 74.4474L133.646 74.6315L133.662 74.831L133.595 75.0459L133.564 75.2607L133.513 75.4755L133.498 75.675L133.446 75.8899L133.395 75.9922L133.344 76.294V76.4423L133.313 76.56L133.277 76.7953L133.226 76.8976L133.057 77.4807L133.072 77.583L132.99 77.7825L132.939 77.8848L132.923 78.069L132.841 78.2531L132.79 78.4526V78.5703L132.739 78.7544L132.657 78.8721L132.641 79.0409L132.523 79.2762L132.39 79.578L132.308 79.6956L132.159 79.9104L132.092 80.0128L132.01 80.1151L131.98 80.2174L131.78 80.4169L131.677 80.4987L131.595 80.601L131.395 80.7493L131.195 80.8823L131.128 80.9335L130.743 81.0818L130.625 81.0972L130.492 81.133L130.256 81.1841L130.138 81.1995L129.954 81.2506L129.584 81.3018L129.143 81.2506ZM129.661 79.0357L129.897 78.9692L130.046 78.9027L130.282 78.7339L130.4 78.4986L130.502 78.2633L130.538 78.1457V78.0127L130.59 77.762L130.62 77.6444L130.651 77.4091L130.702 77.2761L130.718 77.0408L130.769 76.9231L130.82 76.7083L130.836 76.5753L130.887 76.473V76.34L130.872 76.2889L130.923 76.1405L130.974 75.8899L131.01 75.5062L131.061 75.3579L131.113 75.2249L131.144 74.9077L131.195 74.8054L131.179 74.5241L131.246 74.2734L131.282 74.0739L131.313 73.941L131.349 73.8233L131.333 73.7057L131.349 73.4908L131.379 73.3578L131.431 73.1225L131.462 72.9742V72.7593L131.497 72.4575L131.513 72.2427L131.549 72.0074L131.482 71.6749L131.415 71.5726L131.297 71.4243L131.031 71.3066L130.713 71.3219L130.579 71.3578L130.313 71.4601L130.143 71.6084L130.025 71.7926L129.959 71.992L129.892 72.1097L129.789 72.3245L129.754 72.4422L129.723 72.5752L129.62 72.923V72.9588L129.605 73.0918L129.554 73.3271L129.538 73.4294L129.471 73.6647L129.42 73.9L129.369 74.166L129.353 74.2837L129.318 74.4013L129.287 74.652L129.236 74.785L129.169 75.051L129.138 75.1686L129.102 75.4039V75.5216L129.087 75.6392L129.102 75.7722L129.051 75.8899L128.969 76.1252L128.984 76.2582L128.948 76.3758L128.964 76.4423L128.933 76.5906V76.7237L128.897 76.8413V76.9743L128.846 77.2249V77.3426L128.794 77.4602L128.846 77.5779L128.83 77.7774L128.764 77.9462L128.815 78.0638V78.5293L128.866 78.647L128.897 78.7135L129 78.8618L129.082 78.9437L129.215 78.9948L129.348 79.0255L129.451 79.0409H129.661V79.0357Z" fill="black"/>
<path d="M135.365 81.0205C135.006 81.0051 134.652 81.0051 134.298 81.0205L134.098 80.9386L134.047 80.7545L134.016 80.5857C133.923 76.9282 133.903 73.322 133.949 69.6595L134 69.5265L134.052 69.46L134.252 69.3935L134.452 69.4088L134.57 69.3935L134.836 69.3781L135.036 69.3935H136.057L136.175 69.4088L136.293 69.4907L136.344 69.6083L136.329 69.8232C136.262 71.8488 136.206 73.8591 136.144 75.8847L136.129 76.0177L136.098 76.2172L136.113 76.4014V76.5855L136.098 76.7339L136.113 76.8157L136.165 76.8004L136.231 76.7339L136.283 76.6316C136.416 76.2684 136.555 75.9052 136.698 75.5471C137.416 73.6033 138.114 71.6851 138.822 69.7362L138.94 69.5214L139.124 69.4191L139.273 69.3884C139.909 69.4395 140.581 69.46 141.242 69.4549L141.412 69.506V69.6748C140.663 71.634 139.863 73.5829 139.022 75.5216C138.339 77.0971 137.647 78.6726 136.934 80.2532L136.867 80.3555L136.765 80.5396L136.698 80.6573L136.596 80.8414L136.544 80.9898L136.462 81.0409H136.329C136.006 81.0256 135.683 81.0205 135.365 81.0205C135.683 81.0205 135.006 81 135.365 81.0205C135.683 81.0205 135.006 81 135.365 81.0205Z" fill="black"/>
<path d="M140.981 81.0358C140.499 81.0256 140.032 81.0205 139.545 81.0205L139.396 80.9847L139.345 80.8363C140.032 77.0664 140.709 73.2964 141.366 69.5777L141.381 69.4753L141.514 69.373C142.986 69.3577 144.469 69.3526 145.941 69.3577L146.089 69.373L146.171 69.4907C146.1 70.1096 146.002 70.7235 145.869 71.3373L145.818 71.5521L145.648 71.5675H144.946L144.746 71.5828H143.658L143.258 71.5982L143.207 71.7977C143.14 72.3859 143.048 72.9946 142.94 73.5778L142.909 73.8796H143.212L143.797 73.8949L144.115 73.8591H144.551L144.684 73.8949L144.787 74.0279C144.694 74.652 144.581 75.276 144.453 75.895L144.422 76.1303L144.387 76.1661H144.217L143.966 76.1814H143.817L143.402 76.1968L143.12 76.1814H142.935L142.72 76.1968H142.571L142.504 76.3809L142.453 76.5958C142.34 77.1943 142.237 77.7927 142.135 78.3963V78.5293L142.202 78.5958L142.438 78.6316H143.422L143.658 78.647L144.028 78.6623L144.494 78.647L144.612 78.6981L144.597 78.8311L144.581 78.8976C144.479 79.5422 144.381 80.1713 144.279 80.8159L144.228 81H142.643C142.084 81.0205 141.53 81.0307 140.981 81.0358Z" fill="black"/>
</g>
<defs>
<clipPath id="clip0">
<rect width="165" height="81" fill="white"/>
</clipPath>
</defs>
</svg>
