<svg width="14" height="15" viewBox="0 0 14 15" fill="none" xmlns="http://www.w3.org/2000/svg">
<g clip-path="url(#clip0)">
<path d="M5.49981 10.7482C2.66428 10.7482 0.358398 8.45536 0.358398 5.63583C0.358398 2.81631 2.66428 0.523438 5.49981 0.523438C8.33533 0.523438 10.6412 2.81631 10.6412 5.63583C10.6412 8.45536 8.33533 10.7482 5.49981 10.7482ZM5.49981 2.12909C3.55563 2.12909 1.97316 3.70263 1.97316 5.63583C1.97316 7.56904 3.55563 9.14258 5.49981 9.14258C7.44398 9.14258 9.02645 7.56904 9.02645 5.63583C9.02645 3.70263 7.44398 2.12909 5.49981 2.12909Z" fill="black"/>
<path d="M8.66621 8.51845L7.52441 9.65381L12.409 14.5109L13.5508 13.3755L8.66621 8.51845Z" fill="black"/>
</g>
<defs>
<clipPath id="clip0">
<rect width="14" height="15" fill="white"/>
</clipPath>
</defs>
</svg>
