<svg width="36" height="36" viewBox="0 0 36 36" fill="none" xmlns="http://www.w3.org/2000/svg">
<rect x="1" y="1" width="34" height="34" rx="17" fill="#FAFAFA" stroke="black" stroke-width="2"/>
<g clip-path="url(#clip0)">
<path d="M17.5876 24.3011C13.7275 24.3011 10.5884 21.226 10.5884 17.4445C10.5884 13.663 13.7275 10.5879 17.5876 10.5879C21.4477 10.5879 24.5868 13.663 24.5868 17.4445C24.5868 21.226 21.4477 24.3011 17.5876 24.3011ZM17.5876 12.7414C14.9409 12.7414 12.7866 14.8517 12.7866 17.4445C12.7866 20.0373 14.9409 22.1477 17.5876 22.1477C20.2343 22.1477 22.3886 20.0373 22.3886 17.4445C22.3886 14.8517 20.2343 12.7414 17.5876 12.7414Z" fill="black"/>
<path d="M21.8981 21.3113L20.3438 22.834L25.7792 28.1587L27.3336 26.636L21.8981 21.3113Z" fill="black"/>
</g>
<defs>
<clipPath id="clip0">
<rect x="8.4707" y="8.4707" width="19.0588" height="20.1176" fill="white"/>
</clipPath>
</defs>
</svg>
