<svg width="85" height="28" viewBox="0 0 85 28" fill="none" xmlns="http://www.w3.org/2000/svg">
<rect x="1" y="1" width="83" height="26" rx="13" fill="#FAFAFA" stroke="black" stroke-width="2"/>
<path d="M33.746 18.14C32.2433 18.14 30.9087 17.6173 29.742 16.572L30.428 15.76C30.9507 16.236 31.4733 16.586 31.996 16.81C32.528 17.034 33.1253 17.146 33.788 17.146C34.4413 17.146 34.9687 16.992 35.37 16.684C35.7713 16.3667 35.972 15.956 35.972 15.452C35.972 14.976 35.7947 14.598 35.44 14.318C35.0853 14.038 34.4133 13.7953 33.424 13.59C32.2573 13.338 31.4173 12.9973 30.904 12.568C30.3907 12.1387 30.134 11.5273 30.134 10.734C30.134 9.95933 30.4373 9.32 31.044 8.816C31.6507 8.312 32.4207 8.06 33.354 8.06C34.6513 8.06 35.7993 8.46133 36.798 9.264L36.154 10.118C35.286 9.40867 34.3433 9.054 33.326 9.054C32.7007 9.054 32.1967 9.208 31.814 9.516C31.4313 9.81467 31.24 10.1973 31.24 10.664C31.24 11.1493 31.422 11.532 31.786 11.812C32.1593 12.092 32.864 12.344 33.9 12.568C35.0107 12.8107 35.818 13.1513 36.322 13.59C36.8353 14.0193 37.092 14.612 37.092 15.368C37.092 16.1987 36.7793 16.8707 36.154 17.384C35.5287 17.888 34.726 18.14 33.746 18.14ZM39.8031 14.822C39.8777 15.5593 40.1531 16.1473 40.6291 16.586C41.1144 17.0153 41.6884 17.23 42.3511 17.23C43.2191 17.23 43.9797 16.8893 44.6331 16.208L45.3051 16.81C44.4931 17.7153 43.4991 18.168 42.3231 18.168C41.3057 18.168 40.4471 17.818 39.7471 17.118C39.0564 16.4087 38.7111 15.4987 38.7111 14.388C38.7111 13.3333 39.0424 12.442 39.7051 11.714C40.3677 10.9767 41.1937 10.608 42.1831 10.608C43.2191 10.608 44.0404 10.972 44.6471 11.7C45.2537 12.428 45.5571 13.3427 45.5571 14.444C45.5571 14.584 45.5524 14.71 45.5431 14.822H39.8031ZM39.8031 13.954H44.4651C44.3997 13.254 44.1664 12.6753 43.7651 12.218C43.3731 11.7513 42.8364 11.518 42.1551 11.518C41.5391 11.518 41.0117 11.7467 40.5731 12.204C40.1344 12.6613 39.8777 13.2447 39.8031 13.954ZM49.6002 18.154C48.8629 18.154 48.2282 17.9533 47.6962 17.552C47.1642 17.1507 46.8982 16.5907 46.8982 15.872C46.8982 15.116 47.1782 14.5327 47.7382 14.122C48.2982 13.7113 49.0496 13.506 49.9922 13.506C50.7389 13.506 51.4762 13.6087 52.2042 13.814V13.59C52.2042 12.9553 52.0176 12.47 51.6442 12.134C51.2709 11.798 50.7436 11.63 50.0622 11.63C49.3529 11.63 48.6202 11.8027 47.8642 12.148L47.5422 11.266C48.4382 10.8553 49.3156 10.65 50.1742 10.65C51.2009 10.65 51.9802 10.916 52.5122 11.448C53.0162 11.952 53.2682 12.6613 53.2682 13.576V18H52.2042V16.922C51.5602 17.7433 50.6922 18.154 49.6002 18.154ZM49.8102 17.286C50.4822 17.286 51.0516 17.104 51.5182 16.74C51.9849 16.376 52.2182 15.9093 52.2182 15.34V14.668C51.5089 14.4627 50.8042 14.36 50.1042 14.36C49.4416 14.36 48.9236 14.4953 48.5502 14.766C48.1769 15.0273 47.9902 15.3867 47.9902 15.844C47.9902 16.2827 48.1629 16.6327 48.5082 16.894C48.8629 17.1553 49.2969 17.286 49.8102 17.286ZM55.5517 18V10.762H56.6297V12.652C56.9097 12.0267 57.3063 11.5273 57.8197 11.154C58.333 10.7807 58.921 10.608 59.5837 10.636V11.798H59.4997C58.669 11.798 57.983 12.0873 57.4417 12.666C56.9003 13.2447 56.6297 14.0613 56.6297 15.116V18H55.5517ZM64.173 18.168C63.1277 18.168 62.2457 17.7993 61.527 17.062C60.8177 16.3153 60.463 15.424 60.463 14.388C60.463 13.352 60.8177 12.4653 61.527 11.728C62.2457 10.9813 63.1277 10.608 64.173 10.608C65.293 10.608 66.259 11.0373 67.071 11.896L66.385 12.624C65.713 11.9147 64.971 11.56 64.159 11.56C63.431 11.56 62.815 11.8353 62.311 12.386C61.8164 12.9273 61.569 13.5947 61.569 14.388C61.569 15.172 61.821 15.8393 62.325 16.39C62.8384 16.9313 63.473 17.202 64.229 17.202C65.0037 17.202 65.7317 16.838 66.413 16.11L67.127 16.768C66.287 17.7013 65.3024 18.168 64.173 18.168ZM68.9091 18V7.78H69.9871V12.022C70.5564 11.0793 71.3824 10.608 72.4651 10.608C73.3237 10.608 74.0004 10.874 74.4951 11.406C74.9897 11.9287 75.2371 12.6287 75.2371 13.506V18H74.1591V13.772C74.1591 13.0907 73.9817 12.5587 73.6271 12.176C73.2817 11.784 72.7917 11.588 72.1571 11.588C71.5317 11.588 71.0137 11.798 70.6031 12.218C70.1924 12.638 69.9871 13.184 69.9871 13.856V18H68.9091Z" fill="#9D998E"/>
<g clip-path="url(#clip0)">
<path d="M13.4998 16.7482C10.6643 16.7482 8.3584 14.4554 8.3584 11.6358C8.3584 8.81631 10.6643 6.52344 13.4998 6.52344C16.3353 6.52344 18.6412 8.81631 18.6412 11.6358C18.6412 14.4554 16.3353 16.7482 13.4998 16.7482ZM13.4998 8.12909C11.5556 8.12909 9.97316 9.70263 9.97316 11.6358C9.97316 13.569 11.5556 15.1426 13.4998 15.1426C15.444 15.1426 17.0264 13.569 17.0264 11.6358C17.0264 9.70263 15.444 8.12909 13.4998 8.12909Z" fill="black"/>
<path d="M16.6662 14.5185L15.5244 15.6539L20.409 20.5109L21.5508 19.3756L16.6662 14.5185Z" fill="black"/>
</g>
<defs>
<clipPath id="clip0">
<rect x="8" y="6" width="14" height="15" fill="white"/>
</clipPath>
</defs>
</svg>
