<svg width="10" height="13" viewBox="0 0 10 13" fill="none" xmlns="http://www.w3.org/2000/svg">
<path d="M0.274578 13V10.804L4.46858 7.366C5.29658 6.682 5.86658 6.136 6.17858 5.728C6.49058 5.308 6.64658 4.846 6.64658 4.342C6.64658 3.826 6.49058 3.424 6.17858 3.136C5.86658 2.848 5.45858 2.704 4.95458 2.704C4.48658 2.704 4.06058 2.836 3.67658 3.1C3.30458 3.352 2.87258 3.784 2.38058 4.396L0.436578 2.83C1.09658 1.93 1.77458 1.27 2.47058 0.85C3.17858 0.429999 4.06658 0.219999 5.13458 0.219999C6.44258 0.219999 7.49258 0.579999 8.28458 1.3C9.07658 2.008 9.47258 2.956 9.47258 4.144C9.47258 4.828 9.34058 5.446 9.07658 5.998C8.81258 6.538 8.47058 7.018 8.05058 7.438C7.63058 7.846 7.00058 8.374 6.16058 9.022L4.10858 10.606H9.59858V13H0.274578Z" fill="white"/>
</svg>
