<svg width="26" height="26" viewBox="0 0 26 26" fill="none" xmlns="http://www.w3.org/2000/svg">
<path d="M21.9 15.0002C22 15.0002 22 15.0002 22 14.9002L22.1 14.7002L20.8 14.9002C20.8 15.0002 20.9 15.0002 20.9 15.0002H21.9Z" fill="white"/>
<g clip-path="url(#clip0)">
<path d="M13.0025 26.005C20.1836 26.005 26.005 20.1836 26.005 13.0025C26.005 5.82141 20.1836 0 13.0025 0C5.82141 0 0 5.82141 0 13.0025C0 20.1836 5.82141 26.005 13.0025 26.005Z" fill="#9D998E"/>
<path d="M9.00301 16.3408C8.97816 16.2613 8.94339 16.1818 8.92351 16.1023C8.72974 15.2825 8.54094 14.4627 8.34717 13.6379C8.1683 12.8678 7.67146 12.4554 6.89638 12.361C5.39093 12.1772 3.89045 11.9933 2.385 11.8045C2.13658 11.7747 1.88816 11.74 1.63973 11.7052C1.63973 11.6803 1.63477 11.6505 1.63477 11.6257C1.70432 11.6008 1.76891 11.5661 1.83847 11.5561C3.26939 11.3872 4.70031 11.2232 6.12626 11.0493C6.52374 10.9997 6.91128 10.9152 7.30379 10.8307C7.77579 10.7314 8.10868 10.4432 8.2627 9.99105C8.50119 9.27559 8.7049 8.55517 8.92351 7.83474C8.94835 7.76021 8.98313 7.69065 9.0676 7.62109C9.09741 7.69562 9.12722 7.76518 9.15206 7.83971C9.34583 8.50548 9.53463 9.17126 9.73834 9.83206C9.92714 10.4482 10.3395 10.8059 10.9854 10.8854C12.004 11.0146 13.0175 11.1537 14.0361 11.2829C14.6422 11.3624 15.2484 11.422 15.8545 11.5114C16.729 11.6406 17.5836 11.5213 18.4431 11.4021C18.6816 11.3673 18.9201 11.3276 19.1586 11.2878C19.4219 11.2431 19.5958 11.099 19.6753 10.8407C19.7498 10.6022 19.8194 10.3637 19.8939 10.1302C19.9138 10.0656 19.9485 10.001 20.0082 9.87181C20.0628 10.001 20.0926 10.0606 20.1175 10.1302C20.192 10.3687 20.2616 10.6071 20.3361 10.8407C20.4156 11.0941 20.5845 11.2481 20.8478 11.2928C21.4441 11.3822 22.0403 11.4717 22.6365 11.5611C22.716 11.571 22.7955 11.6058 22.875 11.6257C22.875 11.6555 22.875 11.6803 22.875 11.7101C22.6663 11.7449 22.4576 11.7797 22.2489 11.8145C21.8167 11.8791 21.3844 11.9437 20.9522 12.0033C20.6243 12.048 20.4156 12.2219 20.3361 12.5448C20.2665 12.828 20.187 13.1113 20.1125 13.3945C20.0926 13.469 20.0628 13.5385 20.038 13.6081C20.0181 13.6081 19.9982 13.6081 19.9734 13.6081C19.9485 13.5385 19.9187 13.464 19.8939 13.3945C19.8045 13.0765 19.72 12.7535 19.6306 12.4355C19.566 12.202 19.407 12.0679 19.1685 12.0281C17.9612 11.8294 16.7638 11.6456 15.5316 11.8344C14.2497 12.0331 12.9579 12.1523 11.6711 12.3113C11.3928 12.3461 11.1196 12.3958 10.8463 12.4504C10.3346 12.5498 9.97186 12.833 9.83274 13.3348C9.63897 14.0304 9.46507 14.731 9.29118 15.4315C9.23156 15.665 9.20175 15.9035 9.14709 16.142C9.13219 16.2116 9.09741 16.2712 9.07257 16.3408C9.04275 16.3408 9.02288 16.3408 9.00301 16.3408Z" fill="white"/>
<path d="M20.8377 16.8527C20.7582 16.8776 20.6787 16.9123 20.5992 16.9223C20.003 17.0018 19.4018 17.0813 18.8056 17.1508C18.5175 17.1856 18.3336 17.3297 18.2442 17.603C18.1846 17.7967 18.1249 17.9905 18.0653 18.1843C18.0405 18.2588 18.0107 18.3234 17.9809 18.3979C17.961 18.3979 17.9361 18.3979 17.9163 18.3979C17.8865 18.3135 17.8467 18.229 17.8219 18.1445C17.5834 17.2452 17.5834 17.2403 16.6791 17.0862C16.2469 17.0167 15.8096 16.9173 15.3824 16.9422C14.6421 16.9869 13.9017 17.1111 13.1664 17.2105C12.9379 17.2403 12.7838 17.3943 12.7143 17.6079C12.6099 17.9508 12.5205 18.3035 12.4162 18.6463C12.4013 18.696 12.3615 18.7457 12.3367 18.7904C12.3019 18.7407 12.2522 18.696 12.2373 18.6414C12.1429 18.3085 12.0634 17.9706 11.9591 17.6427C11.8746 17.3794 11.6858 17.2204 11.3976 17.1806C10.7319 17.0962 10.0661 17.0117 9.40528 16.9223C9.33572 16.9123 9.27113 16.8627 9.20654 16.8279C9.2761 16.7981 9.34069 16.7484 9.41025 16.7385C10.0611 16.649 10.712 16.5646 11.3579 16.49C11.6957 16.4503 11.9094 16.2664 12.0088 15.9485C12.0783 15.7348 12.1379 15.5162 12.2075 15.3026C12.2323 15.228 12.2721 15.1634 12.3317 15.0293C12.3913 15.1734 12.4261 15.2529 12.451 15.3324C12.5305 15.5758 12.605 15.8193 12.6894 16.0627C12.7789 16.3161 12.9726 16.4453 13.231 16.4851C13.7825 16.5695 14.334 16.644 14.8855 16.7235C15.5115 16.813 16.1127 16.644 16.7238 16.5646C16.7288 16.5646 16.7387 16.5596 16.7437 16.5596C17.4095 16.5646 17.7126 16.177 17.807 15.5709C17.8219 15.4665 17.8716 15.3672 17.9063 15.2678C17.9262 15.2678 17.9511 15.2678 17.9709 15.2678C17.9958 15.3224 18.0305 15.3771 18.0504 15.4367C18.0852 15.546 18.1249 15.6504 18.1448 15.7597C18.2293 16.2515 18.5224 16.495 19.0193 16.5347C19.5459 16.5795 20.0676 16.659 20.5893 16.7235C20.6738 16.7335 20.7533 16.7633 20.8328 16.7832C20.8328 16.808 20.8377 16.8279 20.8377 16.8527Z" fill="white"/>
<path d="M16.1427 16.1719C16.1079 16.0626 16.0731 15.9533 16.0433 15.839C15.9787 15.5906 15.9191 15.3421 15.8595 15.0937C15.78 14.7807 15.5763 14.6118 15.2583 14.5671C14.5925 14.4826 13.9267 14.3932 13.2659 14.3037C13.2063 14.2938 13.1467 14.2441 13.092 14.2143C13.1517 14.1845 13.2113 14.1348 13.2759 14.1298C13.9317 14.0404 14.5925 13.951 15.2484 13.8665C15.5961 13.8218 15.8048 13.633 15.8992 13.3001C15.9539 13.0964 16.0185 12.8976 16.0781 12.6939C16.098 12.6294 16.1278 12.5648 16.1576 12.4952C16.1775 12.4952 16.1973 12.4902 16.2222 12.4902C16.252 12.5499 16.2868 12.6095 16.3066 12.6741C16.3812 12.9126 16.4557 13.1461 16.5253 13.3846C16.6047 13.6529 16.7886 13.8069 17.0569 13.8516C17.6432 13.951 18.2294 14.0553 18.8207 14.1249C19.5163 14.1994 20.187 14.0205 20.8478 13.8516C20.977 13.8168 21.1012 13.6678 21.1708 13.5386C21.2701 13.3547 21.3099 13.1411 21.3794 12.9424C21.4043 12.8778 21.4341 12.8132 21.4639 12.7536C21.4838 12.7536 21.5037 12.7536 21.5235 12.7536C21.5583 12.838 21.5931 12.9225 21.6179 13.0119C21.6477 13.0964 21.6726 13.1858 21.6925 13.2703C21.7918 13.6628 22.0104 13.8963 22.4377 13.9361C22.87 13.9808 23.3022 14.0603 23.7345 14.1348C23.7941 14.1447 23.8488 14.1994 23.9084 14.2342C23.8537 14.264 23.7991 14.3037 23.7444 14.3137C23.2824 14.3882 22.8253 14.4727 22.3582 14.5323C22.0204 14.577 21.8316 14.7459 21.7571 15.0738C21.6925 15.3471 21.613 15.6204 21.5434 15.8936C21.5186 15.8986 21.4987 15.8986 21.4739 15.9036C21.444 15.844 21.4093 15.7893 21.3894 15.7247C21.3149 15.4663 21.2503 15.203 21.1757 14.9397C21.1161 14.7211 20.9621 14.6118 20.7485 14.5472C19.5063 14.1795 18.2692 14.3236 17.037 14.5969C16.7538 14.6615 16.5749 14.8354 16.5103 15.1235C16.4458 15.4117 16.3762 15.6949 16.3017 15.9781C16.2868 16.0477 16.257 16.1073 16.2321 16.1768C16.2023 16.1719 16.1725 16.1719 16.1427 16.1719Z" fill="white"/>
</g>
<defs>
<clipPath id="clip0">
<rect width="26" height="26" fill="white"/>
</clipPath>
</defs>
</svg>
