<svg width="26" height="26" viewBox="0 0 26 26" fill="none" xmlns="http://www.w3.org/2000/svg">
<circle cx="13" cy="13" r="13" fill="#9D998E"/>
<path d="M13.2257 13.6567C13.2061 13.6567 13.0883 13.6367 13.0294 13.6367C12.9706 13.6367 12.8528 13.6367 12.8332 13.6567C12.8135 13.6567 12.7546 13.6965 12.7546 13.8162C12.7546 13.9358 12.7743 14.0355 12.8528 14.1551C12.9313 14.2748 13.0294 14.2947 13.0294 14.2947C13.0294 14.2947 13.1276 14.2748 13.2061 14.1551C13.2846 14.0355 13.3043 13.9358 13.3043 13.8162C13.2846 13.6766 13.2257 13.6567 13.2257 13.6567Z" fill="white"/>
<path d="M21.6859 14.4141C21.6859 14.5536 21.6663 14.6733 21.6466 14.7331L21.3522 17.2254C21.3522 17.2653 21.3522 17.2852 21.3718 17.3251L21.4307 17.4447C21.47 17.5444 21.4896 17.6641 21.4896 17.7638V17.9432C21.4896 18.2622 21.2344 18.5214 20.9203 18.5214H18.8789V18.7208C18.8789 18.9003 18.9182 19 19.0948 19H21.4307C21.6074 19 21.8233 18.9003 21.8233 18.7208V14.6533C21.8233 14.5935 21.7448 14.4938 21.6859 14.4141Z" fill="white"/>
<path d="M5.07965 18.541C4.76559 18.541 4.51041 18.2818 4.51041 17.9627V17.7833C4.51041 17.6637 4.53004 17.564 4.56929 17.4643L4.62818 17.3446V17.3247L4.43189 15.5103L4.33374 14.7526C4.31411 14.6928 4.29448 14.5732 4.29448 14.4336C4.2356 14.4934 4.13745 14.5732 4.13745 14.6729V18.7603C4.13745 18.9397 4.373 19.0394 4.53004 19.0394H6.86591C7.04258 19.0394 7.08184 18.9397 7.08184 18.7603V18.5609H5.07965V18.541Z" fill="white"/>
<path d="M21.4504 9.64877H20.6456C20.3708 9.64877 20.1549 9.8681 20.1549 10.1472C20.1549 10.1871 20.1352 10.227 20.1156 10.2469L19.9978 10.3666L18.506 7.47546C18.4667 7.39571 18.4275 7.33589 18.3686 7.27607C18.2901 7.19632 18.2116 7.11656 18.1134 7.05675L17.7797 6.81748L17.5245 6.57822C17.5049 6.55828 17.4853 6.53834 17.3675 6.49847C17.3086 6.47853 17.2694 6.47853 17.2105 6.45859C17.2105 6.41871 17.1908 6.37883 17.1516 6.29908C16.9749 6.01994 16.8375 6 16.7197 6.01994C16.602 6.03988 16.6412 6.21933 16.6609 6.27914C16.6609 6.29908 16.6609 6.29908 16.6609 6.31902C16.5234 6.29908 16.4057 6.27914 16.2683 6.2592C15.699 6.21933 14.5016 6.17945 13.0294 6.17945H12.9509C11.4787 6.17945 10.301 6.23926 9.7121 6.2592C9.59433 6.2592 9.47655 6.27914 9.35878 6.29908C9.35878 6.23926 9.31952 6.11963 9.33915 6.09969C9.35878 6.07975 9.39804 6 9.31952 6C9.241 6.01994 9.1036 6.01994 9.02508 6.07975C8.96619 6.13957 8.88768 6.27914 8.84842 6.33896C8.82879 6.37883 8.80916 6.41871 8.78953 6.45859C8.73064 6.47853 8.69139 6.47853 8.6325 6.49847C8.51472 6.53834 8.49509 6.55828 8.47546 6.57822L8.22028 6.81748L7.88659 7.05675C7.78844 7.11656 7.70992 7.19632 7.63141 7.27607C7.57252 7.33589 7.53326 7.41564 7.494 7.47546L6.02181 10.3666L5.90403 10.2469C5.88441 10.227 5.86478 10.1871 5.86478 10.1472C5.86478 9.8681 5.64885 9.64877 5.37405 9.64877H4.54962C4.25518 9.64877 4 9.88804 4 10.2071V10.4463C4 10.6058 4.09815 10.7454 4.25518 10.8052L5.6096 11.204C5.51145 11.3834 5.31516 11.7623 5.15812 12.2209C4.37296 13.4969 4.49073 14.454 4.52999 14.7132L4.82443 17.2055C4.82443 17.2653 4.82443 17.3451 4.8048 17.4049L4.74591 17.5245C4.70665 17.6043 4.68702 17.684 4.68702 17.7638V17.9433C4.68702 18.1626 4.86369 18.3221 5.05998 18.3221H7.84733C7.98473 18.3221 8.10251 18.2224 8.1614 18.1028H17.7993C17.8582 18.2224 17.9564 18.3221 18.1134 18.3221H20.9008C21.1167 18.3221 21.2737 18.1426 21.2737 17.9433V17.7837C21.2737 17.704 21.2541 17.6043 21.2148 17.5445L21.1559 17.4248C21.1363 17.365 21.1167 17.2853 21.1363 17.2255L21.4308 14.7331C21.4896 14.4739 21.5878 13.5368 20.8026 12.2408C20.6456 11.7822 20.4493 11.4034 20.3511 11.2239L21.7056 10.8052C21.8626 10.7653 21.9607 10.6058 21.9607 10.4463V10.2071C22 9.88804 21.7448 9.64877 21.4504 9.64877ZM20.94 14.2147C20.9008 14.2347 20.7241 14.2945 20.4297 14.3144C20.3511 14.3144 20.1941 14.3144 20.0174 14.3144C19.7623 14.3144 19.4482 14.3144 19.2127 14.3144C19.0752 14.3144 18.9771 14.3144 18.9182 14.3144H18.5845C16.9357 14.3144 16.916 14.3144 16.916 14.3144C16.8768 14.2945 16.8768 14.2945 16.8571 14.1549C16.8375 14.0752 16.8179 13.9555 16.7983 13.8758C16.759 13.7761 16.602 13.5767 16.5823 13.5368L16.5431 13.4969L16.5823 13.4571C16.5823 13.4571 16.8179 13.2776 17.6816 13.158C18.506 13.0383 19.3697 13.0383 19.7034 13.0383H19.7623C19.8604 13.0383 19.9586 13.0383 20.0567 13.0383C20.253 13.0383 20.4493 13.0184 20.5474 13.0383C20.7045 13.0782 20.8026 13.2776 20.8419 13.3574C20.8811 13.4571 20.9793 13.8558 20.9793 13.9755C20.9793 14.0153 20.9793 14.0353 20.9793 14.0552C20.9793 14.1549 20.9793 14.1948 20.94 14.2147ZM19.88 17.1457H18.4864C18.3097 17.1457 18.1527 17.0061 18.1527 16.8067V16.3083C18.1527 16.1288 18.2901 15.9693 18.4864 15.9693H20.3511C20.5278 15.9693 20.6848 16.1089 20.6848 16.3083C20.6848 16.7868 20.3315 17.1457 19.88 17.1457ZM20.3708 17.6641C20.3708 17.7439 20.3119 17.8037 20.2334 17.8037H18.4667C18.3882 17.8037 18.3293 17.7439 18.3293 17.6641C18.3293 17.5844 18.3882 17.5245 18.4667 17.5245H20.2334C20.3119 17.5245 20.3708 17.5844 20.3708 17.6641ZM7.494 17.1457H6.10033C5.64886 17.1457 5.29553 16.7868 5.29553 16.3282C5.29553 16.1488 5.43293 15.9893 5.62923 15.9893H7.494C7.67067 15.9893 7.8277 16.1288 7.8277 16.3282V16.8267C7.8277 17.0061 7.69029 17.1457 7.494 17.1457ZM7.67067 17.6641C7.67067 17.7439 7.61178 17.8037 7.53326 17.8037H5.76663C5.68811 17.8037 5.62923 17.7439 5.62923 17.6641C5.62923 17.5844 5.68811 17.5245 5.76663 17.5245H7.53326C7.61178 17.5245 7.67067 17.5844 7.67067 17.6641ZM7.41549 14.3144H7.08179C7.0229 14.3144 6.92475 14.3144 6.78735 14.3144C6.5518 14.3144 6.23773 14.3144 5.98255 14.3144C5.80589 14.3144 5.64886 14.3144 5.57034 14.3144C5.2759 14.2945 5.09924 14.2347 5.05998 14.2147C5.02072 14.1948 5.02072 14.135 5.02072 14.0752C5.02072 14.0552 5.02072 14.0353 5.02072 13.9954C5.02072 13.8758 5.11887 13.477 5.15812 13.3773C5.17775 13.3175 5.29553 13.0982 5.45256 13.0583C5.53108 13.0383 5.72737 13.0383 5.94329 13.0583C6.04144 13.0583 6.15921 13.0583 6.23773 13.0583H6.29662C6.63032 13.0583 7.494 13.0583 8.31843 13.1779C9.18212 13.2975 9.39804 13.477 9.41767 13.477L9.45692 13.5169L9.41767 13.5567C9.39804 13.5767 9.241 13.796 9.20175 13.8957C9.18212 13.9555 9.16249 14.0752 9.14286 14.1549C9.12323 14.2745 9.12323 14.2945 9.08397 14.3144C9.08397 14.3144 9.08397 14.3144 7.41549 14.3144ZM8.06325 7.35583L8.10251 7.33589C8.14177 7.31595 9.88877 7.15644 12.8724 7.15644H12.9509H12.9706H12.9902H13.0098H13.0294H13.0491H13.0687H13.1472C16.1309 7.15644 17.8779 7.31595 17.9368 7.33589V7.35583C18.0545 7.39571 18.0545 7.39571 18.0742 7.41564C18.0938 7.43558 18.133 7.51534 18.5256 8.27301C18.6041 8.43252 18.6827 8.61196 18.7612 8.75153C18.8986 9.01074 19.1734 9.64877 19.3108 10.0077C19.6052 10.7055 19.6641 10.885 19.6838 10.9248C19.6838 10.9647 19.6838 10.9847 19.6641 11.0046C19.6445 11.0046 19.6249 11.0046 19.4678 11.0046C19.4482 11.0046 19.4482 11.0046 19.4482 11.0046C19.3697 11.0046 19.2127 11.0046 18.9182 10.9847C17.9956 10.9647 16.0916 10.885 13.4417 10.885H13.0098H12.578C9.9084 10.885 8.00436 10.9448 7.10142 10.9847C6.78735 11.0046 6.63032 11.0046 6.5518 11.0046C6.53217 11.0046 6.53217 11.0046 6.53217 11.0046C6.37514 11.0046 6.35551 11.0046 6.35551 10.9847C6.33588 10.9647 6.33588 10.9448 6.33588 10.9049C6.33588 10.8451 6.41439 10.6856 6.70883 9.98773C6.86587 9.62883 7.12105 8.9908 7.25845 8.7316C7.33697 8.59202 7.41549 8.43252 7.494 8.25307C7.86696 7.4954 7.90622 7.41564 7.92585 7.39571C7.94547 7.39571 7.94547 7.39571 8.06325 7.35583ZM15.3261 11.3834C15.3261 11.4233 15.2868 11.4632 15.2475 11.4632H10.7328C10.6936 11.4632 10.6543 11.4233 10.6543 11.3834C10.6543 11.3436 10.6936 11.3037 10.7328 11.3037H15.2475C15.2868 11.2837 15.3261 11.3236 15.3261 11.3834ZM9.4373 14.0353C9.4373 13.9156 9.65322 13.6166 9.7121 13.5767C9.79062 13.5368 9.77099 13.4969 12.9902 13.4969C16.2094 13.4969 16.229 13.5567 16.2879 13.5966C16.3468 13.6166 16.5431 13.9555 16.5431 14.0353C16.5627 14.115 16.5627 14.3144 16.5431 14.3344C16.5234 14.3543 16.4842 14.3942 16.4646 14.3942C16.4646 14.3942 15.8757 14.4141 13.0294 14.4141C10.1832 14.4141 9.49618 14.3942 9.4373 14.3543C9.39804 14.3144 9.4373 14.1748 9.4373 14.0353ZM8.23991 16.7868C8.23991 16.2684 8.67176 15.8298 9.18212 15.8298H16.7983C17.3086 15.8298 17.7405 16.2684 17.7405 16.7868V17.4647H8.23991V16.7868Z" fill="white"/>
</svg>
