<svg width="26" height="26" viewBox="0 0 26 26" fill="none" xmlns="http://www.w3.org/2000/svg">
<g clip-path="url(#clip0)">
<path d="M13.0025 26.005C20.1836 26.005 26.005 20.1836 26.005 13.0025C26.005 5.82141 20.1836 0 13.0025 0C5.82141 0 0 5.82141 0 13.0025C0 20.1836 5.82141 26.005 13.0025 26.005Z" fill="#9D998E"/>
<path d="M9.39753 7C9.89393 7 10.3903 7.08426 10.8606 7.24144C11.3325 7.39861 11.7816 7.6287 12.1849 7.91875C12.4837 8.13588 12.758 8.38542 12.9981 8.66736C13.3197 8.28981 13.7035 7.96736 14.128 7.7081C14.5526 7.44884 15.018 7.2544 15.5013 7.13449C15.8654 7.04537 16.2377 7 16.6117 7C16.7194 7 16.8272 7.00324 16.9333 7.01134C17.353 7.04051 17.7677 7.12639 18.1629 7.2706C18.5417 7.40833 18.9026 7.59792 19.2276 7.83449C19.5492 8.06782 19.8383 8.34491 20.0816 8.65764C20.3281 8.97361 20.5306 9.32361 20.6792 9.69468C20.836 10.0803 20.9339 10.487 20.9764 10.9002C21.0139 11.2697 21.0058 11.6424 20.9584 12.0102C20.9143 12.344 20.8376 12.6713 20.7315 12.9905C20.6188 13.3211 20.4767 13.6419 20.3134 13.9514C20.1371 14.2836 19.9362 14.6028 19.7207 14.9106C19.4839 15.2461 19.2276 15.5685 18.9614 15.8812C18.6675 16.2248 18.3605 16.5553 18.0453 16.8794C17.6992 17.2343 17.3448 17.5794 16.9856 17.9197C16.5921 18.2907 16.1936 18.6553 15.7919 19.0167C15.356 19.4088 14.9151 19.7977 14.4742 20.185C14.3354 20.3065 14.2015 20.4345 14.0562 20.5479C13.9206 20.6549 13.7737 20.7488 13.6202 20.8266C13.4259 20.9255 13.212 21 12.9915 21C12.985 21 12.9801 21 12.9736 21C12.7499 20.9951 12.5311 20.9255 12.3335 20.8218C12.193 20.7472 12.0608 20.6565 11.9416 20.5528C11.8109 20.4394 11.6868 20.3194 11.5595 20.2028C11.1251 19.8058 10.6891 19.4088 10.2581 19.0086C9.858 18.6391 9.46121 18.2697 9.06932 17.8938C8.71008 17.5486 8.35411 17.1986 8.0063 16.8421C7.68952 16.5164 7.37927 16.1826 7.08371 15.8375C6.81429 15.5248 6.55466 15.2023 6.31299 14.8669C6.09255 14.5606 5.88843 14.2447 5.70718 13.9141C5.54063 13.6095 5.3953 13.2919 5.27936 12.9646C5.16996 12.6535 5.08995 12.331 5.04423 12.0037C4.99361 11.6424 4.98708 11.2762 5.02137 10.9132C5.06219 10.5 5.15853 10.0933 5.31366 9.70602C5.46225 9.33495 5.6631 8.98333 5.90966 8.66736C6.15296 8.35463 6.44035 8.07593 6.76203 7.84097C7.08698 7.6044 7.44622 7.41319 7.82505 7.27384C8.22021 7.12963 8.63496 7.04213 9.05299 7.01134C9.16566 7.00324 9.28159 7 9.39753 7Z" fill="#FAFAFA"/>
</g>
<defs>
<clipPath id="clip0">
<rect width="26" height="26" fill="white"/>
</clipPath>
</defs>
</svg>
