<svg width="26" height="26" viewBox="0 0 26 26" fill="none" xmlns="http://www.w3.org/2000/svg">
<circle cx="13" cy="13" r="13" fill="#9D998E"/>
<path d="M4.62486 17.6495C4.48376 17.553 4.40314 17.4373 4.36282 17.283L4 15.875L4.04031 18.691C4.04031 18.9418 4.16125 18.9803 4.46361 18.9803H6.55991C6.86226 18.9803 6.92273 18.9225 6.92273 18.6525V17.7652H4.96753C4.84658 17.7652 4.72564 17.7266 4.62486 17.6495Z" fill="white"/>
<path d="M21.617 17.2835C21.5565 17.5728 21.2945 17.7657 20.9921 17.7657H19.0974V18.6722C19.0974 18.923 19.1982 19.0194 19.5005 19.0194H21.6775C21.9798 19.0194 22 18.923 22 18.6722V15.8369L21.617 17.2835Z" fill="white"/>
<path d="M21.4154 17.2449L21.7983 15.7791C21.8387 15.6055 21.8588 15.4126 21.879 15.2197H20.3067C20.0649 15.2197 19.823 15.3162 19.6617 15.4705C19.44 15.6826 19.1578 15.7791 18.8555 15.7791H13.0705H12.8689H7.10405C6.8017 15.7791 6.51951 15.6633 6.29778 15.4705C6.11637 15.2969 5.89465 15.2197 5.65276 15.2197H4.12085C4.12085 15.4126 4.12085 15.5862 4.18132 15.7791L4.54414 17.2449C4.58446 17.4378 4.74571 17.5728 4.96743 17.5728H7.93048C8.03126 17.5728 8.13205 17.515 8.17236 17.4185C8.25299 17.1871 8.55534 17.0328 8.87785 17.0328C9.20036 17.0328 9.50271 17.1871 9.58334 17.4185C9.64381 17.515 9.74459 17.5728 9.84537 17.5728H12.9697H20.9719C21.1936 17.5728 21.375 17.4378 21.4154 17.2449Z" fill="white"/>
<path d="M6.5398 15.2775C6.70105 15.4318 6.90262 15.5089 7.12435 15.5089H12.869H13.0706H18.8354C19.0572 15.5089 19.2587 15.4318 19.42 15.2775C19.6417 15.0653 19.9642 14.9303 20.2867 14.9303H21.8589V14.8338C21.8589 14.6988 21.6977 14.5252 21.5969 14.4288V12.7315L21.5768 12.5193C21.4961 12.0371 21.355 11.5742 21.1333 11.1692C21.3349 11.1692 21.4961 11.0149 21.4961 10.822V10.6098C21.4961 10.3205 21.2542 10.0697 20.9317 10.0697H20.5286C19.9844 8.93176 19.3797 7.98666 18.6943 7.17657C18.6742 7.15728 18.6339 7.11871 18.5936 7.06084C18.6137 6.82939 19.5409 6.39455 19.42 6.25954C19.3131 6.13165 19.2684 6.00627 18.5936 6.00001C16.7967 5.98335 13.6538 6.00001 12.9698 6.00001C12.292 6.00001 9.62695 5.97135 8.01124 5.97378C6.39554 5.97621 6.6309 6.14747 6.5398 6.25954C6.3987 6.43313 7.34607 6.86797 7.36623 7.08013C7.30576 7.138 7.26544 7.17657 7.26544 7.19586C6.58011 8.00595 5.97541 8.97034 5.43118 10.089H5.00788C4.70553 10.089 4.4435 10.3205 4.4435 10.6291V10.8413C4.4435 11.0341 4.60475 11.1884 4.80632 11.1884C4.58459 11.5935 4.4435 12.0564 4.36287 12.5386L4.32255 12.7315L4.3024 14.1781V14.4674C4.3024 14.5445 4.10083 14.7181 4.10083 14.8724V14.9689H5.63275C5.99557 14.9303 6.29792 15.0653 6.5398 15.2775ZM6.33823 12.6736L6.27776 11.9021H9.58411C9.54379 12.1528 9.26096 12.5772 9.20049 12.635C9.14002 12.6736 9.09971 12.6736 9.09971 12.6736H6.33823ZM16.2352 14.4288C15.8522 14.5638 14.8847 14.5831 13.9978 14.5831C13.7962 14.5831 13.5947 14.5831 13.4133 14.5831H13.3931C13.252 14.5831 13.0908 14.5831 12.9698 14.5831C12.8489 14.5831 12.7078 14.5831 12.5465 14.5831H12.5264C12.345 14.5831 12.1434 14.5831 11.9418 14.5831C11.0549 14.5831 10.0874 14.5638 9.70441 14.4288C9.22065 14.2552 9.0594 13.2908 9.01908 12.8665H9.11987C9.11987 12.8665 9.11987 12.8665 9.14002 12.8665C9.18034 12.8665 9.22065 12.8665 9.30128 12.8086C9.36175 13.4258 9.54316 14.0816 9.8052 14.1781C10.2285 14.3131 11.5387 14.3131 12.5062 14.3131H12.5465C12.6675 14.3131 12.7682 14.3131 12.869 14.3131H12.9698H13.0706C13.1714 14.3131 13.2722 14.3131 13.3931 14.3131H13.4133C14.4009 14.3131 15.7111 14.3324 16.1344 14.1781C16.4368 14.0816 16.598 13.2908 16.6383 12.8086C16.6988 12.8472 16.7593 12.8665 16.7996 12.8665H16.8198H16.9205C16.8802 13.3101 16.719 14.2745 16.2352 14.4288ZM11.196 13.7537V12.6736C11.196 12.5579 11.2968 12.4614 11.4177 12.4614H14.5622C14.6831 12.4614 14.7839 12.5579 14.7839 12.6736V13.7537C14.7839 13.8694 14.6831 13.9659 14.5622 13.9659H11.4177C11.2968 13.9659 11.196 13.8694 11.196 13.7537ZM19.6215 12.6736H16.8601C16.8601 12.6736 16.7996 12.6736 16.7593 12.635C16.6988 12.5772 16.3986 11.9021 16.3986 11.9021H19.6619L19.6215 12.6736ZM20.7302 10.9184C20.7705 10.9763 20.831 11.0534 20.9116 11.1884C21.0325 11.4199 21.1333 11.6513 21.2139 11.9021H19.9844C20.065 11.1884 20.5891 10.9377 20.7302 10.9184ZM19.9844 11.9021H21.2139C21.2341 12.0178 21.3349 12.4229 21.355 12.5386L21.3752 12.6736H19.9239L19.9844 11.9021ZM7.62827 7.09942C8.47485 7.00298 10.8937 6.86797 12.9698 6.86797C15.0056 6.86797 17.4043 7.00298 18.3114 7.09942C18.3718 7.138 18.4121 7.17657 18.4323 7.21515C17.6462 7.15728 15.1266 7.02227 12.9698 7.02227C10.813 7.02227 8.3136 7.15728 7.50732 7.19586C7.54764 7.17657 7.58795 7.138 7.62827 7.09942ZM6.76152 9.54897L7.5678 7.94808C7.66858 7.73592 7.80968 7.62019 7.99109 7.54304H8.01124H8.0314C8.1725 7.50446 8.37407 7.48518 8.61595 7.46589C8.61595 7.46589 9.54316 7.35016 11.3371 7.35016C11.3573 7.35016 11.3573 7.36945 11.3774 7.38874C11.3774 7.38874 11.3774 7.38874 11.3774 7.40802C11.4177 7.46589 11.4581 7.52375 11.5588 7.52375C11.6798 7.52375 11.7806 7.52375 11.9015 7.52375C12.224 7.52375 12.5667 7.50446 12.99 7.50446C13.4133 7.50446 13.7358 7.50446 14.0784 7.52375C14.1994 7.52375 14.3002 7.52375 14.4211 7.52375C14.5219 7.52375 14.5824 7.4466 14.6025 7.40802C14.6025 7.40802 14.6025 7.40802 14.6025 7.38874C14.6227 7.36945 14.6227 7.35016 14.6428 7.35016C16.4368 7.35016 17.3438 7.46589 17.364 7.46589C17.6462 7.48518 17.8276 7.52375 17.9888 7.56233C18.1703 7.63948 18.2912 7.75521 18.392 7.96737L19.1983 9.56826C19.3394 9.85758 19.3394 10.1469 19.1781 10.3784C19.0572 10.5519 18.8757 10.687 18.6742 10.7641C18.6137 10.7834 18.5331 10.7834 18.4726 10.7834C18.4525 10.7834 16.4972 10.7641 14.5219 10.7641C14.4211 10.7641 14.28 10.6677 14.1389 10.5519C14.018 10.4748 13.897 10.3591 13.7962 10.3205C13.7559 10.3012 13.7156 10.2819 13.6753 10.2819C13.4939 10.2819 13.3729 10.2626 13.2318 10.2626H12.99H12.7481C12.607 10.2626 12.486 10.2819 12.3046 10.2819C12.2643 10.2819 12.2442 10.3012 12.2039 10.3205C12.1031 10.3591 11.9821 10.4555 11.8612 10.5519C11.7201 10.6484 11.579 10.7641 11.4782 10.7641C9.50285 10.7641 7.54764 10.8027 7.52748 10.8027C7.48717 10.8027 7.4267 10.8027 7.38638 10.7834C7.16466 10.7255 6.94294 10.5905 6.82199 10.3976C6.64058 10.1276 6.62043 9.83829 6.76152 9.54897ZM12.9698 11.2656C15.2274 11.2656 18.9161 11.3042 19.8231 11.3235C19.7425 11.4778 19.682 11.6706 19.6619 11.9021H13.0706H6.27776C6.2576 11.6706 6.19713 11.4778 6.11651 11.3235C7.02356 11.3235 10.7123 11.2656 12.9698 11.2656ZM5.0482 11.1884C5.12883 11.0534 5.16914 10.9763 5.22961 10.9184C5.39086 10.9377 5.91494 11.1884 5.97541 11.9214H4.74585C4.82647 11.6706 4.92726 11.4199 5.0482 11.1884ZM4.60475 12.5386C4.62491 12.4229 4.72569 12.0371 4.74585 11.9214H5.97541L6.03588 12.6736H4.58459L4.60475 12.5386Z" fill="white"/>
<path d="M9.82517 17.7654C9.70423 17.7654 9.58329 17.7075 9.48251 17.6304C9.48251 17.6497 9.48251 17.6689 9.48251 17.6882C9.48251 18.0161 9.20031 18.2669 8.8778 18.2669C8.53514 18.2669 8.2731 17.9968 8.2731 17.6882C8.2731 17.6497 8.2731 17.6111 8.29326 17.5918C8.21263 17.7075 8.07153 17.7847 7.91028 17.7847H7.74902C7.76918 18.1897 8.03122 18.4983 8.37388 18.4983H9.46235C9.80501 18.4983 10.0872 18.1704 10.0872 17.7847H9.82517V17.7654Z" fill="white"/>
</svg>
