<svg width="26" height="26" viewBox="0 0 26 26" fill="none" xmlns="http://www.w3.org/2000/svg">
<path d="M13 26C20.1797 26 26 20.1797 26 13C26 5.8203 20.1797 0 13 0C5.8203 0 0 5.8203 0 13C0 20.1797 5.8203 26 13 26Z" fill="#9D998E"/>
<path d="M21.9 15.0002C22 15.0002 22 15.0002 22 14.9002L22.1 14.7002L20.8 14.9002C20.8 15.0002 20.9 15.0002 20.9 15.0002H21.9Z" fill="white"/>
<path d="M23.6999 14.2998C23.6999 14.1998 23.6999 13.9998 23.6999 13.8998C23.6999 13.7998 23.5999 13.4998 23.5999 13.3998C23.4999 13.3998 23.2999 13.2998 23.2999 13.1998C23.2999 13.0998 23.2999 12.8998 23.2999 12.3998C23.2999 11.7998 23.1999 11.6998 23.0999 11.5998C23.0999 11.5998 22.9999 11.4998 22.7999 11.1998L22.5999 10.8998C22.2999 10.5998 21.3999 9.69981 21.2999 9.59981C21.4999 9.49981 21.6999 9.3998 21.6999 9.2998C21.5999 9.1998 21.1999 9.1998 20.2999 9.1998C20.1999 9.1998 20.0999 9.1998 19.8999 9.1998C19.6999 9.0998 19.4999 8.9998 19.3999 8.9998C18.4999 8.8998 14.3999 8.8998 13.7999 8.9998C13.4999 9.0998 13.3999 9.0998 13.1999 9.1998C12.6999 9.1998 12.5999 9.2998 12.3999 9.2998H12.2999C12.0999 9.2998 11.9999 9.3998 11.8999 9.3998C11.7999 9.3998 11.6999 9.4998 11.6999 9.4998C11.4999 9.4998 11.0999 9.5998 10.7999 9.6998C10.4999 9.7998 8.3999 11.0998 7.5999 11.5998H7.3999C7.2999 11.5998 7.2999 11.5998 7.1999 11.5998L6.6999 11.7998C6.5999 11.7998 6.4999 11.7998 6.3999 11.7998C6.0999 11.7998 5.4999 11.7998 5.2999 11.7998C5.1999 11.9998 4.9999 11.9998 4.8999 12.0998H4.7999C4.7999 12.0998 4.7999 12.0998 4.6999 12.0998C4.5999 12.0998 4.1999 12.1998 3.7999 12.2998C3.1999 12.3998 2.3999 12.5998 2.0999 12.7998C1.7999 12.9998 1.7999 13.3998 1.7999 13.4998H1.6999C1.5999 13.4998 1.4999 13.5998 1.4999 13.5998C1.3999 13.6998 1.3999 13.7998 1.3999 13.9998C1.3999 14.0998 1.4999 14.4998 1.6999 14.7998C1.6999 14.8998 1.7999 14.9998 1.7999 14.9998L1.6999 15.0998C1.6999 15.1998 1.7999 15.2998 1.7999 15.2998C1.7999 15.2998 1.8999 15.2998 2.1999 15.2998C2.3999 15.2998 2.5999 15.2998 2.6999 15.2998L3.8999 15.3998C3.8999 15.3998 3.8999 15.3998 3.9999 15.3998C4.0999 15.3998 3.9999 15.2998 3.9999 15.2998H4.3999C4.6999 15.7998 5.1999 16.0998 5.7999 16.0998C6.3999 16.0998 6.8999 15.7998 7.1999 15.2998H7.6999C7.6999 15.3998 7.6999 15.3998 7.7999 15.3998C7.7999 15.3998 7.8999 15.3998 7.9999 15.3998C8.3999 15.3998 9.1999 15.3998 10.5999 15.2998C11.2999 15.2998 11.9999 15.2998 12.1999 15.2998C12.9999 15.2998 15.5999 15.2998 15.6999 15.2998C15.6999 15.2998 16.8999 15.3998 16.9999 15.2998C16.9999 15.2998 16.9999 15.2998 16.9999 15.1998V15.0998H17.2999C17.4999 15.6998 18.0999 16.0998 18.6999 16.0998C19.4999 16.0998 20.1999 15.4998 20.2999 14.6998H20.4999C20.4999 14.7998 20.4999 14.9998 20.5999 14.9998H20.6999C20.6999 14.9998 20.7999 14.9998 20.8999 14.9998C20.9999 14.9998 21.1999 14.9998 21.5999 14.8998C21.6999 14.8998 21.7999 14.8998 21.9999 14.8998C22.1999 14.8998 22.3999 14.7998 22.4999 14.7998C22.5999 14.7998 22.8999 14.6998 23.1999 14.6998C23.3999 14.6998 23.6999 14.5998 23.6999 14.5998C23.7999 14.5998 23.7999 14.4998 23.7999 14.4998C23.7999 14.4998 23.7999 14.4998 23.7999 14.3998C23.7999 14.4998 23.7999 14.3998 23.6999 14.2998ZM5.7999 15.7998C5.0999 15.7998 4.4999 15.1998 4.4999 14.4998C4.4999 13.7998 5.0999 13.1998 5.7999 13.1998C6.4999 13.1998 7.0999 13.7998 7.0999 14.4998C7.0999 15.1998 6.4999 15.7998 5.7999 15.7998ZM16.2999 9.1998C17.5999 9.1998 18.9999 9.1998 19.0999 9.1998C19.1999 9.1998 19.2999 9.2998 19.2999 9.3998C18.5999 9.3998 17.6999 9.2998 16.3999 9.2998L16.2999 9.1998ZM14.1999 9.1998C14.4999 9.1998 14.8999 9.1998 15.9999 9.1998C15.9999 9.1998 16.0999 9.2998 16.0999 9.3998C15.1999 9.3998 14.2999 9.3998 13.7999 9.4998C13.7999 9.2998 14.0999 9.1998 14.1999 9.1998ZM13.3999 10.0998C13.3999 10.3998 13.2999 10.6998 13.1999 11.0998L13.0999 11.1998L12.8999 11.6998L10.2999 11.7998L10.0999 11.3998C10.0999 11.3998 9.9999 11.2998 9.9999 11.3998C9.9999 11.3998 9.8999 11.4998 9.9999 11.4998L10.0999 11.7998H9.8999C9.8999 11.6998 9.8999 11.5998 9.8999 11.5998C9.8999 11.3998 9.7999 11.2998 9.5999 11.2998C9.4999 11.2998 9.3999 11.2998 9.2999 11.3998C9.4999 11.2998 9.5999 11.1998 9.6999 11.0998C10.0999 10.7998 10.3999 10.5998 10.7999 10.3998C11.1999 10.1998 11.5999 9.9998 11.9999 9.9998C12.0999 9.9998 12.2999 9.9998 12.4999 9.9998C12.6999 9.9998 12.8999 9.9998 13.1999 9.9998C13.3999 9.8998 13.3999 9.99981 13.3999 10.0998ZM17.0999 11.5998L13.8999 11.6998L13.9999 11.5998C14.0999 11.3998 13.9999 11.0998 13.7999 11.0998H13.6999H13.5999C13.6999 10.6998 13.6999 10.2998 13.6999 10.0998C13.6999 9.99981 13.7999 9.9998 13.7999 9.9998C14.4999 9.9998 15.0999 9.9998 15.4999 9.9998C15.5999 9.9998 15.6999 9.9998 15.8999 9.9998C15.8999 9.9998 15.9999 9.99981 15.9999 10.0998C16.6999 10.5998 16.9999 11.2998 17.0999 11.5998C17.1999 11.5998 17.1999 11.5998 17.0999 11.5998ZM18.6999 15.7998C17.9999 15.7998 17.3999 15.1998 17.3999 14.4998C17.3999 13.7998 17.9999 13.1998 18.6999 13.1998C19.3999 13.1998 19.9999 13.7998 19.9999 14.4998C19.9999 15.1998 19.3999 15.7998 18.6999 15.7998ZM21.2999 11.3998C20.5999 11.3998 18.8999 11.4998 18.1999 11.4998C17.9999 11.4998 17.7999 11.3998 17.6999 11.1998C17.5999 10.8998 17.2999 10.5998 17.0999 10.1998C16.9999 10.0998 17.0999 9.9998 17.1999 9.9998C17.8999 9.9998 18.8999 9.9998 20.0999 9.9998C20.1999 9.9998 20.3999 10.0998 20.4999 10.1998L21.3999 11.1998C21.4999 11.1998 21.3999 11.3998 21.2999 11.3998Z" fill="white"/>
</svg>
