<svg width="30" height="30" viewBox="0 0 30 30" fill="none" xmlns="http://www.w3.org/2000/svg">
<g clip-path="url(#clip0)">
<path d="M29.922 8.826C29.85 7.23 29.592 6.132 29.226 5.184C28.848 4.176 28.26 3.276 27.492 2.52C26.742 1.758 25.836 1.164 24.834 0.792C23.88 0.42 22.788 0.162 21.198 0.096C19.59 0.018 19.08 0 15.006 0C10.932 0 10.422 0.018 8.81999 0.09C7.224 0.162 6.132 0.42 5.178 0.786C4.176 1.17 3.27 1.752 2.52 2.52C1.758 3.276 1.164 4.182 0.792 5.178C0.42 6.138 0.162 7.224 0.0959999 8.82C0.018 10.428 0 10.938 0 15.018C0 19.098 0.018 19.608 0.0899999 21.204C0.162 22.8 0.42 23.898 0.786 24.846C1.17 25.854 1.758 26.76 2.52 27.51C3.27 28.272 4.176 28.866 5.178 29.238C6.132 29.61 7.224 29.868 8.81999 29.934C10.422 30.006 10.932 30.024 15.006 30.024C19.08 30.024 19.59 30.006 21.192 29.934C22.788 29.862 23.88 29.604 24.834 29.238C26.85 28.458 28.446 26.862 29.226 24.846C29.598 23.892 29.856 22.8 29.922 21.204C29.994 19.602 30.012 19.092 30.012 15.018C30.012 10.944 29.994 10.428 29.922 8.826ZM27.222 21.09C27.156 22.554 26.91 23.346 26.706 23.874C26.202 25.182 25.164 26.22 23.856 26.724C23.328 26.928 22.53 27.174 21.072 27.24C19.488 27.312 19.014 27.33 15.012 27.33C11.01 27.33 10.53 27.312 8.95199 27.24C7.488 27.174 6.696 26.928 6.168 26.724C5.52 26.484 4.926 26.1 4.446 25.602C3.948 25.116 3.564 24.528 3.324 23.88C3.12 23.352 2.874 22.554 2.808 21.096C2.736 19.512 2.718 19.038 2.718 15.03C2.718 11.022 2.736 10.542 2.808 8.964C2.874 7.5 3.12 6.708 3.324 6.18C3.564 5.526 3.948 4.938 4.452 4.458C4.938 3.96 5.526 3.576 6.174 3.336C6.702 3.132 7.5 2.886 8.958 2.82C10.542 2.748 11.016 2.73 15.018 2.73C19.026 2.73 19.5 2.748 21.078 2.82C22.542 2.886 23.334 3.132 23.862 3.336C24.51 3.576 25.104 3.96 25.584 4.458C26.082 4.944 26.466 5.532 26.706 6.18C26.91 6.708 27.156 7.506 27.222 8.964C27.294 10.548 27.312 11.022 27.312 15.03C27.312 19.038 27.294 19.506 27.222 21.09Z" fill="#9D998E"/>
<path d="M20.6579 12.4381H20.2319C19.7999 12.4381 19.3859 12.4441 18.9779 12.4261C19.4459 11.2081 19.6979 10.0141 19.7279 8.85007C19.7279 6.61207 18.2579 6.37207 17.6279 6.37207C16.6679 6.37207 16.1279 7.04407 15.7979 7.56607C15.7079 7.71607 15.5279 8.07007 15.2399 8.62807C15.0299 9.04207 14.7899 9.51007 14.6939 9.67807C14.5679 9.90007 14.4359 10.1041 14.2919 10.2961L14.1299 10.4941C13.7399 10.9741 13.3379 11.4661 12.8759 11.8501C12.7199 11.7361 12.5279 11.6701 12.3179 11.6701H8.14789C7.61389 11.6701 7.18188 12.1021 7.18188 12.6361V21.7381C7.18188 22.2721 7.61389 22.7041 8.14789 22.7041H12.3179C12.6359 22.7041 12.9179 22.5481 13.0919 22.3141C13.1459 22.3201 13.1999 22.3321 13.2539 22.3381C13.3619 22.3561 13.4759 22.3741 13.5959 22.3921C14.8979 22.5901 16.3619 22.7041 17.6279 22.7041H19.9199C21.3779 22.7041 22.3979 21.7621 22.3979 20.4121L22.3859 20.2501C22.3679 20.0161 22.3619 19.9501 22.2839 19.7581C22.7399 19.2541 22.8719 18.6001 22.6559 17.8681C23.1179 17.3641 23.2499 16.7101 23.0339 15.9721C23.3639 15.6061 23.5319 15.1741 23.5139 14.7301C23.5139 13.2961 22.4459 12.4381 20.6579 12.4381ZM20.7419 18.3121C20.8139 18.4021 20.8259 18.4141 20.8259 18.4981C20.7899 18.5281 20.7179 18.5701 20.6699 18.6001C20.4599 18.7261 20.0699 18.9661 20.0699 19.4641C20.0699 19.8421 20.2559 20.0641 20.3639 20.2021C20.4419 20.2981 20.4479 20.3101 20.4479 20.4121C20.4479 20.5381 20.4479 20.7781 19.8959 20.7781H17.6339C16.1879 20.7301 14.6939 20.6761 13.2779 20.3821V13.9441C14.2559 13.2781 15.1139 12.4501 15.8159 11.4781C16.3259 10.8001 16.6919 10.0501 16.9859 9.44407C17.1959 9.01207 17.4899 8.41807 17.6519 8.29807C17.6939 8.29807 17.7179 8.30407 17.7239 8.30407C17.7359 8.32807 17.7959 8.44807 17.7959 8.85007C17.7959 10.2361 17.1179 11.9581 16.7219 12.7621C16.4999 13.2061 16.5959 13.5301 16.7159 13.7281C17.1119 14.3641 18.0779 14.3641 20.6579 14.3641C21.5279 14.3641 21.5879 14.5861 21.5879 14.7061C21.5519 14.7361 21.4799 14.7781 21.4319 14.8081C21.2219 14.9341 20.8319 15.1741 20.8319 15.6721C20.8319 16.0501 21.0179 16.2721 21.1259 16.4101C21.1979 16.5001 21.2099 16.5121 21.2099 16.5961C21.1739 16.6261 21.1019 16.6681 21.0539 16.6981C20.8439 16.8241 20.4539 17.0641 20.4539 17.5621C20.4479 17.9521 20.6339 18.1741 20.7419 18.3121ZM9.10789 20.7781V13.6081H11.3519V20.7781H9.10789Z" fill="#9D998E"/>
</g>
<defs>
<clipPath id="clip0">
<rect width="30" height="30" fill="white"/>
</clipPath>
</defs>
</svg>
