<svg width="30" height="30" viewBox="0 0 30 30" fill="none" xmlns="http://www.w3.org/2000/svg">
<g clip-path="url(#clip0)">
<path d="M29.922 8.826C29.85 7.23 29.592 6.132 29.226 5.184C28.848 4.176 28.26 3.276 27.492 2.52C26.742 1.758 25.836 1.164 24.834 0.792C23.88 0.42 22.788 0.162 21.198 0.096C19.59 0.018 19.08 0 15.006 0C10.932 0 10.422 0.018 8.81999 0.09C7.224 0.162 6.132 0.42 5.178 0.786C4.176 1.17 3.27 1.752 2.52 2.52C1.758 3.276 1.164 4.182 0.792 5.178C0.42 6.138 0.162 7.224 0.0959999 8.82C0.018 10.428 0 10.938 0 15.018C0 19.098 0.018 19.608 0.0899999 21.204C0.162 22.8 0.42 23.898 0.786 24.846C1.17 25.854 1.758 26.76 2.52 27.51C3.27 28.272 4.176 28.866 5.178 29.238C6.132 29.61 7.224 29.868 8.81999 29.934C10.422 30.006 10.932 30.024 15.006 30.024C19.08 30.024 19.59 30.006 21.192 29.934C22.788 29.862 23.88 29.604 24.834 29.238C26.85 28.458 28.446 26.862 29.226 24.846C29.598 23.892 29.856 22.8 29.922 21.204C29.994 19.602 30.012 19.092 30.012 15.018C30.012 10.944 29.994 10.428 29.922 8.826ZM27.222 21.09C27.156 22.554 26.91 23.346 26.706 23.874C26.202 25.182 25.164 26.22 23.856 26.724C23.328 26.928 22.53 27.174 21.072 27.24C19.488 27.312 19.014 27.33 15.012 27.33C11.01 27.33 10.53 27.312 8.95199 27.24C7.488 27.174 6.696 26.928 6.168 26.724C5.52 26.484 4.926 26.1 4.446 25.602C3.948 25.116 3.564 24.528 3.324 23.88C3.12 23.352 2.874 22.554 2.808 21.096C2.736 19.512 2.718 19.038 2.718 15.03C2.718 11.022 2.736 10.542 2.808 8.964C2.874 7.5 3.12 6.708 3.324 6.18C3.564 5.526 3.948 4.938 4.452 4.458C4.938 3.96 5.526 3.576 6.174 3.336C6.702 3.132 7.5 2.886 8.958 2.82C10.542 2.748 11.016 2.73 15.018 2.73C19.026 2.73 19.5 2.748 21.078 2.82C22.542 2.886 23.334 3.132 23.862 3.336C24.51 3.576 25.104 3.96 25.584 4.458C26.082 4.944 26.466 5.532 26.706 6.18C26.91 6.708 27.156 7.506 27.222 8.964C27.294 10.548 27.312 11.022 27.312 15.03C27.312 19.038 27.294 19.506 27.222 21.09Z" fill="#9D998E"/>
<path d="M15.0541 7.104C10.6981 7.104 7.16406 10.644 7.16406 15.006C7.16406 19.368 10.6981 22.908 15.0541 22.908C19.4101 22.908 22.9441 19.368 22.9441 15.006C22.9441 10.644 19.4101 7.104 15.0541 7.104ZM15.0541 20.13C12.2281 20.13 9.93606 17.832 9.93606 15.006C9.93606 12.18 12.2281 9.882 15.0541 9.882C17.8801 9.882 20.1721 12.18 20.1721 15.006C20.1721 17.832 17.8801 20.13 15.0541 20.13Z" fill="#9D998E"/>
<path d="M25.0981 6.79198C25.0981 7.81198 24.2761 8.63398 23.2561 8.63398C22.2361 8.63398 21.4141 7.80598 21.4141 6.79198C21.4141 5.77198 22.2361 4.94998 23.2561 4.94998C24.2761 4.94398 25.0981 5.77198 25.0981 6.79198Z" fill="#9D998E"/>
</g>
<defs>
<clipPath id="clip0">
<rect width="30" height="30" fill="white"/>
</clipPath>
</defs>
</svg>
