<svg width="127" height="63" viewBox="0 0 127 63" fill="none" xmlns="http://www.w3.org/2000/svg">
<g clip-path="url(#clip0)">
<path d="M101.821 -5.38666e-05C102.409 -0.0716674 103.842 8.73282 105.702 10.1412C107.561 11.5496 109.057 11.6332 116.901 12.5283C124.746 13.4235 127 13.4712 127 14.1197C127 14.7682 125.14 14.7165 120.008 15.3133C114.876 15.9101 111.229 16.3079 108.512 16.853C105.8 17.3981 104.616 17.8954 103.333 17.8954C102.05 17.8954 101.063 17.9948 100.127 17.8954C99.1917 17.7959 97.7587 17.4975 96.1322 17.0997C94.5057 16.7018 87.1036 15.56 83.9454 15.2616C80.7872 14.9632 76.0538 14.5176 76.1012 14.068C76.1486 13.6184 80.8385 13.4235 87.0523 12.5761C93.2661 11.7286 97.2455 11.2353 98.7772 8.96755C100.226 6.8271 100.984 0.0994093 101.821 -5.38666e-05Z" fill="#9D998E"/>
<path d="M5.08477 20.8077L0.0118807 50.0937C-0.0749704 50.6069 0.31586 51.0764 0.829071 51.0764H5.22689C5.70063 51.0764 6.1033 50.7263 6.17436 50.2528L8.48776 34.1398L10.3393 45.7611C10.4103 46.2067 10.7933 46.5369 11.2433 46.5369H13.4699C13.9278 46.5369 14.3463 46.2783 14.5515 45.8645L20.1337 34.6689L17.3071 50.0022C17.2045 50.5592 17.6308 51.0764 18.1953 51.0764H22.2023C22.759 51.0764 23.2367 50.6746 23.3354 50.1215L28.4635 21.5557C28.5977 20.8077 28.0253 20.1155 27.2713 20.1155H22.755C22.6208 20.1155 22.4945 20.1911 22.4313 20.3104L13.683 36.5826C13.6278 36.686 13.4777 36.6582 13.458 36.5428L11.0222 20.5531C10.9828 20.3064 10.7735 20.1195 10.5248 20.1195H5.89802C5.49534 20.1195 5.15189 20.4099 5.08477 20.8077Z" fill="#9D998E"/>
<path d="M32.1508 20.1194H27.3819C27.0937 20.1194 26.8726 20.382 26.92 20.6684L29.9598 38.8781L27.603 49.9703C27.4806 50.5392 27.9109 51.0763 28.4912 51.0763H33.3075C33.5246 51.0763 33.7141 50.9212 33.7615 50.7063L36.1499 39.3755L45.664 21.2612C45.9364 20.744 45.5614 20.1194 44.9811 20.1194H40.3543C39.8095 20.1194 39.3121 20.4377 39.0831 20.939L34.7563 30.3561C34.705 30.4636 34.5471 30.4397 34.5313 30.3243L33.2246 21.0583C33.1496 20.5172 32.6916 20.1194 32.1508 20.1194Z" fill="#9D998E"/>
<path d="M54.7794 29.9423C54.4202 29.9344 54.1438 29.6201 54.1833 29.262C54.282 28.343 54.4281 26.7595 54.3373 26.3179C54.207 25.6893 53.4806 24.5952 52.6595 24.7941C51.8383 24.993 48.7472 27.0818 53.7767 32.9461C58.8062 38.8105 58.6443 42.2081 58.0048 46.1389C57.3652 50.0657 54.207 51.8561 50.1132 51.8561C46.0193 51.8561 42.4663 50.4636 42.4663 42.6577C42.4663 39.7255 43.7493 39.9722 43.7493 39.9722H47.6103C48.0524 39.9722 48.4038 40.3541 48.3643 40.7997C48.2143 42.5185 48.1195 46.302 50.2592 46.1867C52.1818 46.0633 52.2173 43.537 51.7081 40.4019C51.2146 36.6899 44.5073 33.8731 44.981 27.1932C44.981 27.1932 45.7193 19.3555 52.8569 19.6857C59.9944 20.0159 60.1563 24.9891 59.8957 27.0778C59.7813 27.9889 59.6984 28.6652 59.6391 29.1387C59.576 29.6439 59.1496 30.0179 58.6443 30.01L54.7794 29.9423Z" fill="#9D998E"/>
<path d="M95.8756 28.2396C97.3876 21.8739 92.8516 20.1194 90.2185 20.1194H82.0071C81.5452 20.1194 81.1465 20.4536 81.0636 20.9111L75.7696 50.2329C75.6907 50.6705 76.0262 51.0763 76.4684 51.0763H86.472C88.8407 51.0763 92.7214 50.7779 94.3005 43.8831C95.8796 36.9883 91.1423 34.9354 91.1423 34.9354C91.1423 34.9354 94.3636 34.6052 95.8756 28.2396ZM88.1972 42.2082C87.7037 45.3393 86.3733 45.5899 85.0627 45.5899C83.752 45.5899 82.8164 45.5899 82.8164 45.5899L84.0994 38.1819C84.1192 38.1819 84.3166 38.1819 85.7259 38.1819C87.5064 38.1819 88.6907 39.0771 88.1972 42.2082ZM89.6263 29.083C88.9355 32.5125 85.0627 32.043 85.0627 32.043L86.2233 25.2318C86.2233 25.2318 86.9142 25.2318 88.0235 25.2318C89.1328 25.2318 90.3172 25.6535 89.6263 29.083Z" fill="#9D998E"/>
<path d="M98.0668 21.3608L92.9584 50.3364C92.8912 50.7223 93.1834 51.0724 93.5703 51.0724H99.0577C99.2195 51.0724 99.3617 50.9531 99.3893 50.7939L104.66 20.9112C104.731 20.4974 104.415 20.1155 104 20.1155H99.5393C98.8129 20.1195 98.1931 20.6406 98.0668 21.3608Z" fill="#9D998E"/>
<path d="M117.861 20.1194H111.059H109.046H106.365C106.041 20.1194 105.765 20.3541 105.71 20.6724L100.479 50.3363C100.412 50.7222 100.704 51.0723 101.091 51.0723H105.757H113.155C113.289 51.0723 113.933 46.7517 114.15 45.2597C114.189 44.9932 113.984 44.7584 113.72 44.7584L108.003 44.7624C107.747 44.7624 107.553 44.5277 107.597 44.273L108.635 38.3808H113.064C113.42 38.3808 113.728 38.1222 113.791 37.7721L114.679 32.8189C114.738 32.4926 114.49 32.1902 114.158 32.1902H109.729V32.1863L110.747 26.4015C110.759 26.3418 110.806 26.302 110.865 26.302H116.763C117.119 26.302 117.427 26.0434 117.49 25.6933L118.378 20.74C118.437 20.4178 118.189 20.1194 117.861 20.1194Z" fill="#9D998E"/>
<path d="M79.7096 20.1194C80.0925 20.1194 80.3807 20.4735 80.3096 20.8514L76.0381 42.9323C76.0381 42.9323 74.7156 49.3854 71.2929 50.7143C67.8741 52.0391 62.217 52.1068 60.2431 49.3218C58.2692 46.5368 58.0718 44.2173 60.2431 32.5523C61.6643 24.9135 62.1814 21.9495 62.3709 20.8116C62.438 20.4098 62.7815 20.1194 63.1842 20.1194H67.8939C68.4307 20.1194 68.8413 20.6087 68.7466 21.1458C68.0518 25.0488 65.612 38.8225 65.4423 40.2746C65.2449 41.9655 64.783 44.5834 65.6713 44.8499C66.5595 45.1165 68.2018 45.3791 68.7308 44.5515C69.2558 43.724 70.6731 38.719 72.0509 30.5988C73.1523 24.1337 73.6458 21.3249 73.8037 20.4456C73.8353 20.2586 73.9971 20.1234 74.1866 20.1234L79.7096 20.1194Z" fill="#9D998E"/>
<path d="M51.3802 56.4077V56.4992L51.3171 56.5628V56.6543L51.2658 56.7339L51.2144 56.8652L51.175 56.9965L51.1236 57.1119L51.0447 57.279L51.0328 57.3585L50.9697 57.4739L50.8907 57.6291L50.8394 57.6808L50.7368 57.7086H50.5828L50.4407 57.7206L49.734 57.7086L49.7222 57.7723L49.6709 57.9394L49.6195 58.0707L49.5406 58.3054L49.5011 58.4606L49.4498 58.5521L49.4103 58.6436L49.3827 58.747L49.3432 58.8385L49.2129 59.1767L49.1734 59.3319L49.0945 59.5149L49.209 59.5268L49.3511 59.5388L49.43 59.5268L49.6353 59.5388H50.1091L50.188 59.5666H50.267L50.3064 59.6303L50.2551 59.8252L50.2314 59.8889L50.2038 60.0042L50.1643 60.0679L50.1248 60.2111L50.0854 60.3026L50.0459 60.4339L49.9669 60.5772L49.9551 60.6567L49.9156 60.7363L49.8919 60.8278L49.813 60.9074L49.6985 60.971H49.3274L49.1616 60.983L48.8655 60.9591H48.6484L48.5971 61.0745L48.5734 61.1779L48.4431 61.54L48.3918 61.7071L48.3681 61.7986L48.3405 61.9418L48.3168 62.0214L48.2536 62.1765L48.226 62.2561L48.1628 62.4232L48.1233 62.6062L48.0444 62.7733L48.0167 62.8767L47.9536 62.9921L47.8391 63.0319H47.5706L47.5075 63.02H47.2114L47.1324 63.008L47.0693 62.9961H46.9785L46.9153 63.008L46.8008 62.9961L46.7219 62.9842L46.6429 62.9961L46.5797 62.9682L46.5008 62.8767L46.5403 62.6818L46.6192 62.4988L46.6705 62.3038L46.71 62.2123L46.7613 62.0293L46.8008 61.9259L46.864 61.7309L46.8916 61.6394L46.9311 61.536L46.9548 61.4445L47.0337 61.2774L47.0456 61.1978L47.0851 61.0426L47.1087 60.9631L47.1364 60.8994H46.9311L46.8679 60.9114L46.789 60.8994H46.6232L46.5205 60.9114H46.2521L46.0863 60.9233L45.9718 60.9114L45.9205 61.0426L45.8928 61.1739L45.7626 61.536L45.7112 61.7031L45.6836 61.7946L45.6441 61.9378L45.6204 62.0174L45.5573 62.1725L45.5336 62.2521L45.4704 62.4192L45.4309 62.6022L45.352 62.7693L45.3283 62.8728L45.2651 62.9881L45.1506 63.0279H44.8822L44.819 63.016H44.523L44.444 63.0041L44.3808 62.9921H44.29L44.2269 63.0041L44.1124 62.9921L44.0334 62.9802L43.9545 62.9921L43.8913 62.9643L43.8124 62.8728L43.8518 62.6778L43.9308 62.4948L43.9821 62.2999L44.0216 62.2083L44.0729 62.0253L44.1124 61.9219L44.1755 61.7269L44.1992 61.6354L44.2387 61.532L44.2663 61.4405L44.3453 61.2734L44.3571 61.1938L44.3966 61.0387L44.4203 60.9591L44.4598 60.8557H43.8795L43.8005 60.8676L43.7373 60.8397H43.4807L43.4018 60.8278L43.3623 60.7124V60.6209L43.4018 60.5573L43.4255 60.4658L43.4768 60.4021L43.5163 60.2708L43.5676 60.1395L43.6189 60.0241L43.6821 59.869L43.7058 59.7775L43.7689 59.686L43.8479 59.5189L43.8716 59.4791L43.9861 59.4512H44.14L44.294 59.4393L44.9612 59.4512L44.973 59.3876L44.9848 59.308L45.0243 59.2165L45.048 59.125L45.0875 59.0454L45.1388 58.8624L45.1783 58.6794L45.2572 58.4964V58.4049L45.3086 58.2219L45.3875 58.1184L45.4152 57.9513L45.4665 57.7962L45.5296 57.6291V57.6171H45.5059L45.3638 57.6052L45.2849 57.6171L45.0796 57.6052L44.6019 57.5933L44.523 57.5813H44.444L44.4322 57.5296L44.4558 57.3108L44.4795 57.2591L44.519 57.1437L44.5585 57.0522L44.5861 56.9209L44.6493 56.8294L44.6888 56.6981L44.7401 56.531L44.7638 56.4673L44.8032 56.3878L44.8309 56.2843L44.894 56.2048L45.0085 56.1411H45.3796L45.5612 56.1292L45.8455 56.157H46.0271L46.0665 56.0655L46.1455 55.8984V55.8069L46.1692 55.7035L46.2087 55.5364L46.2481 55.4727L46.2995 55.2897L46.3626 55.1226L46.3863 55.043L46.4258 54.9635L46.4653 54.8083L46.5166 54.6651L46.5797 54.5218L46.6311 54.3269L46.6705 54.2473L46.6942 54.1558L46.8087 54.0245L46.8482 53.945L46.9508 53.933L47.0298 53.9211L47.1838 53.9092L47.2746 53.9211H47.4167L47.4956 53.9092H48.0365L48.1154 53.8972L48.2299 53.937V54.0683L48.2062 54.1479L48.1944 54.315L48.1549 54.3547L48.1154 54.498V54.5775L48.0641 54.6293L48.0523 54.7446L48.0009 54.8083L47.9496 54.9913L47.8865 55.1067L47.8588 55.2101L47.8351 55.2897L47.8233 55.3812L47.7996 55.4608L47.6851 55.7989L47.6338 55.9422L47.5943 56.0217L47.5548 56.1769L47.543 56.2167H47.8115L47.8628 56.2048L47.9536 56.2167L48.0838 56.2286L48.1075 56.2167L48.2102 56.2048H48.4786L48.6444 56.1928L48.7234 56.2048L48.7352 56.165L48.7747 56.0735L48.8537 55.9064V55.8149L48.905 55.7114L48.9445 55.5443L48.9563 55.4807L49.0076 55.2977L49.0708 55.1306L49.0945 55.051L49.134 54.9714L49.1734 54.8163L49.2248 54.673L49.2879 54.5298L49.3392 54.3349L49.3787 54.2553L49.4024 54.1638L49.5169 54.0325L49.5801 53.9927L49.659 53.941L49.738 53.929L49.8919 53.9171L49.9827 53.929H50.1248L50.2038 53.9171H50.7446L50.8236 53.9052L50.9381 53.945V54.0762L50.9105 54.1558L50.8986 54.3229L50.8591 54.3627L50.8197 54.5059V54.5855L50.7683 54.6372L50.7565 54.7526L50.7052 54.8163L50.6815 54.9595L50.642 55.051L50.6025 55.1823L50.5512 55.2977L50.5275 55.3892L50.4999 55.4687L50.3854 55.8069L50.3341 55.9501L50.2946 56.0297L50.2551 56.1849L50.2314 56.2644L50.8868 56.2764L50.9381 56.2644L51.0289 56.2764H51.2855L51.3644 56.2883L51.3802 56.4077ZM47.2153 59.491L47.3575 59.4791H47.6535L47.6812 59.3876L47.693 59.308L47.7325 59.2165L47.7562 59.125L47.7957 59.0454L47.847 58.8624L47.8865 58.6794L47.9654 58.4964V58.4049L48.0167 58.2219L48.0957 58.1184L48.1194 57.9513L48.1707 57.7962L48.222 57.6529H48.1707L47.5154 57.641L47.3732 57.6529H47.0535L47.0416 57.6649L47.0298 57.7564L46.9903 57.9235L46.9271 58.0548L46.7969 58.4447L46.7179 58.6277L46.6666 58.7192L46.6548 58.8226L46.5245 59.1608L46.485 59.316L46.4218 59.4711H46.564L47.2153 59.491Z" fill="#9D998E"/>
<path d="M50.5157 62.9881L50.4249 62.9762L50.192 62.9881L50.113 62.9244V62.6778L50.1525 62.5982L50.1407 62.5067L50.1801 62.3237V62.2441L50.2196 62.0611L50.2591 61.8662L50.2986 61.6991L50.3104 61.6076L50.3499 61.4524L50.3617 61.3609L50.3736 61.2813L50.4249 60.9829L50.4644 60.9034L50.4762 60.7363L50.4881 60.6447L50.5157 60.5652L50.567 60.3981L50.5789 60.3185L50.5907 60.1633V60.0997L50.6539 59.9684V59.8252L50.6815 59.7456V59.6541L50.721 59.5745L50.7328 59.3796L50.7723 59.109L50.8118 59.0175L50.8236 58.9141L50.8355 58.7311L50.8592 58.6396L50.871 58.56L50.8947 58.4685L50.9065 58.3889L50.946 58.2059L50.9579 58.1025L50.9815 57.9075L51.021 57.7006L51.0605 57.5335V57.3784L51.0723 57.2113L51.096 57.1198L51.1355 57.0283L51.1474 56.8612L51.1592 56.7816L51.2105 56.5747L51.2224 56.4315L51.2105 56.3798L51.25 56.2127L51.2618 56.1331L51.2737 55.8984L51.2974 55.7949L51.3368 55.6119L51.3763 55.4965L51.3882 55.3414L51.4119 55.2499V55.1464L51.4395 55.0549L51.4513 54.9634V54.8838L51.479 54.7923L51.5303 54.5854L51.5421 54.4939L51.554 54.3905L51.5935 54.2075L51.6053 54.104L51.6566 53.9369L51.7593 53.8852H52.4264L52.5922 53.8733L52.758 53.8852L52.837 53.8733H53.6976L53.7884 53.8852L53.9819 53.8733H54.1635L54.3569 53.9011H54.4595L54.6253 53.925L54.8938 53.9648L55.0991 54.0046L55.1899 54.0324L55.2807 54.0961L55.3715 54.1359L55.5373 54.2274L55.6518 54.3308L55.7031 54.3945L55.782 54.4979L55.861 54.5894L55.9005 54.6929L55.9794 54.86L56.0071 54.9515L56.0584 55.0947L56.0702 55.2379L56.0821 55.3294L56.1215 55.4727L56.1097 55.6039L56.1215 55.7989V55.8904L56.1334 56.0336L56.1215 56.1769L56.0979 56.3201L56.086 56.4116L56.0623 56.698L56.0347 56.8811L55.9952 56.9726L55.9834 57.076L55.9439 57.1675L55.9321 57.2471L55.9044 57.3267L55.8649 57.5097L55.8255 57.6131L55.7623 57.7961L55.6597 58.0428L55.5965 58.186L55.5057 58.3412L55.3912 58.5361L55.3123 58.6157L55.2215 58.7709L55.107 58.8743L55.0162 59.0056L54.953 59.0971L54.7872 59.2284L54.724 59.308L54.5424 59.3995L54.4122 59.4393L54.2464 59.5188L54.0411 59.5825L53.8871 59.6064L53.7213 59.6183L53.5397 59.6422L53.1805 59.67L52.9357 59.6581H52.6515L52.458 59.6461V59.674L52.4462 59.7655L52.4067 59.8689L52.3949 60.036L52.3672 60.0997L52.3554 60.2668L52.3435 60.3464L52.3317 60.4379L52.308 60.5174L52.2962 60.6089V60.6885L52.2567 60.8715L52.2172 60.9869L52.1935 61.1421L52.1659 61.2336L52.1264 61.3887L52.1146 61.4802L52.0751 61.5717V61.703L52.0356 61.898V62.081L51.9843 62.1606V62.264L51.9724 62.3555L51.9487 62.4351L51.9369 62.5266L51.8974 62.63L51.8856 62.7454L51.8737 62.8489L51.8343 63.004L51.7435 63.016H50.717L50.5157 62.9881ZM53.0739 58.0149L53.216 57.9871L53.4607 57.9632L53.5515 57.9234L53.7568 57.7683L53.899 57.637L53.9897 57.4938L54.0411 57.4142L54.1042 57.2312L54.1319 57.1158L54.1832 57.0004L54.2345 56.7816L54.2858 56.4195L54.3095 56.0814V55.8626L54.2582 55.7074L54.1792 55.592L54.0371 55.4886L53.9226 55.4607L53.5752 55.4488L53.2792 55.4607L53.1884 55.4886L53.1252 55.6437L53.1015 55.7074L53.0897 55.8387L53.066 56.0575L53.0383 56.149L52.9989 56.3042L52.9594 56.5628L52.9357 56.6941L52.8962 56.901L52.8844 57.0561V57.1596L52.8607 57.2749L52.7975 57.5972V57.7126L52.758 57.8956L52.7462 58.011H53.0739V58.0149Z" fill="#9D998E"/>
<path d="M55.1427 63L55.0519 62.9881L54.1123 62.9761L53.9978 62.9483L53.9741 62.8448L53.9978 62.7533L54.0096 62.6738L54.0886 62.5186L54.1912 62.3515L54.3215 61.9616L54.4005 61.8064L54.4636 61.6513L54.6058 61.3409L54.6571 61.1738L54.7597 60.9391L54.7834 60.8595L54.8466 60.768L54.9097 60.6129L54.9334 60.5333L54.9453 60.4418L54.9847 60.3622L55.0479 60.1951L55.0874 60.1036L55.1782 59.9206L55.2058 59.8291L55.2295 59.7137L55.2927 59.6103L55.3716 59.4551L55.3953 59.3636L55.4743 59.1806L55.4861 59.101L55.5256 59.0095L55.5651 58.93L55.6282 58.7469L55.6677 58.6674L55.7704 58.3053L55.8098 58.2019L55.9006 58.0348L55.9638 57.816L56.0428 57.6727L56.0822 57.5932L56.1217 57.4261L56.1849 57.3346L56.2244 57.1675L56.248 57.1038L56.327 56.9367L56.3665 56.7537L56.4296 56.6622L56.481 56.5826L56.5836 56.3121L56.6468 56.145L56.6862 56.0654L56.7652 55.95L56.8047 55.8187L56.8442 55.7272L56.9586 55.4925L56.9863 55.401L57.0257 55.3214L57.0494 55.2419L57.0731 55.1504L57.1521 55.0071L57.2034 54.9276L57.231 54.8639L57.31 54.6292L57.4008 54.4621L57.5153 54.2273L57.5547 54.1358L57.5942 54.0563L57.6456 53.913L57.7363 53.9011H57.8666L58.1114 53.913L58.2417 53.9011H58.4469L58.6917 53.8892H58.8062L58.897 53.917L59.0115 53.9051H59.2168L59.2799 53.9289L59.3707 53.9926L59.4102 54.5496V54.8361L59.4339 54.9156V55.1504L59.4457 55.6158V55.7989L59.4576 55.966L59.4813 56.2246V56.4076L59.4931 56.6025L59.4813 56.694V56.9805L59.5049 57.1635V57.4221L59.5168 57.6051L59.5049 57.6847L59.5168 57.8518V57.9313L59.5286 58.1382L59.5523 58.2815V58.7867L59.5642 58.9419L59.576 59.0453V59.4352L59.5879 60.032V60.1235L59.5997 60.3185L59.5879 60.5134L59.5997 60.6964L59.5879 60.7879L59.6155 61.2813V61.3608L59.6273 61.5279L59.6392 61.6194V61.8144L59.6273 61.9974L59.6392 62.1008V62.2162L59.651 62.5027V62.7732C59.6629 62.8249 59.6747 62.9403 59.6115 62.9801C59.5602 62.992 59.5207 62.9801 59.4694 62.9801L59.3786 62.992L59.276 62.9801H59.0944L58.8101 62.992H58.7075L58.5535 62.9801L58.4627 62.992L58.3325 63.004L58.1667 62.992H57.9732L57.9219 62.9522L57.8943 62.821L57.8824 62.5862L57.8706 62.4549L57.8824 62.3236V61.7149L57.8706 61.6115L57.5863 61.5996L57.3811 61.5717L56.8165 61.5598H56.4691L56.406 61.703L56.3151 61.8701L56.2875 61.9616L56.248 62.0531L56.1967 62.2083L56.0664 62.4549L55.9875 62.6499L55.948 62.7931L55.9085 62.8568L55.8572 62.9483L55.7782 63L55.419 62.9881L55.3164 63H55.1427ZM57.8429 59.8928L57.9219 59.8291L57.9337 59.6461L57.9219 59.5427L57.9337 59.4392V59.101L57.9456 59.0095V58.7907L57.9732 58.6873L57.9614 58.3769L57.9732 57.8836L57.9851 57.4181L57.9732 57.1197L57.8706 57.1595L57.8193 57.3266L57.7561 57.5335L57.7166 57.6648L57.6534 57.8717L57.6021 57.9751L57.5508 58.1064L57.539 58.1979L57.4876 58.2894L57.4482 58.4048L57.4087 58.4963L57.3692 58.6117L57.2902 58.8981L57.2784 58.9896L57.2152 59.1846L57.1639 59.2761L57.1008 59.4949L57.0731 59.5864L57.0494 59.7018L57.01 59.7933L57.1008 59.8729H57.2034L57.3455 59.8848L57.46 59.8967H57.8429V59.8928Z" fill="#9D998E"/>
<path d="M60.1564 63.0001H59.9906L59.5918 62.9762L59.4773 62.9484L59.4497 62.8688V62.7534L59.4892 62.6221L59.501 62.4908L59.5129 62.3476V62.2561L59.5366 62.1765V62.085L59.576 61.9935V61.9139L59.5879 61.8224L59.6274 61.6394V61.5479L59.6668 61.4445L59.655 61.353L59.6945 61.2495L59.7063 61.0665L59.73 60.9631L59.7418 60.8716L59.73 60.7681L59.7813 60.6647V60.4697L59.8445 60.235V60.1196L59.8721 59.9883L59.884 59.7934V59.6899L59.9353 59.5069L59.9471 59.4154L59.959 59.312V59.1966L60.0221 59.1051L60.0498 59.0255L60.0379 58.946L60.0498 58.7908L60.0735 58.6993L60.1129 58.6197V58.5402L60.1366 58.4486L60.1643 58.3054L60.1761 58.2259L60.2037 58.0587L60.2274 57.8757V57.7723L60.2906 57.5018V57.4103L60.3024 57.3307L60.3143 57.2392L60.338 57.0721L60.3498 56.9925V56.901L60.3616 56.8214L60.413 56.6663L60.4248 56.4833L60.4367 56.4037L60.4761 56.2207L60.5156 56.0138L60.5551 55.8308L60.5669 55.7512V55.6716L60.5788 55.5045V55.425L60.6064 55.3335L60.6459 55.1783L60.6854 54.9714L60.7367 54.6094L60.7485 54.5059L60.7604 54.4144V54.311L60.8117 54.2075L60.7998 54.0643L60.8512 54.0006L60.942 53.8972L61.0722 53.8694H61.2538L62.0237 53.8813H62.5763L62.6672 53.8694L62.7974 53.8574L62.9001 53.8853L63.0935 53.9091H63.208L63.3738 53.937L63.5672 53.9489L63.7094 53.9768H63.9146L64.0173 54.0046L64.1594 54.0683L64.2739 54.12L64.3647 54.1479L64.4792 54.2274L64.5581 54.2672L64.6213 54.307L64.7753 54.3985L64.8266 54.4502L64.8897 54.5298L64.9411 54.5935L65.0319 54.7486L65.1227 54.9316L65.1621 55.1385L65.1858 55.3852V55.4767L65.2253 55.7234V55.8268L65.1858 56.0098L65.174 56.1013L65.1858 56.2963V56.3878L65.1464 56.5947L65.1227 56.8015L65.0832 56.9328L65.0319 57.088L65.0082 57.1795L64.9845 57.2591L64.945 57.3506L64.8819 57.5057L64.7674 57.6728L64.7279 57.7643L64.6766 57.8797L64.5739 58.0468L64.5344 58.1264L64.3923 58.2935L64.3292 58.3571L64.1476 58.5521L63.891 58.7192L63.7094 58.8107L63.6186 58.8226V58.938L63.658 59.0414L63.7212 59.2364V59.3518L63.7488 59.5189L63.8002 59.5984L63.812 59.7019L63.8357 59.869L63.8752 59.9485L63.9146 60.1157L63.9423 60.1952L63.966 60.3782L64.0054 60.4697L64.0331 60.5732L64.0844 60.7403V60.8198L64.1476 61.0148L64.1713 61.1819L64.3134 61.6474L64.3371 61.8304L64.4279 62.0492L64.4397 62.2044L64.4515 62.2959L64.4792 62.4113L64.57 62.6579L64.5305 62.825L64.4673 62.837L64.3252 62.8648H64.1594L63.891 62.9046L63.5554 62.9444H63.3896L63.2475 62.9563H63.1448L63.0303 62.9683L62.9514 62.9563L62.8369 62.8409L62.8093 62.7773L62.7698 62.6221L62.7461 62.5585L62.7066 62.4152L62.6277 62.2203V62.1168L62.5882 62.0134L62.5606 61.9736L62.5369 61.8065L62.4974 61.715V61.6235L62.4579 61.5439L62.4461 61.4524L62.4066 61.3092L62.3553 61.1779V61.0228L62.2763 60.788L62.2645 60.6965L62.2132 60.5414L62.1855 60.4498L62.1618 60.2827L62.1105 60.1157L62.0987 59.9326L62.071 59.869L62.0316 59.686L62.0079 59.5547L61.9565 59.4512L61.9329 59.3478L61.8815 59.2444L61.8302 59.1926L61.7394 59.1807L61.7276 59.2324L61.6999 59.312L61.6605 59.495L61.6486 59.5984L61.6091 59.869V60.0878L61.546 60.2549L61.5223 60.4379V60.5175L61.4947 60.7005L61.4433 60.8039V61.0745L61.4197 61.1779L61.3683 61.4485L61.3565 61.5519L61.3289 61.6315V61.7349L61.2894 61.9179L61.3012 61.9975L61.2775 62.089V62.1686L61.2657 62.3357L61.2538 62.4272V62.5067L61.242 62.5982L61.2302 62.7534L61.1907 62.8449L61.1512 62.9603L61.0209 62.9484L60.9064 62.9603L60.713 62.9722L60.6104 62.9842L60.1564 63.0001ZM62.4974 57.6768L62.6514 57.637L62.7303 57.5853L62.8606 57.5057L62.9514 57.454L63.0422 57.3506L63.0935 57.271L63.1843 57.1914L63.2475 57.0243L63.2712 56.9209L63.283 56.8413L63.3738 56.6583V56.5549L63.4133 56.4514L63.4251 56.2445L63.4133 55.9581L63.3738 55.6875L63.3106 55.5722L63.2198 55.4807L63.1054 55.417L62.8211 55.3772L62.5132 55.3653L62.3987 55.4051L62.3592 55.5483L62.3197 55.6398L62.2961 55.8467L62.2842 56.0416L62.2724 56.2087L62.2447 56.3122L62.2053 56.5191V56.6106L62.1816 56.8055L62.1421 56.9209L62.1539 57.0363L62.1263 57.1516L62.0868 57.3585L62.075 57.45L62.0868 57.5415L62.075 57.645L62.2921 57.6728H62.4974V57.6768Z" fill="#9D998E"/>
<path d="M65.3514 62.988H65.2606L65.1462 62.8846L65.1698 62.6897L65.1817 62.4191L65.2725 62.1486L65.2962 62.0571L65.308 61.8621L65.3317 61.7825L65.3436 61.5995V61.508L65.4067 61.325L65.4186 61.2335L65.4067 61.1301L65.4699 60.8595V60.7561L65.5094 60.6009L65.5488 60.406L65.5725 60.3145L65.5844 60.223L65.6081 60.0559L65.6357 59.9763L65.6475 59.7933L65.7107 59.662L65.687 59.5307L65.6988 59.4392L65.7265 59.3477L65.7896 59.1647L65.841 58.9697L65.8647 58.8782L65.841 58.7867L65.9041 58.6316L65.9318 58.552V58.369L65.9712 58.2377V58.1223L65.9949 58.0308L66.0463 57.9512V57.8597L66.0699 57.7801L66.1094 57.5852L66.0976 57.4937L66.1607 57.3505V57.2192L66.1844 57.1555V57.0521L66.1963 56.9606L66.2239 56.8691L66.2871 56.6622L66.2989 56.5826V56.503L66.3108 56.4115V56.332L66.3502 56.1649L66.3779 56.0734L66.4016 55.8784L66.4134 55.6715H65.7186L65.537 55.6596L65.4462 55.6715H65.3317L65.2014 55.6596H65.0988L64.9843 55.6198L64.9448 55.5044L64.9725 55.3493L65.0119 55.2458V55.1424L65.0001 55.0509L65.0514 54.8679L65.0751 54.7883L65.0869 54.6053L65.1383 54.4382L65.1777 54.3586V54.1756L65.1896 54.096L65.2527 53.9528L65.3672 53.8613L65.458 53.8494H65.7936L65.8568 53.8613H65.9476L66.0384 53.8494H66.9898L67.0806 53.8613H67.3648L68.1859 53.8494L68.3794 53.8613L68.6478 53.8494L68.7623 53.8613H69.5598L69.7414 53.8732L69.8558 53.9011L69.8795 54.0045V54.0841L69.8677 54.1756L69.8401 54.279V54.3706L69.8282 54.4501L69.8006 54.5416V54.6212L69.7769 54.7764L69.7532 54.8679L69.7414 54.9474L69.7295 55.1026L69.6782 55.2697L69.6545 55.3612L69.6427 55.5442L69.5913 55.6596L69.4611 55.6715L69.3466 55.6596H69.1926L69.0781 55.6715H68.9479L68.407 55.6596L68.2925 55.6715L68.2688 55.763L68.2807 55.8426L68.2412 55.9341V56.0137L68.2175 56.0933L68.1938 56.2604L68.182 56.3519L68.1307 56.5866L68.0794 56.69L68.107 56.7537L68.0438 56.9367L67.9925 57.1038V57.1834L67.9807 57.3385L67.9688 57.4181V57.5096L67.9056 57.6648L67.882 57.8597L67.8543 57.9512L67.8149 58.1342L67.7754 58.2138V58.3053L67.7635 58.4724L67.7241 58.6276L67.6727 58.7191L67.6609 58.9021L67.6333 58.9817V59.0612L67.5938 59.2442L67.5543 59.4392L67.5306 59.5546V59.6859L67.5188 59.7654L67.4951 59.845L67.4832 59.9365L67.4319 60.0917L67.4201 60.1832L67.4082 60.2628L67.4201 60.3543L67.3806 60.5373L67.3411 60.7442L67.2898 60.9113L67.278 61.0028L67.2385 61.1699L67.1753 61.4404L67.1477 61.5438L67.1082 61.7268L67.12 61.8303L67.0569 62.1167L66.9779 62.4788L66.9542 62.6618L66.9148 62.8448L66.8911 62.9244L66.7371 62.988H65.6199L65.4659 63.0278L65.3514 62.988Z" fill="#9D998E"/>
<path d="M70.5269 63.1313L70.4361 63.1193H70.3059L70.1637 63.0954L70.0335 63.0676L69.9427 63.0397L69.7374 62.9482L69.5953 62.8965L69.465 62.805L69.311 62.7016L69.1807 62.5345L69.0505 62.3793L68.936 62.1963L68.8452 61.9775L68.8215 61.874L68.7307 61.6393L68.7189 61.5597L68.6794 61.3767L68.6675 61.2972L68.6399 61.0903V60.7004L68.6517 60.4816L68.6399 60.39L68.6675 60.1951L68.6794 60.0917L68.707 60.0002L68.7465 59.7933L68.9281 59.7018L69.236 59.6739L69.39 59.6859H70.1085L70.2743 59.6978L70.3769 59.8808V60.3622L70.3651 60.4537V60.7242L70.3927 61.0107L70.4322 61.142L70.523 61.3369L70.6533 61.4682L70.8191 61.508H70.9336L71.0362 61.4802L71.1783 61.4404L71.2415 61.3767L71.3046 61.2613L71.356 61.1698L71.4073 61.0147L71.431 60.8595L71.4428 60.7282V60.6367L71.431 60.4537V60.2468L71.3797 60.0121V59.9325L71.3402 59.7376L71.2375 59.5546L71.1349 59.3994L71.0441 59.2164L70.9928 59.1368L70.9691 59.0732L70.9296 59.0095L70.8388 58.918L70.7756 58.8146L70.6335 58.6475L70.5704 58.5838L70.519 58.5042L70.3769 58.3371L70.223 58.17L70.1085 58.0029L69.9782 57.8597L69.8479 57.7563L69.7848 57.6648L69.7058 57.5335L69.6268 57.3385L69.5755 57.2231L69.5124 57.1316L69.4729 57.0401L69.4492 56.9367L69.3979 56.7696L69.386 56.6025L69.3742 56.499L69.386 56.4075V56.0336L69.4137 55.775L69.4531 55.6835L69.465 55.5004L69.5163 55.4089L69.5558 55.2776L69.5676 55.1463L69.6466 54.9793L69.6979 54.8758L69.7374 54.7843L69.7769 54.7206L69.8795 54.6053L69.919 54.5535L69.9979 54.4223L70.0769 54.3427L70.2308 54.2114L70.4638 54.0443L70.6691 53.9647L70.8112 53.8852L71.0559 53.8334L71.2731 53.7698H71.6718L71.9916 53.7817H72.0824L72.1969 53.8096L72.3903 53.8215L72.6074 53.8852L72.6982 53.8971L72.7495 53.9369L72.9035 54.0164L72.9943 54.096L73.0969 54.1358L73.2391 54.2671L73.2785 54.3188L73.4088 54.462L73.4483 54.5257L73.5391 54.6689L73.5904 54.7485L73.6181 54.8917L73.6575 54.9832L73.7365 55.2936V55.58L73.7483 55.8386L73.7365 56.0574L73.6852 56.4195L73.6338 56.7059L73.4799 56.7855L73.247 56.7974H72.5285L72.3469 56.7855H72.1653L72.0626 56.694L72.0508 56.5269L72.0745 56.4235L72.1139 56.0216V55.7232L72.0903 55.5681L72.0508 55.4885L71.9363 55.3731L71.806 55.2697L71.6402 55.2458L71.4862 55.2975L71.3441 55.3612L71.281 55.4527L71.2415 55.5442L71.1902 55.6755L71.1783 55.767L71.1388 55.8983L71.127 56.0813V56.2484L71.1388 56.3399L71.2296 56.5866L71.3323 56.7696L71.3836 56.873L71.4744 57.0401L71.6165 57.2231L71.7823 57.43L71.8337 57.5096L71.8968 57.5733L71.9481 57.6767L71.9995 57.7404L72.0784 57.7921L72.2087 57.8955L72.2482 57.9751L72.3113 58.0149L72.3508 58.0785L72.4653 58.2098L72.5285 58.3252L72.6824 58.4804L72.7732 58.6992L72.8877 58.8424L72.8996 58.9061L73.0022 59.1647L73.0812 59.3318L73.1601 59.6023L73.172 59.6938L73.1838 59.7972L73.1956 59.8888L73.2588 60.1076L73.2864 60.1871L73.2746 60.3702L73.2628 60.4497L73.2746 60.5412L73.2628 60.6327V60.9948L73.2233 61.1778L73.2114 61.2574V61.4523L73.1601 61.6194L73.1364 61.7229L73.1088 61.8382L73.0456 62.0212L72.9311 62.2401L72.8522 62.2918L72.789 62.4231L72.7259 62.4748L72.6232 62.5902L72.56 62.6419L72.4574 62.7334L72.3271 62.813L72.2126 62.9045L72.0587 62.9443L71.9797 62.996L71.7863 63.0596L71.6836 63.0716L71.5178 63.1233L71.427 63.1352L71.3125 63.1233L71.2217 63.1352H71.0796L70.9888 63.1472L70.8467 63.1591L70.5269 63.1313Z" fill="#9D998E"/>
<path d="M78.8212 63.0398H77.9093L77.8461 62.9881L77.8066 62.8448L77.7948 62.6618L77.8066 62.5822L77.779 62.3992L77.7553 62.1924L77.7158 62.0889L77.7277 61.9218L77.7395 61.8422L77.7277 61.6592L77.7158 61.5677V61.3091L77.6764 61.2176L77.7001 61.138L77.6882 61.0465L77.7001 60.8635L77.6606 60.7084L77.6882 60.5651L77.7119 60.3702L77.6882 60.2031L77.6606 60.0877L77.6369 59.853V59.7615L77.6882 59.4392L77.6764 59.2204L77.6645 58.9857L77.6764 58.7509L77.6487 58.5162H77.5856L77.5066 58.6475L77.479 58.739L77.4277 58.8186L77.3645 59.0533L77.2737 59.2721L77.1947 59.4392L76.8868 60.1912L76.8355 60.2827L76.6026 60.7999L76.5907 60.8914L76.5118 61.0465L76.4999 61.1261L76.4604 61.2693L76.3815 61.4364L76.3025 61.5916L76.2788 61.6712L76.2394 61.8263L76.1999 61.9178L76.1486 61.9974L76.1091 62.1804L76.0696 62.2719L76.0183 62.4032L75.9788 62.5186L75.9512 62.6618L75.8604 62.805L75.8209 62.8846L75.7972 62.9483L75.6156 63.0119H75.5367L75.4222 62.9721L75.359 62.996L75.0629 62.9841L74.909 63.0239L74.7787 62.9721L74.6997 62.9841H74.5695L74.4787 62.996H74.3484L74.2576 62.9841L74.1786 62.8687L74.1905 62.7653L74.1628 62.6738L74.1747 62.5425V62.4271L74.1628 62.3356L74.1747 62.1804L74.1628 62.1008L74.1747 62.0093L74.1628 61.894L74.1747 61.8025L74.1865 61.6592V61.5279L74.1984 61.4484L74.2102 61.2654L74.1984 61.1738L74.2102 61.0823L74.1984 60.8993V60.6407L74.2102 60.5612L74.2221 60.3781V59.666L74.2339 59.483V59.3795L74.2576 59.1448L74.2339 58.9777L74.2457 58.8623L74.2734 58.6952V58.6037L74.2971 58.5003L74.2852 58.4088V58.19L74.2971 58.0984L74.3089 57.9433L74.2971 57.8518L74.3089 57.6847L74.2971 57.6051L74.3089 57.4221L74.2971 57.3187L74.3208 57.2272L74.3089 57.0322L74.2971 56.9407L74.3089 56.5667L74.3208 56.3837L74.3089 56.2166L74.3326 55.9699L74.3444 55.8784L74.3563 55.7471V55.592L74.3681 55.397L74.3563 55.1265V55.035L74.38 54.7764V54.6968L74.3918 54.6053L74.38 54.4501V54.3586L74.3918 54.2791V54.1637L74.4155 53.9807L74.5695 53.9409H74.905L75.0471 53.929L75.1774 53.9409H75.2406L75.3432 53.929H75.5998L75.7656 53.9568L75.9078 53.9449H75.9986L76.1407 54.0244L76.1644 54.2433V54.3586L76.1762 54.4501L76.1249 54.852V54.9315L76.1367 55.023L76.1249 55.5044L76.1012 55.584L76.0894 55.8824V56.1171L76.0775 56.2086L76.038 56.3917V56.5588L76.0617 56.7418L76.0499 56.8333L76.038 56.9128L76.0262 57.0959L76.0143 57.1874V57.2669L75.9907 57.3584V57.438L75.9788 57.5295L75.9907 57.6091L75.9788 57.8955L75.9551 58.0786L75.967 58.1701L75.9551 58.2735V58.4565L75.9275 58.6236L75.9393 58.7549H75.9907L76.0696 58.6117L76.1091 58.5321L76.1881 58.365L76.2117 58.2735L76.2907 58.1064L76.3302 57.9512L76.421 57.7841L76.4328 57.7046L76.6144 57.3942L76.6381 57.2391L76.7289 57.0044L76.7526 56.9128L76.8671 56.6781L76.9184 56.523L76.9579 56.4593L77.021 56.3041L77.0605 56.2246L77.1 56.0813L77.1789 55.8983L77.3092 55.5761L77.3329 55.4846L77.4237 55.226L77.5027 55.0589L77.5303 54.9554L77.6092 54.7207L77.6487 54.6411L77.7395 54.474L77.8698 54.4104H78.2804L78.4343 54.4223L78.5646 54.4104H78.6673L78.7581 54.4223H78.8488L78.912 54.5138L78.9239 54.8361V55.226L78.9357 55.4328L78.9239 55.7034V55.7829L78.9357 55.966L78.9239 56.0455L78.9357 56.523V56.6145L78.9081 56.7816L78.9199 56.9248V57.1834L78.9318 57.2868L78.9041 57.3664L78.916 57.4698L78.9041 57.5613L78.8923 57.6648L78.916 57.9234L78.9041 58.3889L78.9318 58.5719V58.7907H78.9949L79.0344 58.6475L79.0976 58.4923L79.1489 58.3252L79.2515 57.9632L79.2634 57.8717L79.291 57.7921L79.4055 57.4937L79.445 57.3385L79.4844 57.259L79.5081 57.1675L79.5358 57.0879L79.5752 56.9964L79.6147 56.9168L79.666 56.7497L79.6897 56.6463L79.7411 56.4911L79.7529 56.3996L79.7766 56.32L79.8003 56.2285L79.8911 56.0734L79.9029 55.9819L79.9424 55.8267L80.0056 55.4885L80.0963 55.3214L80.1477 55.1543L80.1871 55.0111L80.2503 54.8679L80.3135 54.6849L80.353 54.6053L80.3766 54.5138L80.4161 54.4223L80.428 54.3308L80.4516 54.2512L80.5306 54.0841L80.5701 54.0205L80.724 53.9568H80.8148L80.9056 53.929L81.3044 53.9409H81.561L81.8294 53.929L82.011 53.9409L82.1018 53.929L82.1926 53.9409H82.3229L82.4018 54.0205L82.3782 54.2393L82.3505 54.3188L82.2992 54.4621L82.2597 54.5416L82.1295 54.852L82.0781 55.0071L82.0387 55.1901L81.9873 55.3572L81.9479 55.4487L81.936 55.5283L81.8334 55.6954L81.8097 55.7869L81.7189 56.0336L81.6912 56.1251L81.6281 56.2803L81.6162 56.3718L81.5136 56.6065L81.486 56.7219L81.4623 56.7855L81.3833 56.9526L81.3596 57.0322L81.2965 57.2391L81.2452 57.3187L81.182 57.4858L81.1425 57.5773L81.1149 57.6688L81.0754 57.8518L81.0517 57.9314L81.0004 58.0229L80.9491 58.1661L80.8583 58.3212L80.7951 58.5043L80.7556 58.6475L80.6648 58.7629L80.6411 58.8424L80.6293 58.922L80.5503 59.2323L80.4872 59.3994L80.4477 59.479L80.3964 59.6342L80.2937 59.841L80.2543 60.0241L80.1516 60.2071L80.1121 60.3901L80.0608 60.4816L80.049 60.5731L79.9463 60.8436L79.9187 60.9232L79.8555 61.1062L79.8318 61.1858L79.7805 61.2773L79.7568 61.4444L79.7292 61.5359L79.6502 61.6911L79.5989 61.8582L79.5595 61.9616L79.4963 62.1446L79.4844 62.2242L79.445 62.3913L79.2634 62.7016L79.1726 63.0239L78.9791 63.0636L78.8212 63.0398Z" fill="#9D998E"/>
<path d="M82.1374 63.0397H81.7663L81.5848 63.0158H81.4821L81.3913 63.0277L81.2492 63.0158L81.1584 63.0038L81.0558 63.0158L80.9531 62.9879L80.8505 62.8964L80.8386 62.7015L80.9018 62.5185L80.9136 62.3235L80.9373 62.232L80.9649 62.049L80.9768 61.9456L81.0163 61.7506L81.0281 61.6591L81.0518 61.5557L81.0636 61.4642L81.115 61.2971L81.1031 61.2175L81.1426 60.9828L81.1821 60.8395L81.2097 60.7242L81.2492 60.6088L81.2729 60.4934L81.2966 60.3382V60.2467L81.3242 60.1552L81.336 60.0757L81.3637 59.9841L81.3518 59.8926L81.4426 59.6062L81.4663 59.4112V59.3317L81.494 59.2402L81.5058 59.1487L81.5176 59.0691L81.5413 58.8861V58.7031L81.5926 58.52V58.4285L81.6203 58.2455L81.6716 58.1421V57.975L81.6992 57.8198L81.7387 57.6527L81.8019 57.4697L81.8414 57.1992V57.0162L81.8808 56.9247L81.9085 56.7416L81.9203 56.6621L81.9085 56.5706L81.9598 56.4154L81.9716 56.3358L82.0111 56.1687L82.023 56.0772L82.0743 55.9101L82.0624 55.8186L82.0743 55.7152L82.0861 55.5481L82.1138 55.4844L82.1374 55.3014L82.1769 55.1343L82.1888 55.0548L82.2125 54.9752L82.2243 54.82L82.248 54.6768L82.2993 54.5336L82.323 54.3386L82.3506 54.259L82.3625 54.1675L82.4533 54.0363L82.5441 53.9965L82.623 53.9447L82.7138 53.9328L82.9073 53.9209L83.0217 53.9328H83.2033L83.2941 53.9209H83.9771L84.0679 53.9089L84.21 53.9487L84.2614 54.08L84.2495 54.1596V54.3267L84.2219 54.3665L84.21 54.5097L84.2219 54.5893L84.1824 54.641V54.7564L84.1429 54.82L84.1192 55.003L84.0679 55.1184V55.2219L84.0561 55.3014V55.3929L84.0442 55.4725L83.9811 55.8107L83.9574 55.9539L83.9337 56.0335L83.906 56.1886L83.8942 56.2801L83.8824 56.4353L83.8705 56.5268L83.8468 56.6939L83.8074 56.8491L83.7679 57.0162L83.756 57.0798L83.7166 57.2628L83.6771 57.3782V57.4936L83.6652 57.5851L83.6534 57.6885V57.78L83.6297 57.9471L83.5902 58.0784L83.5271 58.4683L83.4757 58.6513L83.4363 58.7428V58.8463L83.3968 59.0134L83.3691 59.1805L83.3455 59.3356L83.2941 59.5187V59.6221L83.2428 59.8051V59.9086L83.2191 60.0916L83.2073 60.1552V60.3382L83.1441 60.4695L83.156 60.6128L83.1165 60.8077L83.1046 60.9111L83.0533 61.0782V61.1817L83.0139 61.3647L82.9902 61.5477L82.9625 61.7148V61.8063L82.9231 61.9495L82.8717 62.2599L82.8323 62.427L82.8086 62.61L82.7691 62.7771L82.7572 62.8805L82.7178 62.9959L82.5756 63.0357H82.2401L82.1374 63.0397Z" fill="#9D998E"/>
<path d="M84.4943 63.0278H84.4035L84.289 62.9244L84.3127 62.7295L84.3245 62.4589L84.4153 62.1884L84.439 62.0969L84.4508 61.9019L84.4745 61.8224L84.4864 61.6393V61.5478L84.5495 61.3648L84.5614 61.2733L84.5495 61.1699L84.6127 60.8993V60.7959L84.6522 60.6407L84.6917 60.4458L84.7153 60.3543L84.7272 60.2628L84.7509 60.0957L84.7785 60.0161L84.7904 59.8331L84.8535 59.7018L84.8298 59.5705L84.8417 59.479L84.8693 59.3875L84.9325 59.2045L84.9838 59.0095L85.0075 58.918L84.9838 58.8265L85.047 58.6714L85.0746 58.5918V58.4088L85.1141 58.2775V58.1621L85.1378 58.0706L85.1891 57.991V57.8995L85.2128 57.82L85.2522 57.625L85.2404 57.5335L85.3036 57.3903V57.259L85.3272 57.1953V57.0919L85.3391 57.0004L85.3667 56.9089L85.4299 56.702L85.4417 56.6224V56.5428L85.4536 56.4513V56.3718L85.4931 56.2047L85.5207 56.1132L85.5444 55.9182L85.5562 55.7113H84.8614L84.6798 55.6994L84.589 55.7113H84.4745L84.3442 55.6994H84.2416L84.1271 55.6596L84.0876 55.5442L84.1153 55.3891L84.1548 55.2856V55.1822L84.1429 55.0907L84.1942 54.9077L84.2179 54.8281L84.2298 54.6451L84.2811 54.478L84.3206 54.3984V54.2154L84.3324 54.1358L84.3956 53.9926L84.3758 53.913L84.6009 53.8892H84.9364L84.9996 53.9011H85.0904L85.1812 53.8892H86.1326L86.2234 53.9011H86.5076L87.3288 53.8892L87.5222 53.9011L87.7907 53.8892L87.9051 53.9011H88.7026L88.8842 53.913L88.9987 53.9409L89.0224 54.0443V54.1239L89.0105 54.2154L88.9829 54.3188V54.4103L88.971 54.4899L88.9434 54.5814V54.661L88.9197 54.8162L88.896 54.9077L88.8842 54.9872L88.8724 55.1424L88.821 55.3095L88.7973 55.401L88.7855 55.584L88.7342 55.6994L88.6039 55.7113L88.4894 55.6994H88.3355L88.221 55.7113H88.0907L87.5498 55.6994L87.4354 55.7113L87.4117 55.8028L87.4235 55.8824L87.384 55.9739V56.0535L87.3604 56.1331L87.3367 56.3001L87.3248 56.3917L87.2735 56.6264L87.2222 56.7298L87.2498 56.7935L87.1867 56.9765L87.1353 57.1436V57.2232L87.1235 57.3783L87.1116 57.4579V57.5494L87.0485 57.7046L87.0248 57.8995L86.9972 57.991L86.9577 58.174L86.9182 58.2536V58.3451L86.9064 58.5122L86.8669 58.6674L86.8156 58.7589L86.8037 58.9419L86.7761 59.0215V59.101L86.7366 59.284L86.6971 59.479L86.6734 59.5944V59.7257L86.6616 59.8052L86.6379 59.8848L86.6261 59.9763L86.5747 60.1315L86.5629 60.223L86.5511 60.3026L86.5629 60.3941L86.5234 60.5771L86.484 60.784L86.4326 60.9511L86.4208 61.0426L86.3813 61.2097L86.3181 61.4802L86.2905 61.5836L86.251 61.7667L86.2629 61.8701L86.1997 62.1565L86.1207 62.5186L86.0971 62.7016L86.0576 62.8846L86.0339 62.9642L85.8799 63.0278H84.7627L84.6088 63.0676L84.4943 63.0278Z" fill="#9D998E"/>
<path d="M91.4937 63.0278H91.1463L91.0042 63.0159H90.9134L90.8226 63.004L90.7436 62.8886L90.7555 62.7851L90.7673 62.6698L90.791 62.5544L90.8423 62.4629V62.2799L90.8936 62.0093L90.9055 61.9178V61.8263L90.9173 61.7348L90.9292 61.5677L90.9529 61.5041L90.9647 61.3211L91.0042 61.1261L91.0279 60.8794L91.1068 60.4895L91.1581 60.3463L91.1818 60.215V60.0599L91.2213 59.8768L91.2489 59.7853L91.2726 59.6023V59.5108L91.3003 59.3557L91.1858 59.3676H91.095L90.9805 59.3397L90.5699 59.3795L90.3765 59.3397L90.1594 59.3278L90.1475 59.3915L90.1357 59.4949L90.0843 59.6779L90.0607 59.845L90.0093 59.9365V60.1553L89.9856 60.2468L89.9225 60.5452L89.8435 60.8317L89.8554 60.9113L89.7922 61.0664L89.7804 61.1301L89.729 61.2972L89.7054 61.4921L89.6264 61.8542L89.6146 61.9576L89.5751 62.1406V62.2321L89.5474 62.4151L89.5238 62.5186L89.5119 62.6101L89.4882 62.805L89.4251 62.9363L89.3224 62.9881L89.2079 63L89.054 63.0119L88.8605 63.0358H88.7579L88.6671 62.996L88.5763 63.0079L88.4855 63.0318L88.3315 63.0079H87.921L87.6644 62.9801L87.613 62.8369V62.7334L87.6644 62.618L87.7275 62.451L87.7394 62.3197L87.7631 62.2043V62.1128L87.7867 62.0332L87.7631 61.9417L87.842 61.7985L87.8657 61.707L87.8539 61.6035L87.9052 61.4205L87.8933 61.2375L87.9447 61.146L87.996 61.0306L88.0078 60.9391V60.8357L88.0473 60.6527L88.071 60.5492L88.1341 60.0957L88.1578 60.0161L88.1697 59.9365L88.1934 59.8331L88.1815 59.7416L88.2328 59.5586L88.2447 59.3915L88.2842 59.2602L88.3078 59.105V59.0135L88.3355 58.8186L88.375 58.7271L88.4144 58.6236V58.5202L88.4658 58.3372L88.5289 57.9632L88.5408 57.8836L88.5645 57.7006L88.5763 57.5176L88.6553 57.3346L88.6671 57.2431L88.6789 57.06L88.7303 56.7895L88.7539 56.6224L88.7816 56.519L88.8211 56.2484L88.8329 56.1848V56.0018L88.8842 55.8983L88.8961 55.7949L88.9079 55.7153L88.9474 55.5482V55.2777L89.0382 55.1106L89.0263 54.9276L89.05 54.8361L89.0619 54.7445L89.1013 54.653L89.0895 54.5496L89.1171 54.4581L89.1566 54.291L89.1685 54.1358L89.1803 53.9926L89.2948 53.9289H89.6146L90.1396 53.917L90.3212 53.9289H90.6054L90.7357 53.8892L90.8897 53.917L91.02 53.9449L91.0436 54.0602V54.1398L91.0555 54.2313L91.016 54.3865L91.0042 54.466L90.9923 54.6491L90.9529 54.7644L90.941 54.8798L90.8897 55.1265L90.8621 55.3095L90.8502 55.4647L90.8107 55.5562V55.763L90.787 55.8546L90.7634 55.958L90.7515 56.1251L90.7278 56.1887L90.716 56.3439V56.4235L90.6923 56.4871L90.6647 56.5906L90.6528 56.6821L90.6133 56.7617L90.6252 56.8532L90.5857 57.0203L90.562 57.1118L90.5739 57.1913L90.5502 57.2948L90.5383 57.3744L90.5146 57.4778L90.6054 57.4897H90.7081L91.0792 57.5017L91.1818 57.4897L91.3358 57.5017L91.4384 57.4897L91.7069 57.5017L91.7187 57.438L91.7424 57.2948L91.7937 57.1794V57.0879L91.8056 56.9964L91.8687 56.8014L91.845 56.7219L91.9082 56.5548L91.9201 56.4752L91.9319 56.3837L91.9437 56.2803L91.9556 56.1887L91.9793 56.1092V56.0177L92.0187 55.8506L92.0306 55.6835L92.0819 55.5681V55.4129L92.0701 55.3095L92.0819 55.218L92.1332 55.035V54.9315L92.1727 54.7644L92.2003 54.6849L92.224 54.5178L92.2359 54.4382L92.2872 54.3228L92.3109 54.2313L92.299 54.1398L92.3109 54.0602L92.4135 53.9449L92.4925 53.9329L92.607 53.921H93.0689L93.3255 53.9329H93.6847L93.89 53.9608L93.9808 54.0006L94.0716 54.1159L94.0597 54.1955L94.0716 54.287L94.0203 54.3666L94.0321 54.4183L94.0203 54.4979V54.5894L93.9689 54.7445L93.9571 54.9276V55.031L93.9453 55.1225L93.9216 55.214L93.8979 55.3174L93.886 55.4846V55.5761L93.8584 55.7432L93.8466 55.8347L93.8071 56.0018L93.7952 56.0933L93.7716 56.1848L93.7597 56.2882L93.736 56.4553L93.7242 56.5349L93.661 56.69L93.6492 56.7696L93.6215 56.9367L93.5979 57.1436L93.586 57.3385L93.5228 57.5216L93.511 57.7165L93.4992 57.7961L93.4597 57.9791L93.4478 58.0706L93.3965 58.1502V58.2536L93.4202 58.3451L93.3807 58.4247L93.3689 58.5162V58.6833L93.357 58.7748L93.2939 58.9419L93.282 59.0334L93.2307 59.2681V59.3477L93.207 59.4909L93.1676 59.6739L93.1399 59.7654L93.1518 59.845L93.0728 60.1156L93.0846 60.1951L93.057 60.2866L93.0333 60.3662L93.0215 60.4577L92.982 60.6407V60.7442L92.9702 60.8357L92.9307 61.0187L92.8912 61.1619L92.8675 61.2415L92.8557 61.4245L92.8438 61.6314L92.8044 61.8144L92.7925 61.9059L92.7649 62.073L92.7412 62.1645L92.7293 62.3077L92.7057 62.4629L92.6662 62.5265L92.6543 62.63L92.6307 62.7215V62.8249L92.603 62.9164L92.5517 62.996L92.3977 63.0358H92.2043L92.1253 63.0477L91.9595 63.0597H91.7029L91.6003 63.0716L91.4937 63.0278Z" fill="#9D998E"/>
<path d="M93.6888 62.9761L93.6375 62.8965L93.6256 62.805L93.6138 62.7255L93.6256 62.6459L93.6769 62.5146L93.7164 62.3833L93.7283 62.2918L93.7401 62.2122L93.7914 62.0451V61.8502L93.8427 61.6831V61.5916L93.8546 61.512L93.8783 61.3449L93.902 61.2295V61.0744L93.9651 60.8914L93.9888 60.8118L94.0283 60.7203L94.0164 60.6407L94.0559 60.4736L94.0954 60.3821V60.3025L94.1072 60.223L94.1349 60.04L94.1586 59.9604V59.7774L94.1704 59.6978L94.1823 59.6063V59.5267L94.2336 59.3437V59.2522L94.2967 59.0692L94.3481 58.6793L94.3994 58.4963V58.4326L94.4783 58.0706L94.506 57.9035L94.5297 57.7483L94.5928 57.5812L94.6047 57.4778V57.2948L94.6678 57.1277V57.0362L94.6915 56.881L94.731 56.6105L94.7191 56.507L94.7586 56.4036L94.8099 56.2206L94.8376 56.1171L94.8099 56.0256L94.8376 55.9222L94.8494 55.7551L94.8771 55.6118L94.9284 55.5323V55.4408L94.9402 55.3493V55.2697L94.9915 55.1782L95.0034 54.9713L95.0429 54.7644L95.0942 54.6093L95.106 54.4541V54.3626L95.1297 54.283L95.1929 54.0244L95.2324 53.9448L95.4376 53.917H95.7456L96.2232 53.9289H96.7246L96.9812 53.9409L97.0207 54.096L97.0089 54.1875V54.279L96.9299 54.5894V54.6809L96.9023 54.7604L96.8628 55.031L96.8391 55.1742L96.8154 55.3055L96.7128 55.759L96.6733 55.9421V56.0455L96.622 56.2285L96.5983 56.4115L96.547 56.503L96.5706 56.6065L96.547 56.7099L96.5351 56.8014L96.5114 56.8929L96.472 57.0759L96.4325 57.243L96.3812 57.3345L96.393 57.438L96.3654 57.5295V57.6329L96.3259 57.9035L96.3022 57.995V58.178L96.2785 58.2695L96.239 58.4644L96.2272 58.556L96.1759 58.7628L96.164 58.9578L96.1246 59.1408L96.1127 59.2442L96.1009 59.3357L96.0495 59.5426V59.6341L96.0259 59.7376L96.014 59.9206L95.9627 60.0877L95.9509 60.2548L95.9232 60.3702V60.5015L95.9114 60.593L95.8995 60.6725L95.8758 60.764L95.864 60.9073L95.8403 61.0386V61.1699L95.9035 61.2335H96.0338L96.1482 61.2454H96.8154L97.0997 61.2335H97.4352L97.5142 61.2733L97.5023 61.4682L97.4786 61.5597L97.4905 61.6513L97.451 61.7547L97.3878 62.2082L97.3484 62.2998V62.3913L97.3365 62.4708L97.3128 62.6658L97.2615 62.8727L97.1589 62.9642H96.9141L96.7483 62.988L96.4641 63.0278L96.2311 63.0159L96.0377 63.0278L95.8561 63.004L95.5995 63.0159H94.5454L94.4152 63.0278H94.0559L93.9651 63.0159L93.7993 63.0278L93.6888 62.9761Z" fill="#9D998E"/>
<path d="M99.4012 63.1948L99.2354 63.2068L99.1446 63.1948L99.0301 63.1829L98.734 63.0914L98.6314 63.0795L98.4379 63.0277L98.3471 62.976L98.1655 62.8607L97.9326 62.6657L97.751 62.4588L97.7115 62.3952L97.6484 62.3315L97.6089 62.2519L97.5457 62.1604L97.4431 61.9933V61.9138L97.4036 61.8223L97.3918 61.7427L97.3681 61.679L97.3404 61.5995L97.3286 61.508L97.301 61.4284L97.2891 61.2454L97.2773 61.1658L97.2378 60.9072L97.2615 60.8157V60.569L97.301 60.4377L97.2891 60.3343V60.2428L97.3128 59.9563L97.3641 59.7733V59.6699L97.3878 59.4869V59.3954L97.4391 59.2123L97.4154 59.1487L97.4391 58.9816L97.4628 58.8901L97.5023 58.6553L97.5418 58.5002V58.3331L97.5812 58.1779V58.0864L97.6207 58.0069L97.6444 57.9153V57.8358L97.6681 57.7443L97.6563 57.6647L97.7352 57.5334L97.7589 57.4419V57.2589L97.7865 57.1037L97.826 57.0122L97.8379 56.9327L97.8655 56.7496L97.9168 56.4274L97.98 56.3359L98.0037 56.1688L98.0826 56.0017L98.1221 55.9102L98.1734 55.755L98.2366 55.572L98.3155 55.4168L98.3669 55.3253L98.4813 55.1582L98.4932 55.0667L98.5445 54.9872L98.6471 54.8201L98.7498 54.6649L98.8406 54.6012L98.9038 54.5217L99.0854 54.3267L99.2512 54.2113L99.3538 54.1716L99.4446 54.1079L99.5986 54.0164L99.7525 53.9368L99.946 53.8851L100.025 53.8732L100.218 53.8214L100.349 53.8095L100.582 53.7697L100.763 53.7578L100.917 53.7458L101.15 53.7578L101.229 53.7697L101.371 53.7817L101.576 53.8055L101.679 53.8453L101.782 53.8572L101.861 53.8811L102.054 53.9726L102.287 54.1278L102.39 54.1914L102.453 54.271L102.595 54.3864L102.737 54.5177L102.8 54.5973L102.84 54.6888L102.919 54.8559L102.958 54.9354L102.986 55.015L103.009 55.1065L103.049 55.3015L103.073 55.5481L103.084 55.6516V55.7431L103.073 55.9102L103.061 55.9897L103.073 56.1568V56.2483L103.061 56.4154L103.033 56.5069L103.021 56.5865L103.033 56.678V56.8093L103.021 56.8889L102.994 57.0719L102.982 57.2668L102.97 57.4737L102.946 57.5652L102.919 57.7721L102.93 57.9034L102.867 58.0466L102.879 58.2018L102.828 58.3689L102.804 58.536L102.765 58.7031L102.753 58.8583L102.713 59.0254L102.674 59.1049L102.634 59.3397V59.455L102.611 59.5465L102.583 59.7296L102.544 59.8091L102.413 60.2627L102.425 60.3422L102.362 60.4974L102.323 60.577L102.311 60.7202L102.248 60.8634L102.208 61.0186V61.1101L102.169 61.2533L102.105 61.3448L102.094 61.4761L102.003 61.6591L101.9 61.8939L101.837 61.9854L101.722 62.1525L101.671 62.232L101.608 62.3116L101.584 62.3912L101.43 62.5464L101.351 62.61L101.288 62.6896L101.134 62.805L100.98 62.9084L100.929 62.9482L100.633 63.0636L100.542 63.0755L100.439 63.1033L100.258 63.1431L100.167 63.1551L100.025 63.1948L99.7407 63.2346L99.4012 63.1948ZM99.7999 61.4721L99.9815 61.4204L100.096 61.3687L100.278 61.2374L100.368 61.0544L100.447 60.8714L100.475 60.7799V60.6764L100.514 60.4815L100.538 60.39L100.562 60.207L100.601 60.1035L100.613 59.9205L100.653 59.829L100.692 59.6619L100.704 59.5585L100.743 59.4789V59.3755L100.732 59.3357L100.771 59.2203L100.811 59.0254L100.838 58.727L100.878 58.6116L100.917 58.5081L100.941 58.2615L100.98 58.1819L100.968 57.9631L101.02 57.7681L101.047 57.613L101.071 57.5095L101.099 57.418L101.087 57.3265L101.099 57.1594L101.122 57.056L101.162 56.873L101.186 56.7576V56.5905L101.213 56.3558L101.225 56.1887L101.253 56.0057L101.201 55.747L101.15 55.6675L101.059 55.5521L100.854 55.4606L100.609 55.4725L100.507 55.5004L100.301 55.5799L100.171 55.6953L100.08 55.8386L100.029 55.9937L99.9775 56.0852L99.8986 56.2523L99.871 56.3438L99.8473 56.4473L99.7683 56.7178V56.7457L99.7565 56.8491L99.717 57.0321L99.7051 57.1117L99.6538 57.2947L99.6144 57.4777L99.5749 57.6846L99.563 57.7761L99.5354 57.8676L99.5117 58.0626L99.4722 58.166L99.4209 58.3729L99.3972 58.4644L99.3696 58.6474V58.7389L99.3577 58.8304L99.3696 58.9338L99.3301 59.0254L99.2669 59.2084L99.2788 59.3118L99.2512 59.4033L99.263 59.455L99.2393 59.5704V59.6739L99.2117 59.7654V59.8688L99.1722 60.0637V60.1553L99.1327 60.2468L99.1722 60.3383L99.1604 60.4934L99.109 60.6247L99.1485 60.7162V61.0783L99.188 61.1698L99.2117 61.2215L99.2906 61.3369L99.3538 61.4005L99.4564 61.4403L99.5591 61.4642L99.638 61.4761H99.7999V61.4721Z" fill="#9D998E"/>
<path d="M104.19 63.0158C103.913 63.0039 103.641 63.0039 103.369 63.0158L103.215 62.9522L103.175 62.8089L103.151 62.6776C103.08 59.833 103.065 57.0281 103.1 54.1795L103.14 54.0761L103.179 54.0243L103.333 53.9726L103.487 53.9846L103.578 53.9726L103.783 53.9607L103.937 53.9726H104.723L104.813 53.9846L104.904 54.0482L104.944 54.1397L104.932 54.3068C104.881 55.8823 104.837 57.4459 104.79 59.0214L104.778 59.1248L104.754 59.28L104.766 59.4232V59.5664L104.754 59.6818L104.766 59.7455L104.806 59.7335L104.857 59.6818L104.896 59.6022C104.999 59.3198 105.106 59.0373 105.216 58.7588C105.769 57.247 106.306 55.755 106.85 54.2392L106.941 54.0721L107.083 53.9925L107.198 53.9686C107.687 54.0084 108.205 54.0243 108.714 54.0204L108.844 54.0602V54.1914C108.268 55.7152 107.652 57.231 107.004 58.7389C106.479 59.9643 105.946 61.1897 105.398 62.419L105.346 62.4986L105.267 62.6418L105.216 62.7333L105.137 62.8766L105.098 62.992L105.034 63.0317H104.932C104.683 63.0198 104.434 63.0158 104.19 63.0158C104.434 63.0158 103.913 62.9999 104.19 63.0158C104.434 63.0158 103.913 62.9999 104.19 63.0158Z" fill="#9D998E"/>
<path d="M108.513 63.0278C108.141 63.0199 107.782 63.0159 107.407 63.0159L107.293 62.988L107.253 62.8727C107.782 59.9405 108.303 57.0083 108.809 54.1159L108.82 54.0364L108.923 53.9568C110.056 53.9449 111.197 53.9409 112.33 53.9449L112.445 53.9568L112.508 54.0483C112.452 54.5297 112.377 55.0071 112.275 55.4845L112.235 55.6516L112.105 55.6636H111.564L111.41 55.6755H110.573L110.265 55.6874L110.226 55.8426C110.175 56.3001 110.103 56.7736 110.021 57.2271L109.997 57.4619H110.23L110.68 57.4738L110.925 57.446H111.26L111.363 57.4738L111.442 57.5772C111.371 58.0626 111.284 58.548 111.185 59.0294L111.161 59.2124L111.134 59.2403H111.004L110.81 59.2522H110.696L110.376 59.2641L110.159 59.2522H110.017L109.851 59.2641H109.736L109.685 59.4074L109.646 59.5745C109.559 60.04 109.48 60.5054 109.401 60.9749V61.0784L109.452 61.1301L109.634 61.1579H110.392L110.573 61.1699L110.857 61.1818L111.217 61.1699L111.308 61.2096L111.296 61.3131L111.284 61.3648C111.205 61.8661 111.13 62.3555 111.051 62.8568L111.011 63H109.792C109.361 63.0159 108.935 63.0238 108.513 63.0278Z" fill="#9D998E"/>
</g>
<defs>
<clipPath id="clip0">
<rect width="127" height="63" fill="white"/>
</clipPath>
</defs>
</svg>
