<svg width="30" height="30" viewBox="0 0 30 30" fill="none" xmlns="http://www.w3.org/2000/svg">
<g clip-path="url(#clip0)">
<path d="M29.922 8.826C29.85 7.23 29.592 6.132 29.226 5.184C28.848 4.176 28.26 3.276 27.492 2.52C26.742 1.758 25.836 1.164 24.834 0.792C23.88 0.42 22.788 0.162 21.198 0.096C19.59 0.018 19.08 0 15.006 0C10.932 0 10.422 0.018 8.82 0.09C7.224 0.162 6.132 0.42 5.178 0.786C4.176 1.17 3.27 1.752 2.52 2.52C1.758 3.276 1.164 4.182 0.792 5.178C0.42 6.138 0.162 7.224 0.096 8.82C0.018 10.428 0 10.938 0 15.018C0 19.098 0.018 19.608 0.09 21.204C0.162 22.8 0.42 23.898 0.786 24.846C1.17 25.854 1.758 26.76 2.52 27.51C3.27 28.272 4.176 28.866 5.178 29.238C6.132 29.61 7.224 29.868 8.82 29.934C10.422 30.006 10.932 30.024 15.006 30.024C19.08 30.024 19.59 30.006 21.192 29.934C22.788 29.862 23.88 29.604 24.834 29.238C26.85 28.458 28.446 26.862 29.226 24.846C29.598 23.892 29.856 22.8 29.922 21.204C29.994 19.602 30.012 19.092 30.012 15.018C30.012 10.944 29.994 10.428 29.922 8.826ZM27.222 21.09C27.156 22.554 26.91 23.346 26.706 23.874C26.202 25.182 25.164 26.22 23.856 26.724C23.328 26.928 22.53 27.174 21.072 27.24C19.488 27.312 19.014 27.33 15.012 27.33C11.01 27.33 10.53 27.312 8.952 27.24C7.488 27.174 6.696 26.928 6.168 26.724C5.52 26.484 4.926 26.1 4.446 25.602C3.948 25.116 3.564 24.528 3.324 23.88C3.12 23.352 2.874 22.554 2.808 21.096C2.736 19.512 2.718 19.038 2.718 15.03C2.718 11.022 2.736 10.542 2.808 8.964C2.874 7.5 3.12 6.708 3.324 6.18C3.564 5.526 3.948 4.938 4.452 4.458C4.938 3.96 5.526 3.576 6.174 3.336C6.702 3.132 7.5 2.886 8.958 2.82C10.542 2.748 11.016 2.73 15.018 2.73C19.026 2.73 19.5 2.748 21.078 2.82C22.542 2.886 23.334 3.132 23.862 3.336C24.51 3.576 25.104 3.96 25.584 4.458C26.082 4.944 26.466 5.532 26.706 6.18C26.91 6.708 27.156 7.506 27.222 8.964C27.294 10.548 27.312 11.022 27.312 15.03C27.312 19.038 27.294 19.506 27.222 21.09Z" fill="#9D998E"/>
<path d="M11.1061 20.8742C10.6081 20.8742 10.1161 20.7242 9.69606 20.4242C9.04806 19.9682 8.66406 19.2182 8.66406 18.4262L8.68806 11.5502C8.68806 10.7582 9.07806 10.0202 9.72606 9.56417C10.3741 9.10817 11.2021 9.00017 11.9461 9.26417L21.5581 12.6902C22.5421 13.0382 23.1781 13.9442 23.1781 14.9882C23.1781 16.0322 22.5421 16.9322 21.5641 17.2862L11.9281 20.7362C11.6581 20.8262 11.3821 20.8742 11.1061 20.8742ZM11.1301 11.5022C11.1241 11.5022 11.1121 11.5022 11.1001 11.5142C11.0761 11.5322 11.0761 11.5502 11.0761 11.5622L11.0521 18.4382C11.0521 18.4502 11.0521 18.4682 11.0761 18.4862C11.1001 18.5042 11.1181 18.4982 11.1301 18.4922L20.7601 15.0362C20.7901 15.0242 20.7961 15.0242 20.7961 14.9822C20.7961 14.9402 20.7901 14.9402 20.7601 14.9282L11.1481 11.5022C11.1421 11.5082 11.1361 11.5022 11.1301 11.5022Z" fill="#9D998E"/>
</g>
<defs>
<clipPath id="clip0">
<rect width="30" height="30" fill="white"/>
</clipPath>
</defs>
</svg>
