<svg width="26" height="26" viewBox="0 0 26 26" fill="none" xmlns="http://www.w3.org/2000/svg">
<circle cx="13" cy="13" r="13" fill="black"/>
<path d="M5.26778 16.4375L5 17.9219H7.87866L8.0795 16.5937H6.74059L8.34728 12.1406H6.80753L5.26778 16.4375Z" fill="white"/>
<path d="M9.21797 9.5625L9.48575 8.15625H6.60709L6.40625 9.40625H7.81211L7.07571 11.4375H8.54851L9.21797 9.5625Z" fill="white"/>
<path d="M8.54785 17.9219H11.1587L11.3596 16.5937H10.2884L10.824 13.4687H11.8282L12.029 12.1406H11.0248H9.48509L8.54785 17.9219Z" fill="white"/>
<path d="M11.4267 9.40625H12.5647L12.7656 8.15625H10.1547L9.61914 11.4375H11.0919L11.4267 9.40625Z" fill="white"/>
<path d="M16.314 11.6719L16.6487 9.64062C16.7826 8.85937 16.2471 8.15625 15.5107 8.15625H13.4354L12.8998 11.4375H14.4395L14.7743 9.32812H14.9751C15.0421 9.32812 15.109 9.40625 15.109 9.48438C15.1759 9.5625 15.1759 9.5625 15.1759 9.64062L14.7743 11.9063C14.7073 12.1406 14.6404 12.2969 14.4395 12.2969H14.2387V12.1406H12.699L11.7617 17.8438H13.3015L14.1048 13.4688H14.3057C14.4395 13.4688 14.5065 13.5469 14.5065 13.9375L13.9709 17.1406C13.904 17.4531 13.904 17.5312 13.904 17.9219H15.4437C15.3768 17.5312 15.3768 17.375 15.4437 17.0625L15.9793 13.9375C16.0462 13.625 15.9123 13.2344 15.7115 13C15.6446 12.9219 15.5107 12.8438 15.3768 12.8438C15.9793 12.6094 16.2471 12.2188 16.314 11.6719Z" fill="white"/>
<path d="M19.5943 8H19.5274C19.1257 8 18.791 8.07812 18.5901 8.15625C18.0546 8.3125 17.5859 8.85937 17.519 9.64062L17.1843 11.5156H18.724L19.0587 9.64062C19.0587 9.48437 19.1926 9.32812 19.3265 9.32812C19.4604 9.32812 19.5274 9.48437 19.4604 9.64062L18.3223 16.4375C18.3223 16.5938 18.1884 16.6719 18.0546 16.6719C17.9207 16.6719 17.8537 16.5938 17.8537 16.4375L18.5232 12.1406H17.0504L16.314 16.5156C16.1131 17.5312 16.5818 18 17.6529 18H17.7198C18.1215 18 18.4562 17.9219 18.6571 17.9219C19.1926 17.7656 19.5943 17.2188 19.7282 16.5156L20.9332 9.5625C21.1341 8.46875 20.7324 8 19.5943 8Z" fill="white"/>
</svg>
