<svg width="26" height="26" viewBox="0 0 26 26" fill="none" xmlns="http://www.w3.org/2000/svg">
<circle cx="13" cy="13" r="13" fill="#214B73"/>
<path d="M2.08408 13V8.8H4.03408C4.51808 8.8 4.88408 8.924 5.13208 9.172C5.32408 9.364 5.42008 9.606 5.42008 9.898C5.42008 10.294 5.23608 10.596 4.86808 10.804C5.12808 10.904 5.32408 11.036 5.45608 11.2C5.58808 11.36 5.65408 11.576 5.65408 11.848C5.65408 12.224 5.51408 12.51 5.23408 12.706C4.95408 12.902 4.57008 13 4.08208 13H2.08408ZM2.98408 10.498H3.83608C4.28008 10.498 4.50208 10.346 4.50208 10.042C4.50208 9.902 4.45008 9.796 4.34608 9.724C4.24208 9.648 4.09208 9.61 3.89608 9.61H2.98408V10.498ZM2.98408 12.19H4.08208C4.51808 12.19 4.73608 12.034 4.73608 11.722C4.73608 11.418 4.50808 11.266 4.05208 11.266H2.98408V12.19ZM6.41416 13V8.8H8.33416C8.86616 8.8 9.27416 8.942 9.55816 9.226C9.79816 9.466 9.91816 9.79 9.91816 10.198C9.91816 10.842 9.61816 11.276 9.01816 11.5L10.0442 13H8.96416L8.05216 11.656H7.33816V13H6.41416ZM7.33816 10.84H8.27416C8.49816 10.84 8.67216 10.786 8.79616 10.678C8.92016 10.566 8.98216 10.418 8.98216 10.234C8.98216 10.038 8.91816 9.89 8.79016 9.79C8.66216 9.686 8.48416 9.634 8.25616 9.634H7.33816V10.84ZM10.3901 13L12.1901 8.77H13.0421L14.8421 13H13.8761L13.4921 12.058H11.7161L11.3321 13H10.3901ZM12.0461 11.242H13.1621L12.6041 9.88L12.0461 11.242ZM15.4903 13V8.8H16.3423L18.3103 11.386V8.8H19.2223V13H18.4363L16.4023 10.33V13H15.4903ZM20.2306 13V8.8H21.8686C22.5246 8.8 23.0606 9 23.4766 9.4C23.8926 9.796 24.1006 10.296 24.1006 10.9C24.1006 11.5 23.8906 12 23.4706 12.4C23.0546 12.8 22.5206 13 21.8686 13H20.2306ZM21.1546 12.166H21.8686C22.2486 12.166 22.5546 12.05 22.7866 11.818C23.0186 11.582 23.1346 11.276 23.1346 10.9C23.1346 10.528 23.0166 10.224 22.7806 9.988C22.5486 9.752 22.2446 9.634 21.8686 9.634H21.1546V12.166ZM5.75791 19V14.8H6.60991L8.57791 17.386V14.8H9.48991V19H8.70391L6.66991 16.33V19H5.75791ZM10.4981 19V14.8H13.6661V15.622H11.4161V16.474H13.3961V17.296H11.4161V18.178H13.6961V19H10.4981ZM15.6277 19.03L14.1937 14.8H15.1837L16.0537 17.644L16.9957 14.788H17.7877L18.7297 17.644L19.5997 14.8H20.5657L19.1317 19.03H18.3277L17.3797 16.282L16.4317 19.03H15.6277Z" fill="white"/>
</svg>
