<svg width="26" height="26" viewBox="0 0 26 26" fill="none" xmlns="http://www.w3.org/2000/svg">
<circle cx="13" cy="13" r="13" fill="#CF4B4B"/>
<path d="M8.47037 13.8075C7.44136 13.8075 6.60404 13.4844 5.95839 12.8276C5.32282 12.1604 5 11.3577 5 10.3881C5 9.43945 5.32282 8.63673 5.96847 7.97995C6.60404 7.32318 7.45145 7 8.49054 7C9.51955 7 10.3569 7.32318 11.0025 7.97995C11.6482 8.63673 11.971 9.44988 11.971 10.409C11.971 11.3577 11.6381 12.1604 10.9823 12.8172C10.3266 13.4739 9.48928 13.8075 8.47037 13.8075ZM6.48298 19.8124L16.9142 7.17723H19.517L9.09584 19.8124H6.48298ZM7.68348 11.4202C7.90542 11.6808 8.16772 11.8164 8.49054 11.8164C8.81337 11.8164 9.07566 11.6808 9.28752 11.4202C9.49937 11.1596 9.61034 10.8156 9.61034 10.3881C9.61034 9.99198 9.49937 9.65838 9.27743 9.38733C9.05549 9.11628 8.79319 8.98075 8.47037 8.98075C8.13745 8.98075 7.86507 9.11628 7.6633 9.3769C7.46154 9.63753 7.35057 9.98156 7.35057 10.409C7.35057 10.8156 7.46154 11.1596 7.68348 11.4202ZM20.0214 18.9992C19.3657 19.656 18.5284 19.9896 17.5095 19.9896C16.4905 19.9896 15.6633 19.6664 15.0076 19.0096C14.3619 18.3528 14.029 17.5397 14.029 16.5806C14.029 15.6319 14.3518 14.8292 14.9975 14.1724C15.6431 13.5156 16.4805 13.1925 17.5296 13.1925C18.5586 13.1925 19.396 13.5156 20.0416 14.1724C20.6873 14.8292 21.0101 15.6423 21.0101 16.6014C21 17.5397 20.6772 18.3424 20.0214 18.9992ZM16.7125 17.6022C16.9344 17.8733 17.1967 18.0088 17.5195 18.0088C17.8424 18.0088 18.1047 17.8733 18.3165 17.6127C18.5284 17.352 18.6393 17.008 18.6393 16.5806C18.6393 16.174 18.5284 15.83 18.3165 15.5694C18.1047 15.3087 17.8323 15.1732 17.4994 15.1732C17.1564 15.1732 16.8739 15.2983 16.6822 15.5589C16.4805 15.8196 16.3796 16.1636 16.3796 16.6014C16.3897 16.9976 16.5006 17.3312 16.7125 17.6022Z" fill="white"/>
</svg>
