<svg width="26" height="26" viewBox="0 0 26 26" fill="none" xmlns="http://www.w3.org/2000/svg">
<circle cx="13" cy="13" r="13" fill="black"/>
<path d="M7.9001 11.2L6.1001 13.8H8.9001L7.9001 11.2Z" fill="#FFAE00"/>
<path d="M6.19995 14.8L11.5 20.6L9.19995 14.8H6.19995Z" fill="#FFAE00"/>
<path d="M10.3 14.8L13 21.6L15.7 14.8H10.3Z" fill="#FFAE00"/>
<path d="M17.2 10.6H14L16.3 13.3L17.2 10.6Z" fill="#FFAE00"/>
<path d="M12 10.6H8.80005L9.70005 13.3L12 10.6Z" fill="#FFAE00"/>
<path d="M15.4001 13.8L13.0001 10.9L10.6001 13.8H15.4001Z" fill="#FFAE00"/>
<path d="M13 0C5.8 0 0 5.8 0 13C0 20.2 5.8 26 13 26C20.2 26 26 20.2 26 13C26 5.8 20.2 0 13 0ZM16.5 6L17.7 3.9C17.8 3.8 17.9 3.7 18.1 3.7C18.2 3.7 18.3 3.7 18.4 3.8C18.6 3.9 18.7 4.2 18.6 4.5L17.4 6.6C17.3 6.8 17 6.9 16.7 6.8C16.5 6.6 16.4 6.3 16.5 6ZM12.5 3.2C12.5 2.9 12.7 2.7 13 2.7C13.3 2.7 13.5 2.9 13.5 3.2V6.2C13.5 6.5 13.3 6.7 13 6.7C12.7 6.7 12.5 6.5 12.5 6.2V3.2ZM7.6 3.7C7.7 3.7 7.7 3.6 7.8 3.6C8 3.6 8.2 3.7 8.3 3.8L9.5 6C9.6 6.2 9.6 6.5 9.3 6.7C9.1 6.8 8.8 6.7 8.6 6.5L7.4 4.4C7.3 4.1 7.3 3.8 7.6 3.7ZM3.8 8.3C3.6 8.2 3.5 7.9 3.6 7.7C3.7 7.5 3.8 7.4 4 7.4C4.1 7.4 4.2 7.4 4.3 7.5L6.4 8.7C6.6 8.8 6.7 9.1 6.6 9.4C6.5 9.6 6.2 9.7 5.9 9.6L3.8 8.3ZM21.3 14.7L13.4 23.3L13.3 23.4C13.1 23.5 12.8 23.4 12.6 23.2L4.8 14.7C4.6 14.5 4.6 14.3 4.8 14.1L7.8 9.9C7.8 9.7 7.9 9.7 8 9.6H17.8C18 9.6 18.1 9.7 18.2 9.8L21.2 14C21.4 14.2 21.4 14.5 21.3 14.7ZM20.1 9.6C19.9 9.7 19.6 9.7 19.4 9.4C19.3 9.2 19.3 8.9 19.6 8.7L21.7 7.5C21.8 7.4 21.9 7.4 22 7.4C22.2 7.4 22.3 7.5 22.4 7.6C22.5 7.8 22.5 8.1 22.2 8.3L20.1 9.6Z" fill="#FFAE00"/>
<path d="M17.1001 13.8H19.9001L18.1001 11.2L17.1001 13.8Z" fill="#FFAE00"/>
<path d="M14.5 20.6L19.8 14.8H16.8L14.5 20.6Z" fill="#FFAE00"/>
</svg>
