<svg width="26" height="26" viewBox="0 0 26 26" fill="none" xmlns="http://www.w3.org/2000/svg">
<circle cx="13" cy="13" r="13" fill="#CF4B4B"/>
<path d="M11.7925 13.9595C11.7925 13.9595 11.7925 17.0092 12.5452 17.0092C13.298 17.0092 14.0594 14.7263 14.0594 14.7263C14.0594 14.7263 16.5772 19.2834 14.6304 20.9739C17.4164 20.1896 18.697 17.8283 18.9565 15.6761C19.2074 13.5761 18.2903 11.6679 18.2903 11.6679C18.2903 12.0861 17.7971 12.8529 17.2607 13.2624C16.8713 13.5587 16.3868 13.5848 16.3868 13.5848C18.2903 5.91697 10.685 4 10.685 4C14.492 9.74218 9.34388 10.2301 7.62208 13.6458C5.81376 17.2358 8.25369 20.1635 11.0224 21C9.54288 19.7888 8.90261 16.8785 11.7925 13.9595Z" fill="white"/>
</svg>
