<svg width="26" height="26" viewBox="0 0 26 26" fill="none" xmlns="http://www.w3.org/2000/svg">
<circle cx="13" cy="13" r="13" fill="#9D998E"/>
<path d="M12.9989 6C16.9031 6.04761 19.9027 9.09477 19.9979 12.8561C20.0931 16.8079 16.9507 19.9979 12.9989 20.0455C9.19 20.0455 6 16.9031 6 13.0466C6 9.19 9.09477 6.04761 12.9989 6ZM18.2839 12.1895C18.0934 10.1422 16.0937 7.57119 12.9037 7.6188C9.71373 7.66642 7.85686 10.2851 7.71403 12.1895C8.28537 12.1895 8.85671 12.1895 9.38044 12.1895C10.1898 12.1895 10.904 11.9515 11.4754 11.3801C11.8563 11.0469 12.2848 10.8564 12.8085 10.8088C13.5227 10.7612 14.1416 10.9992 14.6178 11.523C15.0939 11.9515 15.6176 12.1895 16.2842 12.1895C16.8555 12.1895 17.3792 12.1895 17.9506 12.1895C18.0934 12.1895 18.1886 12.1895 18.2839 12.1895ZM18.2839 13.856C18.1886 13.856 18.0934 13.856 18.0458 13.856C17.5221 13.856 16.9983 13.856 16.4746 13.856C14.9986 13.856 13.856 14.9986 13.856 16.4746C13.856 16.9983 13.856 17.5697 13.856 18.0934C13.856 18.1886 13.856 18.2363 13.856 18.3315C15.9985 18.0934 18.0934 16.0461 18.2839 13.856ZM7.71403 13.856C7.76164 15.8557 10.4755 18.5219 12.1895 18.2839C12.1895 17.6649 12.1895 17.046 12.1895 16.4746C12.1895 14.951 11.0945 13.856 9.57089 13.856C9.04716 13.856 8.52343 13.856 7.9997 13.856C7.90447 13.8083 7.80925 13.856 7.71403 13.856ZM11.9515 12.9989C11.9515 13.5703 12.4276 14.0464 12.9989 14.0464C13.5703 14.0464 14.0464 13.5703 14.094 12.9989C14.094 12.4276 13.6179 11.9515 13.0466 11.9515C12.4276 11.9515 11.9515 12.4276 11.9515 12.9989Z" fill="white"/>
</svg>
