<svg width="26" height="26" viewBox="0 0 26 26" fill="none" xmlns="http://www.w3.org/2000/svg">
<circle cx="13" cy="13" r="13" fill="#9D998E"/>
<path d="M4.62486 17.65C4.48376 17.5535 4.40314 17.4378 4.36282 17.2835L4 15.8755L4.04031 18.6915C4.04031 18.9423 4.16125 18.9808 4.46361 18.9808H6.55991C6.86226 18.9808 6.92273 18.923 6.92273 18.6529V17.7657H4.96753C4.84658 17.7657 4.72564 17.7271 4.62486 17.65Z" fill="white"/>
<path d="M21.6173 17.2835C21.5568 17.5728 21.2947 17.7657 20.9924 17.7657H19.0977V18.6722C19.0977 18.923 19.1984 19.0194 19.5008 19.0194H21.6777C21.9801 19.0194 22.0002 18.923 22.0002 18.6722V15.8369L21.6173 17.2835Z" fill="white"/>
<path d="M21.4156 17.2449L21.7986 15.7791C21.8389 15.6055 21.8591 15.4126 21.8792 15.2197H20.307C20.0651 15.2197 19.8232 15.3162 19.662 15.4705C19.4402 15.6826 19.158 15.7791 18.8557 15.7791H13.0707H12.8691H7.1043C6.80194 15.7791 6.51975 15.6633 6.29803 15.4705C6.11661 15.2969 5.89489 15.2197 5.65301 15.2197H4.12109C4.12109 15.4126 4.12109 15.5862 4.18156 15.7791L4.54439 17.2449C4.5847 17.4378 4.74595 17.5728 4.96768 17.5728H7.93072C8.03151 17.5728 8.13229 17.515 8.17261 17.4185C8.25323 17.1871 8.55558 17.0328 8.87809 17.0328C9.2006 17.0328 9.50295 17.1871 9.58358 17.4185C9.64405 17.515 9.74483 17.5728 9.84562 17.5728H12.9699H20.9722C21.1939 17.5728 21.3753 17.4378 21.4156 17.2449Z" fill="white"/>
<path d="M6.53956 15.2775C6.70081 15.4318 6.90238 15.5089 7.1241 15.5089H12.8688H13.0704H18.8352C19.0569 15.5089 19.2585 15.4318 19.4197 15.2775C19.6415 15.0653 19.964 14.9303 20.2865 14.9303H21.8587V14.8338C21.8587 14.6988 21.6975 14.5252 21.5967 14.4288V12.7315L21.5765 12.5193C21.4959 12.0371 21.3548 11.5742 21.1331 11.1692C21.3346 11.1692 21.4959 11.0149 21.4959 10.822V10.6098C21.4959 10.3205 21.254 10.0697 20.9315 10.0697H20.5284C19.9841 8.93176 19.3794 7.98666 18.6941 7.17657C18.6739 7.15728 18.6336 7.11871 18.5933 7.06084C18.6135 6.82939 19.5407 6.39455 19.4197 6.25954C19.3128 6.13165 19.2681 6.00627 18.5933 6.00001C16.7964 5.98335 13.6535 6.00001 12.9696 6.00001C12.2917 6.00001 9.6267 5.97135 8.011 5.97378C6.3953 5.97621 6.63065 6.14747 6.53956 6.25954C6.39846 6.43313 7.34583 6.86797 7.36598 7.08013C7.30551 7.138 7.2652 7.17657 7.2652 7.19586C6.57987 8.00595 5.97517 8.97034 5.43093 10.089H5.00764C4.70529 10.089 4.44325 10.3205 4.44325 10.6291V10.8413C4.44325 11.0341 4.60451 11.1884 4.80607 11.1884C4.58435 11.5935 4.44325 12.0564 4.36262 12.5386L4.32231 12.7315L4.30215 14.1781V14.4674C4.30215 14.5445 4.10059 14.7181 4.10059 14.8724V14.9689H5.6325C5.99532 14.9303 6.29767 15.0653 6.53956 15.2775ZM6.33799 12.6736L6.27752 11.9021H9.58386C9.54355 12.1528 9.26072 12.5772 9.20025 12.635C9.13978 12.6736 9.09947 12.6736 9.09947 12.6736H6.33799ZM16.235 14.4288C15.852 14.5638 14.8845 14.5831 13.9976 14.5831C13.796 14.5831 13.5944 14.5831 13.413 14.5831H13.3929C13.2518 14.5831 13.0905 14.5831 12.9696 14.5831C12.8486 14.5831 12.7075 14.5831 12.5463 14.5831H12.5261C12.3447 14.5831 12.1431 14.5831 11.9416 14.5831C11.0547 14.5831 10.0871 14.5638 9.70417 14.4288C9.22041 14.2552 9.05915 13.2908 9.01884 12.8665H9.11962C9.11962 12.8665 9.11962 12.8665 9.13978 12.8665C9.18009 12.8665 9.22041 12.8665 9.30103 12.8086C9.3615 13.4258 9.54291 14.0816 9.80495 14.1781C10.2282 14.3131 11.5384 14.3131 12.506 14.3131H12.5463C12.6672 14.3131 12.768 14.3131 12.8688 14.3131H12.9696H13.0704C13.1711 14.3131 13.2719 14.3131 13.3929 14.3131H13.413C14.4007 14.3131 15.7109 14.3324 16.1342 14.1781C16.4365 14.0816 16.5978 13.2908 16.6381 12.8086C16.6986 12.8472 16.759 12.8665 16.7994 12.8665H16.8195H16.9203C16.88 13.3101 16.7187 14.2745 16.235 14.4288ZM11.1958 13.7537V12.6736C11.1958 12.5579 11.2966 12.4614 11.4175 12.4614H14.562C14.6829 12.4614 14.7837 12.5579 14.7837 12.6736V13.7537C14.7837 13.8694 14.6829 13.9659 14.562 13.9659H11.4175C11.2966 13.9659 11.1958 13.8694 11.1958 13.7537ZM19.6213 12.6736H16.8598C16.8598 12.6736 16.7994 12.6736 16.759 12.635C16.6986 12.5772 16.3984 11.9021 16.3984 11.9021H19.6616L19.6213 12.6736ZM20.7299 10.9184C20.7702 10.9763 20.8307 11.0534 20.9113 11.1884C21.0323 11.4199 21.1331 11.6513 21.2137 11.9021H19.9841C20.0648 11.1884 20.5888 10.9377 20.7299 10.9184ZM19.9841 11.9021H21.2137C21.2338 12.0178 21.3346 12.4229 21.3548 12.5386L21.3749 12.6736H19.9237L19.9841 11.9021ZM7.62802 7.09942C8.47461 7.00298 10.8934 6.86797 12.9696 6.86797C15.0054 6.86797 17.4041 7.00298 18.3111 7.09942C18.3716 7.138 18.4119 7.17657 18.4321 7.21515C17.6459 7.15728 15.1263 7.02227 12.9696 7.02227C10.8128 7.02227 8.31335 7.15728 7.50708 7.19586C7.54739 7.17657 7.58771 7.138 7.62802 7.09942ZM6.76128 9.54897L7.56755 7.94808C7.66833 7.73592 7.80943 7.62019 7.99084 7.54304H8.011H8.03116C8.17225 7.50446 8.37382 7.48518 8.6157 7.46589C8.6157 7.46589 9.54292 7.35016 11.3369 7.35016C11.357 7.35016 11.357 7.36945 11.3772 7.38874C11.3772 7.38874 11.3772 7.38874 11.3772 7.40802C11.4175 7.46589 11.4578 7.52375 11.5586 7.52375C11.6795 7.52375 11.7803 7.52375 11.9013 7.52375C12.2238 7.52375 12.5664 7.50446 12.9897 7.50446C13.413 7.50446 13.7355 7.50446 14.0782 7.52375C14.1991 7.52375 14.2999 7.52375 14.4209 7.52375C14.5216 7.52375 14.5821 7.4466 14.6023 7.40802C14.6023 7.40802 14.6023 7.40802 14.6023 7.38874C14.6224 7.36945 14.6224 7.35016 14.6426 7.35016C16.4365 7.35016 17.3436 7.46589 17.3637 7.46589C17.6459 7.48518 17.8273 7.52375 17.9886 7.56233C18.17 7.63948 18.291 7.75521 18.3917 7.96737L19.198 9.56826C19.3391 9.85758 19.3391 10.1469 19.1779 10.3784C19.0569 10.5519 18.8755 10.687 18.6739 10.7641C18.6135 10.7834 18.5328 10.7834 18.4724 10.7834C18.4522 10.7834 16.497 10.7641 14.5216 10.7641C14.4209 10.7641 14.2798 10.6677 14.1387 10.5519C14.0177 10.4748 13.8968 10.3591 13.796 10.3205C13.7557 10.3012 13.7154 10.2819 13.6751 10.2819C13.4936 10.2819 13.3727 10.2626 13.2316 10.2626H12.9897H12.7478C12.6067 10.2626 12.4858 10.2819 12.3044 10.2819C12.2641 10.2819 12.2439 10.3012 12.2036 10.3205C12.1028 10.3591 11.9819 10.4555 11.8609 10.5519C11.7198 10.6484 11.5787 10.7641 11.478 10.7641C9.5026 10.7641 7.54739 10.8027 7.52724 10.8027C7.48692 10.8027 7.42645 10.8027 7.38614 10.7834C7.16442 10.7255 6.94269 10.5905 6.82175 10.3976C6.64034 10.1276 6.62018 9.83829 6.76128 9.54897ZM12.9696 11.2656C15.2271 11.2656 18.9158 11.3042 19.8229 11.3235C19.7422 11.4778 19.6818 11.6706 19.6616 11.9021H13.0704H6.27752C6.25736 11.6706 6.19689 11.4778 6.11626 11.3235C7.02332 11.3235 10.712 11.2656 12.9696 11.2656ZM5.04795 11.1884C5.12858 11.0534 5.16889 10.9763 5.22937 10.9184C5.39062 10.9377 5.9147 11.1884 5.97517 11.9214H4.7456C4.82623 11.6706 4.92701 11.4199 5.04795 11.1884ZM4.60451 12.5386C4.62466 12.4229 4.72545 12.0371 4.7456 11.9214H5.97517L6.03564 12.6736H4.58435L4.60451 12.5386Z" fill="white"/>
<path d="M9.82517 17.7654C9.70423 17.7654 9.58329 17.7075 9.48251 17.6304C9.48251 17.6497 9.48251 17.6689 9.48251 17.6882C9.48251 18.0161 9.20031 18.2669 8.8778 18.2669C8.53514 18.2669 8.2731 17.9968 8.2731 17.6882C8.2731 17.6497 8.2731 17.6111 8.29326 17.5918C8.21263 17.7075 8.07153 17.7847 7.91028 17.7847H7.74902C7.76918 18.1897 8.03122 18.4983 8.37388 18.4983H9.46235C9.80501 18.4983 10.0872 18.1704 10.0872 17.7847H9.82517V17.7654Z" fill="white"/>
</svg>
