<svg width="26" height="26" viewBox="0 0 26 26" fill="none" xmlns="http://www.w3.org/2000/svg">
<path d="M13 26C20.1797 26 26 20.1797 26 13C26 5.8203 20.1797 0 13 0C5.8203 0 0 5.8203 0 13C0 20.1797 5.8203 26 13 26Z" fill="#9D998E"/>
<path d="M18.7998 19.7998C18.7998 19.9998 18.9998 20.0998 19.1998 20.0998H21.6998C21.8998 20.0998 21.9998 19.9998 22.0998 19.7998L22.1998 19.2998L18.7998 19.7998Z" fill="white"/>
<path d="M9.79961 19.5001L8.69961 19.8001C8.39961 19.9001 8.39961 20.1001 8.69961 20.5001C8.99961 20.9001 9.29961 21.1001 9.79961 21.3001C10.2996 21.5001 10.4996 21.4001 10.4996 21.1001V20.0001C10.3996 19.7001 10.0996 19.4001 9.79961 19.5001Z" fill="white"/>
<path d="M8.2002 18.8C8.2002 19.4 8.3002 19.5 8.6002 19.4L9.6002 19C9.9002 18.9 10.1002 18.5 9.9002 18.2L9.3002 17.3C9 16.9999 8.6002 17.5 8.6002 17.5C8.6002 17.5 8.2002 18.3 8.2002 18.8Z" fill="white"/>
<path d="M11.9 19.0001L12.9 19.4001C13.2 19.5001 13.3 19.3001 13.3 18.8001C13.3 18.3001 13.2 17.9001 12.9 17.5001C12.6 17.0001 12.4 17.0001 12.2 17.2001L11.6 18.1001C11.5 18.4001 11.6 18.9001 11.9 19.0001Z" fill="white"/>
<path d="M12.8 19.8001L11.7 19.5001C11.4 19.4001 11 19.7001 11 20.0001V21.1001C11 21.4001 11.2 21.4001 11.7 21.3001C12.2 21.1001 12.5 20.9001 12.8 20.5001C13.1 20.1001 13.1 19.9001 12.8 19.8001Z" fill="white"/>
<path d="M10.2999 17.8002C10.4999 18.1002 10.8999 18.1002 11.1999 17.8002L11.7715 16.9002C11.7715 16.9002 11.8899 16.5002 11.3899 16.4002C10.8899 16.3002 10.5999 16.3002 10.1999 16.4002C9.69989 16.6002 9.59989 16.7002 9.69989 16.9002L10.2999 17.8002Z" fill="white"/>
<path d="M6.7 20.6998C6.7 20.6998 6.7 20.5998 6.7 20.4998C6.7 20.3998 6.7 20.2998 6.7 20.1998H7.4C7.9 21.5998 9.2 22.4998 10.8 22.4998C10.8 22.4998 10.8 22.4998 10.9 22.4998C12.8 22.4998 14.3 21.0998 14.5 19.1998H14.9C14.9 19.4998 15 19.7998 15.1 19.7998C15.2 19.7998 15.2 19.7998 15.4 19.7998C15.5 19.7998 15.6 19.7998 15.8 19.7998C15.9 19.7998 16.6 19.6998 17.5 19.5998C17.5 19.5998 17.5 19.5998 17.6 19.5998C17.9 19.5998 18.2 19.4998 18.5 19.4998C19 19.3998 19.5 19.3998 19.7 19.3998H19.8C20.1 19.3998 20.8 19.2998 21.3 19.1998C21.9 19.0998 22.5 19.0998 22.5 18.9998C22.7 18.9998 22.7 18.8998 22.8 18.7998C22.8 18.7998 22.8 18.6998 22.9 18.6998C23 18.4998 22.9 18.2998 22.8 18.0998V17.9998C22.8 17.8998 22.8 17.3998 22.9 17.0998C23 16.7998 22.7 16.0998 22.6 15.9998C22.5 15.8998 22 15.6998 21.8 15.5998C21.8 15.3998 21.8 14.8998 21.8 13.7998C21.8 13.6998 21.8 13.5998 21.8 13.3998C21.6 13.3998 20.6 13.3998 20.2 13.3998C19.7 13.3998 19.2 13.2998 19.2 12.6998C19.2 11.9998 20.1 11.6998 20.7 11.6998C21.1 11.6998 21.7 11.6998 21.9 11.6998C21.9 11.3998 21.9 11.1998 21.9 11.1998C21.9 11.0998 21.8 10.8998 21.4 10.7998C21.2 10.7998 22.1 9.9998 21.8 9.9998C21.5 9.9998 20.7 9.8998 20.4 9.9998C20.1 10.0998 19.4 10.7998 19.3 10.7998C18.5 10.7998 17.7 10.7998 17.1 10.7998C14.5 9.3998 9.2 6.9998 7.4 6.8998C6.4 6.7998 4.2 6.7998 1.6 6.7998C1.4 7.0998 1.3 7.4998 1.1 7.7998C2.2 7.7998 3.1 7.6998 3.8 7.6998C4 7.6998 4.3 7.6998 4.7 7.6998C4.8 7.6998 4.9 7.6998 5 7.7998C6.1 9.2998 7 10.8998 7.3 11.5998C7.3 11.6998 7.3 11.6998 7.2 11.6998L0.1 11.9998C0 12.2998 0 12.6998 0 12.9998C0 15.8998 0.9 18.4998 2.5 20.6998C3.2 20.6998 3.7 20.6998 3.7 20.6998C3.8 20.6998 6.6 20.8998 6.7 20.6998ZM13.7 18.8998C13.7 20.4998 12.4 21.8998 10.7 21.8998C9 21.8998 7.7 20.5998 7.7 18.8998C7.7 17.1998 9 15.8998 10.7 15.8998C12.4 15.8998 13.7 17.2998 13.7 18.8998ZM6.4 8.1998C6.2 7.7998 6.8 7.6998 7 7.7998C7 7.7998 9.8 9.2998 10.3 9.6998C10.9 10.0998 10.6 10.6998 10.6 10.9998C10.6 11.2998 10.3 11.5998 9.9 11.5998H9C8.8 11.5998 8.6 11.4998 8.4 11.2998L6.4 8.1998Z" fill="white"/>
</svg>
