<svg width="26" height="26" viewBox="0 0 26 26" fill="none" xmlns="http://www.w3.org/2000/svg">
<path d="M13 26C20.1797 26 26 20.1797 26 13C26 5.8203 20.1797 0 13 0C5.8203 0 0 5.8203 0 13C0 20.1797 5.8203 26 13 26Z" fill="#9D998E"/>
<path d="M21.8998 15.0002C21.9998 15.0002 21.9998 15.0002 21.9998 14.9002L22.0998 14.7002L20.7998 14.9002C20.7998 15.0002 20.8998 15.0002 20.8998 15.0002H21.8998Z" fill="white"/>
<path d="M23.7004 14.2998C23.7004 14.1998 23.7004 13.9998 23.7004 13.8998C23.7004 13.7998 23.6004 13.4998 23.6004 13.3998C23.5004 13.3998 23.3004 13.2998 23.3004 13.1998C23.3004 13.0998 23.3004 12.8998 23.3004 12.3998C23.3004 11.7998 23.2004 11.6998 23.1004 11.5998C23.1004 11.5998 23.0004 11.4998 22.8004 11.1998L22.6004 10.8998C22.3004 10.5998 21.4004 9.69981 21.3004 9.59981C21.5004 9.49981 21.7004 9.3998 21.7004 9.2998C21.6004 9.1998 21.2004 9.1998 20.3004 9.1998C20.2004 9.1998 20.1004 9.1998 19.9004 9.1998C19.7004 9.0998 19.5004 8.9998 19.4004 8.9998C18.5004 8.8998 14.4004 8.8998 13.8004 8.9998C13.5004 9.0998 13.4004 9.0998 13.2004 9.1998C12.7004 9.1998 12.6004 9.2998 12.4004 9.2998H12.3004C12.1004 9.2998 12.0004 9.3998 11.9004 9.3998C11.8004 9.3998 11.7004 9.4998 11.7004 9.4998C11.5004 9.4998 11.1004 9.5998 10.8004 9.6998C10.5004 9.7998 8.40039 11.0998 7.60039 11.5998H7.40039C7.30039 11.5998 7.30039 11.5998 7.20039 11.5998L6.70039 11.7998C6.60039 11.7998 6.50039 11.7998 6.40039 11.7998C6.10039 11.7998 5.50039 11.7998 5.30039 11.7998C5.20039 11.9998 5.00039 11.9998 4.90039 12.0998H4.80039C4.80039 12.0998 4.80039 12.0998 4.70039 12.0998C4.60039 12.0998 4.20039 12.1998 3.80039 12.2998C3.20039 12.3998 2.40039 12.5998 2.10039 12.7998C1.80039 12.9998 1.80039 13.3998 1.80039 13.4998H1.70039C1.60039 13.4998 1.50039 13.5998 1.50039 13.5998C1.40039 13.6998 1.40039 13.7998 1.40039 13.9998C1.40039 14.0998 1.50039 14.4998 1.70039 14.7998C1.70039 14.8998 1.80039 14.9998 1.80039 14.9998L1.70039 15.0998C1.70039 15.1998 1.80039 15.2998 1.80039 15.2998C1.80039 15.2998 1.90039 15.2998 2.20039 15.2998C2.40039 15.2998 2.60039 15.2998 2.70039 15.2998L3.90039 15.3998C3.90039 15.3998 3.90039 15.3998 4.00039 15.3998C4.10039 15.3998 4.00039 15.2998 4.00039 15.2998H4.40039C4.70039 15.7998 5.20039 16.0998 5.80039 16.0998C6.40039 16.0998 6.90039 15.7998 7.20039 15.2998H7.70039C7.70039 15.3998 7.70039 15.3998 7.80039 15.3998C7.80039 15.3998 7.90039 15.3998 8.00039 15.3998C8.40039 15.3998 9.20039 15.3998 10.6004 15.2998C11.3004 15.2998 12.0004 15.2998 12.2004 15.2998C13.0004 15.2998 15.6004 15.2998 15.7004 15.2998C15.7004 15.2998 16.9004 15.3998 17.0004 15.2998C17.0004 15.2998 17.0004 15.2998 17.0004 15.1998V15.0998H17.3004C17.5004 15.6998 18.1004 16.0998 18.7004 16.0998C19.5004 16.0998 20.2004 15.4998 20.3004 14.6998H20.5004C20.5004 14.7998 20.5004 14.9998 20.6004 14.9998H20.7004C20.7004 14.9998 20.8004 14.9998 20.9004 14.9998C21.0004 14.9998 21.2004 14.9998 21.6004 14.8998C21.7004 14.8998 21.8004 14.8998 22.0004 14.8998C22.2004 14.8998 22.4004 14.7998 22.5004 14.7998C22.6004 14.7998 22.9004 14.6998 23.2004 14.6998C23.4004 14.6998 23.7004 14.5998 23.7004 14.5998C23.8004 14.5998 23.8004 14.4998 23.8004 14.4998C23.8004 14.4998 23.8004 14.4998 23.8004 14.3998C23.8004 14.4998 23.8004 14.3998 23.7004 14.2998ZM5.80039 15.7998C5.10039 15.7998 4.50039 15.1998 4.50039 14.4998C4.50039 13.7998 5.10039 13.1998 5.80039 13.1998C6.50039 13.1998 7.10039 13.7998 7.10039 14.4998C7.10039 15.1998 6.50039 15.7998 5.80039 15.7998ZM16.3004 9.1998C17.6004 9.1998 19.0004 9.1998 19.1004 9.1998C19.2004 9.1998 19.3004 9.2998 19.3004 9.3998C18.6004 9.3998 17.7004 9.2998 16.4004 9.2998L16.3004 9.1998ZM14.2004 9.1998C14.5004 9.1998 14.9004 9.1998 16.0004 9.1998C16.0004 9.1998 16.1004 9.2998 16.1004 9.3998C15.2004 9.3998 14.3004 9.3998 13.8004 9.4998C13.8004 9.2998 14.1004 9.1998 14.2004 9.1998ZM13.4004 10.0998C13.4004 10.3998 13.3004 10.6998 13.2004 11.0998L13.1004 11.1998L12.9004 11.6998L10.3004 11.7998L10.1004 11.3998C10.1004 11.3998 10.0004 11.2998 10.0004 11.3998C10.0004 11.3998 9.90039 11.4998 10.0004 11.4998L10.1004 11.7998H9.90039C9.90039 11.6998 9.90039 11.5998 9.90039 11.5998C9.90039 11.3998 9.80039 11.2998 9.60039 11.2998C9.50039 11.2998 9.40039 11.2998 9.30039 11.3998C9.50039 11.2998 9.60039 11.1998 9.70039 11.0998C10.1004 10.7998 10.4004 10.5998 10.8004 10.3998C11.2004 10.1998 11.6004 9.9998 12.0004 9.9998C12.1004 9.9998 12.3004 9.9998 12.5004 9.9998C12.7004 9.9998 12.9004 9.9998 13.2004 9.9998C13.4004 9.8998 13.4004 9.99981 13.4004 10.0998ZM17.1004 11.5998L13.9004 11.6998L14.0004 11.5998C14.1004 11.3998 14.0004 11.0998 13.8004 11.0998H13.7004H13.6004C13.7004 10.6998 13.7004 10.2998 13.7004 10.0998C13.7004 9.99981 13.8004 9.9998 13.8004 9.9998C14.5004 9.9998 15.1004 9.9998 15.5004 9.9998C15.6004 9.9998 15.7004 9.9998 15.9004 9.9998C15.9004 9.9998 16.0004 9.99981 16.0004 10.0998C16.7004 10.5998 17.0004 11.2998 17.1004 11.5998C17.2004 11.5998 17.2004 11.5998 17.1004 11.5998ZM18.7004 15.7998C18.0004 15.7998 17.4004 15.1998 17.4004 14.4998C17.4004 13.7998 18.0004 13.1998 18.7004 13.1998C19.4004 13.1998 20.0004 13.7998 20.0004 14.4998C20.0004 15.1998 19.4004 15.7998 18.7004 15.7998ZM21.3004 11.3998C20.6004 11.3998 18.9004 11.4998 18.2004 11.4998C18.0004 11.4998 17.8004 11.3998 17.7004 11.1998C17.6004 10.8998 17.3004 10.5998 17.1004 10.1998C17.0004 10.0998 17.1004 9.9998 17.2004 9.9998C17.9004 9.9998 18.9004 9.9998 20.1004 9.9998C20.2004 9.9998 20.4004 10.0998 20.5004 10.1998L21.4004 11.1998C21.5004 11.1998 21.4004 11.3998 21.3004 11.3998Z" fill="white"/>
</svg>
