<svg width="26" height="26" viewBox="0 0 26 26" fill="none" xmlns="http://www.w3.org/2000/svg">
<path d="M13 26C20.1797 26 26 20.1797 26 13C26 5.8203 20.1797 0 13 0C5.8203 0 0 5.8203 0 13C0 20.1797 5.8203 26 13 26Z" fill="#9D998E"/>
<path d="M21.5092 20.1148C21.6983 20.1148 21.7928 20.0202 21.8637 19.8548L22.0056 19.4057C22.0056 19.382 22.0056 19.382 22.0056 19.3584L18.791 19.7839C18.791 19.9257 18.9328 20.0439 19.1456 20.0439L21.5092 20.1148Z" fill="white"/>
<path d="M9.33648 19.0985L9.69102 18.9567C10.0219 18.8385 10.1401 18.4367 9.95102 18.1531L9.38375 17.2549C9.2183 17.0185 9.0292 17.0894 8.74557 17.5149C8.46193 17.9403 8.34375 18.3185 8.34375 18.744C8.36739 19.2876 8.41466 19.4294 8.6983 19.3349L9.33648 19.0985Z" fill="white"/>
<path d="M9.88016 19.5L8.86379 19.7836C8.58015 19.8546 8.60379 20.0673 8.91106 20.4455C9.21834 20.8473 9.54925 21.06 9.95106 21.2018C10.4711 21.3673 10.6129 21.3437 10.6129 21.0364L10.5656 19.9727C10.542 19.6418 10.2111 19.4055 9.88016 19.5Z" fill="white"/>
<path d="M12.835 19.7841L11.8187 19.5004C11.4878 19.4059 11.1568 19.6422 11.1332 19.9968L11.0859 21.0604C11.0859 21.3441 11.275 21.3913 11.7478 21.2259C12.2205 21.0604 12.5278 20.8241 12.8114 20.4695C13.095 19.9968 13.1187 19.855 12.835 19.7841Z" fill="white"/>
<path d="M11.1566 17.9402L11.9129 16.9711C12.0784 16.7584 11.9602 16.5929 11.4875 16.4511C11.0147 16.3093 10.6129 16.3093 10.1875 16.4511C9.66747 16.6402 9.57292 16.7347 9.73838 16.9711L10.4002 17.7984C10.6129 18.082 11.0384 18.082 11.2511 17.7984L11.1566 17.9402Z" fill="white"/>
<path d="M12.3149 17.2546L11.724 18.1528C11.5349 18.4365 11.6531 18.8383 11.984 18.9565L11.8186 18.9092L12.9768 19.3346C13.2368 19.4292 13.3549 19.2637 13.3313 18.7674C13.3077 18.271 13.1895 17.8928 12.9295 17.5383C12.5986 17.0892 12.4804 17.0183 12.3149 17.2546Z" fill="white"/>
<path d="M22.36 18.0583C22.3364 18.0111 22.3364 17.9874 22.3364 17.9874C22.3364 17.9165 22.3836 17.3965 22.4309 17.1129C22.5018 16.782 22.2891 16.1438 22.1 16.0256C21.9818 15.9311 21.5327 15.742 21.3436 15.6474C21.3436 15.4583 21.3436 14.962 21.3436 13.922C21.3436 13.8511 21.3436 13.8038 21.3436 13.7329H19.2873C19.2164 13.7329 18.72 13.5438 18.6964 13.2129C18.6727 12.882 18.6964 12.9056 18.6964 12.9056C18.7436 12.4565 19.0745 12.1256 19.0982 12.102C19.1455 12.0547 19.2636 11.9601 19.3818 11.9365C19.5709 11.9129 20.28 11.8892 20.5636 11.9601C20.7055 11.9838 20.6818 12.0311 20.8 12.0547C20.9182 12.0783 20.9182 12.0783 20.9182 12.0783C20.8709 11.9838 20.6818 11.7474 20.3036 11.2983L19.8309 10.6838C19.2164 9.92742 17.2073 8.03651 16.8055 7.65832C17.2073 7.51651 17.6564 7.25651 17.6564 7.04378V6.97287L17.6091 6.9256C17.4909 6.80742 16.4273 6.76014 14.4891 6.76014C14.2527 6.73651 13.9691 6.71287 13.6382 6.68923C13.2836 6.47651 12.8345 6.26378 12.5273 6.24014C10.8964 6.07469 5.24727 5.95651 2.00909 6.07469C1.93818 6.19287 1.86727 6.28742 1.79636 6.4056C2.45818 6.4056 3.40364 6.38196 4.79818 6.38196C4.84545 6.38196 4.96364 6.6656 4.96364 6.73651C3.73455 6.73651 2.55273 6.76014 1.56 6.78378C1.34727 7.1856 1.13455 7.61105 0.969091 8.03651C2.19818 7.98923 3.28545 7.9656 4.11273 7.9656C4.34909 7.9656 4.63273 7.9656 5.01091 7.9656C5.10545 7.9656 5.2 8.01287 5.27091 8.08378C6.38182 9.59651 7.18545 11.0856 7.56364 11.8183C7.58727 11.8892 7.54 11.9601 7.49273 11.9601L0.26 12.1729L0.449091 11.9129C0.638182 11.5111 0.52 11.0856 0.189091 10.802C0.0709091 11.5347 0 12.2674 0 13.0001C0 15.8365 0.921818 18.4601 2.45818 20.611C3.35636 20.611 3.99455 20.611 4.04182 20.611C4.06545 20.611 6.78364 20.8474 6.87818 20.5874C6.90182 20.5401 6.87818 20.4929 6.87818 20.422C6.87818 20.3511 6.87818 20.2565 6.85455 20.1147L7.49273 20.0911C7.98909 21.462 9.19454 22.3601 10.7545 22.3601C10.7782 22.3601 10.8018 22.3601 10.8255 22.3601C12.6927 22.3365 14.1818 20.9656 14.3473 19.1692L14.7727 19.1456C14.7964 19.382 14.8673 19.7365 15.0091 19.7601C15.0564 19.7838 15.1509 19.7601 15.2691 19.7601C15.3636 19.7365 15.5055 19.7365 15.6236 19.7365C15.7418 19.7365 16.3564 19.6656 17.2309 19.5711C17.2545 19.5711 17.2782 19.5711 17.2782 19.5711V19.5474C17.5382 19.5238 17.8218 19.4765 18.1055 19.4529C18.6018 19.382 19.0273 19.3347 19.2164 19.3111C19.2164 19.3111 19.24 19.3111 19.2636 19.3111H19.3345C19.6655 19.2638 20.28 19.1929 20.8236 19.122C21.3909 19.0511 21.9582 18.9801 22.0291 18.9801C22.1945 18.9801 22.2655 18.862 22.2891 18.7674C22.3127 18.7201 22.3364 18.6965 22.36 18.6492C22.5255 18.4838 22.4309 18.2238 22.36 18.0583ZM5.62545 6.38196C8.65091 6.35832 11.7473 6.4056 11.9836 6.47651C12.1018 6.50014 12.3382 6.80742 12.3855 6.85469C10.92 6.80742 8.76909 6.71287 5.74364 6.71287C5.69636 6.6656 5.60182 6.4056 5.62545 6.38196ZM10.8491 21.7692C9.26545 21.7692 7.96545 20.4929 7.96545 18.8856C7.96545 17.302 9.24182 16.002 10.8491 16.002C12.4327 16.002 13.7327 17.2783 13.7327 18.8856C13.7091 20.4692 12.4327 21.7692 10.8491 21.7692ZM10.66 15.1038C10.6836 15.1038 10.66 15.1038 10.66 15.1038V15.1038ZM16.8764 11.4165C15.2691 11.4638 11.3927 11.5583 9.80909 11.6056C9.38364 11.6056 9.00545 11.3929 8.79273 11.0147C8.46182 10.4474 7.98909 9.64378 7.39818 8.81651C7.25636 8.60378 7.39818 8.29651 7.65818 8.29651C9.33636 8.29651 11.5345 8.29651 14.2291 8.29651C14.5364 8.29651 14.8436 8.43832 15.0564 8.65105L17.1127 10.8492C17.3018 11.0856 17.16 11.4165 16.8764 11.4165Z" fill="white"/>
</svg>
