<svg width="730" height="42" viewBox="0 0 730 42" fill="none" xmlns="http://www.w3.org/2000/svg">
<circle cx="709" cy="21" r="21" fill="#82CA9C"/>
<rect x="698" y="21.4854" width="3" height="11" transform="rotate(-45 698 21.4854)" fill="white"/>
<rect x="717.799" y="13" width="3" height="20" transform="rotate(45 717.799 13)" fill="white"/>
<circle cx="537" cy="21" r="21" fill="#82CA9C"/>
<path d="M537.959 28V25.282H531.803L531.353 23.32L538.265 15.31H540.605V23.032H542.297V25.282H540.605V28H537.959ZM534.611 23.032H537.959V19.108L534.611 23.032Z" fill="white"/>
<circle cx="365" cy="21" r="21" fill="#82CA9C"/>
<path d="M365.008 28.216C362.956 28.216 361.318 27.49 360.094 26.038L362.002 24.22C362.902 25.228 363.916 25.732 365.044 25.732C365.572 25.732 365.998 25.594 366.322 25.318C366.658 25.03 366.826 24.646 366.826 24.166C366.826 23.65 366.61 23.254 366.178 22.978C365.746 22.702 365.14 22.564 364.36 22.564H363.208L362.776 20.8L365.782 17.776H360.832V15.4H369.346V17.488L366.16 20.53C368.416 20.914 369.544 22.102 369.544 24.094C369.544 25.306 369.13 26.296 368.302 27.064C367.486 27.832 366.388 28.216 365.008 28.216Z" fill="white"/>
<circle cx="193" cy="21" r="21" fill="#82CA9C"/>
<path d="M188.275 28V25.804L192.469 22.366C193.297 21.682 193.867 21.136 194.179 20.728C194.491 20.308 194.647 19.846 194.647 19.342C194.647 18.826 194.491 18.424 194.179 18.136C193.867 17.848 193.459 17.704 192.955 17.704C192.487 17.704 192.061 17.836 191.677 18.1C191.305 18.352 190.873 18.784 190.381 19.396L188.437 17.83C189.097 16.93 189.775 16.27 190.471 15.85C191.179 15.43 192.067 15.22 193.135 15.22C194.443 15.22 195.493 15.58 196.285 16.3C197.077 17.008 197.473 17.956 197.473 19.144C197.473 19.828 197.341 20.446 197.077 20.998C196.813 21.538 196.471 22.018 196.051 22.438C195.631 22.846 195.001 23.374 194.161 24.022L192.109 25.606H197.599V28H188.275Z" fill="white"/>
<circle cx="21" cy="21" r="21" fill="#82CA9C"/>
<path d="M20.4071 28V18.118L18.2111 18.658L17.6351 16.39L21.2531 15.31H23.1431V28H20.4071Z" fill="white"/>
<line x1="214" y1="20.5" x2="344" y2="20.5" stroke="black"/>
<line x1="42" y1="20.5" x2="172" y2="20.5" stroke="black"/>
<line x1="386" y1="20.5" x2="516" y2="20.5" stroke="black"/>
<line x1="558" y1="20.5" x2="688" y2="20.5" stroke="black"/>
</svg>
