<svg width="559" height="42" viewBox="0 0 559 42" fill="none" xmlns="http://www.w3.org/2000/svg">
<circle cx="21" cy="21" r="21" fill="#82CA9C"/>
<circle cx="188" cy="21" r="21" fill="#82CA9C"/>
<circle cx="378" cy="21" r="21" fill="#82CA9C"/>
<circle cx="538" cy="21" r="21" fill="#82CA9C"/>
<path d="M20.4071 28V18.118L18.2111 18.658L17.6351 16.39L21.2531 15.31H23.1431V28H20.4071Z" fill="white"/>
<path d="M183.275 28V25.804L187.469 22.366C188.297 21.682 188.867 21.136 189.179 20.728C189.491 20.308 189.647 19.846 189.647 19.342C189.647 18.826 189.491 18.424 189.179 18.136C188.867 17.848 188.459 17.704 187.955 17.704C187.487 17.704 187.061 17.836 186.677 18.1C186.305 18.352 185.873 18.784 185.381 19.396L183.437 17.83C184.097 16.93 184.775 16.27 185.471 15.85C186.179 15.43 187.067 15.22 188.135 15.22C189.443 15.22 190.493 15.58 191.285 16.3C192.077 17.008 192.473 17.956 192.473 19.144C192.473 19.828 192.341 20.446 192.077 20.998C191.813 21.538 191.471 22.018 191.051 22.438C190.631 22.846 190.001 23.374 189.161 24.022L187.109 25.606H192.599V28H183.275Z" fill="white"/>
<path d="M378.008 28.216C375.956 28.216 374.318 27.49 373.094 26.038L375.002 24.22C375.902 25.228 376.916 25.732 378.044 25.732C378.572 25.732 378.998 25.594 379.322 25.318C379.658 25.03 379.826 24.646 379.826 24.166C379.826 23.65 379.61 23.254 379.178 22.978C378.746 22.702 378.14 22.564 377.36 22.564H376.208L375.776 20.8L378.782 17.776H373.832V15.4H382.346V17.488L379.16 20.53C381.416 20.914 382.544 22.102 382.544 24.094C382.544 25.306 382.13 26.296 381.302 27.064C380.486 27.832 379.388 28.216 378.008 28.216Z" fill="white"/>
<path d="M538.959 28V25.282H532.803L532.353 23.32L539.265 15.31H541.605V23.032H543.297V25.282H541.605V28H538.959ZM535.611 23.032H538.959V19.108L535.611 23.032Z" fill="white"/>
<line x1="209" y1="21.5" x2="357" y2="21.5" stroke="black"/>
<line x1="42" y1="21.5" x2="167" y2="21.5" stroke="black"/>
<line x1="399" y1="21.501" x2="517" y2="21.501" stroke="black"/>
</svg>
