<svg width="118" height="29" viewBox="0 0 118 29" fill="none" xmlns="http://www.w3.org/2000/svg">
<rect width="118" height="29" rx="10" fill="#FFAE00"/>
<path d="M22.5927 20.14C20.9873 20.14 19.6013 19.6173 18.4347 18.572L19.7087 17.046C20.67 17.8393 21.6453 18.236 22.6347 18.236C23.0733 18.236 23.4187 18.152 23.6707 17.984C23.9227 17.816 24.0487 17.5827 24.0487 17.284C24.0487 17.004 23.918 16.78 23.6567 16.612C23.3953 16.4347 22.868 16.2433 22.0747 16.038C21.5147 15.898 21.062 15.7627 20.7167 15.632C20.3713 15.492 20.04 15.31 19.7227 15.086C19.4147 14.862 19.186 14.582 19.0367 14.246C18.8967 13.9007 18.8267 13.49 18.8267 13.014C18.8267 12.1273 19.144 11.4133 19.7787 10.872C20.4227 10.3307 21.2487 10.06 22.2567 10.06C23.6473 10.06 24.8607 10.4753 25.8967 11.306L24.7767 12.93C23.8527 12.286 23.0033 11.964 22.2287 11.964C21.8273 11.964 21.5147 12.048 21.2907 12.216C21.076 12.3747 20.9687 12.5847 20.9687 12.846C20.9687 13.1633 21.104 13.4013 21.3747 13.56C21.6453 13.7187 22.2147 13.91 23.0827 14.134C24.1467 14.414 24.9307 14.7733 25.4347 15.212C25.9387 15.6507 26.1907 16.2807 26.1907 17.102C26.1907 18.054 25.8593 18.8007 25.1967 19.342C24.5433 19.874 23.6753 20.14 22.5927 20.14ZM28.0617 20V10.2H30.2177V14.078H34.1937V10.2H36.3497V20H34.1937V16.066H30.2177V20H28.0617ZM47.1825 18.698C46.1931 19.678 44.9518 20.168 43.4585 20.168C41.9651 20.168 40.7238 19.678 39.7345 18.698C38.7545 17.718 38.2645 16.5187 38.2645 15.1C38.2645 13.6907 38.7591 12.496 39.7485 11.516C40.7471 10.5267 41.9931 10.032 43.4865 10.032C44.9798 10.032 46.2165 10.522 47.1965 11.502C48.1858 12.482 48.6805 13.6813 48.6805 15.1C48.6805 16.5093 48.1811 17.7087 47.1825 18.698ZM41.3585 17.284C41.9185 17.8813 42.6278 18.18 43.4865 18.18C44.3451 18.18 45.0498 17.886 45.6005 17.298C46.1511 16.7007 46.4265 15.968 46.4265 15.1C46.4265 14.2413 46.1465 13.5133 45.5865 12.916C45.0265 12.3187 44.3171 12.02 43.4585 12.02C42.5998 12.02 41.8951 12.3187 41.3445 12.916C40.7938 13.504 40.5185 14.232 40.5185 15.1C40.5185 15.9587 40.7985 16.6867 41.3585 17.284ZM50.593 20V10.2H54.597C55.7543 10.2 56.669 10.5127 57.341 11.138C58.013 11.7633 58.349 12.5893 58.349 13.616C58.349 14.708 57.9757 15.5573 57.229 16.164C56.4823 16.7613 55.535 17.06 54.387 17.06H52.749V20H50.593ZM52.749 15.142H54.457C54.989 15.142 55.4043 15.002 55.703 14.722C56.011 14.442 56.165 14.078 56.165 13.63C56.165 13.154 56.011 12.79 55.703 12.538C55.395 12.2767 54.9657 12.146 54.415 12.146H52.749V15.142ZM64.1418 20V10.2H66.1298L70.7218 16.234V10.2H72.8498V20H71.0158L66.2698 13.77V20H64.1418ZM83.6864 18.698C82.697 19.678 81.4557 20.168 79.9624 20.168C78.469 20.168 77.2277 19.678 76.2384 18.698C75.2584 17.718 74.7684 16.5187 74.7684 15.1C74.7684 13.6907 75.263 12.496 76.2524 11.516C77.251 10.5267 78.497 10.032 79.9904 10.032C81.4837 10.032 82.7204 10.522 83.7004 11.502C84.6897 12.482 85.1844 13.6813 85.1844 15.1C85.1844 16.5093 84.685 17.7087 83.6864 18.698ZM77.8624 17.284C78.4224 17.8813 79.1317 18.18 79.9904 18.18C80.849 18.18 81.5537 17.886 82.1044 17.298C82.655 16.7007 82.9304 15.968 82.9304 15.1C82.9304 14.2413 82.6504 13.5133 82.0904 12.916C81.5304 12.3187 80.821 12.02 79.9624 12.02C79.1037 12.02 78.399 12.3187 77.8484 12.916C77.2977 13.504 77.0224 14.232 77.0224 15.1C77.0224 15.9587 77.3024 16.6867 77.8624 17.284ZM89.1264 20.07L85.7804 10.2H88.0904L90.1204 16.836L92.3184 10.172H94.1664L96.3644 16.836L98.3944 10.2H100.648L97.3024 20.07H95.4264L93.2144 13.658L91.0024 20.07H89.1264Z" fill="black"/>
</svg>
